<svg width="207" height="90" viewBox="0 0 207 90" fill="none" xmlns="http://www.w3.org/2000/svg">
<path d="M0 10.8493V17.9588H10.7118V10.8493H5.13015H0Z" fill="#6667AB"/>
<path d="M0 79.274H10.7118V68.0651H0V79.274Z" fill="#6667AB"/>
<path fill-rule="evenodd" clip-rule="evenodd" d="M30.5346 79.274H10.7118H0V89.6301L30.5346 90C35.0492 90 39.2764 89.137 43.2164 87.411C47.2384 85.6849 50.7269 83.3425 53.6819 80.3836C56.6368 77.4247 58.9762 73.9726 60.6999 70.0274C61.056 69.1954 61.3753 68.353 61.6578 67.5H50.042C48.9882 69.4645 47.6569 71.2521 46.0482 72.863C44.0782 74.8356 41.7389 76.3973 39.0302 77.5479C36.4035 78.6986 33.5717 79.274 30.5346 79.274ZM51.3997 25.6849C51.234 25.2129 51.0508 24.7472 50.85 24.2877C49.7009 21.5753 48.1003 19.2329 46.0482 17.2603C44.0782 15.2877 41.7389 13.726 39.0302 12.5753C36.4035 11.4247 33.5717 10.8493 30.5346 10.8493H10.7118H5.13015H0V0H30.5346C35.0492 0 39.2764 0.863015 43.2164 2.58904C47.2384 4.31507 50.7269 6.65753 53.6819 9.61644C56.6368 12.5753 58.9762 16.0685 60.6999 20.0959C61.4877 21.8988 62.0954 23.7618 62.5231 25.6849H51.3997ZM10.7118 17.9588V68.0651H0V17.9588H10.7118Z" fill="#6667AB"/>
<path d="M62.5231 25.6849H51.3997C51.9866 27.3571 52.3535 29.1079 52.5003 30.9375H63.2362C63.1398 29.1395 62.9021 27.3886 62.5231 25.6849Z" fill="#6667AB"/>
<path d="M50.85 65.8356C50.6018 66.4038 50.3324 66.9586 50.042 67.5H61.6578C62.5537 64.7951 63.0798 61.9843 63.236 59.0678H52.5003C52.3121 61.4273 51.762 63.6832 50.85 65.8356Z" fill="#6667AB"/>
<path d="M29.387 45.4838C29.2669 45.0638 29.0869 44.6738 28.8469 44.3138C28.6219 43.9388 28.3444 43.6238 28.0144 43.3688C27.6843 43.0988 27.3093 42.8888 26.8893 42.7388C26.4843 42.5888 26.0492 42.5138 25.5842 42.5138C25.1192 42.5138 24.6766 42.5888 24.2566 42.7388C23.8516 42.8888 23.4841 43.0988 23.154 43.3688C22.824 43.6238 22.539 43.9388 22.299 44.3138C22.059 44.6738 21.8865 45.0638 21.7814 45.4838H29.387ZM25.5842 52.3013C24.7741 52.3013 24.0091 52.1513 23.289 51.8513C22.584 51.5363 21.9615 51.1163 21.4214 50.5913C20.8964 50.0513 20.4764 49.4288 20.1613 48.7238C19.8613 48.0188 19.7113 47.2613 19.7113 46.4513C19.7113 45.6413 19.8613 44.8763 20.1613 44.1563C20.4764 43.4363 20.8964 42.8138 21.4214 42.2888C21.9615 41.7638 22.584 41.3513 23.289 41.0513C24.0091 40.7363 24.7741 40.5788 25.5842 40.5788C26.3943 40.5788 27.1518 40.7363 27.8569 41.0513C28.5769 41.3513 29.1994 41.7638 29.7245 42.2888C30.2495 42.8138 30.662 43.4363 30.9621 44.1563C31.2771 44.8763 31.4346 45.6413 31.4346 46.4513C31.4346 46.5563 31.4346 46.6688 31.4346 46.7888C31.4346 46.9088 31.4196 47.1113 31.3896 47.3963H21.7814C21.8865 47.8313 22.059 48.2288 22.299 48.5888C22.539 48.9488 22.824 49.2638 23.154 49.5338C23.4841 49.8038 23.8516 50.0138 24.2566 50.1638C24.6766 50.3138 25.1192 50.3888 25.5842 50.3888C25.9442 50.3888 26.3042 50.2988 26.6643 50.1188C27.0243 49.9238 27.3693 49.6688 27.6993 49.3538L29.0494 50.7038C28.5544 51.1838 28.0069 51.5738 27.4068 51.8738C26.8218 52.1588 26.2142 52.3013 25.5842 52.3013Z" fill="#6667AB"/>
<path d="M38.1212 40.5338C38.8413 40.5338 39.5013 40.6913 40.1014 41.0063C40.7164 41.3213 41.2339 41.7488 41.654 42.2888C42.089 41.7488 42.6065 41.3213 43.2066 41.0063C43.8066 40.6913 44.4742 40.5338 45.2092 40.5338C45.8243 40.5338 46.4018 40.6538 46.9418 40.8938C47.4969 41.1338 47.9769 41.4563 48.3819 41.8613C48.787 42.2663 49.1095 42.7463 49.3495 43.3013C49.5895 43.8413 49.7095 44.4188 49.7095 45.0338V52.0313H47.7744V45.0338C47.7744 44.6738 47.7069 44.3438 47.5719 44.0438C47.4369 43.7288 47.2493 43.4588 47.0093 43.2338C46.7843 42.9938 46.5143 42.8063 46.1993 42.6713C45.8993 42.5363 45.5692 42.4688 45.2092 42.4688C44.8492 42.4688 44.5117 42.5363 44.1966 42.6713C43.8816 42.8063 43.6041 42.9938 43.3641 43.2338C43.1391 43.4588 42.9591 43.7288 42.8241 44.0438C42.689 44.3438 42.6215 44.6738 42.6215 45.0338V52.0313H40.7089V45.0338C40.7089 44.6738 40.6414 44.3438 40.5064 44.0438C40.3714 43.7288 40.1839 43.4588 39.9439 43.2338C39.7038 42.9938 39.4263 42.8063 39.1113 42.6713C38.8113 42.5363 38.4813 42.4688 38.1212 42.4688C37.7612 42.4688 37.4237 42.5363 37.1087 42.6713C36.7936 42.8063 36.5161 42.9938 36.2761 43.2338C36.0511 43.4588 35.8711 43.7288 35.7361 44.0438C35.6011 44.3438 35.5336 44.6738 35.5336 45.0338V52.0313H33.6209V45.0338C33.6209 44.4188 33.7409 43.8413 33.981 43.3013C34.221 42.7463 34.5435 42.2663 34.9485 41.8613C35.3535 41.4563 35.8261 41.1338 36.3661 40.8938C36.9212 40.6538 37.5062 40.5338 38.1212 40.5338Z" fill="#6667AB"/>
<path d="M72.2353 52.1888C71.4252 52.1888 70.6677 52.0388 69.9626 51.7388C69.2576 51.4238 68.635 51.0038 68.095 50.4788C67.57 49.9538 67.1499 49.3388 66.8349 48.6338C66.5349 47.9138 66.3849 47.1488 66.3849 46.3388C66.3849 45.5288 66.5349 44.7713 66.8349 44.0663C67.1499 43.3463 67.57 42.7238 68.095 42.1988C68.635 41.6588 69.2576 41.2388 69.9626 40.9388C70.6677 40.6238 71.4252 40.4663 72.2353 40.4663C72.8653 40.4663 73.4804 40.6163 74.0804 40.9163C74.6805 41.2013 75.228 41.5913 75.723 42.0863L74.3729 43.4363C74.0429 43.1213 73.6979 42.8738 73.3379 42.6938C72.9778 42.4988 72.6103 42.4013 72.2353 42.4013C71.6953 42.4013 71.1852 42.5063 70.7052 42.7163C70.2252 42.9113 69.8051 43.1888 69.4451 43.5488C69.1001 43.9088 68.8226 44.3288 68.6125 44.8088C68.4025 45.2888 68.2975 45.7988 68.2975 46.3388C68.2975 46.8788 68.4025 47.3888 68.6125 47.8688C68.8226 48.3488 69.1001 48.7688 69.4451 49.1288C69.8051 49.4738 70.2252 49.7513 70.7052 49.9613C71.1852 50.1713 71.6953 50.2763 72.2353 50.2763C72.6103 50.2763 72.9778 50.1863 73.3379 50.0063C73.6979 49.8263 74.0429 49.5713 74.3729 49.2413L75.723 50.5913C75.228 51.0863 74.6805 51.4763 74.0804 51.7613C73.4804 52.0463 72.8653 52.1888 72.2353 52.1888Z" fill="#6667AB"/>
<path d="M79.2846 52.0313H77.3495V46.4063C77.3495 45.5963 77.5145 44.8313 77.8445 44.1113C78.1745 43.3913 78.6245 42.7688 79.1946 42.2438C79.7646 41.7188 80.4247 41.3063 81.1747 41.0063C81.9398 40.6913 82.7573 40.5338 83.6274 40.5338V42.4688C83.0273 42.4688 82.4648 42.5738 81.9398 42.7838C81.4147 42.9788 80.9497 43.2563 80.5447 43.6163C80.1546 43.9763 79.8471 44.3963 79.6221 44.8763C79.3971 45.3563 79.2846 45.8663 79.2846 46.4063V52.0313Z" fill="#6667AB"/>
<path d="M89.8993 40.5113C90.7094 40.5113 91.4744 40.6688 92.1945 40.9838C92.9145 41.2838 93.5371 41.7038 94.0621 42.2438C94.6021 42.7688 95.0222 43.3913 95.3222 44.1113C95.6372 44.8163 95.7947 45.5738 95.7947 46.3838V52.0088H93.8371V50.7488C93.3121 51.2138 92.712 51.5813 92.037 51.8513C91.3769 52.1063 90.6644 52.2338 89.8993 52.2338C89.0893 52.2338 88.3317 52.0838 87.6267 51.7838C86.9216 51.4688 86.2991 51.0488 85.759 50.5238C85.234 49.9988 84.814 49.3838 84.499 48.6788C84.1989 47.9588 84.0489 47.1938 84.0489 46.3838C84.0489 45.5738 84.1989 44.8163 84.499 44.1113C84.814 43.3913 85.234 42.7688 85.759 42.2438C86.2991 41.7038 86.9216 41.2838 87.6267 40.9838C88.3317 40.6688 89.0893 40.5113 89.8993 40.5113ZM89.8993 42.4463C89.3593 42.4463 88.8493 42.5513 88.3692 42.7613C87.8892 42.9563 87.4692 43.2338 87.1091 43.5938C86.7641 43.9538 86.4866 44.3738 86.2766 44.8538C86.0666 45.3338 85.9616 45.8438 85.9616 46.3838C85.9616 46.9238 86.0666 47.4338 86.2766 47.9138C86.4866 48.3938 86.7641 48.8138 87.1091 49.1738C87.4692 49.5188 87.8892 49.7963 88.3692 50.0063C88.8493 50.2163 89.3593 50.3213 89.8993 50.3213C90.4544 50.3213 90.9719 50.2163 91.4519 50.0063C91.932 49.7963 92.3445 49.5188 92.6895 49.1738C93.0495 48.8138 93.3271 48.3938 93.5221 47.9138C93.7321 47.4338 93.8371 46.9238 93.8371 46.3838C93.8371 45.8438 93.7321 45.3338 93.5221 44.8538C93.3271 44.3738 93.0495 43.9538 92.6895 43.5938C92.3445 43.2338 91.932 42.9563 91.4519 42.7613C90.9719 42.5513 90.4544 42.4463 89.8993 42.4463Z" fill="#6667AB"/>
<path d="M98.0507 38.0813H99.9858V40.8263H103.924V42.7388H99.9858V49.0613C99.9858 49.3913 100.098 49.6763 100.323 49.9163C100.563 50.1413 100.856 50.2538 101.201 50.2538C101.546 50.2538 101.831 50.0963 102.056 49.7813C102.296 49.4663 102.416 49.0838 102.416 48.6338H104.329C104.329 49.1288 104.246 49.5938 104.081 50.0288C103.916 50.4488 103.691 50.8238 103.406 51.1538C103.136 51.4688 102.806 51.7238 102.416 51.9188C102.041 52.0988 101.636 52.1888 101.201 52.1888C100.766 52.1888 100.353 52.1063 99.9633 51.9413C99.5883 51.7763 99.2583 51.5513 98.9732 51.2663C98.6882 50.9813 98.4632 50.6513 98.2982 50.2763C98.1332 49.9013 98.0507 49.4963 98.0507 49.0613V38.0813Z" fill="#6667AB"/>
<path d="M105.893 40.7813H107.828V52.0313H105.893V40.7813ZM105.893 35.5613H107.828V38.1713H105.893V35.5613Z" fill="#6667AB"/>
<path d="M115.051 42.6938H110.483V40.7813H118.381L112.981 50.1188H117.661V52.0313H109.695L115.051 42.6938Z" fill="#6667AB"/>
<path d="M119.934 40.7813H121.869V52.0313H119.934V40.7813ZM119.934 35.5613H121.869V38.1713H119.934V35.5613Z" fill="#6667AB"/>
<path d="M129.632 40.5338C130.442 40.5338 131.2 40.6913 131.905 41.0063C132.625 41.3063 133.248 41.7188 133.773 42.2438C134.313 42.7688 134.733 43.3913 135.033 44.1113C135.348 44.8313 135.505 45.5963 135.505 46.4063V52.0313H133.57V46.4063C133.57 45.8663 133.465 45.3563 133.255 44.8763C133.06 44.3963 132.782 43.9763 132.422 43.6163C132.077 43.2563 131.665 42.9788 131.185 42.7838C130.705 42.5738 130.187 42.4688 129.632 42.4688C129.092 42.4688 128.582 42.5738 128.102 42.7838C127.622 42.9788 127.202 43.2563 126.842 43.6163C126.497 43.9763 126.22 44.3963 126.01 44.8763C125.799 45.3563 125.694 45.8663 125.694 46.4063V52.0313H123.782V46.4063C123.782 45.5963 123.932 44.8313 124.232 44.1113C124.547 43.3913 124.967 42.7688 125.492 42.2438C126.032 41.7188 126.655 41.3063 127.36 41.0063C128.065 40.6913 128.822 40.5338 129.632 40.5338Z" fill="#6667AB"/>
<path d="M143.409 40.5788C144.219 40.5788 144.977 40.7363 145.682 41.0513C146.402 41.3513 147.024 41.7638 147.549 42.2888C148.089 42.8138 148.509 43.4363 148.809 44.1563C149.124 44.8763 149.282 45.6413 149.282 46.4513C149.282 47.5313 149.019 48.5138 148.494 49.3988C147.984 50.2838 147.287 50.9813 146.402 51.4913C146.837 51.9113 147.197 52.4138 147.482 52.9988C147.767 53.5988 147.909 54.2288 147.909 54.8888C147.909 55.5038 147.782 56.0813 147.527 56.6213C147.272 57.1763 146.919 57.6563 146.469 58.0613C146.019 58.4663 145.494 58.7888 144.894 59.0288C144.309 59.2688 143.679 59.3888 143.004 59.3888V57.4763C143.409 57.4763 143.792 57.4088 144.152 57.2738C144.527 57.1388 144.849 56.9513 145.119 56.7113C145.389 56.4713 145.599 56.1938 145.749 55.8788C145.914 55.5788 145.997 55.2488 145.997 54.8888C145.997 54.5288 145.929 54.1913 145.794 53.8763C145.659 53.5763 145.472 53.3063 145.232 53.0663C144.992 52.8263 144.714 52.6388 144.399 52.5038C144.099 52.3688 143.769 52.3013 143.409 52.3013C142.599 52.3013 141.841 52.1513 141.136 51.8513C140.431 51.5363 139.809 51.1163 139.269 50.5913C138.744 50.0513 138.324 49.4288 138.009 48.7238C137.709 48.0188 137.559 47.2613 137.559 46.4513C137.559 45.6413 137.709 44.8763 138.009 44.1563C138.324 43.4363 138.744 42.8138 139.269 42.2888C139.809 41.7638 140.431 41.3513 141.136 41.0513C141.841 40.7363 142.599 40.5788 143.409 40.5788ZM143.409 42.5138C142.869 42.5138 142.359 42.6188 141.879 42.8288C141.399 43.0238 140.979 43.3013 140.619 43.6613C140.274 44.0213 139.996 44.4413 139.786 44.9213C139.576 45.4013 139.471 45.9113 139.471 46.4513C139.471 46.9913 139.576 47.5013 139.786 47.9813C139.996 48.4613 140.274 48.8813 140.619 49.2413C140.979 49.5863 141.399 49.8638 141.879 50.0738C142.359 50.2838 142.869 50.3888 143.409 50.3888C143.964 50.3888 144.482 50.2838 144.962 50.0738C145.442 49.8638 145.854 49.5863 146.199 49.2413C146.559 48.8813 146.837 48.4613 147.032 47.9813C147.242 47.5013 147.347 46.9913 147.347 46.4513C147.347 45.9113 147.242 45.4013 147.032 44.9213C146.837 44.4413 146.559 44.0213 146.199 43.6613C145.854 43.3013 145.442 43.0238 144.962 42.8288C144.482 42.6188 143.964 42.5138 143.409 42.5138Z" fill="#6667AB"/>
<path d="M162.198 40.5113C162.964 40.5113 163.676 40.6463 164.336 40.9163C165.011 41.1863 165.611 41.5538 166.136 42.0188V35.5388H168.049V46.3838C168.049 47.1938 167.891 47.9588 167.576 48.6788C167.276 49.3838 166.864 49.9988 166.339 50.5238C165.814 51.0488 165.191 51.4688 164.471 51.7838C163.766 52.0838 163.009 52.2338 162.198 52.2338C161.388 52.2338 160.631 52.0838 159.926 51.7838C159.221 51.4688 158.598 51.0488 158.058 50.5238C157.533 49.9988 157.113 49.3838 156.798 48.6788C156.498 47.9588 156.348 47.1938 156.348 46.3838C156.348 45.5738 156.498 44.8163 156.798 44.1113C157.113 43.3913 157.533 42.7688 158.058 42.2438C158.598 41.7038 159.221 41.2838 159.926 40.9838C160.631 40.6688 161.388 40.5113 162.198 40.5113ZM162.198 42.4463C161.658 42.4463 161.148 42.5513 160.668 42.7613C160.188 42.9563 159.768 43.2338 159.408 43.5938C159.063 43.9538 158.786 44.3738 158.576 44.8538C158.366 45.3338 158.261 45.8438 158.261 46.3838C158.261 46.9238 158.366 47.4338 158.576 47.9138C158.786 48.3938 159.063 48.8138 159.408 49.1738C159.768 49.5188 160.188 49.7963 160.668 50.0063C161.148 50.2163 161.658 50.3213 162.198 50.3213C162.738 50.3213 163.249 50.2163 163.729 50.0063C164.209 49.7963 164.629 49.5188 164.989 49.1738C165.349 48.8138 165.626 48.3938 165.821 47.9138C166.031 47.4338 166.136 46.9238 166.136 46.3838C166.136 45.8438 166.031 45.3338 165.821 44.8538C165.626 44.3738 165.349 43.9538 164.989 43.5938C164.629 43.2338 164.209 42.9563 163.729 42.7613C163.249 42.5513 162.738 42.4463 162.198 42.4463Z" fill="#6667AB"/>
<path d="M175.928 40.5113C176.738 40.5113 177.503 40.6688 178.223 40.9838C178.943 41.2838 179.566 41.7038 180.091 42.2438C180.631 42.7688 181.051 43.3913 181.351 44.1113C181.666 44.8163 181.823 45.5738 181.823 46.3838V52.0088H179.866V50.7488C179.341 51.2138 178.741 51.5813 178.066 51.8513C177.406 52.1063 176.693 52.2338 175.928 52.2338C175.118 52.2338 174.36 52.0838 173.655 51.7838C172.95 51.4688 172.328 51.0488 171.788 50.5238C171.263 49.9988 170.843 49.3838 170.528 48.6788C170.228 47.9588 170.078 47.1938 170.078 46.3838C170.078 45.5738 170.228 44.8163 170.528 44.1113C170.843 43.3913 171.263 42.7688 171.788 42.2438C172.328 41.7038 172.95 41.2838 173.655 40.9838C174.36 40.6688 175.118 40.5113 175.928 40.5113ZM175.928 42.4463C175.388 42.4463 174.878 42.5513 174.398 42.7613C173.918 42.9563 173.498 43.2338 173.138 43.5938C172.793 43.9538 172.515 44.3738 172.305 44.8538C172.095 45.3338 171.99 45.8438 171.99 46.3838C171.99 46.9238 172.095 47.4338 172.305 47.9138C172.515 48.3938 172.793 48.8138 173.138 49.1738C173.498 49.5188 173.918 49.7963 174.398 50.0063C174.878 50.2163 175.388 50.3213 175.928 50.3213C176.483 50.3213 177.001 50.2163 177.481 50.0063C177.961 49.7963 178.373 49.5188 178.718 49.1738C179.078 48.8138 179.356 48.3938 179.551 47.9138C179.761 47.4338 179.866 46.9238 179.866 46.3838C179.866 45.8438 179.761 45.3338 179.551 44.8538C179.356 44.3738 179.078 43.9538 178.718 43.5938C178.373 43.2338 177.961 42.9563 177.481 42.7613C177.001 42.5513 176.483 42.4463 175.928 42.4463Z" fill="#6667AB"/>
<path d="M184.079 38.0813H186.015V40.8263H189.952V42.7388H186.015V49.0613C186.015 49.3913 186.127 49.6763 186.352 49.9163C186.592 50.1413 186.885 50.2538 187.23 50.2538C187.575 50.2538 187.86 50.0963 188.085 49.7813C188.325 49.4663 188.445 49.0838 188.445 48.6338H190.357C190.357 49.1288 190.275 49.5938 190.11 50.0288C189.945 50.4488 189.72 50.8238 189.435 51.1538C189.165 51.4688 188.835 51.7238 188.445 51.9188C188.07 52.0988 187.665 52.1888 187.23 52.1888C186.795 52.1888 186.382 52.1063 185.992 51.9413C185.617 51.7763 185.287 51.5513 185.002 51.2663C184.717 50.9813 184.492 50.6513 184.327 50.2763C184.162 49.9013 184.079 49.4963 184.079 49.0613V38.0813Z" fill="#6667AB"/>
<path d="M197.023 40.5113C197.833 40.5113 198.598 40.6688 199.318 40.9838C200.038 41.2838 200.661 41.7038 201.186 42.2438C201.726 42.7688 202.146 43.3913 202.446 44.1113C202.761 44.8163 202.919 45.5738 202.919 46.3838V52.0088H200.961V50.7488C200.436 51.2138 199.836 51.5813 199.161 51.8513C198.501 52.1063 197.788 52.2338 197.023 52.2338C196.213 52.2338 195.456 52.0838 194.751 51.7838C194.046 51.4688 193.423 51.0488 192.883 50.5238C192.358 49.9988 191.938 49.3838 191.623 48.6788C191.323 47.9588 191.173 47.1938 191.173 46.3838C191.173 45.5738 191.323 44.8163 191.623 44.1113C191.938 43.3913 192.358 42.7688 192.883 42.2438C193.423 41.7038 194.046 41.2838 194.751 40.9838C195.456 40.6688 196.213 40.5113 197.023 40.5113ZM197.023 42.4463C196.483 42.4463 195.973 42.5513 195.493 42.7613C195.013 42.9563 194.593 43.2338 194.233 43.5938C193.888 43.9538 193.611 44.3738 193.4 44.8538C193.19 45.3338 193.085 45.8438 193.085 46.3838C193.085 46.9238 193.19 47.4338 193.4 47.9138C193.611 48.3938 193.888 48.8138 194.233 49.1738C194.593 49.5188 195.013 49.7963 195.493 50.0063C195.973 50.2163 196.483 50.3213 197.023 50.3213C197.578 50.3213 198.096 50.2163 198.576 50.0063C199.056 49.7963 199.468 49.5188 199.813 49.1738C200.173 48.8138 200.451 48.3938 200.646 47.9138C200.856 47.4338 200.961 46.9238 200.961 46.3838C200.961 45.8438 200.856 45.3338 200.646 44.8538C200.451 44.3738 200.173 43.9538 199.813 43.5938C199.468 43.2338 199.056 42.9563 198.576 42.7613C198.096 42.5513 197.578 42.4463 197.023 42.4463Z" fill="#6667AB"/>
<ellipse cx="58.6445" cy="46.5469" rx="5.62538" ry="5.76562" fill="#006850"/>
</svg>
