<?xml version="1.0" encoding="UTF-8" standalone="no"?><!DOCTYPE svg PUBLIC "-//W3C//DTD SVG 1.1//EN" "http://www.w3.org/Graphics/SVG/1.1/DTD/svg11.dtd"><svg width="100%" height="100%" viewBox="0 0 309 318" version="1.1" xmlns="http://www.w3.org/2000/svg" xmlns:xlink="http://www.w3.org/1999/xlink" xml:space="preserve" xmlns:serif="http://www.serif.com/" style="fill-rule:evenodd;clip-rule:evenodd;stroke-linejoin:round;stroke-miterlimit:2;"><g><g><g><path d="M270.097,171.555c-0.082,0.465 -0.18,0.923 -0.269,1.38c-0.45,2.287 -0.953,4.552 -1.53,6.787c-0.083,0.323 -0.18,0.638 -0.263,0.96c-0.577,2.153 -1.207,4.283 -1.897,6.375c-0.09,0.263 -0.165,0.533 -0.255,0.795c-0.728,2.153 -1.523,4.275 -2.363,6.368c-0.18,0.442 -0.345,0.885 -0.532,1.32c-0.39,0.945 -0.795,1.875 -1.215,2.805l16.98,-2.138c0.3,-0.922 0.585,-1.845 0.862,-2.775c0.143,-0.495 0.263,-0.997 0.405,-1.492c0.593,-2.123 1.17,-4.253 1.658,-6.398c0.075,-0.322 0.127,-0.645 0.195,-0.96c1.162,-5.264 1.987,-10.597 2.505,-15.96l-12.878,-7.02c-0.052,0.548 -0.105,1.103 -0.165,1.65c-0.052,0.48 -0.113,0.968 -0.172,1.448c-0.293,2.31 -0.645,4.597 -1.065,6.855Z" style="fill:#632911;fill-opacity:0.4;fill-rule:nonzero;"/><path d="M270.727,216.037c0.233,-0.465 0.458,-0.937 0.683,-1.402c0.945,-1.958 1.852,-3.923 2.707,-5.917c0.218,-0.518 0.428,-1.043 0.645,-1.56c0.818,-1.981 1.605,-3.968 2.325,-5.986c0.195,-0.54 0.368,-1.079 0.548,-1.62c0.697,-2.025 1.372,-4.065 1.972,-6.12c0.143,-0.495 0.263,-0.997 0.405,-1.492c0.593,-2.123 1.17,-4.253 1.658,-6.398c0.075,-0.322 0.127,-0.645 0.195,-0.96c2.04,-9.232 3.09,-18.674 3.135,-28.155c-0,-0.997 0.045,-1.995 0.022,-3c-0.03,-1.56 -0.127,-3.112 -0.217,-4.672c-0.067,-1.23 -0.113,-2.453 -0.21,-3.683c-0.12,-1.455 -0.3,-2.902 -0.473,-4.35c-0.157,-1.327 -0.3,-2.655 -0.502,-3.982c-0.21,-1.388 -0.465,-2.775 -0.72,-4.163c-0.255,-1.38 -0.51,-2.752 -0.803,-4.125c-0.292,-1.342 -0.622,-2.677 -0.96,-4.02c-0.352,-1.402 -0.72,-2.805 -1.125,-4.207c-0.375,-1.305 -0.78,-2.595 -1.2,-3.893c-0.457,-1.417 -0.945,-2.827 -1.455,-4.237c-0.457,-1.26 -0.93,-2.513 -1.432,-3.765c-0.57,-1.425 -1.178,-2.835 -1.808,-4.253c-0.54,-1.215 -1.08,-2.43 -1.665,-3.63c-0.69,-1.425 -1.425,-2.842 -2.175,-4.252c-0.615,-1.163 -1.222,-2.325 -1.882,-3.473c-0.818,-1.432 -1.703,-2.85 -2.588,-4.267c-0.682,-1.095 -1.342,-2.19 -2.07,-3.278c-0.975,-1.462 -2.025,-2.887 -3.067,-4.32c-0.728,-1.005 -1.425,-2.017 -2.19,-3c-1.208,-1.56 -2.505,-3.082 -3.795,-4.605c-0.698,-0.817 -1.343,-1.657 -2.063,-2.467l-1.522,8.767c13.297,20.28 20.692,43.973 21.022,67.673l0,0.18c0.038,2.542 -0.022,5.047 -0.142,7.537c-0.015,0.39 -0.03,0.788 -0.053,1.178c-0.135,2.4 -0.345,4.77 -0.615,7.125c-0.052,0.48 -0.112,0.967 -0.172,1.447c-0.293,2.31 -0.645,4.598 -1.065,6.855c-0.083,0.465 -0.18,0.923 -0.27,1.38c-0.45,2.288 -0.953,4.553 -1.53,6.788c-0.083,0.322 -0.18,0.637 -0.263,0.96c-0.577,2.152 -1.207,4.282 -1.897,6.375c-0.09,0.262 -0.165,0.532 -0.255,0.795c-0.728,2.152 -1.523,4.275 -2.363,6.367c-0.18,0.443 -0.345,0.885 -0.532,1.32c-0.833,2.003 -1.718,3.968 -2.648,5.903c-0.232,0.48 -0.465,0.96 -0.705,1.44c-0.952,1.905 -1.942,3.787 -2.985,5.632c-0.247,0.443 -0.51,0.87 -0.765,1.305c-1.08,1.853 -2.19,3.675 -3.367,5.46c-0.203,0.315 -0.42,0.615 -0.63,0.923c-1.095,1.627 -2.228,3.225 -3.398,4.8c-0.292,0.39 -0.577,0.795 -0.87,1.177c-1.245,1.628 -2.535,3.21 -3.855,4.77c-0.397,0.465 -0.795,0.938 -1.192,1.395c-1.305,1.5 -2.648,2.963 -4.028,4.388c-0.45,0.465 -0.9,0.922 -1.357,1.38c-1.395,1.41 -2.82,2.79 -4.283,4.125c-0.442,0.397 -0.892,0.787 -1.335,1.177c-1.32,1.17 -2.662,2.318 -4.035,3.428c-0.517,0.42 -1.035,0.84 -1.56,1.252c-1.41,1.11 -2.85,2.175 -4.305,3.225c-0.532,0.383 -1.065,0.773 -1.612,1.148c-1.568,1.087 -3.165,2.13 -4.785,3.142c-0.608,0.383 -1.223,0.758 -1.838,1.133c-1.62,0.975 -3.262,1.92 -4.927,2.82c-0.615,0.33 -1.238,0.652 -1.86,0.975c-1.665,0.862 -3.338,1.695 -5.033,2.482c-0.075,0.03 -0.142,0.068 -0.217,0.105c-20.858,9.578 -44.453,13.26 -68.115,9.345c-0,-0.015 -0,-0.022 0.007,-0.037c-1.117,-0.188 -2.242,-0.405 -3.367,-0.623c-0.653,-0.127 -1.298,-0.247 -1.95,-0.382c-1.268,-0.27 -2.528,-0.563 -3.795,-0.87c-1.455,-0.36 -2.918,-0.758 -4.373,-1.178c-1.162,-0.337 -2.325,-0.705 -3.487,-1.08c-1.493,-0.487 -2.978,-0.997 -4.463,-1.545c-0.705,-0.262 -1.41,-0.51 -2.115,-0.78c-2.107,-0.825 -4.207,-1.725 -6.307,-2.685c-0.54,-0.247 -1.08,-0.502 -1.613,-0.765c-2.242,-1.072 -4.485,-2.19 -6.705,-3.412c-7.012,-3.795 -13.545,-8.34 -19.552,-13.493c-6.008,-5.152 -28.17,0.6 -28.17,0.6l-0.338,0.135c10.373,11.925 22.823,22.005 36.578,29.79l-0.038,0.053c28.635,16.207 62.865,22.485 95.505,14.805c33.893,-7.193 60.893,-26.063 79.178,-50.7c0.12,-0.158 0.24,-0.315 0.36,-0.473c1.432,-1.942 2.797,-3.93 4.117,-5.94c0.195,-0.292 0.39,-0.585 0.578,-0.885c1.245,-1.935 2.437,-3.9 3.585,-5.887c0.225,-0.39 0.45,-0.788 0.675,-1.185c1.087,-1.943 2.13,-3.9 3.127,-5.888l0.03,0Z" style="fill:url(#_Linear1);fill-rule:nonzero;"/></g><path d="M237.075,0l-99.945,92.295l-94.943,-51.72l45.503,97.372l-87.69,80.971l88.867,-1.891l-13.687,-7.455l1.147,-1.102l98.311,-93.87l62.437,-114.6Z" style="fill:url(#_Linear2);fill-rule:nonzero;"/><path d="M237.09,0.007l-23.378,134.018l94.921,51.742l-106.486,14.551l-20.512,117.577l-46.582,-75.697l13.687,7.454l0.3,-1.559l25.59,-133.5l62.46,-114.586Z" style="fill:#306f8a;fill-rule:nonzero;"/></g><path d="M34.403,155.235c-0.03,-0.63 -0.061,-1.26 -0.076,-1.897c-0.052,-1.89 -0.06,-3.788 -0.022,-5.678c0.015,-0.72 0.037,-1.44 0.06,-2.16c0.068,-1.905 0.173,-3.81 0.33,-5.715c0.053,-0.66 0.127,-1.313 0.195,-1.965c0.18,-1.785 0.383,-3.563 0.638,-5.34c0.097,-0.66 0.195,-1.32 0.3,-1.972c0.277,-1.74 0.6,-3.48 0.952,-5.206c0.12,-0.584 0.225,-1.162 0.353,-1.747c0.427,-1.935 0.907,-3.855 1.425,-5.767c0.165,-0.623 0.337,-1.245 0.517,-1.861c0.548,-1.904 1.148,-3.802 1.785,-5.677c0.195,-0.577 0.405,-1.155 0.615,-1.732c0.69,-1.92 1.418,-3.833 2.205,-5.723c0.188,-0.45 0.39,-0.9 0.585,-1.342c0.773,-1.793 1.59,-3.578 2.453,-5.34c0.165,-0.338 0.322,-0.675 0.487,-1.005c0.96,-1.905 1.988,-3.78 3.045,-5.64c0.248,-0.435 0.495,-0.878 0.75,-1.313c1.072,-1.83 2.205,-3.622 3.383,-5.4c0.292,-0.442 0.592,-0.892 0.892,-1.335c1.215,-1.777 2.475,-3.525 3.788,-5.25c0.285,-0.375 0.585,-0.742 0.877,-1.117c1.395,-1.778 2.828,-3.525 4.328,-5.228c0.179,-0.21 0.375,-0.412 0.562,-0.615c1.47,-1.642 3,-3.255 4.575,-4.83c0.233,-0.232 0.465,-0.472 0.697,-0.712c1.643,-1.613 3.353,-3.18 5.116,-4.718c0.352,-0.307 0.705,-0.615 1.057,-0.922c1.748,-1.493 3.547,-2.94 5.4,-4.35c0.382,-0.293 0.78,-0.585 1.17,-0.87c1.905,-1.41 3.847,-2.783 5.857,-4.095c0.331,-0.218 0.668,-0.42 0.998,-0.63c2.1,-1.343 4.245,-2.655 6.457,-3.893c0.053,-0.03 0.106,-0.06 0.158,-0.09c20.737,-11.595 45.03,-17.017 69.308,-15.6l6.037,-5.835c-0.855,-0.157 -1.71,-0.292 -2.565,-0.45c-1.965,-0.36 -3.93,-0.72 -5.888,-0.982c-1.237,-0.165 -2.459,-0.263 -3.697,-0.398c-1.762,-0.187 -3.525,-0.382 -5.28,-0.495c-1.298,-0.082 -2.58,-0.105 -3.87,-0.15c-1.665,-0.06 -3.33,-0.112 -4.987,-0.105c-1.32,0 -2.633,0.06 -3.945,0.105c-1.598,0.06 -3.188,0.12 -4.77,0.24c-1.335,0.098 -2.655,0.233 -3.975,0.375c-1.538,0.165 -3.06,0.345 -4.583,0.563c-1.335,0.187 -2.655,0.405 -3.975,0.637c-1.477,0.263 -2.94,0.548 -4.402,0.855c-1.328,0.285 -2.655,0.585 -3.968,0.908c-1.41,0.352 -2.812,0.727 -4.207,1.125c-1.328,0.375 -2.648,0.757 -3.96,1.177c-1.335,0.428 -2.655,0.893 -3.975,1.365c-1.328,0.473 -2.655,0.945 -3.96,1.463c-1.245,0.495 -2.475,1.027 -3.698,1.56c-1.342,0.577 -2.685,1.147 -4.005,1.77c-1.11,0.525 -2.197,1.102 -3.292,1.657c-1.388,0.705 -2.79,1.395 -4.155,2.153c-0.878,0.487 -1.718,1.012 -2.58,1.522c-8.19,4.778 -15.84,10.41 -22.815,16.793c-0.24,0.217 -0.495,0.427 -0.735,0.652c-1.613,1.5 -3.173,3.06 -4.71,4.635c-0.36,0.368 -0.735,0.72 -1.088,1.095c-1.485,1.553 -2.902,3.15 -4.312,4.77c-0.375,0.428 -0.758,0.848 -1.125,1.283c-1.38,1.635 -2.715,3.307 -4.02,5.002c-0.345,0.443 -0.69,0.885 -1.028,1.335c-1.305,1.733 -2.55,3.51 -3.772,5.303c-0.293,0.435 -0.585,0.862 -0.878,1.297c-1.222,1.853 -2.4,3.735 -3.54,5.648c-0.232,0.39 -0.457,0.78 -0.69,1.177c-1.155,1.988 -2.257,4.005 -3.307,6.053c-0.158,0.315 -0.315,0.63 -0.473,0.945c-1.087,2.152 -2.115,4.327 -3.09,6.54c-0.082,0.18 -0.15,0.367 -0.232,0.547c-9.465,21.84 -13.26,46.478 -9.503,71.805l17.783,-17.175l0.014,-0.03Z" style="fill:#306f8a;fill-rule:nonzero;"/></g><defs><linearGradient id="_Linear1" x1="0" y1="0" x2="1" y2="0" gradientUnits="userSpaceOnUse" gradientTransform="matrix(257.235,237.6,-237.6,257.235,37.095,52.9725)"><stop offset="0" style="stop-color:#f5bb6c;stop-opacity:1"/><stop offset="0.5" style="stop-color:#d58d4d;stop-opacity:1"/><stop offset="1" style="stop-color:#b45c2d;stop-opacity:1"/></linearGradient><linearGradient id="_Linear2" x1="0" y1="0" x2="1" y2="0" gradientUnits="userSpaceOnUse" gradientTransform="matrix(257.235,237.6,-237.6,257.235,-25.365,-23.46)"><stop offset="0" style="stop-color:#f5bb6c;stop-opacity:1"/><stop offset="0.5" style="stop-color:#d58d4d;stop-opacity:1"/><stop offset="1" style="stop-color:#b45c2d;stop-opacity:1"/></linearGradient></defs></svg>