<?xml version="1.0" encoding="UTF-8"?>
<svg id="Layer_1" data-name="Layer 1" xmlns="http://www.w3.org/2000/svg" viewBox="0 0 2001.32 637.58">
  <defs>
    <style>
      .cls-1 {
        fill: none;
        stroke: #fff;
        stroke-miterlimit: 10;
        stroke-width: 2px;
      }

      .cls-2 {
        fill: #fff;
        stroke-width: 0px;
      }
    </style>
  </defs>
  <view id="crop" viewBox="100 40 1780 525" />
  <!-- <rect width="100%" height="100%" /> -->
  <line class="cls-1" x1="698.48" y1="539.04" x2="698.48" y2="96.3"/>
  <g>
    <path class="cls-2" d="M406.65,283.31c-3.15-12.22-13.62-32.31-34.23-32.31-9.08,0-18.69,5.24-18.69,16.59,0,9.43,3.32,13.27,17.99,20.6l25.67,12.75c5.93,2.98,19.22,13.11,19.22,32.14,0,15.37-11.19,36.51-43.31,36.51-16.6,0-24.46-5.94-29.86-5.94-3.68,0-4.55,3.14-5.24,5.94h-5.06v-43.14h5.06c3.5,17.63,13.62,37.37,35.8,37.37,20.96,0,21.83-17.29,21.83-19.56,0-11.7-8.21-15.89-19.56-21.31l-11.7-5.59c-29.87-14.32-29.87-29.34-29.87-37.37,0-10.65,5.42-34.4,38.6-34.4,13.97,0,22.17,5.75,27.24,5.75,4.01,0,4.88-2.62,5.76-5.94h5.24v37.89h-4.89Z"/>
    <path class="cls-2" d="M426.89,248.21h99.01v35.1h-4.18c-3.84-18.16-8.56-29.16-38.6-29.16-9.43,0-12.57.7-12.57,8.21v40.51c21.65.35,24.28-12.05,26.72-26.02h4.36v59.03h-4.36c-1.92-14.32-4.71-27.07-26.72-27.07v40.69c0,11.53,6.98,11.88,19.21,12.4v4.37h-62.87v-4.37c9.96-1.05,15.36-1.57,15.36-12.4v-84.53c0-11.52-7.16-11.87-15.36-12.4v-4.36h0Z"/>
    <polygon class="cls-2" points="468.64 198.98 469.17 201.87 476.26 203.71 476.79 201.61 473.9 198.45 468.64 198.98 468.64 198.98"/>
    <polygon class="cls-2" points="459.13 203.66 458.86 200.5 454.13 195.51 451.77 195.25 450.98 196.82 455.45 202.61 459.13 203.66 459.13 203.66"/>
    <polygon class="cls-2" points="387.45 171.79 391 169.59 390.15 167.74 387.96 166.05 385.6 164.53 383.07 165.04 383.07 166.39 382.06 166.73 382.56 168.08 384.25 168.92 384.25 171.62 387.45 171.79 387.45 171.79"/>
    <path class="cls-2" d="M285.83,248.21v4.36c14.15,1.05,16.24,6.82,16.24,17.3v52.92h-.34l-60.6-74.57h-36.85v4.36c2.27,0,5.06.54,14.84,12.58v82.78c0,11.53-4.89,12.75-15.37,13.97v4.37h39.64v-4.37c-12.92-1.4-16.59-4.71-16.59-17.28v-69.86h.35l77.72,94.66h4.88v-102.87c0-8.37,1.06-12.39,13.63-13.97v-4.36h-37.55Z"/>
    <polygon class="cls-2" points="451.37 192.72 448.48 188.25 448.35 188.04 448.1 188.1 446 188.63 445.47 188.76 445.81 189.19 448.97 193.13 449.07 193.26 449.24 193.26 451.08 193.26 451.73 193.26 451.37 192.72 451.37 192.72"/>
    <polygon class="cls-2" points="384.32 160.72 385.23 162.9 385.26 162.96 385.31 163.01 386.58 164.24 386.71 164.37 386.9 164.33 389.21 163.82 391.84 164.14 392.58 165.26 390.98 165.03 389.87 164.87 390.69 165.63 392.64 167.45 392.64 169.04 392.64 169.29 392.87 169.37 394.95 170.13 394.23 173.14 394.02 174 394.76 173.52 400.11 170.05 404.18 168.5 404.61 168.33 404.34 167.96 402.92 166.04 401.97 164.66 401.89 164.53 401.74 164.51 398.46 163.99 394.39 162.26 391.41 160.71 391.35 160.67 391.28 160.67 389.62 160.52 388.9 157.96 388.83 157.7 388.56 157.7 385.65 157.7 383.2 156.35 382.92 156.2 382.74 156.45 381.48 158.19 381.27 158.48 381.55 158.68 384.32 160.72 384.32 160.72"/>
    <path class="cls-2" d="M351.7,167.08l.17.2c.89,1.02,2.17,1.78,4.03,2.39l.06.02h3.61l.08-.04c1.25-.59,2.19-1.05,2.98-1.71.34-.29.51-.69.48-1.13-.05-.69-.58-1.31-1.04-1.59-1.82-1.11-3.67-1.9-5.64-2.4-.05-.01-.11-.02-.17-.02-.33,0-1.05.19-1.3.34-1.94,1.15-3.11,3.6-3.15,3.7l-.11.24h0Z"/>
    <path class="cls-2" d="M321.74,143.66c.07,0,.13,0,.2-.03.11.12.2.26.3.41.22.34.46.72.95.89.19.06.46.09.93.09.17,0,.35,0,.53,0,.16,0,.32,0,.47,0,.21,0,.36,0,.44.02.08.02.21.03.33.04.11.01.31.03.41.06-.2.99-.56,1.77-1.04,2.3-1.38,1.53-1.8,4.36-1.01,6.88.4,1.27.75,2.61.26,3.81-.42,1.1-.43,2.26-.02,3.27.32.8.83,1.47,1.32,2.11.34.45.66.87.92,1.33l.13.22c1.06,1.82,2.16,3.71,4.08,4.54l9.98,3.15c.1.03.21.05.32.05.53,0,1.17-.37,1.47-.85.22-.36.43-.74.66-1.12.65-1.12,1.32-2.28,2.08-3.32.05-.08,2.84-4.8,4.6-10.34.14-.44.23-.87.32-1.24.13-.61.25-1.14.52-1.53.4-.59,1.64-2.67.74-4.88-.14-.36-.84-1.61-1.37-1.96-.38-.27-.82-.53-1.24-.78-1.03-.61-2.1-1.25-2.7-2.22.09-.99.54-1.8,1.01-2.65.25-.45.51-.92.72-1.43l.13-.31-.29-.18-.07-.04c-2.53-1.59-4.92-3.09-5.77-5.87-.13-.42-.54-.87-1.13-.87-.06,0-.12,0-.17.01-.06-.17.02-.39.21-.84.11-.27.23-.54.28-.83l.13-.83-.73.42c-.3.17-.61.21-.99.21h-.19s-.2,0-.2,0c-.15,0-.3,0-.45.02-.22.03-.39.19-.58.39-1.51.23-3.01.4-4.47.57-1.2.14-2.34.27-3.4.42h-.08s-.07.06-.07.06c-.64.4-1.29.58-2.11.58-.47,0-.95-.06-1.48-.13-.11-.02-.23-.02-.34-.02-.49,0-.91.18-1.22.53-2,2.31-2.96,5.63-3.8,8.56-.07.21-.21.76.03,1.1.11.16.29.24.49.24h0Z"/>
    <path class="cls-2" d="M298.07,270.92v2.8c.19-.97.26-2.1,0-2.8h0Z"/>
    <g>
      <path class="cls-2" d="M297.71,270.4c-2.58-.77-5.68-1.14-8.38-2.11l-7.99.03c-1.19-.2-2.48-.54-3.75-.54-.57,0-1.15.07-1.7.25-.12.04-.51.15-.61.22-1.84,1.02-3.35,2.45-4.14,4.42.51,1.65,2.14,2.4,3.86,2.4.06,0,.12,0,.17,0l13-1.88c3.21.54,5.83,1.54,8.79,2.28.13.03.26.05.4.05.2,0,.51-.8.71-1.78v-2.8c-.08-.22-.2-.4-.36-.52h0Z"/>
      <path class="cls-2" d="M575.46,286.44l-2.2,2.85c-4.41,4.29-11.45,2.85-17.19,2.39-3.55-.87-7.09-1.7-10.62-2.54-1.16-12.12-3.51-23.89-6.94-35.2,3.54-2.58,7.16-5.08,10.88-7.43,4.29-2.32,9-4.76,13.7-2.6,5.75,4.3,8.61,13.62,10.77,20.87,1.28,6.93,2.63,14.3,1.6,21.67h0ZM574.14,349.77c-.05.49-.12.98-.19,1.46-1.3,5.79-2.91,11.72-6.03,17.02l-3.13,1.81c-5.71,2.27-11.68-1.76-16.8-4.38-3.11-2.29-6.24-4.52-9.34-6.77,3.32-11.08,5.61-22.59,6.76-34.43,4.39-1.07,8.82-2.02,13.29-2.8,4.85-.49,10.15-.95,13.66,2.85,3.98,6.69,2.57,17.53,1.77,25.24h0ZM542.47,426.28c-.11.2-.23.39-.34.59-3.71,5.36-7.74,10.88-13.16,14.99l-3.58.45c-6.15-.07-10.11-6.08-13.84-10.47-2.06-3.4-4.15-6.76-6.22-10.12,7.54-9.25,14.19-19.26,19.82-29.88,4.63.71,9.24,1.55,13.83,2.57,4.66,1.42,9.73,3,11.52,7.86,1.11,7.7-4.34,17.18-8.02,24.01h0ZM484.63,484.59c-5.81,3.76-11.99,7.71-19.05,9.55l-3.48-.95c-5.66-2.43-7.02-9.49-8.79-14.97-.59-3.88-1.23-7.73-1.84-11.57,10.19-5.6,19.79-12.15,28.68-19.52,4.09,2.47,8.11,5.07,12.04,7.83,3.77,3.08,7.84,6.48,7.64,11.66-1.77,6.99-9.33,13.21-15.21,17.98h0ZM429.15,472.71c-1.48-.8-2.94-1.52-4.56-2.11-5.61-2.11-11.12-4.44-18.76-4.52-2.24.44-3.89,1.4-6.32,2.19-3.36-.58-6.91-1.8-11.34-1.13l-15.7,5.64c-.45.42-1.28.31-1.95.22-2.44-.3-4.57-1.16-7.2-1.26-4.04-.14-6.88-1.9-9.28-4.7-.53-1.82-.85-4.9-2.2-6.68-.52-.66-.94-1.62-.69-2.72.43-1.88,1.55-3.56,1.98-4.76.35-.96-.47-1.15-.75-1.01-3.03,1.55-5.6,3.79-6.27,7.54-.32,1.88-1.11,3.12-2.13,4.2-2.74,2.91-5.31,6.15-10.42,6.66-1.86-.52-4.2-.62-6.48-.62-4.15-.99-7.97-2.46-13.2-2.28l-7.91,1.23c-3.68.34-6.4,1.67-8.51,3.63-65.57-26.4-111.97-90.66-111.97-165.56,0-42.96,15.27-82.43,40.66-113.25-.59.94-1.17,1.91-1.4,3.15-1.81,1.33-2.65,3.61-3.84,6.08.42,1.67-.34,3.41-1.68,4.34-2.47,1.71-4.21,5.26-3.09,9.15.42,1.45.31,3.64-.51,4.69-2.26,2.93-3.08,6.83-3.74,11.41-.18,1.3-.07,2.57.05,3.88.72,1.58,1.24,3.53,1.52,5.58h30.94l13.62,16.96c2.73-1.45,5.97-2.64,9.76-1.76,2.21,1.05,3.59,2.96,5.04,4.72,1.33,1.62,2.51,3.72,5.28,3.67.5,0,1.08-.59,1.3-1.16.32-.85.14-2.04.14-3.1-.59-2.2-1.57-3.91-2.47-5.64-.91-1.76.24-3.76,1.55-4.33,1.1-.48,2.17-.97,3.23-1.49v-7.87h10.24c1.87-4.66,3.44-9.86,6.68-13.16,4.03-1.74,7.79-3.72,10.04-7.08.89-1.33,1.97-2.89,1.89-4.88-.03-.64-.42-1.18-.91-1.32-1.21-.37-2.47-.29-3.53.13-1.23.47-2.35,1.29-3.82.86-.73-.21-.4-1.13-.08-1.45,2.19-2.19,5.17-3.61,8.21-4.36,2.26.76,4.1,1.61,5.75,2.08,1.8-.31,3.13-.85,4.28-1.45,2.78-1.48,3-6.69,1.2-9.34-.64-.94-1.97-1.06-2.89-1.41-1.53-1.45-2.97-2.71-4.12-4.34-.63-2-.24-4.82-.78-6.95-.73-2.81-2.67-4.8-6-5.47-2.17.44-5.3.57-8.04.22-.34-.05-.9.5-1.08.96-1.18,3.15-2.23,6.45-4.45,8.52-2.38,2.23-5.89,3.15-8.81,4.68-.42.22-1.25-.16-1.65-.58l-2.88-3.53c-1.34-.39-2.44-1.01-3.56-1.46-.58-.23-1.38-.65-1.19-1.41.12-.51,1.05-1.88,1.19-2.39.36-1.24-.25-2.57.17-3.89,1.83-1.66,5.39-2.53,8.18-1.94,4.78,1.01,8.73-1.31,9.78-5.38-.14-1.29.35-2.61,1.24-3.29,1.27-.98,3.32-1.02,4.48-2.09.61-.57.64-1.21.83-1.9.28-1.08,1.26-2.3,2.61-2.12.75.1,1.61.23,2.32.71,1.34.9,1.8,2.77,2.51,4.27.85,1.76,2,3.49,4.18,3.88,1.07.02,1.26-.24,1.75-.8,1.78-2.99,3.09-6.76,2.6-11.98-.01-.18-.14-.63-.42-1.39-.6-1.57-2.86-2.35-5.31-2.33-2.39-1.6-4.24-3.52-6.17-5.23-1.06-.94-2.14-1.92-2.63-3.19-.23-.57-1.11-.11-1.68-.39-.95-.46-1.89-1.37-3.14-1.73-1.12-.31-2.54-.1-3.58-.06-1.17-2.31-2.67-4.03-3.6-6.14,22.09-9.82,46.53-15.29,72.22-15.29,7.2,0,14.29.45,21.26,1.29.07.33.32.59.33.69.24,3.47-.33,6.13-1.44,8.45-.12.26,0,.86.19,1.22.72,1.24,1.53,2.39,2.34,3.54,2.38,1.4,4.94,2.66,6.38,3.32,3.22,1.49,6.95-2.73,6.95-2.73l6.45,2.48,3.22,1.24,4.71,1.99,1.74-1.24-3.23-2.73-7.44-6.21-4.96-.74-4.71-3.23-3.72-1.99,2.73-.25,6.45,3.23,9.92,3.48,4.96.5,2.98,2.48,3.47.25-1.49,1.99,5.71,4.97-3.23,1.49s-4.46-1.49-4.22,0c.25,1.49-7.44,1.24-7.44,1.24l-2.23-1.74-.75-1.74-3.72-.99-2.48.99,6.95,6.95-2.73,3.48.74,3.97-1.24,3.72-1.99,2.98-2.23,2.98s-2.73-.5-5.21,1.99c-2.48,2.48,1.24,2.48,7.44,4.22,6.2,1.74,12.9,12.41,12.9,12.41,0,0-5.21,1.24-7.19,1.24-1.43,0-6.73.26-10.14.97l-5.05,3.7c-1,.17,3.18,4.86,4.52,6.53,1.12,1.39,1.26,3.02,1.51,5.02.34,2.68.33,4.49.5,4.72,1.63,2.23,5.12.7,4.96,2.97.38,1.59,2.15,3.13,2.72,4.21.26.47,4.49-.38,4.71-.25l6.78,2.26s.04.02.05.02c.03-.05.06-.09.07-.15.25-1.31,2.76-4.47,6.27-4.73,3.51-.26,3.76-2.1,3.76-2.1l.75-5.52-1-5.26-1.75-5.78,1.25-4.73,3.01-3.42s-3.76-4.73.5-6.57c4.26-1.84,8.78-1.84,8.78-3.42s4.77,2.1,6.27,2.63c1.5.53,7.27,4.21,11.54,4.21s11.29,4.47,11.29,4.47l4.76,5.26-2.26-5.78,1.5-.79s-2.01-2.37-5.02-3.68c-3.01-1.31-10.79-3.94-10.79-3.94l-8.28-4.73-3.76-3.68s10.78,3.68,12.29,3.68,13.54,7.62,13.54,7.62l6.02,4.47,4.26,4.47s4.77,4.2,5.77,4.47c1,.26,5.27,1.84,5.27.79s-1.75-4.73-1.75-4.73l-4.51-4.21-1.76-4.73,1.76,1.05,3.76,4.47,4.77,3.68,3.51,1.05,2.26,2.63,2.26-2.89h.06c4.89,6.33,9.38,12.98,13.4,19.93-.13.92-.74,1.76-2.67,1.36-3.76-.79-12.79-5.26-13.29-2.89-.5,2.37.25,4.99.75,6.57.5,1.58,4.01,5.52.5,4.73-3.51-.79-8.28-1.58-8.28-1.58,0,0-3.01-4.47-8.53-4.21-5.52.26-10.03-.53-10.79-3.42-.75-2.89-4.01-7.36-17.56-8.15-13.54-.79-19.56,7.88-19.56,7.88,0,0-4.01,6.05-8.03,6.57-4.01.53-8.03.26-9.78.79,0,0-.02,0-.02,0-1.58,2.66-1.94,6.62-2.38,10.5-.7,1.5-1.47,2.92-2.11,4.48h.7l2.49,2.49v37.66l2.07,2.14c1.35,1.83,2.13,4.2,3.44,6.01,2.52,3.49,4.93,7.11,10.3,7.58.88.08.65.25,1.48.22v-32.37c0-1.81-.09-2.32-.38-3.19-1.85-.67-3.65-.86-6.56-1.05l-.25-.02-4.6-.3-2.49-2.49v-14.78h107.32c1.46,3.77,2.81,7.59,4.02,11.47v36.85h-13.1l-2.49-2.49s-3.79-16.8-7.16-20.96c-4.67-3.78-12.13-5.71-24.96-5.71-1.56,0-6.24,0-7.34.62-.08.19-.3.88-.3,2.67v32.58c10.49-1.93,12.32-9.2,14.46-21.43l.71-4.07h13.42l2.49,2.49v68.87h-13.59l-2.49-2.49s-2.52-17.05-5.52-20.99c-1.69-1.28-3.8-2.23-6.49-2.83-.93-.21-1.92-.38-2.99-.5v35.51c0,1.67.17,2.84.43,3.68.89.33,3.18.61,5.78.84,4.75.42,10.5.68,10.5.68l2.49,2.49v14.01h-11.43c-.29,3.5-1.57,5.9-2.2,9-.25,1.2.1,2.2,1.08,2.71,6.44-.41,12.53-1.32,19.29-1.78,1.43-.1,2.71-.48,3.72-1.22,1.62-3.44,3.42-6.91,6.65-8.84.78-2.79,1.84-5.23,3.58-7.13,1.6-1.74,3.82-2.86,5.45-4.61,1.15-3.89,1.49-8.47,2.93-11.84,1.07-2.51,8.23-9.63,12.7-13.93-10.33,62.52-53.28,114.18-110.73,136.85h0ZM429.2,505.85c-4.34,5.81-13.81,8.68-21.1,10.83-6.88,1.27-14.18,2.58-21.48,1.58l-2.85-2.21c-4.3-4.4-2.86-11.45-2.38-17.18.89-3.63,1.74-7.27,2.59-10.89,1.3-.14,2.6-.31,3.9-.48,11.19-1.31,21.58-3.53,30.88-6.78,2.73,3.72,5.36,7.52,7.84,11.42,2.29,4.29,4.77,9.01,2.59,13.71h0ZM348.53,515.16c-6.06,3.61-15.56,2.78-23.03,2.01-7.16-1.54-14.86-3.08-21.58-7.02l-1.79-3.13c-2.28-5.71,1.74-11.67,4.37-16.79,2.08-2.82,4.11-5.65,6.15-8.47,11.56,3.39,23.6,5.66,35.98,6.69,1.05,4.32,1.98,8.67,2.75,13.05.47,4.86.95,10.14-2.85,13.66h0ZM277.77,481.19c-1.4,4.67-2.99,9.73-7.85,11.52-6.35.93-13.91-2.62-20.19-5.96-6.29-4.37-13.27-8.87-18.22-15.41l-.45-3.57c.08-6.15,6.07-10.13,10.47-13.85,2.77-1.67,5.5-3.37,8.24-5.05,9.41,7.57,19.58,14.22,30.38,19.83-.66,4.18-1.44,8.35-2.37,12.49h0ZM218.42,434.59c-3.08,3.77-6.49,7.84-11.67,7.64-6.59-1.67-12.52-8.5-17.17-14.21-4.1-6.36-8.73-13.12-10.77-20.94l.94-3.48c2.43-5.65,9.49-7.02,14.97-8.78,2.92-.44,5.82-.92,8.71-1.39,6.07,11.18,13.28,21.65,21.47,31.27-2.07,3.35-4.21,6.66-6.48,9.89h0ZM167.1,370.7c-5.1-3.81-7.93-11.59-10.01-18.35-1.38-7.74-3.29-16.14-2.13-24.54l2.21-2.85c4.4-4.29,11.46-2.86,17.18-2.38,2.67.66,5.33,1.28,7.99,1.91,1.26,12.89,3.86,25.39,7.67,37.36-3.01,2.15-6.07,4.26-9.2,6.25-4.3,2.3-9,4.76-13.7,2.59h0ZM156.22,265.09c1.4-6.53,3-13.38,6.55-19.43l3.13-1.8c5.71-2.27,11.68,1.74,16.79,4.38,2.26,1.66,4.52,3.3,6.78,4.93-3.67,11.95-6.14,24.42-7.28,37.26-3.47.8-6.97,1.51-10.49,2.13-4.85.48-10.14.96-13.66-2.85-3.87-6.51-2.63-16.96-1.83-24.63h0ZM185.74,192.3c4.41-6.35,8.95-13.45,15.58-18.47l3.58-.46c6.14.08,10.11,6.08,13.83,10.47,1.43,2.36,2.87,4.7,4.32,7.04-7.82,9.49-14.69,19.79-20.49,30.74-3.62-.6-7.23-1.3-10.83-2.1-4.67-1.41-9.74-2.99-11.53-7.85-.88-6.07,2.33-13.25,5.53-19.36h0ZM244.78,131.8c6.41-4.13,13.2-8.81,21.1-10.86l3.48.94c5.64,2.43,7.02,9.48,8.77,14.97.42,2.74.86,5.46,1.3,8.18-11.57,6.07-22.42,13.35-32.37,21.66-3.04-1.9-6.04-3.88-8.98-5.94-3.77-3.09-7.85-6.5-7.64-11.67,1.68-6.63,8.61-12.6,14.34-17.28h0ZM302.25,109.21c3.74-5,11.29-7.82,17.97-9.89,7.8-1.38,16.27-3.33,24.75-2.16l2.85,2.21c4.29,4.4,2.85,11.45,2.38,17.19-.69,2.8-1.35,5.59-2.01,8.38-12.81,1.1-25.24,3.52-37.16,7.13-2.14-2.99-4.21-6.05-6.19-9.16-2.29-4.29-4.75-9-2.59-13.7h0ZM383.05,100.25c6.69-3.98,17.53-2.56,25.24-1.77,1.65.17,3.26.43,4.86.71,4.73,1.19,9.46,2.72,13.78,5.26l1.8,3.13c2.28,5.71-1.74,11.68-4.38,16.8-2.01,2.73-3.98,5.48-5.96,8.21-11.51-3.61-23.5-6.11-35.85-7.38-.88-3.74-1.66-7.51-2.32-11.31-.49-4.84-.96-10.14,2.83-13.65h0ZM453.09,133.41c1.41-4.67,3-9.74,7.86-11.53,5.59-.82,12.13,1.85,17.91,4.78,6.77,4.83,14.74,9.57,20.23,16.82l.46,3.58c-.07,6.15-6.08,10.11-10.47,13.84-2.96,1.79-5.9,3.61-8.83,5.42-9.15-7.6-19.05-14.33-29.58-20.04.67-4.3,1.46-8.6,2.42-12.86h0ZM512.17,180.25c3.08-3.77,6.49-7.84,11.66-7.65,6.05,1.53,11.54,7.41,16,12.78,4.27,6.71,9.37,13.82,11.54,22.14l-.95,3.48c-2.43,5.65-9.5,7.02-14.97,8.78-3.46.53-6.91,1.1-10.35,1.65-5.71-10.75-12.45-20.87-20.11-30.21,2.28-3.73,4.66-7.4,7.17-10.98h0ZM586.92,278.82c-1.67-4.39-3.22-8.81-4.61-13.29-.84-8.46-.88-16.82-.69-24.13,3.03-15.7,14.37-24,27.98-29.13-1.58-3.99-3.55-8.72-4.91-12.02-14.68,7.12-32.36,8.39-45.65-4.15-2.83-3-5.59-6.06-8.27-9.21h0c-4.43-8.01-7.94-16.35-10.77-23.68-3.2-15.67,4.1-27.68,14.72-37.63-2.99-3.07-6.62-6.7-9.14-9.23-10.84,12.2-26.68,20.14-43.77,13.63-3.27-1.46-6.51-2.99-9.71-4.6-7.47-5.86-14.18-12.48-19.8-18.38-8.96-13.24-6.81-27.13-.8-40.38-3.93-1.7-8.68-3.66-11.97-5.03-5.35,15.42-16.95,28.81-35.23,29.34-5.57-.16-11.14-.47-16.71-1.07-7.09-2.32-13.82-5.09-19.73-7.71-13.34-8.8-16.67-22.46-16.2-37-4.29-.06-9.42-.06-12.98-.06.95,16.29-4.64,33.1-21.31,40.59-3.85,1.47-7.74,2.85-11.67,4.11-9.07,1.02-18.09,1.06-25.93.88-15.69-3.03-23.99-14.38-29.13-27.99-3.98,1.58-8.72,3.55-12,4.9,7.11,14.7,8.37,32.36-4.17,45.66-3.36,3.18-6.81,6.27-10.37,9.24-7.82,4.26-15.91,7.66-23.05,10.41-15.65,3.21-27.67-4.1-37.62-14.71-3.07,2.99-6.7,6.62-9.21,9.14,12.19,10.85,20.13,26.69,13.62,43.78-1.6,3.56-3.26,7.1-5.03,10.58-5.63,7-11.87,13.31-17.46,18.63-13.23,8.96-27.13,6.8-40.38.8-1.69,3.94-3.66,8.68-5.02,11.97,15.42,5.36,28.82,16.96,29.34,35.23-.14,4.85-.39,9.7-.84,14.54-2.45,7.96-5.54,15.52-8.45,22.09-8.8,13.33-22.46,16.66-37.01,16.19-.05,4.28-.06,9.42-.05,12.97,16.29-.95,33.11,4.64,40.59,21.33,1.51,3.95,2.92,7.94,4.21,11.98,1,9.02,1.05,17.98.86,25.78-3.03,15.7-14.37,24-27.99,29.13,1.59,3.99,3.54,8.73,4.91,12.01,14.69-7.12,32.36-8.38,45.66,4.17,3.13,3.3,6.16,6.69,9.09,10.18,4.23,7.79,7.62,15.84,10.37,22.94,3.21,15.66-4.1,27.67-14.73,37.62,2.99,3.06,6.62,6.7,9.14,9.21,10.85-12.19,26.69-20.13,43.77-13.62,3.81,1.7,7.58,3.5,11.3,5.41,6.95,5.6,13.2,11.79,18.49,17.35,8.96,13.23,6.81,27.13.8,40.38,3.94,1.71,8.68,3.66,11.97,5.03,5.36-15.43,16.96-28.83,35.23-29.35,4.67.13,9.34.37,14,.79,8.36,2.49,16.31,5.74,23.18,8.78,13.34,8.81,16.67,22.47,16.19,37.01,4.29.06,9.42.06,12.98.06-.95-16.3,4.64-33.11,21.31-40.59,4.42-1.68,8.88-3.25,13.4-4.66,8.44-.82,16.76-.86,24.06-.69,15.7,3.03,23.99,14.37,29.12,28,3.98-1.58,8.73-3.56,12.01-4.91-7.11-14.7-8.38-32.37,4.17-45.66,3.36-3.18,6.81-6.26,10.37-9.24,7.45-3.97,15.08-7.17,21.86-9.79,15.65-3.2,27.67,4.1,37.62,14.72,3.06-2.99,6.7-6.62,9.22-9.13-12.2-10.85-20.14-26.69-13.63-43.78,2.13-4.75,4.39-9.44,6.86-14.04,5.25-6.32,10.92-12.04,16.06-16.93,13.24-8.96,27.12-6.81,40.39-.81,1.69-3.93,3.65-8.66,5.02-11.97-15.42-5.34-28.81-16.94-29.35-35.21.14-5.13.42-10.26.93-15.38h0c2.39-7.54,5.32-14.68,8.1-20.93,8.8-13.33,22.45-16.67,37-16.19.07-4.3.07-9.42.07-12.98-16.3.95-33.11-4.64-40.6-21.32h0Z"/>
    </g>
    <path class="cls-2" d="M343.16,321.33l2.49,2.49.79,3.97c1.43,7.21,4.48,17.22,10.87,24.41,3.92,3.47,8.9,5.89,15.19,6.39,1.68-1.85,2.29-4.25,2.29-4.25,0,0,2.92-16.75,6.64-20.38.54-.53.96-1.11,1.32-1.7-.04-.02-.06-.04-.1-.06-1.53-.79-3.21-1.62-5.09-2.51l-11.71-5.59c-5.27-2.53-9.69-5.11-13.39-7.69-3.21-.18-5.76-1.22-6.61-4.02-2.75-3.24-7.35-4.95-12.11-6.36-4.87-2.82-9.13-6.23-14.51-8.17-.38-.37-.76-.73-1.15-1.08v79.85h-12.13l-1.14-1.37c.68,2.25.98,4.73.53,7.48.76,1.8,1.76,3.09,2.83,4.45,1.61,2.09,3.21,4.34,3.75,7.54.01,5.91.78,11.18,2.37,15.93,1.06,3.15,3.64,5.21,3.6,9.61.96,4.08,2.89,7.36,4.36,10.91,1,2.38,2.16,4.72,4.67,5.47,2.16.65,4.93.83,7.52.44,1.1-.17,2.11-.43,2.96-1.01.69-1.62,0-3.52-.94-4.5-1.35-1.42-3.7-3.14-2.62-5.98-.61-3.99-2.27-6.94-3.79-9.29-.39-1.67.12-2.5.7-3.1,1.08-1.1,1.45-2.69,1.55-4.83.08-1.92,1-3.41,2.68-3.94,2.36-.77,4.21-2.1,4.77-4.63.94-4.3,3.67-7.2,8.28-7.9,2.19.14,4.29-.71,4.71-2.47,1.31-5.38,2.73-10.49,4.49-15.48-1.82-.54-3.43-1.09-4.84-1.58-2.24-.77-4.2-1.44-5.37-1.51-.26.58-1.59,5.93-1.59,5.93h-14.9l-2.49-2.49v-52.98h15.09Z"/>
    <path class="cls-2" d="M296.32,294.41c-.96-1.27-3.34-2-5.09-1.06l-3.79,1.97,10.63,13.24v-13.88c-.55.04-1.14-.03-1.75-.28h0Z"/>
  </g>
  <g>
    <g>
      <path class="cls-2" d="M756.16,481.54V146.11h138.93v16h-122.92v303.42h122.92v16h-138.93ZM783.06,308.6v-135.82h112.03v16.45h-96.03v102.92h96.03v16.45h-112.03ZM783.06,454.64v-135.59h112.03v16.45h-96.03v103.14h96.03v16h-112.03Z"/>
      <path class="cls-2" d="M925.32,385.95v-144.26c0-29.79,6.37-52.75,19.12-68.91,2.37-2.96,5.33-6.04,8.89-9.22,3.56-3.18,7.81-6.07,12.78-8.67,4.96-2.59,10.63-4.7,17-6.33,6.37-1.63,13.63-2.45,21.78-2.45,16.45,0,29.38,2.93,38.79,8.78,9.41,5.86,16.56,11.82,21.45,17.89,13.04,16.45,19.56,39.42,19.56,68.91v21.34h-16.45v-21.39c0-26.14-5.19-45.96-15.56-59.48-10.97-13.37-26.9-20.05-47.79-20.05s-36.83,6.68-47.79,20.02c-10.67,13.94-15.93,33.74-15.78,59.39v144.37c0,16.46,1.96,29.92,5.89,40.38,3.92,10.45,8.93,18.57,15,24.36,6.07,5.79,12.89,9.71,20.45,11.79s15,3.11,22.34,3.11,14.71-1.04,22.12-3.11c7.41-2.07,14.15-6,20.23-11.78,6.07-5.78,11.08-13.89,15-24.34,3.92-10.45,5.89-23.9,5.89-40.34v-21.78h16.45v21.78c0,29.49-6.52,52.39-19.56,68.69-4.89,6.08-12.04,12.08-21.45,18-9.41,5.93-22.34,8.89-38.79,8.89-8.15,0-15.41-.85-21.78-2.56-6.37-1.7-12.04-3.81-17-6.33-4.97-2.52-9.22-5.37-12.78-8.56-3.56-3.18-6.52-6.34-8.89-9.45-12.75-15.71-19.12-38.6-19.12-68.69ZM952.21,385.95v-144.26c0-45.79,17.6-68.72,52.79-68.8,35.19-.07,52.79,22.86,52.79,68.8v21.34h-16.45v-21.34c0-13.04-1.3-23.15-3.89-30.34-2.59-7.19-5.78-12.37-9.56-15.56-3.78-3.18-7.78-5.07-12-5.67-4.22-.59-7.89-.89-11-.89-3.41,0-7.11.3-11.11.89-4,.59-8,2.48-12,5.67-4,3.19-7.26,8.37-9.78,15.56-2.52,7.19-3.78,17.3-3.78,30.34v144.26c0,19.71,3.48,33.79,10.45,42.23,1.48,2.37,4.19,4.71,8.11,7,3.92,2.3,10,3.45,18.23,3.45s14.23-1.11,18.01-3.33c3.78-2.22,6.56-4.59,8.34-7.11,6.67-8.45,10-22.52,10-42.23v-21.78h16.45v21.78c0,45.79-17.6,68.69-52.79,68.69s-52.79-22.9-52.79-68.69Z"/>
      <path class="cls-2" d="M1111.37,481.54V146.11h138.93v16h-122.92v303.42h122.92v16h-138.93ZM1138.27,308.6v-135.82h112.03v16.45h-96.03v102.92h96.03v16.45h-112.03ZM1138.27,454.64v-135.59h112.03v16.45h-96.03v103.14h96.03v16h-112.03Z"/>
      <path class="cls-2" d="M1280.53,161.22v-16h69.47c28.86,0,50.53,8.3,65.04,24.9,13.62,15.41,20.42,38.46,20.42,69.13s-6.8,53.98-20.41,69.9c-14.5,16.82-36.16,25.16-65,25.01h-26.62v146.49h-16v-162.49h42.68c23.71,0,41.2-6.37,52.46-19.12,11.26-12.74,16.89-32.68,16.89-59.79s-5.63-46.25-16.89-58.96c-11.26-12.71-28.75-19.06-52.46-19.06h-69.57ZM1280.53,480.65V171.89h16v308.75h-16ZM1307.42,307.27v-135.37h42.68c20.6,0,35.49,5.19,44.68,15.56,9.34,10.67,14.04,27.97,14.12,51.9.07,23.93-4.52,41.23-13.78,51.9-9.26,10.67-24.27,16-45.01,16h-42.68ZM1323.43,291.26h26.67c11.85,0,19.93-1.37,24.23-4.11,4.3-2.74,7.04-4.85,8.23-6.34,6.67-7.56,10-21.41,10-41.57,0-10.96-.93-19.74-2.78-26.34-1.86-6.59-4.52-11.74-8-15.45-3.48-3.7-7.89-6.22-13.23-7.56-5.33-1.33-11.49-2-18.45-2h-26.67v103.36Z"/>
    </g>
    <rect class="cls-2" x="1468.01" y="146.11" width="5.12" height="335.43"/>
    <g>
      <path class="cls-2" d="M1513.13,201.13h28.02c.73,0,1.31-.59,1.31-1.31v-5.62c0-.73-.59-1.31-1.31-1.31h-19.81v-14.45h18.69c.73,0,1.31-.59,1.31-1.31v-5.62c0-.73-.59-1.31-1.31-1.31h-18.69v-13.33h19.59c.73,0,1.31-.59,1.31-1.31v-5.62c0-.73-.59-1.31-1.31-1.31h-27.79c-.73,0-1.31.59-1.31,1.31v49.89c0,.73.59,1.31,1.31,1.31Z"/>
      <path class="cls-2" d="M1546.84,201.13h7.19c.42,0,.82-.2,1.07-.55l8.6-11.94,8.67,11.94c.25.34.64.54,1.06.54h7.19c.5,0,.95-.28,1.17-.72.22-.44.18-.97-.11-1.37l-12.76-17.43,12.46-16.98c.29-.4.34-.93.11-1.37-.22-.44-.68-.72-1.17-.72h-7.19c-.42,0-.82.2-1.06.54l-8.37,11.5-8.3-11.49c-.25-.34-.64-.54-1.07-.54h-7.19c-.5,0-.95.28-1.17.72-.22.44-.18.97.11,1.37l12.46,16.98-12.77,17.43c-.29.4-.34.93-.11,1.37.22.44.68.72,1.17.72Z"/>
      <path class="cls-2" d="M1587.75,216.56h6.74c.73,0,1.31-.59,1.31-1.31v-13.98c.57.13,1.15.24,1.74.33,1.19.19,2.55.28,4.06.28,2.74,0,5.33-.46,7.7-1.36,2.38-.91,4.49-2.26,6.26-4,1.77-1.74,3.17-3.91,4.16-6.45.98-2.52,1.47-5.38,1.47-8.53,0-2.82-.37-5.44-1.11-7.81-.74-2.38-1.79-4.48-3.13-6.25-1.36-1.8-3.03-3.21-4.94-4.2-1.93-.99-4.1-1.49-6.44-1.49-3.08,0-5.65.62-7.65,1.84-.87.53-1.68,1.12-2.42,1.76v-1.54c0-.73-.59-1.31-1.31-1.31h-6.44c-.73,0-1.31.59-1.31,1.31v51.39c0,.73.59,1.31,1.31,1.31ZM1595.81,193.19v-19.29c.82-.95,1.88-1.86,3.15-2.7,1.32-.87,2.97-1.32,4.9-1.32,1.32,0,2.48.27,3.45.81,1,.55,1.8,1.29,2.47,2.27.68,1.01,1.2,2.24,1.53,3.67.35,1.49.53,3.12.53,4.86,0,4.01-1,7.1-2.97,9.18-1.98,2.09-4.6,3.1-8,3.1-1.14,0-2.24-.07-3.27-.21-.64-.09-1.24-.21-1.78-.38Z"/>
      <path class="cls-2" d="M1644.01,178.65c-1.59.05-3.19.13-4.8.23-4.13.27-7.5,1.33-10.02,3.17-2.67,1.95-4.02,4.83-4.02,8.55,0,1.67.3,3.23.89,4.63.59,1.41,1.41,2.62,2.44,3.59,1.02.97,2.25,1.73,3.66,2.26,1.39.53,2.94.8,4.59.8,1.45,0,2.85-.16,4.17-.49,1.31-.32,2.53-.76,3.63-1.29,1.06-.52,2.02-1.11,2.87-1.75v1.47c0,.73.59,1.31,1.31,1.31h6.59c.73,0,1.31-.59,1.31-1.31v-21.65c0-5.17-1.4-9.24-4.15-12.08-2.77-2.85-6.5-4.29-11.09-4.29-2.43,0-4.71.24-6.77.71-2.1.48-4.18,1.34-6.19,2.55-.52.31-.76.94-.57,1.52l1.57,4.94c.12.37.4.68.77.82.37.15.78.12,1.12-.07,1.36-.75,2.79-1.34,4.26-1.76,1.45-.41,3-.62,4.62-.62,2.58,0,4.35.67,5.39,2.06,1.12,1.48,1.68,3.62,1.68,6.36v.27c-1.06.01-2.14.03-3.26.07ZM1647.27,185.71v4.73c-1.07,1.07-2.31,1.98-3.71,2.69-1.5.77-3.14,1.17-4.87,1.17-1.48,0-2.61-.31-3.36-.94-.69-.57-1.02-1.47-1.02-2.77,0-.72.13-1.32.4-1.8.27-.48.64-.87,1.12-1.17.56-.35,1.25-.64,2.04-.86.85-.23,1.77-.39,2.77-.49,1.28-.15,2.56-.27,3.85-.37.88-.07,1.81-.13,2.78-.2Z"/>
      <path class="cls-2" d="M1666.04,201.13h6.74c.73,0,1.31-.59,1.31-1.31v-25.9c.79-.92,1.81-1.82,3.07-2.68,1.31-.9,2.79-1.34,4.54-1.34,1.25,0,2.31.25,3.15.75.87.52,1.55,1.21,2.09,2.12.57.97,1,2.15,1.27,3.52.28,1.44.42,3.05.42,4.8v18.73c0,.73.59,1.31,1.31,1.31h6.74c.73,0,1.31-.59,1.31-1.31v-18.95c0-2.48-.25-4.87-.74-7.1-.51-2.3-1.34-4.34-2.47-6.09-1.16-1.79-2.64-3.22-4.4-4.28-1.8-1.07-3.96-1.61-6.44-1.61-2.71,0-5.14.58-7.23,1.74-1.05.58-2.02,1.28-2.92,2.1v-1.77c0-.73-.59-1.31-1.31-1.31h-6.44c-.73,0-1.31.59-1.31,1.31v35.96c0,.73.59,1.31,1.31,1.31Z"/>
      <path class="cls-2" d="M1707.76,196.18c1.36,1.8,2.99,3.21,4.85,4.2,1.88,1,4,1.5,6.31,1.5,2.92,0,5.46-.61,7.55-1.82,1.04-.6,2.01-1.28,2.9-2.03v1.79c0,.73.59,1.31,1.31,1.31h6.37c.73,0,1.31-.59,1.31-1.31v-52.89c0-.73-.59-1.31-1.31-1.31h-6.74c-.73,0-1.31.59-1.31,1.31v15.4c-.57-.13-1.15-.24-1.74-.33-1.19-.19-2.55-.28-4.06-.28-2.75,0-5.34.46-7.7,1.36-2.38.91-4.49,2.26-6.26,4.01-1.77,1.75-3.17,3.93-4.16,6.46-.98,2.52-1.48,5.39-1.48,8.55,0,2.82.36,5.45,1.07,7.81.72,2.39,1.76,4.5,3.09,6.27ZM1712.97,182.1c0-4.01,1-7.1,2.97-9.18,1.98-2.09,4.6-3.1,8-3.1,1.13,0,2.23.07,3.27.21.64.09,1.24.21,1.78.37v19.27c-.87.96-1.98,1.89-3.3,2.75-1.37.9-3.02,1.35-4.9,1.35-2.69,0-4.59-.96-5.81-2.93-1.33-2.14-2.01-5.09-2.01-8.76Z"/>
      <rect class="cls-2" x="1746.98" y="162.54" width="9.37" height="38.59" rx="1.31" ry="1.31"/>
      <path class="cls-2" d="M1751.66,158.8c1.68,0,3.05-.57,4.08-1.7,1-1.1,1.5-2.4,1.5-3.88s-.51-2.79-1.5-3.88c-1.03-1.13-2.4-1.7-4.08-1.7s-3.05.57-4.08,1.7c-1,1.09-1.51,2.4-1.51,3.88s.51,2.79,1.5,3.88c1.03,1.13,2.4,1.7,4.08,1.7Z"/>
      <path class="cls-2" d="M1766.27,201.13h6.74c.73,0,1.31-.59,1.31-1.31v-25.9c.79-.92,1.81-1.82,3.07-2.68,1.31-.9,2.79-1.34,4.54-1.34,1.25,0,2.31.25,3.15.75.87.52,1.55,1.21,2.09,2.12.57.97,1,2.15,1.27,3.52.28,1.44.42,3.05.42,4.8v18.73c0,.73.59,1.31,1.31,1.31h6.74c.73,0,1.31-.59,1.31-1.31v-18.95c0-2.48-.25-4.87-.74-7.1-.51-2.3-1.34-4.34-2.47-6.09-1.16-1.79-2.64-3.22-4.4-4.28-1.8-1.07-3.96-1.61-6.44-1.61-2.71,0-5.14.58-7.23,1.74-1.05.58-2.02,1.28-2.92,2.1v-1.77c0-.73-.59-1.31-1.31-1.31h-6.44c-.73,0-1.31.59-1.31,1.31v35.96c0,.73.59,1.31,1.31,1.31Z"/>
      <path class="cls-2" d="M1807.63,214.87c1.54.83,3.34,1.46,5.35,1.86,1.97.39,4.13.59,6.4.59,2.69,0,5.34-.33,7.86-.98,2.53-.65,4.82-1.59,6.79-2.77,2.02-1.21,3.67-2.71,4.89-4.45,1.28-1.82,1.93-3.86,1.93-6.07,0-1.75-.34-3.3-1.01-4.61-.67-1.31-1.62-2.4-2.83-3.22-1.15-.78-2.53-1.39-4.12-1.8-1.51-.39-3.17-.67-4.94-.82l-7.43-.6c-1.58-.11-2.22-.4-2.46-.56-.12-.08-.36-.24-.36-.9,0-.52.15-1.04.45-1.58.71.08,1.45.12,2.21.12,2.13,0,4.17-.33,6.05-.97,1.89-.65,3.57-1.57,4.98-2.74,1.44-1.19,2.58-2.64,3.38-4.3.81-1.67,1.22-3.53,1.22-5.52,0-1.39-.21-2.71-.63-3.95-.16-.48-.35-.95-.57-1.41h4.01c.73,0,1.31-.59,1.31-1.31v-5.02c0-.73-.59-1.31-1.31-1.31h-13.21c-.8-.24-1.62-.42-2.44-.55-.89-.13-1.83-.2-2.78-.2-2.14,0-4.18.34-6.06,1.01-1.9.68-3.57,1.65-4.96,2.87-1.4,1.23-2.52,2.69-3.34,4.33-.84,1.68-1.26,3.54-1.26,5.53,0,2.98.85,5.59,2.52,7.74,1.16,1.49,2.59,2.71,4.27,3.64-.37.3-.72.63-1.04.98-1.03,1.1-1.56,2.56-1.56,4.35,0,1.6.44,2.96,1.3,4.04.21.26.43.51.66.74-.38.14-.76.29-1.15.45-1.29.54-2.48,1.21-3.54,1.99-1.1.82-2.02,1.81-2.73,2.94-.75,1.21-1.14,2.63-1.14,4.22,0,1.87.5,3.52,1.47,4.91.94,1.33,2.22,2.45,3.82,3.32ZM1815.73,201.01c.77-.41,1.52-.78,2.25-1.14l6.97.57c1.02.1,2.01.22,2.92.36.83.13,1.56.35,2.2.64.57.27,1.01.59,1.34.99.25.31.38.75.38,1.34,0,.93-.3,1.73-.91,2.43-.7.81-1.62,1.5-2.73,2.04-1.16.57-2.5,1-3.97,1.27-1.51.28-3.02.43-4.48.43-2.73,0-4.87-.38-6.38-1.14-1.26-.63-1.82-1.54-1.82-2.94,0-.69.16-1.28.5-1.79.39-.6.9-1.15,1.52-1.64.65-.52,1.4-1,2.23-1.44ZM1813.36,175.47c0-2.05.61-3.54,1.87-4.56,1.35-1.09,3.02-1.62,5.13-1.62s3.77.55,5.11,1.68c1.27,1.07,1.89,2.54,1.89,4.5s-.63,3.42-1.92,4.49c-1.37,1.13-3.03,1.68-5.08,1.68s-3.73-.53-5.1-1.62c-1.28-1.02-1.9-2.51-1.9-4.55Z"/>
      <path class="cls-2" d="M1524.81,288.04c3.36,1.36,7.22,2.04,11.47,2.04,2.31,0,4.75-.22,7.27-.66,2.54-.44,4.7-1.04,6.43-1.77.58-.25.9-.87.77-1.48l-1.12-5.32c-.08-.37-.31-.69-.64-.87s-.72-.22-1.08-.09c-1.63.57-3.4,1.05-5.28,1.41-1.86.36-3.72.54-5.52.54-5.85,0-10.46-1.64-13.68-4.86-3.22-3.22-4.86-7.95-4.86-14.05s1.63-10.83,4.86-14.05c3.23-3.22,7.83-4.86,13.68-4.86,1.81,0,3.66.18,5.52.54,1.87.36,3.65.83,5.28,1.41.36.13.75.09,1.08-.09.33-.19.56-.5.64-.87l1.12-5.32c.13-.62-.19-1.24-.77-1.48-1.73-.74-3.9-1.33-6.43-1.77-7.15-1.24-13.54-.71-18.73,1.39-3.38,1.36-6.27,3.28-8.59,5.7-2.31,2.42-4.11,5.32-5.34,8.61-1.22,3.28-1.84,6.91-1.84,10.8s.62,7.52,1.84,10.8c1.23,3.3,3.03,6.2,5.34,8.62,2.32,2.42,5.21,4.34,8.59,5.7Z"/>
      <path class="cls-2" d="M1571.79,249.85c-2.98,0-5.66.55-7.97,1.62-2.31,1.07-4.29,2.56-5.91,4.41-1.6,1.85-2.83,3.99-3.66,6.39-.82,2.37-1.23,4.94-1.23,7.62s.41,5.25,1.23,7.62c.83,2.4,2.06,4.55,3.66,6.39,1.61,1.86,3.6,3.34,5.91,4.41,2.31,1.07,4.99,1.62,7.97,1.62s5.59-.54,7.93-1.62c2.33-1.07,4.33-2.56,5.95-4.41,1.6-1.84,2.83-3.99,3.66-6.39.82-2.38,1.23-4.94,1.23-7.62s-.41-5.24-1.23-7.62c-.83-2.4-2.06-4.55-3.66-6.39-1.61-1.85-3.62-3.34-5.95-4.41-2.34-1.07-5.01-1.62-7.93-1.62ZM1580.56,265c.42,1.53.63,3.18.63,4.9s-.21,3.43-.63,4.93c-.4,1.46-1.01,2.76-1.79,3.86-.75,1.05-1.71,1.88-2.87,2.48-1.15.6-2.54.9-4.12.9s-2.96-.3-4.11-.9c-1.16-.6-2.12-1.43-2.87-2.48-.78-1.09-1.38-2.39-1.79-3.86-.42-1.5-.63-3.16-.63-4.93s.21-3.37.63-4.9c.41-1.49,1.01-2.8,1.79-3.89.74-1.04,1.71-1.88,2.87-2.48,1.15-.6,2.54-.9,4.11-.9s2.96.3,4.11.9c1.17.61,2.11,1.42,2.87,2.48.78,1.1,1.38,2.4,1.79,3.89Z"/>
      <path class="cls-2" d="M1608.54,251.59c-1.05.58-2.02,1.28-2.92,2.1v-1.77c0-.73-.59-1.31-1.31-1.31h-6.44c-.73,0-1.31.59-1.31,1.31v35.96c0,.73.59,1.31,1.31,1.31h6.74c.73,0,1.31-.59,1.31-1.31v-25.9c.79-.92,1.81-1.82,3.07-2.68,1.31-.9,2.79-1.34,4.54-1.34,1.24,0,2.27.25,3.05.74.81.51,1.45,1.2,1.94,2.1.52.96.9,2.14,1.13,3.51.24,1.45.36,3.08.36,4.85v18.73c0,.73.59,1.31,1.31,1.31h6.74c.73,0,1.31-.59,1.31-1.31v-18.95c0-2.2-.19-4.29-.58-6.25,1.07-1.28,2.29-2.39,3.63-3.3,1.41-.96,2.9-1.42,4.54-1.42,1.24,0,2.27.25,3.05.74.81.51,1.45,1.2,1.94,2.1.52.96.9,2.14,1.13,3.51.24,1.45.36,3.08.36,4.85v18.73c0,.73.59,1.31,1.31,1.31h6.74c.73,0,1.31-.59,1.31-1.31v-18.95c0-2.48-.25-4.87-.74-7.1-.51-2.28-1.31-4.32-2.37-6.06-1.11-1.8-2.57-3.24-4.34-4.3-1.8-1.07-3.97-1.61-6.44-1.61-3.17,0-5.93.68-8.2,2.02-1.66.98-3.16,2.28-4.48,3.86-.91-1.51-2.03-2.76-3.35-3.75-1.9-1.42-4.29-2.13-7.12-2.13s-5.14.58-7.23,1.74Z"/>
      <path class="cls-2" d="M1662.36,304.62h6.74c.73,0,1.31-.59,1.31-1.31v-13.98c.57.13,1.15.24,1.74.33,1.19.19,2.55.28,4.06.28,2.74,0,5.33-.46,7.7-1.36,2.38-.91,4.49-2.26,6.26-4,1.77-1.74,3.17-3.91,4.16-6.45.98-2.52,1.47-5.38,1.47-8.53,0-2.82-.37-5.44-1.11-7.81-.74-2.38-1.79-4.48-3.13-6.25-1.36-1.8-3.03-3.21-4.94-4.2-1.93-.99-4.1-1.49-6.44-1.49-3.08,0-5.65.62-7.65,1.84-.87.53-1.68,1.12-2.42,1.76v-1.54c0-.73-.59-1.31-1.31-1.31h-6.44c-.73,0-1.31.59-1.31,1.31v51.39c0,.73.59,1.31,1.31,1.31ZM1670.42,281.25v-19.29c.82-.95,1.88-1.86,3.15-2.7,1.32-.87,2.97-1.32,4.9-1.32,1.32,0,2.48.27,3.45.81,1,.55,1.8,1.29,2.47,2.27.68,1.01,1.2,2.24,1.53,3.67.35,1.49.53,3.12.53,4.86,0,4.01-1,7.1-2.97,9.18-1.98,2.09-4.6,3.1-8,3.1-1.14,0-2.24-.07-3.27-.21-.64-.09-1.24-.21-1.78-.38Z"/>
      <path class="cls-2" d="M1704.1,284.03c1.11,1.8,2.55,3.24,4.3,4.3,1.78,1.07,3.93,1.61,6.41,1.61,2.72,0,5.18-.63,7.29-1.86,1.03-.6,1.98-1.29,2.85-2.07v1.87c0,.73.59,1.31,1.31,1.31h6.44c.73,0,1.31-.59,1.31-1.31v-35.96c0-.73-.59-1.31-1.31-1.31h-6.74c-.73,0-1.31.59-1.31,1.31v25.88c-.83.93-1.87,1.84-3.11,2.71-1.28.9-2.75,1.34-4.49,1.34-1.3,0-2.36-.25-3.17-.75-.83-.51-1.47-1.19-1.97-2.09-.53-.96-.91-2.15-1.13-3.52-.24-1.44-.36-3.07-.36-4.84v-18.73c0-.73-.59-1.31-1.31-1.31h-6.74c-.73,0-1.31.59-1.31,1.31v18.95c0,2.48.24,4.86.7,7.09.48,2.29,1.27,4.33,2.34,6.08Z"/>
      <path class="cls-2" d="M1751.56,288.88c1.52.7,3.37,1.06,5.5,1.06,1.47,0,3-.15,4.55-.43,1.59-.3,2.8-.63,3.69-1.02.53-.23.85-.78.78-1.36l-.6-5.09c-.05-.4-.28-.76-.63-.97s-.77-.25-1.15-.1c-1.54.59-3.3.89-5.22.89-.92,0-1.65-.14-2.15-.41-.5-.27-.87-.61-1.15-1.07-.31-.49-.52-1.13-.64-1.88-.14-.85-.21-1.77-.21-2.75v-17.04h10.52c.73,0,1.31-.59,1.31-1.31v-5.47c0-.73-.59-1.31-1.31-1.31h-10.52v-7.9c0-.73-.59-1.31-1.31-1.31h-6.74c-.73,0-1.31.59-1.31,1.31v7.9h-5.13c-.73,0-1.31.59-1.31,1.31v5.47c0,.73.59,1.31,1.31,1.31h5.13v17.27c0,1.95.22,3.78.64,5.42.44,1.72,1.16,3.23,2.15,4.49,1,1.29,2.29,2.3,3.82,3.01Z"/>
      <path class="cls-2" d="M1780.54,237.39c-1.03-1.13-2.4-1.7-4.08-1.7s-3.05.57-4.08,1.7c-1,1.09-1.51,2.4-1.51,3.88s.51,2.79,1.5,3.88c1.03,1.13,2.4,1.7,4.08,1.7s3.05-.57,4.08-1.7c1-1.1,1.5-2.4,1.5-3.88s-.51-2.79-1.5-3.88Z"/>
      <rect class="cls-2" x="1771.77" y="250.6" width="9.37" height="38.59" rx="1.31" ry="1.31"/>
      <path class="cls-2" d="M1791.07,250.6c-.73,0-1.31.59-1.31,1.31v35.96c0,.73.59,1.31,1.31,1.31h6.74c.73,0,1.31-.59,1.31-1.31v-25.9c.79-.92,1.81-1.82,3.07-2.68,1.31-.9,2.79-1.34,4.54-1.34,1.25,0,2.31.25,3.15.75.87.52,1.55,1.21,2.09,2.12.57.97,1,2.15,1.27,3.52.28,1.44.42,3.05.42,4.8v18.73c0,.73.59,1.31,1.31,1.31h6.74c.73,0,1.31-.59,1.31-1.31v-18.95c0-2.48-.25-4.87-.74-7.1-.51-2.3-1.34-4.34-2.47-6.09-1.16-1.79-2.64-3.22-4.4-4.28-1.8-1.07-3.96-1.61-6.44-1.61-2.71,0-5.14.58-7.23,1.74-1.05.58-2.02,1.28-2.92,2.1v-1.77c0-.73-.59-1.31-1.31-1.31h-6.44Z"/>
      <path class="cls-2" d="M1864.64,286.49c-.67-1.31-1.62-2.4-2.83-3.22-1.15-.78-2.53-1.39-4.12-1.8-1.51-.39-3.17-.67-4.94-.82l-7.43-.6c-1.58-.11-2.22-.4-2.46-.56-.12-.08-.36-.24-.36-.9,0-.52.15-1.04.45-1.58.71.08,1.45.12,2.21.12,2.13,0,4.17-.33,6.05-.97,1.89-.65,3.57-1.57,4.98-2.74,1.44-1.19,2.58-2.64,3.38-4.3.81-1.67,1.22-3.53,1.22-5.52,0-1.39-.21-2.71-.63-3.95-.16-.48-.35-.95-.57-1.41h4.01c.73,0,1.31-.59,1.31-1.31v-5.02c0-.73-.59-1.31-1.31-1.31h-13.21c-.8-.24-1.62-.42-2.44-.55-.89-.13-1.83-.2-2.78-.2-2.14,0-4.18.34-6.06,1.01-1.9.68-3.57,1.65-4.96,2.87-1.4,1.23-2.52,2.69-3.34,4.33-.84,1.68-1.26,3.54-1.26,5.53,0,2.98.85,5.59,2.52,7.74,1.16,1.49,2.59,2.71,4.27,3.64-.37.3-.72.63-1.04.98-1.03,1.1-1.56,2.56-1.56,4.35,0,1.6.44,2.96,1.3,4.04.21.26.43.51.66.74-.38.14-.76.29-1.15.45-1.29.54-2.48,1.21-3.54,1.99-1.1.82-2.02,1.81-2.73,2.94-.75,1.21-1.14,2.63-1.14,4.22,0,1.87.5,3.52,1.47,4.91.94,1.33,2.22,2.45,3.82,3.32,1.54.83,3.34,1.46,5.35,1.86,1.97.39,4.13.59,6.4.59,2.69,0,5.34-.33,7.86-.98,2.53-.65,4.82-1.59,6.79-2.77,2.02-1.21,3.67-2.71,4.89-4.45,1.28-1.82,1.93-3.86,1.93-6.07,0-1.75-.34-3.3-1.01-4.61ZM1840.53,289.07c.77-.41,1.52-.78,2.25-1.14l6.97.57c1.02.1,2.01.22,2.92.36.83.13,1.56.35,2.2.64.57.27,1.01.59,1.34.99.25.31.38.75.38,1.34,0,.93-.3,1.73-.91,2.43-.7.81-1.62,1.5-2.73,2.04-1.16.57-2.5,1-3.97,1.27-1.51.28-3.02.43-4.48.43-2.73,0-4.87-.38-6.38-1.14-1.26-.63-1.82-1.54-1.82-2.94,0-.69.16-1.28.5-1.79.39-.6.9-1.15,1.52-1.64.65-.52,1.4-1,2.23-1.44ZM1838.15,263.53c0-2.05.61-3.54,1.87-4.56,1.35-1.09,3.02-1.62,5.13-1.62s3.77.55,5.11,1.68c1.27,1.07,1.89,2.54,1.89,4.5s-.63,3.42-1.92,4.49c-1.37,1.13-3.03,1.68-5.08,1.68s-3.73-.53-5.1-1.62c-1.28-1.02-1.9-2.51-1.9-4.55Z"/>
      <path class="cls-2" d="M1540.93,332.97c.73,0,1.31-.59,1.31-1.31v-5.62c0-.73-.59-1.31-1.31-1.31h-27.79c-.73,0-1.31.59-1.31,1.31v49.89c0,.73.59,1.31,1.31,1.31h28.02c.73,0,1.31-.59,1.31-1.31v-5.62c0-.73-.59-1.31-1.31-1.31h-19.81v-14.45h18.69c.73,0,1.31-.59,1.31-1.31v-5.62c0-.73-.59-1.31-1.31-1.31h-18.69v-13.33h19.59Z"/>
      <path class="cls-2" d="M1580.26,321.73h-6.74c-.73,0-1.31.59-1.31,1.31v15.4c-.57-.13-1.15-.24-1.74-.33-1.19-.19-2.55-.28-4.06-.28-2.75,0-5.34.46-7.7,1.36-2.38.91-4.49,2.26-6.26,4.01-1.77,1.75-3.17,3.93-4.16,6.46-.98,2.52-1.48,5.39-1.48,8.55,0,2.82.36,5.45,1.07,7.81.72,2.39,1.76,4.5,3.09,6.27,1.36,1.8,2.99,3.21,4.85,4.2,1.88,1,4,1.5,6.31,1.5,2.92,0,5.46-.61,7.55-1.82,1.04-.6,2.01-1.28,2.9-2.03v1.79c0,.73.59,1.31,1.31,1.31h6.37c.73,0,1.31-.59,1.31-1.31v-52.89c0-.73-.59-1.31-1.31-1.31ZM1572.2,346.52v19.27c-.87.96-1.98,1.89-3.3,2.75-1.37.9-3.02,1.35-4.9,1.35-2.69,0-4.59-.96-5.81-2.93-1.33-2.14-2.01-5.09-2.01-8.76,0-4.01,1-7.1,2.97-9.18,1.98-2.09,4.6-3.1,8-3.1,1.13,0,2.23.07,3.27.21.64.09,1.24.21,1.78.37Z"/>
      <path class="cls-2" d="M1622.4,375.93v-35.96c0-.73-.59-1.31-1.31-1.31h-6.74c-.73,0-1.31.59-1.31,1.31v25.88c-.83.93-1.87,1.84-3.11,2.71-1.28.9-2.75,1.34-4.49,1.34-1.3,0-2.36-.25-3.17-.75-.83-.51-1.47-1.19-1.97-2.09-.53-.96-.91-2.15-1.13-3.52-.24-1.44-.36-3.07-.36-4.84v-18.73c0-.73-.59-1.31-1.31-1.31h-6.74c-.73,0-1.31.59-1.31,1.31v18.95c0,2.48.24,4.86.7,7.09.48,2.29,1.27,4.33,2.34,6.08,1.11,1.8,2.55,3.24,4.3,4.3,1.78,1.07,3.93,1.61,6.41,1.61,2.72,0,5.18-.63,7.29-1.86,1.03-.6,1.98-1.29,2.85-2.07v1.87c0,.73.59,1.31,1.31,1.31h6.44c.73,0,1.31-.59,1.31-1.31Z"/>
      <path class="cls-2" d="M1658.79,374.47l-.97-5.22c-.07-.39-.32-.73-.67-.92-.35-.19-.77-.21-1.13-.05-1.21.51-2.52.91-3.91,1.2-1.38.28-2.77.42-4.12.42-3.65,0-6.24-1.04-7.92-3.19-1.73-2.22-2.61-5.18-2.61-8.79s.88-6.57,2.61-8.79c1.67-2.15,4.26-3.19,7.92-3.19,1.35,0,2.74.14,4.12.42,1.38.28,2.69.68,3.91,1.2.36.15.78.14,1.13-.05s.6-.53.67-.92l.97-5.22c.11-.58-.18-1.16-.72-1.42-1.34-.65-2.96-1.18-4.81-1.55-1.83-.37-3.81-.56-5.88-.56-3.17,0-6,.54-8.4,1.62-2.41,1.07-4.46,2.57-6.08,4.43-1.61,1.85-2.83,4.02-3.63,6.46-.79,2.4-1.19,4.95-1.19,7.58s.4,5.18,1.19,7.58c.8,2.43,2.02,4.6,3.63,6.46,1.62,1.86,3.66,3.35,6.08,4.43,2.41,1.07,5.23,1.61,8.4,1.61,1.77,0,3.66-.19,5.63-.55,2.01-.37,3.71-.9,5.05-1.55.53-.26.82-.84.72-1.42Z"/>
      <path class="cls-2" d="M1685.96,377.25h6.59c.73,0,1.31-.59,1.31-1.31v-21.65c0-5.17-1.4-9.24-4.15-12.08-2.77-2.85-6.5-4.29-11.09-4.29-2.43,0-4.71.24-6.77.71-2.1.48-4.18,1.34-6.19,2.55-.52.31-.76.94-.57,1.52l1.57,4.94c.12.37.4.68.77.82.37.15.78.12,1.12-.07,1.36-.75,2.79-1.34,4.26-1.76,1.45-.41,3-.62,4.62-.62,2.58,0,4.35.67,5.39,2.06,1.12,1.48,1.68,3.62,1.68,6.36v.27c-1.06.01-2.14.03-3.26.07-1.59.05-3.19.13-4.8.23-4.13.27-7.5,1.33-10.02,3.17-2.67,1.95-4.02,4.83-4.02,8.55,0,1.67.3,3.23.89,4.63.59,1.41,1.41,2.62,2.44,3.59,1.02.97,2.25,1.73,3.66,2.26,1.39.53,2.94.8,4.59.8,1.45,0,2.85-.16,4.17-.49,1.31-.32,2.53-.76,3.63-1.29,1.06-.52,2.02-1.11,2.87-1.75v1.47c0,.73.59,1.31,1.31,1.31ZM1684.5,361.83v4.73c-1.07,1.07-2.31,1.98-3.71,2.69-1.5.77-3.14,1.17-4.87,1.17-1.48,0-2.61-.31-3.36-.94-.69-.57-1.02-1.47-1.02-2.77,0-.72.13-1.32.4-1.8.27-.48.64-.87,1.12-1.17.56-.35,1.25-.64,2.04-.86.85-.23,1.77-.39,2.77-.49,1.28-.15,2.56-.27,3.85-.37.88-.07,1.81-.13,2.78-.2Z"/>
      <path class="cls-2" d="M1720.93,377.56c1.59-.3,2.8-.63,3.69-1.02.53-.23.85-.78.78-1.36l-.6-5.09c-.05-.4-.28-.76-.63-.97s-.77-.25-1.15-.1c-1.54.59-3.3.89-5.22.89-.92,0-1.65-.14-2.15-.41-.5-.27-.87-.61-1.15-1.07-.31-.49-.52-1.13-.64-1.88-.14-.85-.21-1.77-.21-2.75v-17.04h10.52c.73,0,1.31-.59,1.31-1.31v-5.47c0-.73-.59-1.31-1.31-1.31h-10.52v-7.9c0-.73-.59-1.31-1.31-1.31h-6.74c-.73,0-1.31.59-1.31,1.31v7.9h-5.13c-.73,0-1.31.59-1.31,1.31v5.47c0,.73.59,1.31,1.31,1.31h5.13v17.27c0,1.95.22,3.78.64,5.42.44,1.72,1.16,3.23,2.15,4.49,1,1.29,2.29,2.3,3.82,3.01,1.52.7,3.37,1.06,5.5,1.06,1.47,0,3-.15,4.55-.43Z"/>
      <rect class="cls-2" x="1731.1" y="338.66" width="9.37" height="38.59" rx="1.31" ry="1.31"/>
      <path class="cls-2" d="M1739.86,325.45c-1.03-1.13-2.4-1.7-4.08-1.7s-3.05.57-4.08,1.7c-1,1.09-1.51,2.4-1.51,3.88s.51,2.79,1.5,3.88c1.03,1.13,2.4,1.7,4.08,1.7s3.05-.57,4.08-1.7c1-1.1,1.5-2.4,1.5-3.88s-.51-2.79-1.5-3.88Z"/>
      <path class="cls-2" d="M1782.76,350.33c-.83-2.4-2.06-4.55-3.66-6.39-1.61-1.85-3.62-3.34-5.95-4.41-2.34-1.07-5.01-1.62-7.93-1.62s-5.66.55-7.97,1.62c-2.31,1.07-4.29,2.56-5.91,4.41-1.6,1.85-2.83,3.99-3.66,6.39-.82,2.37-1.23,4.94-1.23,7.62s.41,5.25,1.23,7.62c.83,2.4,2.06,4.55,3.66,6.39,1.61,1.86,3.6,3.34,5.91,4.41,2.31,1.07,4.99,1.62,7.97,1.62s5.59-.54,7.93-1.62c2.33-1.07,4.33-2.56,5.95-4.41,1.6-1.84,2.83-3.99,3.66-6.39.82-2.38,1.23-4.94,1.23-7.62s-.41-5.24-1.23-7.62ZM1774.62,357.95c0,1.77-.21,3.43-.63,4.93-.4,1.46-1.01,2.76-1.79,3.86-.75,1.05-1.71,1.88-2.87,2.48-1.15.6-2.54.9-4.12.9s-2.96-.3-4.11-.9c-1.16-.6-2.12-1.43-2.87-2.48-.78-1.09-1.38-2.39-1.79-3.86-.42-1.5-.63-3.16-.63-4.93s.21-3.37.63-4.9c.41-1.49,1.01-2.8,1.79-3.89.74-1.04,1.71-1.88,2.87-2.48,1.15-.6,2.54-.9,4.11-.9s2.96.3,4.11.9c1.17.61,2.11,1.42,2.87,2.48.78,1.1,1.38,2.4,1.79,3.89.42,1.53.63,3.18.63,4.9Z"/>
      <path class="cls-2" d="M1820.04,343.79c-1.16-1.79-2.64-3.22-4.4-4.28-1.8-1.07-3.96-1.61-6.44-1.61-2.71,0-5.14.58-7.23,1.74-1.05.58-2.02,1.28-2.92,2.1v-1.77c0-.73-.59-1.31-1.31-1.31h-6.44c-.73,0-1.31.59-1.31,1.31v35.96c0,.73.59,1.31,1.31,1.31h6.74c.73,0,1.31-.59,1.31-1.31v-25.9c.79-.92,1.81-1.82,3.07-2.68,1.31-.9,2.79-1.34,4.54-1.34,1.25,0,2.31.25,3.15.75.87.52,1.55,1.21,2.09,2.12.57.97,1,2.15,1.27,3.52.28,1.44.42,3.05.42,4.8v18.73c0,.73.59,1.31,1.31,1.31h6.74c.73,0,1.31-.59,1.31-1.31v-18.95c0-2.48-.25-4.87-.74-7.1-.51-2.3-1.34-4.34-2.47-6.09Z"/>
      <path class="cls-2" d="M1539.55,416.66c-1.84-1.31-4.03-2.3-6.5-2.94-2.42-.62-5.06-.94-7.86-.94h-12.06c-.73,0-1.31.59-1.31,1.31v49.89c0,.73.59,1.31,1.31,1.31h6.89c.73,0,1.31-.59,1.31-1.31v-18.39h2.13c3.06,0,5.95-.38,8.6-1.14,2.68-.76,5.05-1.87,7.04-3.31,2.03-1.46,3.63-3.26,4.77-5.34,1.15-2.11,1.73-4.5,1.73-7.11s-.54-5.02-1.62-7.02c-1.06-2-2.56-3.68-4.44-5.02ZM1536.09,428.63c0,1.37-.29,2.6-.85,3.65-.58,1.07-1.4,1.99-2.45,2.74-1.09.78-2.41,1.38-3.92,1.79-1.55.42-3.29.63-5.16.63h-2.36v-16.48h3.63c1.59,0,3.13.15,4.56.46,1.36.29,2.55.76,3.53,1.39.95.62,1.69,1.38,2.23,2.32.53.92.8,2.1.8,3.5Z"/>
      <path class="cls-2" d="M1563.7,425.97c-2.43,0-4.71.24-6.77.71-2.1.48-4.18,1.34-6.19,2.55-.52.31-.76.94-.57,1.52l1.57,4.94c.12.37.4.68.77.82.37.15.78.12,1.12-.07,1.36-.75,2.79-1.34,4.26-1.76,1.45-.41,3-.62,4.62-.62,2.58,0,4.35.67,5.39,2.06,1.12,1.48,1.68,3.62,1.68,6.36v.27c-1.06.01-2.14.03-3.26.07-1.59.05-3.19.13-4.8.23-4.13.27-7.5,1.33-10.02,3.17-2.67,1.95-4.02,4.83-4.02,8.55,0,1.67.3,3.23.89,4.63.59,1.41,1.41,2.62,2.44,3.59,1.02.97,2.25,1.73,3.66,2.26,1.39.53,2.94.8,4.59.8,1.45,0,2.85-.16,4.17-.49,1.31-.32,2.53-.76,3.63-1.29,1.06-.52,2.02-1.11,2.87-1.75v1.47c0,.73.59,1.31,1.31,1.31h6.59c.73,0,1.31-.59,1.31-1.31v-21.65c0-5.17-1.4-9.24-4.15-12.08-2.77-2.85-6.5-4.29-11.09-4.29ZM1569.58,449.89v4.73c-1.07,1.07-2.31,1.98-3.71,2.69-1.5.77-3.14,1.17-4.87,1.17-1.48,0-2.61-.31-3.36-.94-.69-.57-1.02-1.47-1.02-2.77,0-.72.13-1.32.4-1.8.27-.48.64-.87,1.12-1.17.56-.35,1.25-.64,2.04-.86.85-.23,1.77-.39,2.77-.49,1.28-.15,2.56-.27,3.85-.37.88-.07,1.81-.13,2.78-.2Z"/>
      <path class="cls-2" d="M1609.25,426.72h-10.52v-7.9c0-.73-.59-1.31-1.31-1.31h-6.74c-.73,0-1.31.59-1.31,1.31v7.9h-5.13c-.73,0-1.31.59-1.31,1.31v5.47c0,.73.59,1.31,1.31,1.31h5.13v17.27c0,1.95.22,3.78.64,5.42.44,1.72,1.16,3.23,2.15,4.49,1,1.29,2.29,2.3,3.82,3.01,1.52.7,3.37,1.06,5.5,1.06,1.47,0,3-.15,4.55-.43,1.59-.3,2.8-.63,3.69-1.02.53-.23.85-.78.78-1.36l-.6-5.09c-.05-.4-.28-.76-.63-.97s-.77-.25-1.15-.1c-1.54.59-3.3.89-5.22.89-.92,0-1.65-.14-2.15-.41-.5-.27-.87-.61-1.15-1.07-.31-.49-.52-1.13-.64-1.88-.14-.85-.21-1.77-.21-2.75v-17.04h10.52c.73,0,1.31-.59,1.31-1.31v-5.47c0-.73-.59-1.31-1.31-1.31Z"/>
      <path class="cls-2" d="M1646.24,431.85c-1.16-1.79-2.64-3.22-4.4-4.28-1.8-1.07-3.96-1.61-6.44-1.61s-4.91.5-6.88,1.49c-1.04.52-2.03,1.17-2.97,1.96v-18.31c0-.73-.59-1.31-1.31-1.31h-6.74c-.73,0-1.31.59-1.31,1.31v52.89c0,.73.59,1.31,1.31,1.31h6.74c.73,0,1.31-.59,1.31-1.31v-25.9c.79-.92,1.81-1.82,3.07-2.68,1.31-.9,2.79-1.34,4.54-1.34,1.25,0,2.31.25,3.15.75.87.52,1.55,1.21,2.09,2.12.57.97,1,2.15,1.27,3.52.28,1.44.42,3.05.42,4.8v18.73c0,.73.59,1.31,1.31,1.31h6.74c.73,0,1.31-.59,1.31-1.31v-18.95c0-2.48-.25-4.87-.74-7.1-.51-2.3-1.34-4.34-2.47-6.09Z"/>
      <path class="cls-2" d="M1708.36,426.72h-6.37c-.59,0-1.11.4-1.27.97l-6.41,23.76-7.77-23.82c-.18-.54-.68-.91-1.25-.91h-7.34c-.57,0-1.07.37-1.25.91l-7.77,23.82-6.41-23.76c-.16-.57-.68-.97-1.27-.97h-6.37c-.41,0-.8.2-1.05.53-.25.33-.33.76-.21,1.16l10.64,35.96c.17.56.68.94,1.26.94h6.29c.57,0,1.07-.37,1.25-.91l8.56-26.35,8.56,26.35c.18.54.68.91,1.25.91h6.29c.58,0,1.09-.38,1.26-.94l10.64-35.96c.12-.4.04-.83-.21-1.16-.25-.33-.64-.53-1.05-.53Z"/>
      <path class="cls-2" d="M1727.76,425.97c-2.43,0-4.71.24-6.77.71-2.1.48-4.18,1.34-6.19,2.55-.52.31-.76.94-.57,1.52l1.57,4.94c.12.37.4.68.77.82.37.15.78.12,1.12-.07,1.36-.75,2.79-1.34,4.26-1.76,1.45-.41,3-.62,4.62-.62,2.58,0,4.35.67,5.39,2.06,1.12,1.48,1.68,3.62,1.68,6.36v.27c-1.06.01-2.14.03-3.26.07-1.59.05-3.19.13-4.8.23-4.13.27-7.5,1.33-10.02,3.17-2.67,1.95-4.02,4.83-4.02,8.55,0,1.67.3,3.23.89,4.63.59,1.41,1.41,2.62,2.44,3.59,1.02.97,2.25,1.73,3.66,2.26,1.39.53,2.94.8,4.59.8,1.45,0,2.85-.16,4.17-.49,1.31-.32,2.53-.76,3.63-1.29,1.06-.52,2.02-1.11,2.87-1.75v1.47c0,.73.59,1.31,1.31,1.31h6.59c.73,0,1.31-.59,1.31-1.31v-21.65c0-5.17-1.4-9.24-4.15-12.08-2.77-2.85-6.5-4.29-11.09-4.29ZM1733.64,449.89v4.73c-1.07,1.07-2.31,1.98-3.71,2.69-1.5.77-3.14,1.17-4.87,1.17-1.48,0-2.61-.31-3.36-.94-.69-.57-1.02-1.47-1.02-2.77,0-.72.13-1.32.4-1.8.27-.48.64-.87,1.12-1.17.56-.35,1.25-.64,2.04-.86.85-.23,1.77-.39,2.77-.49,1.28-.15,2.56-.27,3.85-.37.88-.07,1.81-.13,2.78-.2Z"/>
      <path class="cls-2" d="M1780.36,426.72h-6.97c-.57,0-1.08.37-1.25.92l-8.05,25.5-8.18-25.51c-.17-.54-.68-.91-1.25-.91h-6.97c-.43,0-.83.21-1.08.56-.25.35-.3.8-.16,1.2l13.03,35.89-5.16,14.61c-.14.4-.08.85.17,1.2.25.35.65.56,1.07.56h6.59c.56,0,1.05-.35,1.24-.88l18.21-51.39c.14-.4.08-.85-.17-1.2s-.65-.56-1.07-.56Z"/>
      <path class="cls-2" d="M1805.93,444.67c-1.34-.92-2.72-1.68-4.09-2.26-1.28-.54-2.24-.96-2.85-1.24-.72-.36-1.49-.72-2.31-1.08-.73-.32-1.42-.68-2.04-1.07-.55-.35-1-.73-1.33-1.14-.23-.29-.34-.63-.34-1.08,0-1.4.57-1.87,1.07-2.12,1.01-.5,2.3-.76,3.83-.76s2.99.18,4.45.53c1.47.35,2.91.86,4.27,1.52.36.17.78.17,1.14,0,.36-.18.62-.51.71-.9l1.12-5.09c.13-.58-.15-1.18-.68-1.45-1.54-.8-3.28-1.42-5.17-1.87-3.55-.84-7.44-.92-10.95-.07-1.7.41-3.21,1.07-4.51,1.95-1.33.91-2.42,2.08-3.24,3.5-.84,1.45-1.26,3.18-1.26,5.15,0,1.83.4,3.44,1.19,4.78.75,1.28,1.74,2.42,2.93,3.39,1.15.94,2.43,1.75,3.82,2.41,1.33.64,2.67,1.22,3.95,1.71.94.4,1.84.79,2.7,1.18.79.36,1.49.76,2.05,1.18.52.38.94.82,1.24,1.3.26.41.39.88.39,1.43,0,1.21-.46,2-1.51,2.55-1.28.67-2.9,1.01-4.82,1.01s-3.69-.21-5.24-.63c-1.61-.43-3.05-.92-4.28-1.44-.36-.15-.77-.14-1.12.04-.35.18-.6.51-.68.89l-1.12,5.32c-.13.6.18,1.21.73,1.47.71.33,1.56.64,2.54.93.96.29,1.97.54,3,.74,1.03.21,2.08.36,3.12.47,1.04.1,2.04.16,2.98.16,2.17,0,4.21-.28,6.07-.84,1.89-.57,3.55-1.38,4.94-2.41,1.42-1.06,2.55-2.36,3.37-3.88.82-1.54,1.24-3.28,1.24-5.19,0-2.12-.56-3.97-1.68-5.5-1.03-1.41-2.26-2.61-3.65-3.57Z"/>
    </g>
  </g>
</svg>