<svg id="Layer_1" data-name="Layer 1" xmlns="http://www.w3.org/2000/svg" viewBox="0 0 4146 2053"><defs><style>.cls-1{fill:#4f2b84;}</style></defs><path d="M3200,97.688l0,-97.688l423.969,0c176.104,0 308.396,50.646 396.875,151.937c83.083,94.063 124.635,234.688 124.656,421.876c0.021,187.187 -41.5,329.427 -124.563,426.718c-88.458,102.688 -220.677,153.563 -396.656,152.625l-162.5,0l0,893.813l-97.687,-0l-0,-991.594l260.468,0c144.688,0 251.396,-38.885 320.126,-116.656c68.729,-77.771 103.104,-199.406 103.124,-364.906c0.001,-162.313 -34.374,-282.24 -103.124,-359.782c-68.751,-77.541 -175.448,-116.323 -320.094,-116.344l-424.594,0Zm0,1949.28l0,-1884.19l97.656,0l0,1884.19l-97.656,-0Zm164.125,-1058.06l0,-826.125l260.469,0c125.687,0 216.573,31.656 272.656,94.969c56.979,65.083 85.687,170.667 86.125,316.75c0.438,146.083 -27.594,251.635 -84.094,316.656c-56.541,65.125 -148.104,97.688 -274.687,97.688l-260.469,0.062Zm97.688,-97.75l162.781,0c72.354,0 121.635,-8.333 147.844,-25c26.208,-16.666 42.947,-29.552 50.218,-38.656c40.688,-46.125 61.032,-130.677 61.032,-253.656c-0.001,-66.917 -5.657,-120.5 -16.969,-160.75c-11.313,-40.25 -27.584,-71.677 -48.813,-94.282c-21.827,-22.918 -49.892,-38.955 -80.718,-46.125c-32.563,-8.125 -70.063,-12.187 -112.5,-12.187l-162.782,-0l-0.093,630.656Z" class="cls-1"/><path d="M2167.69,2052.41l-0,-2046.88l847.843,0l0,97.563l-750,-0l0,1851.62l750,-0l0,97.687l-847.843,0Zm164.156,-1055.38l-0,-828.812l683.687,-0l0,100.375l-586.031,-0l0,628.125l586.031,-0l0,100.375l-683.687,-0.063Zm-0,891.25l-0,-827.5l683.687,0l0,100.407l-586.031,-0l0,629.406l586.031,-0l0,97.687l-683.687,0Z" class="cls-1"/><path d="M1032.31,1469.09l-0,-880.375c-0,-181.75 38.885,-321.917 116.656,-420.5c16.514,-20.203 34.658,-39.016 54.25,-56.25c23.738,-20.818 49.983,-38.591 78.125,-52.907c32.996,-16.831 67.819,-29.812 103.781,-38.687c38.875,-9.938 83.188,-14.906 132.938,-14.906c100.375,-0 179.281,17.864 236.718,53.593c57.438,35.73 101.073,72.125 130.906,109.188c79.563,100.375 119.344,240.542 119.344,420.5l0,130.219l-100.5,-0l0,-130.532c0,-159.5 -31.646,-280.489 -94.937,-362.968c-66.938,-81.563 -164.157,-122.354 -291.657,-122.375c-127.499,-0.021 -224.718,40.708 -291.656,122.187c-65.104,85.063 -97.208,205.896 -96.312,362.5l-0,880.969c-0,100.479 11.989,182.604 35.968,246.375c23.98,63.771 54.5,113.323 91.563,148.656c34.916,34.028 77.828,58.745 124.781,71.875c44.391,12.412 90.251,18.793 136.344,18.969c45.63,-0.094 91.033,-6.445 134.937,-18.875c45.188,-12.646 86.334,-36.604 123.438,-71.875c37.104,-35.271 67.625,-84.781 91.562,-148.531c23.938,-63.75 35.917,-145.823 35.938,-246.219l-0,-132.969l100.375,0l-0,132.938c-0,179.958 -39.781,319.687 -119.344,419.187c-29.833,37.063 -73.469,73.688 -130.906,109.875c-57.438,36.188 -136.333,54.271 -236.688,54.25c-49.75,0 -94.062,-5.208 -132.937,-15.625c-35.839,-9.256 -70.62,-22.211 -103.781,-38.656c-28.213,-13.928 -54.479,-31.494 -78.125,-52.25c-19.845,-17.471 -38.008,-36.763 -54.25,-57.625c-77.688,-95.854 -116.532,-235.573 -116.532,-419.156Zm164.125,-0l0,-880.375c0,-279.438 107.396,-419.375 322.188,-419.813c214.792,-0.437 322.177,139.5 322.156,419.813l0,130.25l-100.375,-0l0,-130.25c0,-79.563 -7.916,-141.282 -23.75,-185.157c-15.833,-43.875 -35.271,-75.52 -58.312,-94.937c-23.063,-19.438 -47.479,-30.969 -73.25,-34.594c-22.235,-3.348 -44.673,-5.164 -67.157,-5.437c-22.706,0.149 -45.372,1.966 -67.812,5.437c-24.438,3.625 -48.854,15.156 -73.25,34.594c-24.396,19.438 -44.292,51.115 -59.688,95.031c-15.333,43.75 -23,105.438 -23,185.063l0,880.375c0,120.271 21.25,206.187 63.75,257.75c9.021,14.479 25.521,28.718 49.5,42.718c23.98,14 61.063,21.011 111.25,21.032c50.188,-0 86.813,-6.782 109.875,-20.344c23.063,-13.563 40.021,-28.031 50.875,-43.406c40.688,-51.563 61.032,-137.479 61.032,-257.75l-0,-132.938l100.375,0l-0,132.938c-0,279.437 -107.386,419.166 -322.157,419.187c-214.77,0.021 -322.187,-139.708 -322.25,-419.187Z" class="cls-1"/><path d="M0,2052.41l0,-2046.88l847.813,0l-0,97.563l-750,-0l-0,1851.62l750,-0l-0,97.687l-847.813,0Zm164.156,-1055.38l0,-828.812l683.657,-0l-0,100.375l-586.001,-0l0,628.125l586.001,-0l-0,100.375l-683.657,-0.063Zm0,891.25l0,-827.5l683.657,0l-0,100.407l-586.001,-0l0,629.406l586.001,-0l-0,97.687l-683.657,0Z" class="cls-1"/></svg>
