<svg id="Layer_1" data-name="Layer 1" xmlns="http://www.w3.org/2000/svg" viewBox="0 0 7372 2053"><defs><style>.cls-1{fill:#ffffff;}</style></defs><path d="M0,2052.41l0,-2046.88l847.813,0l-0,97.563l-750,-0l-0,1851.62l750,-0l-0,97.687l-847.813,0Zm164.156,-1055.38l0,-828.812l683.657,-0l-0.001,100.375l-586,-0l0,628.125l586,-0l0,100.375l-683.656,-0.063Zm0,891.25l0,-827.5l683.656,0l0,100.407l-586,-0l0,629.406l586,-0l0,97.687l-683.656,0Z" class="cls-1"/><path d="M1032.31,1469.09l-0.001,-880.375c0,-181.75 38.886,-321.917 116.657,-420.5c16.514,-20.203 34.658,-39.016 54.25,-56.25c23.738,-20.818 49.983,-38.591 78.125,-52.907c32.996,-16.831 67.819,-29.812 103.781,-38.687c38.875,-9.938 83.188,-14.906 132.938,-14.906c100.374,-0 179.281,17.864 236.718,53.593c57.438,35.73 101.073,72.125 130.906,109.188c79.563,100.375 119.344,240.542 119.344,420.5l0,130.219l-100.5,-0l0,-130.532c0,-159.5 -31.646,-280.489 -94.937,-362.968c-66.938,-81.563 -164.157,-122.354 -291.657,-122.375c-127.5,-0.021 -224.718,40.708 -291.656,122.187c-65.104,85.063 -97.208,205.896 -96.312,362.5l-0,880.969c-0,100.479 11.989,182.604 35.968,246.375c23.98,63.771 54.5,113.323 91.563,148.656c34.916,34.028 77.828,58.745 124.781,71.875c44.391,12.412 90.251,18.793 136.344,18.969c45.63,-0.094 91.033,-6.445 134.937,-18.875c45.188,-12.646 86.334,-36.604 123.438,-71.875c37.104,-35.271 67.625,-84.781 91.562,-148.531c23.938,-63.75 35.917,-145.823 35.938,-246.219l-0,-132.969l100.375,0l-0,132.938c-0,179.958 -39.781,319.687 -119.344,419.187c-29.833,37.063 -73.469,73.688 -130.906,109.875c-57.438,36.188 -136.333,54.271 -236.688,54.25c-49.75,0 -94.062,-5.208 -132.937,-15.625c-35.839,-9.256 -70.62,-22.211 -103.781,-38.656c-28.213,-13.928 -54.479,-31.494 -78.125,-52.25c-19.845,-17.471 -38.008,-36.763 -54.25,-57.625c-77.688,-95.854 -116.532,-235.573 -116.532,-419.156Zm164.125,-0l0,-880.375c0,-279.438 107.396,-419.375 322.188,-419.813c214.792,-0.437 322.177,139.5 322.156,419.813l0,130.25l-100.375,-0l0,-130.25c0,-79.563 -7.916,-141.282 -23.75,-185.157c-15.833,-43.875 -35.271,-75.52 -58.312,-94.937c-23.063,-19.438 -47.479,-30.969 -73.25,-34.594c-22.235,-3.348 -44.673,-5.164 -67.157,-5.437c-22.706,0.149 -45.372,1.966 -67.812,5.437c-24.438,3.625 -48.854,15.156 -73.25,34.594c-24.396,19.438 -44.292,51.115 -59.688,95.031c-15.333,43.75 -23,105.438 -23,185.063l0,880.375c0,120.271 21.25,206.187 63.75,257.75c9.021,14.479 25.521,28.718 49.5,42.718c23.98,14 61.063,21.011 111.25,21.032c50.188,-0 86.813,-6.782 109.875,-20.344c23.063,-13.563 40.021,-28.031 50.875,-43.406c40.688,-51.563 61.032,-137.479 61.032,-257.75l-0,-132.938l100.375,0l-0,132.938c-0,279.437 -107.386,419.166 -322.157,419.187c-214.77,0.021 -322.187,-139.708 -322.25,-419.187Z" class="cls-1"/><path d="M2167.69,2052.41l-0.001,-2046.88l847.844,0l0,97.563l-750,-0l0,1851.62l750,-0l0,97.687l-847.843,0Zm164.156,-1055.38l-0,-828.812l683.687,-0l0,100.375l-586.031,-0l0,628.125l586.031,-0l0,100.375l-683.687,-0.063Zm-0,891.25l-0,-827.5l683.687,0l0,100.407l-586.031,-0l0,629.406l586.031,-0l0,97.687l-683.687,0Z" class="cls-1"/><path d="M3200,97.688l-0,-97.688l423.969,0c176.104,0 308.396,50.646 396.875,151.937c83.083,94.063 124.635,234.688 124.656,421.876c0.021,187.187 -41.5,329.427 -124.563,426.718c-88.458,102.688 -220.677,153.563 -396.656,152.625l-162.5,0l0,893.813l-97.687,-0l-0,-991.594l260.468,0c144.688,0 251.396,-38.885 320.126,-116.656c68.729,-77.771 103.104,-199.406 103.124,-364.906c0.001,-162.313 -34.374,-282.24 -103.124,-359.782c-68.751,-77.541 -175.448,-116.323 -320.094,-116.344l-424.594,0Zm-0,1949.28l-0,-1884.19l97.656,0l0,1884.19l-97.656,-0Zm164.125,-1058.06l-0,-826.125l260.469,0c125.687,0 216.573,31.656 272.656,94.969c56.979,65.083 85.687,170.667 86.125,316.75c0.437,146.083 -27.594,251.635 -84.094,316.656c-56.541,65.125 -148.104,97.688 -274.687,97.688l-260.469,0.062Zm97.688,-97.75l162.781,0c72.354,0 121.635,-8.333 147.843,-25c26.209,-16.666 42.948,-29.552 50.219,-38.656c40.688,-46.125 61.032,-130.677 61.032,-253.656c-0.001,-66.917 -5.657,-120.5 -16.969,-160.75c-11.313,-40.25 -27.584,-71.677 -48.813,-94.282c-21.827,-22.918 -49.892,-38.955 -80.718,-46.125c-32.563,-8.125 -70.063,-12.187 -112.501,-12.187l-162.781,-0l-0.093,630.656Z" class="cls-1"/><path d="M5241.06,19l176.093,0l0,35.594l-132.343,-0l-0.001,101.094l126.751,-0.001l-0.001,35.626l-126.749,-0l-0.001,108.218l133.876,0l-0.001,35.594l-177.624,0l-0.001,-316.125Z" class="cls-1"/><path d="M5572.31,219.781l84.374,115.344l-45.312,0l-61.719,-84.969l-61.218,84.969l-45.594,0l84.375,-115.344l-82.594,-112.5l45.563,0l59.374,82.125l59.813,-82.125l45.563,0l-82.626,112.5Z" class="cls-1"/><path d="M5690.16,107.281l40.813,0l-0,30.75c7.679,-10.065 17.229,-18.554 28.125,-25c11.375,-6.937 26.083,-10.416 44.125,-10.437c12.854,-0.182 25.562,2.756 37.031,8.562c11.2,5.8 20.936,14.072 28.469,24.188c8.252,11.189 14.491,23.731 18.437,37.062c4.558,15.202 6.792,31.006 6.625,46.875c0.286,17.41 -2.692,34.719 -8.781,51.031c-5.346,14.254 -13.679,27.2 -24.437,37.969c-10.483,10.319 -23.014,18.325 -36.782,23.5c-14.646,5.476 -30.176,8.209 -45.812,8.063c-8.177,0.071 -16.348,-0.493 -24.438,-1.688c-6.972,-1.097 -13.87,-2.621 -20.656,-4.562l0,99.281l-42.719,0l0,-325.594Zm102.063,29.906c-12.545,-0.364 -24.919,3.02 -35.532,9.719c-8.987,5.712 -17.005,12.822 -23.749,21.063l-0.001,131.25c5.953,2.357 12.179,3.953 18.532,4.75c7.252,0.959 14.56,1.429 21.875,1.406c23.75,-0 42.666,-7.417 56.75,-22.25c14.083,-14.833 21.114,-36.125 21.094,-63.875c0.069,-10.995 -1.116,-21.961 -3.532,-32.688c-2.034,-9.269 -5.741,-18.09 -10.937,-26.031c-9.738,-14.908 -26.576,-23.706 -44.375,-23.187l-0.125,-0.157Z" class="cls-1"/><path d="M6064.69,306.781c-3.863,4.454 -8.167,8.506 -12.844,12.094c-5.379,4.161 -11.182,7.744 -17.313,10.687c-6.829,3.272 -13.983,5.818 -21.343,7.594c-8.012,1.93 -16.228,2.885 -24.469,2.844c-8.9,0.104 -17.743,-1.421 -26.094,-4.5c-7.569,-2.76 -14.509,-7.011 -20.406,-12.5c-5.872,-5.612 -10.485,-12.408 -13.531,-19.938c-3.411,-8.271 -5.112,-17.147 -5,-26.093c-0,-20.834 7.364,-36.656 22.093,-47.469c14.729,-10.812 34.427,-16.99 59.094,-18.531c10.125,-0.625 20.167,-1.094 30.125,-1.406c9.958,-0.313 19.531,-0.469 28.719,-0.469l-0,-10.188c-0,-19.312 -4.167,-34.427 -12.5,-45.344c-8.334,-10.916 -21.938,-16.375 -40.813,-16.375c-10.669,-0.051 -21.293,1.39 -31.562,4.282c-9.993,2.854 -19.628,6.839 -28.719,11.875l-9.969,-31.25c11.403,-7.068 23.878,-12.24 36.938,-15.313c13.485,-2.954 27.258,-4.39 41.062,-4.281c26.896,-0 48.334,8.229 64.313,24.687c15.979,16.459 23.968,40.032 23.968,70.719l0.001,137.188l-41.75,-0l-0.001,-28.313Zm-63.624,1.906c12.052,0.067 23.944,-2.785 34.656,-8.312c10.543,-5.335 20.063,-12.486 28.125,-21.125l-0,-42.375c-9.5,0.625 -18.354,1.26 -26.563,1.906c-8.208,0.646 -16.437,1.438 -24.687,2.375c-6.334,0.563 -12.607,1.671 -18.75,3.313c-5.345,1.317 -10.464,3.424 -15.188,6.25c-4.164,2.565 -7.597,6.16 -9.968,10.437c-2.494,4.754 -3.721,10.072 -3.563,15.438c-0,10.75 3.125,18.739 9.375,23.968c6.313,5.375 15.188,8 26.563,8l-0.001,0.125Z" class="cls-1"/><path d="M6162.47,335.125l-0,-227.844l40.812,0l0,33.219c8.013,-11.594 18.562,-21.213 30.844,-28.125c12.846,-6.837 27.232,-10.269 41.781,-9.969c12.77,-0.361 25.401,2.761 36.531,9.032c10.132,6.075 18.696,14.446 25,24.437c6.931,10.988 11.841,23.128 14.5,35.844c3.063,14.19 4.572,28.671 4.501,43.187l-0.001,120.094l-42.562,0l0,-118.75c0.093,-10.754 -0.86,-21.492 -2.844,-32.062c-1.569,-8.786 -4.623,-17.24 -9.031,-25c-8.135,-14.446 -23.784,-23.101 -40.344,-22.313c-11.918,-0.227 -23.617,3.257 -33.468,9.969c-8.671,5.764 -16.425,12.801 -23,20.875l-0,167.094l-42.719,0.312Z" class="cls-1"/><path d="M6600.44,335.125l-40.344,0l-0,-31.25c-8.719,10.264 -19.156,18.935 -30.844,25.625c-13.4,7.294 -28.501,10.896 -43.75,10.438c-12.544,0.182 -24.939,-2.761 -36.062,-8.563c-11.05,-5.908 -20.656,-14.19 -28.125,-24.25c-8.268,-11.169 -14.46,-23.734 -18.282,-37.094c-4.366,-15.309 -6.471,-31.175 -6.25,-47.094c-0.288,-17.439 2.69,-34.78 8.782,-51.125c5.345,-14.28 13.677,-27.258 24.437,-38.062c10.478,-10.331 23.009,-18.348 36.781,-23.531c14.641,-5.501 30.174,-8.246 45.813,-8.094c8.177,-0.073 16.348,0.492 24.437,1.687c6.972,1.098 13.871,2.622 20.657,4.563l-0,-108.375l42.749,0l0.001,335.125Zm-103.126,-29.906c12.586,0.285 24.977,-3.174 35.594,-9.938c9.226,-5.848 17.544,-13.018 24.688,-21.281l-0,-131.25c-5.943,-2.353 -12.159,-3.949 -18.5,-4.75c-7.252,-0.957 -14.56,-1.426 -21.875,-1.406c-23.75,-0 -42.657,7.416 -56.719,22.25c-14.063,14.833 -21.104,36.135 -21.125,63.906c-0,25 4.667,44.958 14,59.875c9.333,14.917 24.063,22.448 44.188,22.594l-0.251,-0Z" class="cls-1"/><path d="M6654.19,39.875c-0.086,-7.036 2.559,-13.839 7.376,-18.969c10.87,-10.671 28.535,-10.671 39.406,0c9.78,10.691 9.78,27.279 -0,37.969c-10.871,10.672 -28.536,10.672 -39.407,0c-4.818,-5.141 -7.463,-11.954 -7.375,-19Zm5.719,295.25l0,-227.844l42.719,0l-0,227.844l-42.719,0Z" class="cls-1"/><path d="M6761.94,335.125l0,-227.844l40.844,0l0,33.219c8.013,-11.594 18.562,-21.213 30.844,-28.125c12.867,-6.799 27.264,-10.188 41.813,-9.844c12.769,-0.358 25.399,2.764 36.531,9.032c10.188,6.056 18.807,14.428 25.156,24.437c6.93,10.988 11.841,23.128 14.5,35.844c3.063,14.19 4.572,28.671 4.5,43.187l0,120.094l-42.719,0l0,-118.75c0.077,-10.754 -0.875,-21.49 -2.843,-32.063c-1.57,-8.785 -4.624,-17.239 -9.032,-25c-8.134,-14.445 -23.784,-23.1 -40.343,-22.312c-11.919,-0.227 -23.618,3.257 -33.469,9.969c-8.674,5.772 -16.437,12.809 -23.031,20.875l-0,167.094l-42.751,0.187Z" class="cls-1"/><path d="M7092.78,258.719c-6.039,0.013 -12.07,-0.467 -18.031,-1.438c-4.399,5.377 -6.904,12.057 -7.125,19c-0.343,4.913 1.913,9.662 5.938,12.5c3.937,2.688 10.5,4.354 19.687,5l46.875,3.782c10.088,0.851 20.09,2.524 29.906,5c8.36,2.023 16.309,5.469 23.5,10.187c6.443,4.408 11.668,10.375 15.188,17.344c3.811,7.904 5.685,16.603 5.469,25.375c0.083,12.084 -3.659,23.889 -10.688,33.719c-7.569,10.526 -17.269,19.342 -28.469,25.875c-12.753,7.451 -26.507,13.039 -40.843,16.593c-15.58,3.993 -31.605,5.988 -47.688,5.938c-13.064,0.08 -26.105,-1.113 -38.938,-3.563c-11.011,-2.017 -21.654,-5.694 -31.562,-10.906c-8.467,-4.433 -15.786,-10.778 -21.375,-18.531c-5.305,-7.742 -8.04,-16.962 -7.813,-26.344c-0.188,-7.851 1.872,-15.594 5.938,-22.312c3.981,-6.37 9.135,-11.927 15.188,-16.375c6.382,-4.691 13.307,-8.594 20.624,-11.625c7.256,-3.037 14.711,-5.574 22.313,-7.594c-6.175,-3.042 -11.598,-7.419 -15.875,-12.813c-4.441,-5.851 -6.717,-13.066 -6.438,-20.406c-0.433,-8.008 2.308,-15.872 7.626,-21.875c5.064,-5.385 11.002,-9.875 17.562,-13.281c-14.805,-5.167 -27.822,-14.474 -37.5,-26.813c-15.984,-21.844 -18.725,-50.794 -7.125,-75.25c4.723,-9.501 11.251,-17.993 19.219,-25c8.419,-7.33 18.169,-12.974 28.718,-16.625c11.436,-4.01 23.477,-6.018 35.594,-5.937c5.48,-0.011 10.954,0.386 16.375,1.187c5.225,0.813 10.385,2.004 15.438,3.563l84.968,-0l0,32l-39.875,-0c4.312,6.137 7.741,12.848 10.188,19.937c2.41,7.19 3.614,14.73 3.562,22.313c0.118,10.803 -2.234,21.493 -6.875,31.25c-4.546,9.45 -11.106,17.791 -19.218,24.437c-8.606,7.024 -18.424,12.414 -28.969,15.907c-11.42,3.884 -23.407,5.837 -35.469,5.781Zm-16.625,68.344c-5.375,2.541 -10.906,5.312 -16.593,8.312c-5.446,2.835 -10.614,6.172 -15.438,9.969c-4.439,3.467 -8.281,7.637 -11.375,12.344c-3.064,4.718 -4.643,10.249 -4.531,15.874c-0.52,11.184 5.918,21.595 16.156,26.126c10.75,5.375 25.458,8.062 44.125,8.062c10.035,-0.016 20.048,-0.968 29.906,-2.844c9.456,-1.691 18.643,-4.645 27.313,-8.781c7.578,-3.595 14.358,-8.675 19.937,-14.937c5.111,-5.754 7.897,-13.212 7.813,-20.907c0.244,-4.939 -1.261,-9.81 -4.25,-13.75c-3.107,-3.678 -7.007,-6.605 -11.407,-8.562c-5.129,-2.322 -10.556,-3.92 -16.124,-4.75c-6.032,-0.938 -12.344,-1.719 -19,-2.375l-46.532,-3.781Zm16.625,-98.75c13.589,0.45 26.899,-3.987 37.5,-12.5c10.125,-8.334 15.188,-19.959 15.188,-34.875c-0,-14.917 -4.979,-26.553 -14.938,-34.907c-10.658,-8.586 -24.073,-13.028 -37.75,-12.5c-13.599,-0.517 -26.956,3.766 -37.718,12.094c-9.98,8.063 -14.969,19.854 -14.969,35.375c-0,15.521 5.062,27.302 15.187,35.344c10.733,8.213 23.994,12.446 37.5,11.969Z" class="cls-1"/><path d="M5387.94,547.688c14.953,0.076 29.872,1.435 44.593,4.062c13.337,2.087 26.397,5.662 38.938,10.656l-7.125,33.719c-11.3,-3.991 -22.885,-7.125 -34.657,-9.375c-12.036,-2.345 -24.268,-3.537 -36.531,-3.563c-39.583,0 -70.437,11.073 -92.562,33.219c-22.125,22.146 -33.209,53.792 -33.25,94.938c-0,41.125 11.083,72.771 33.25,94.937c22.166,22.167 53.021,33.24 92.562,33.219c12.263,-0.025 24.495,-1.218 36.532,-3.563c11.767,-2.264 23.351,-5.398 34.656,-9.375l7.125,33.688c-12.534,5.021 -25.597,8.606 -38.938,10.688c-14.714,2.701 -29.634,4.133 -44.593,4.281c-23.798,0.474 -47.464,-3.665 -69.688,-12.188c-19.438,-7.622 -37.005,-19.348 -51.5,-34.375c-14.075,-14.858 -24.947,-32.452 -31.938,-51.687c-14.873,-42.391 -14.873,-88.609 0.001,-131c6.99,-19.236 17.862,-36.83 31.937,-51.688c14.505,-15.015 32.07,-26.738 51.5,-34.375c22.226,-8.52 45.889,-12.669 69.687,-12.218Z" class="cls-1"/><path d="M5711.53,755.594c0.101,15.502 -2.392,30.913 -7.375,45.593c-4.685,13.854 -12.02,26.665 -21.593,37.719c-9.628,11.033 -21.525,19.86 -34.876,25.875c-29.954,12.66 -63.795,12.66 -93.749,0c-13.266,-6.052 -25.084,-14.876 -34.657,-25.875c-9.574,-11.054 -16.908,-23.865 -21.593,-37.718c-9.832,-29.585 -9.832,-61.572 -0.001,-91.157c4.669,-13.812 11.971,-26.59 21.501,-37.625c9.581,-10.99 21.396,-19.811 34.656,-25.875c29.954,-12.66 63.795,-12.66 93.75,0c13.344,6.027 25.238,14.852 34.875,25.875c9.574,11.055 16.908,23.866 21.593,37.719c5.002,14.635 7.527,30.003 7.469,45.469Zm-42.718,-0c0.057,-11.214 -1.383,-22.386 -4.282,-33.219c-2.515,-9.763 -6.748,-19.001 -12.5,-27.281c-5.466,-7.694 -12.701,-13.964 -21.093,-18.282c-18.939,-8.871 -40.875,-8.871 -59.813,0c-8.407,4.309 -15.654,10.58 -21.125,18.282c-5.763,8.273 -9.997,17.514 -12.5,27.281c-5.707,21.861 -5.707,44.826 -0,66.687c2.533,9.69 6.765,18.853 12.5,27.063c5.471,7.702 12.718,13.973 21.125,18.281c18.938,8.872 40.874,8.872 59.813,0c8.392,-4.317 15.627,-10.587 21.093,-18.281c5.722,-8.218 9.954,-17.378 12.5,-27.063c2.931,-10.911 4.371,-22.17 4.282,-33.468Z" class="cls-1"/><path d="M6002.03,671.594c-11.96,-0.028 -23.645,3.616 -33.468,10.437c-10.392,7.057 -19.609,15.704 -27.313,25.625c2.926,13.733 4.362,27.741 4.281,41.782l0,120.093l-42.719,0l0,-118.75c0.08,-10.734 -0.714,-21.457 -2.375,-32.062c-1.275,-8.724 -4,-17.174 -8.062,-25c-7.394,-14.473 -22.713,-23.251 -38.938,-22.313c-11.918,-0.227 -23.617,3.258 -33.468,9.969c-8.679,5.755 -16.434,12.793 -23,20.875l-0,167.094l-42.719,-0l-0,-227.657l40.812,0l0,33.219c8.013,-11.594 18.562,-21.213 30.844,-28.125c12.841,-6.851 27.231,-10.284 41.781,-9.969c16.125,0 29.5,3.959 40.125,11.876c11.092,8.503 19.722,19.809 25,32.75c8.658,-13.436 20.266,-24.722 33.938,-33c14.563,-8.114 31.056,-12.132 47.719,-11.625c12.771,-0.373 25.405,2.75 36.531,9.031c10.11,5.995 18.59,14.389 24.687,24.437c6.641,11.08 11.373,23.197 14,35.844c3.063,14.19 4.572,28.671 4.5,43.188l0,120.093l-42.812,0l0,-118.75c0.08,-10.734 -0.714,-21.457 -2.375,-32.062c-1.247,-8.731 -3.973,-17.186 -8.063,-25c-3.537,-6.696 -8.776,-12.344 -15.187,-16.375c-7.217,-4.074 -15.441,-6.025 -23.719,-5.625Z" class="cls-1"/><path d="M6151.06,641.688l40.813,-0l-0,30.718c7.685,-10.06 17.234,-18.548 28.125,-25c11.396,-6.937 26.115,-10.416 44.156,-10.437c12.85,-0.173 25.553,2.753 37.031,8.531c11.195,5.821 20.929,14.102 28.469,24.219c8.282,11.173 14.554,23.704 18.531,37.031c4.543,15.205 6.777,31.007 6.625,46.875c0.271,17.408 -2.707,34.715 -8.781,51.031c-5.346,14.253 -13.678,27.2 -24.437,37.969c-10.485,10.323 -23.014,18.339 -36.782,23.531c-14.647,5.473 -30.176,8.206 -45.812,8.063c-8.177,0.071 -16.348,-0.493 -24.438,-1.688c-6.972,-1.097 -13.87,-2.621 -20.656,-4.562l0,99.281l-42.844,0l0,-325.562Zm102.063,29.906c-12.576,-0.374 -24.982,3.01 -35.625,9.719c-8.963,5.719 -16.968,12.816 -23.719,21.031l0,131.25c5.943,2.353 12.159,3.949 18.5,4.75c7.252,0.956 14.56,1.426 21.875,1.406c23.75,0 42.656,-7.417 56.719,-22.25c14.062,-14.833 21.104,-36.135 21.125,-63.906c0.075,-10.987 -1.12,-21.945 -3.563,-32.656c-2.018,-9.269 -5.715,-18.092 -10.906,-26.032c-9.737,-14.908 -26.576,-23.706 -44.375,-23.187l-0.031,-0.125Z" class="cls-1"/><path d="M6584.81,641.688l-0.001,227.843l-40.624,0l-0.001,-33.218c-8.253,11.074 -18.673,20.357 -30.625,27.281c-12.78,7.28 -27.294,10.973 -42,10.687c-12.702,0.384 -25.269,-2.741 -36.312,-9.031c-10.012,-6.037 -18.401,-14.426 -24.438,-24.437c-6.645,-11.055 -11.309,-23.185 -13.781,-35.844c-2.91,-14.21 -4.345,-28.683 -4.281,-43.188l0,-120.093l42.719,-0l-0,118.749c-0.064,10.734 0.73,21.456 2.375,32.063c1.267,8.73 4.003,17.184 8.094,25c3.572,6.742 8.894,12.399 15.406,16.375c7.447,4.208 15.92,6.264 24.469,5.937c11.842,0.244 23.467,-3.244 33.218,-9.968c8.654,-5.881 16.474,-12.903 23.25,-20.875l0,-167.282l42.532,0Z" class="cls-1"/><path d="M6618.12,641.688l40.844,-0l-0,-58.375l42.718,-0l0.001,58.375l74.999,-0l0.001,34.656l-75.001,-0l0.001,116.281c-0.029,6.277 0.441,12.547 1.406,18.75c0.751,5.281 2.524,10.365 5.218,14.969c2.558,4.117 6.173,7.474 10.469,9.719c5.474,2.607 11.506,3.83 17.563,3.562c12.301,0.137 24.524,-1.981 36.062,-6.25l3.781,32.25c-6.957,2.767 -14.199,4.758 -21.593,5.937c-8.993,1.719 -18.126,2.597 -27.281,2.625c-10.722,0.288 -21.381,-1.737 -31.25,-5.937c-8.282,-3.753 -15.531,-9.458 -21.126,-16.625c-5.735,-7.535 -9.853,-16.174 -12.093,-25.375c-2.616,-10.558 -3.886,-21.405 -3.781,-32.281l-0.001,-117.625l-40.843,-0l-0.094,-34.657Z" class="cls-1"/><path d="M6811.31,574.281c-0.083,-7.044 2.561,-13.855 7.374,-19c10.871,-10.671 28.536,-10.671 39.407,0c9.799,10.695 9.799,27.305 -0,38c-10.871,10.672 -28.536,10.672 -39.406,0c-4.819,-5.141 -7.464,-11.954 -7.376,-19Zm5.719,295.25l0,-227.844l42.782,0l-0.001,227.844l-42.781,0Z" class="cls-1"/><path d="M6919.19,869.531l-0.001,-227.844l40.626,0l-0.001,33.219c8.013,-11.594 18.562,-21.213 30.844,-28.125c12.841,-6.851 27.231,-10.284 41.781,-9.969c12.772,-0.372 25.405,2.751 36.532,9.032c10.188,6.056 18.807,14.429 25.156,24.437c6.938,10.981 11.84,23.124 14.469,35.844c3.088,14.186 4.608,28.669 4.531,43.187l0,120.094l-42.719,0l0,-118.75c0.077,-10.753 -0.875,-21.49 -2.843,-32.062c-1.57,-8.786 -4.624,-17.24 -9.032,-25c-8.134,-14.445 -23.784,-23.101 -40.343,-22.313c-11.919,-0.227 -23.618,3.258 -33.469,9.969c-8.681,5.763 -16.445,12.801 -23.031,20.875l-0,167.094l-42.501,0.312Z" class="cls-1"/><path d="M7249.91,793.094c-6.038,0.023 -12.069,-0.447 -18.031,-1.407c-4.394,5.368 -6.899,12.036 -7.125,18.969c-0.337,4.912 1.918,9.658 5.937,12.5c3.938,2.688 10.501,4.344 19.688,4.969l46.875,3.812c10.089,0.827 20.092,2.489 29.906,4.969c8.366,2.019 16.318,5.477 23.5,10.219c6.435,4.405 11.658,10.359 15.188,17.312c3.811,7.916 5.686,16.625 5.469,25.407c0.079,12.083 -3.662,23.887 -10.688,33.718c-7.565,10.533 -17.28,19.342 -28.5,25.844c-12.731,7.481 -26.478,13.08 -40.812,16.625c-15.58,3.993 -31.605,5.988 -47.688,5.938c-13.064,0.08 -26.105,-1.113 -38.938,-3.563c-11.011,-2.017 -21.654,-5.694 -31.562,-10.906c-8.461,-4.442 -15.778,-10.786 -21.375,-18.531c-5.305,-7.742 -8.04,-16.962 -7.813,-26.344c-0.188,-7.851 1.872,-15.594 5.938,-22.313c3.981,-6.369 9.135,-11.926 15.188,-16.375c6.375,-4.701 13.301,-8.605 20.625,-11.625c7.254,-3.04 14.709,-5.578 22.312,-7.593c-6.175,-3.042 -11.598,-7.419 -15.875,-12.813c-4.441,-5.851 -6.717,-13.066 -6.437,-20.406c-0.436,-8.002 2.293,-15.864 7.593,-21.875c5.071,-5.378 11.007,-9.867 17.563,-13.281c-14.797,-5.183 -27.81,-14.487 -37.5,-26.813c-15.984,-21.844 -18.725,-50.794 -7.125,-75.25c4.712,-9.508 11.241,-18.002 19.218,-25c8.42,-7.33 18.17,-12.974 28.719,-16.625c11.431,-4.025 23.475,-6.034 35.594,-5.937c5.48,-0.011 10.954,0.386 16.375,1.187c5.231,0.783 10.393,1.974 15.437,3.563l84.969,-0l0,31.812l-39.875,0c4.317,6.133 7.747,12.846 10.188,19.938c2.415,7.188 3.619,14.729 3.562,22.312c0.117,10.804 -2.234,21.493 -6.875,31.25c-4.546,9.45 -11.106,17.792 -19.219,24.438c-8.605,7.023 -18.423,12.414 -28.968,15.906c-11.399,3.945 -23.376,5.962 -35.438,5.969Zm-16.625,68.375c-5.375,2.531 -10.906,5.281 -16.594,8.312c-5.441,2.828 -10.609,6.155 -15.437,9.938c-4.437,3.53 -8.278,7.751 -11.375,12.5c-3.07,4.727 -4.649,10.27 -4.531,15.906c-0.511,11.181 5.924,21.588 16.156,26.125c10.75,5.375 25.458,8.062 44.125,8.062c10.035,-0.015 20.048,-0.967 29.906,-2.843c9.456,-1.692 18.643,-4.645 27.313,-8.782c7.586,-3.594 14.368,-8.686 19.937,-14.968c5.114,-5.74 7.902,-13.189 7.813,-20.875c0.241,-4.949 -1.264,-9.828 -4.25,-13.782c-3.117,-3.659 -7.015,-6.575 -11.407,-8.531c-5.129,-2.321 -10.556,-3.92 -16.124,-4.75c-6.032,-0.937 -12.344,-1.719 -19.001,-2.375l-46.531,-3.937Zm16.625,-98.75c13.589,0.45 26.899,-3.986 37.5,-12.5c10.125,-8.334 15.188,-19.969 15.188,-34.907c-0,-14.937 -4.979,-26.562 -14.938,-34.875c-10.659,-8.583 -24.074,-13.025 -37.75,-12.5c-13.605,-0.527 -26.969,3.769 -37.718,12.125c-9.959,8.063 -14.948,19.844 -14.969,35.344c-0.021,15.5 5.041,27.292 15.187,35.375c10.737,8.203 23.998,12.424 37.5,11.938Z" class="cls-1"/><path d="M5241.06,1087.78l176.093,0l0,35.625l-132.343,0l-0.001,101.094l126.751,0l-0.001,35.594l-126.749,-0l-0.001,108.25l133.876,-0l-0.001,35.593l-177.624,0l-0.001,-316.156Z" class="cls-1"/><path d="M5654.56,1403.94l-40.344,-0.001l-0,-31.25c-8.719,10.274 -19.155,18.955 -30.844,25.657c-13.4,7.294 -28.501,10.896 -43.75,10.437c-12.543,0.167 -24.934,-2.775 -36.063,-8.562c-11.051,-5.92 -20.656,-14.212 -28.124,-24.282c-8.28,-11.161 -14.473,-23.728 -18.282,-37.093c-4.366,-15.299 -6.471,-31.155 -6.25,-47.063c-0.257,-17.489 2.764,-34.873 8.907,-51.25c5.352,-14.268 13.683,-27.233 24.437,-38.031c10.484,-10.331 23.013,-18.357 36.781,-23.563c14.647,-5.475 30.177,-8.208 45.813,-8.062c8.177,-0.071 16.347,0.493 24.437,1.687c6.975,1.083 13.874,2.607 20.656,4.563l0,-108.313l42.719,0.001l-0.093,335.125Zm-103.126,-29.907c12.586,0.286 24.977,-3.174 35.594,-9.937c9.234,-5.85 17.553,-13.032 24.688,-21.313l-0,-131.25c-5.945,-2.342 -12.16,-3.928 -18.5,-4.718c-7.252,-0.957 -14.56,-1.427 -21.875,-1.407c-23.75,0 -42.657,7.417 -56.719,22.25c-14.063,14.834 -21.104,36.125 -21.125,63.875c0,25 4.667,44.959 14,59.875c9.333,14.917 24.021,22.459 44.063,22.625l-0.126,0Z" class="cls-1"/><path d="M5901.41,1176.09l0,227.843l-40.843,0l-0.001,-33.25c-8.232,11.092 -18.643,20.386 -30.593,27.313c-12.791,7.284 -27.315,10.977 -42.032,10.687c-12.702,0.379 -25.267,-2.746 -36.312,-9.031c-10.012,-6.036 -18.401,-14.426 -24.437,-24.437c-6.631,-11.059 -11.284,-23.188 -13.751,-35.844c-2.925,-14.208 -4.36,-28.682 -4.281,-43.188l0,-120.093l42.719,-0l0,118.75c-0.081,10.724 0.713,21.436 2.375,32.031c1.257,8.729 3.983,17.182 8.063,25c3.593,6.737 8.923,12.391 15.437,16.375c7.436,4.209 15.899,6.265 24.438,5.938c11.841,0.233 23.462,-3.255 33.218,-9.969c8.665,-5.891 16.496,-12.923 23.282,-20.907l-0,-167.218l42.718,-0Z" class="cls-1"/><path d="M6056.12,1170.88c11.956,-0.062 23.889,1.058 35.625,3.344c9.834,1.853 19.398,4.929 28.469,9.156l-6.25,33.063c-8.488,-3.567 -17.314,-6.269 -26.344,-8.063c-9.13,-1.881 -18.428,-2.834 -27.75,-2.844c-25.625,0 -44.531,7.802 -56.719,23.407c-12.187,15.604 -18.302,35.885 -18.343,60.843c-0.001,25 6.093,45.271 18.281,60.813c12.187,15.541 31.093,23.354 56.718,23.437c9.322,-0.026 18.618,-0.978 27.751,-2.844c9.031,-1.804 17.857,-4.516 26.343,-8.093l6.25,33.062c-9.517,4.368 -19.575,7.447 -29.906,9.157c-11.268,2.175 -22.712,3.305 -34.188,3.375c-17.151,0.384 -34.192,-2.865 -50,-9.532c-13.629,-5.905 -25.785,-14.752 -35.593,-25.906c-9.599,-11.125 -16.858,-24.07 -21.344,-38.063c-9.499,-29.531 -9.499,-61.312 0,-90.843c4.496,-13.978 11.754,-26.912 21.344,-38.031c9.807,-11.164 21.962,-20.022 35.594,-25.938c15.829,-6.665 32.892,-9.903 50.062,-9.5Z" class="cls-1"/><path d="M6288.72,1375.53c-3.843,4.471 -8.137,8.534 -12.813,12.125c-5.394,4.14 -11.194,7.721 -17.312,10.688c-6.834,3.28 -14,5.815 -21.375,7.562c-8,1.941 -16.206,2.906 -24.438,2.875c-8.911,0.092 -17.765,-1.444 -26.125,-4.531c-7.561,-2.778 -14.497,-7.026 -20.406,-12.5c-5.852,-5.622 -10.453,-12.416 -13.5,-19.937c-3.411,-8.283 -5.111,-17.169 -5,-26.125c-0,-20.834 7.354,-36.646 22.062,-47.438c14.709,-10.792 34.407,-16.969 59.094,-18.531c10.125,-0.625 20.177,-1.094 30.156,-1.406c9.969,-0.313 19.532,-0.501 28.719,-0.501l0,-9.968c0,-19.271 -4.114,-34.375 -12.344,-45.313c-8.229,-10.937 -21.833,-16.396 -40.812,-16.375c-10.667,-0.062 -21.291,1.369 -31.563,4.25c-9.988,2.869 -19.621,6.852 -28.718,11.875l-9.969,-31.25c11.36,-7.014 23.782,-12.143 36.781,-15.187c13.483,-2.97 27.258,-4.406 41.063,-4.282c26.875,0 48.312,8.23 64.312,24.688c16,16.458 23.99,40.031 23.969,70.719l-0,137.187l-41.781,0l-0,-28.625Zm-63.594,1.906c12.054,0.078 23.949,-2.775 34.656,-8.312c10.55,-5.324 20.072,-12.477 28.125,-21.125l0,-42.313c-9.5,0.625 -18.364,1.25 -26.593,1.875c-8.23,0.625 -16.459,1.417 -24.688,2.375c-6.332,0.594 -12.603,1.712 -18.75,3.344c-5.354,1.365 -10.474,3.524 -15.188,6.406c-4.156,2.574 -7.588,6.167 -9.968,10.438c-2.489,4.745 -3.716,10.051 -3.563,15.406c0,10.781 3.125,18.75 9.375,24c6.25,5.25 15.188,7.813 26.594,7.813l0,0.093Z" class="cls-1"/><path d="M6360.41,1176.09l40.813,-0l-0,-58.407l42.718,0l0.001,58.407l74.999,-0l0.001,34.656l-75.001,0l0.001,116.281c-0.035,6.279 0.446,12.55 1.437,18.75c0.732,5.276 2.506,10.354 5.219,14.938c2.534,4.132 6.142,7.502 10.437,9.75c5.477,2.6 11.506,3.823 17.563,3.562c12.302,0.153 24.528,-1.966 36.062,-6.25l3.813,32.281c-6.964,2.749 -14.204,4.739 -21.594,5.938c-9.003,1.718 -18.147,2.597 -27.312,2.625c-10.723,0.296 -21.384,-1.73 -31.25,-5.938c-8.282,-3.752 -15.531,-9.457 -21.126,-16.625c-5.75,-7.541 -9.879,-16.192 -12.124,-25.406c-2.617,-10.547 -3.887,-21.383 -3.782,-32.25l0,-117.656l-40.812,0l-0.063,-34.656Z" class="cls-1"/><path d="M6553.56,1108.69c-0.094,-7.041 2.538,-13.853 7.343,-19.001c10.871,-10.671 28.536,-10.671 39.407,0c9.78,10.691 9.78,27.279 -0.001,37.969c-10.87,10.672 -28.535,10.672 -39.406,0c-4.808,-5.132 -7.442,-11.936 -7.343,-18.969Zm5.687,295.25l0,-227.843l42.719,-0l-0,227.843l-42.719,0Z" class="cls-1"/><path d="M6866.06,1290c0.113,15.491 -2.369,30.892 -7.344,45.563c-4.679,13.865 -12.013,26.688 -21.594,37.749c-9.65,11.023 -21.554,19.847 -34.906,25.875c-29.955,12.661 -63.796,12.661 -93.75,0c-13.244,-6.074 -25.047,-14.894 -34.625,-25.875c-9.591,-11.059 -16.936,-23.882 -21.625,-37.75c-9.791,-29.58 -9.791,-61.544 -0,-91.125c4.687,-13.859 12.033,-26.671 21.625,-37.718c9.561,-10.999 21.368,-19.822 34.625,-25.875c29.954,-12.66 63.795,-12.66 93.75,-0c13.364,6.007 25.272,14.834 34.906,25.875c9.581,11.049 16.916,23.862 21.594,37.718c4.969,14.673 7.452,30.073 7.343,45.563Zm-42.718,-0c0.067,-11.213 -1.362,-22.384 -4.25,-33.219c-2.528,-9.758 -6.76,-18.994 -12.5,-27.281c-5.471,-7.702 -12.718,-13.973 -21.125,-18.281c-18.938,-8.872 -40.875,-8.872 -59.813,-0c-8.402,4.316 -15.647,10.586 -21.125,18.281c-5.753,8.279 -9.986,17.518 -12.5,27.281c-5.707,21.862 -5.707,44.826 0,66.688c2.546,9.684 6.777,18.845 12.5,27.062c5.478,7.695 12.723,13.965 21.125,18.281c18.948,8.829 40.865,8.829 59.813,0c8.407,-4.308 15.654,-10.579 21.125,-18.281c5.71,-8.224 9.94,-17.383 12.5,-27.062c2.867,-10.921 4.244,-22.179 4.094,-33.469l0.156,-0Z" class="cls-1"/><path d="M6908.62,1403.94l0,-227.844l40.812,-0l0,33.218c8.024,-11.596 18.583,-21.214 30.876,-28.125c12.829,-6.851 27.209,-10.284 41.749,-9.968c12.778,-0.372 25.418,2.739 36.563,9c10.176,6.085 18.791,14.465 25.156,24.468c6.939,10.981 11.84,23.124 14.469,35.844c3.088,14.187 4.608,28.669 4.531,43.188l0,120.093l-42.718,0l-0.001,-118.75c0.082,-10.745 -0.881,-21.472 -2.874,-32.031c-1.554,-8.785 -4.598,-17.24 -9.001,-25c-3.897,-6.749 -9.46,-12.387 -16.156,-16.375c-7.367,-4.153 -15.734,-6.207 -24.187,-5.937c-11.918,-0.227 -23.617,3.257 -33.469,9.968c-8.694,5.746 -16.461,12.786 -23.031,20.875l-0,167.094l-42.719,0.281Z" class="cls-1"/><path d="M5438.59,1714.75c0.213,14.311 -3.217,28.443 -9.969,41.062c-6.78,12.339 -16.281,22.973 -27.781,31.094c-12.743,8.965 -26.958,15.628 -42,19.688c-17.001,4.716 -34.577,7.041 -52.219,6.906l-21.875,0l-0,125l-43.75,0l-0,-316.313l76.406,0c16.084,-0.122 32.119,1.8 47.719,5.719c13.769,3.356 26.8,9.225 38.437,17.313c10.71,7.505 19.501,17.43 25.657,28.968c6.441,12.534 9.663,26.475 9.375,40.563Zm-43.75,-0.469c0.272,-9.177 -1.885,-18.266 -6.25,-26.344c-4.119,-7.124 -9.898,-13.149 -16.844,-17.562c-7.664,-4.803 -16.134,-8.181 -25,-9.969c-10.07,-2.115 -20.335,-3.162 -30.625,-3.125l-31.25,0l0,121.063l23.281,-0c11.762,0.105 23.488,-1.334 34.875,-4.282c9.852,-2.483 19.178,-6.717 27.532,-12.5c7.484,-5.25 13.655,-12.16 18.031,-20.187c4.352,-8.355 6.523,-17.676 6.312,-27.094l-0.062,0Z" class="cls-1"/><path d="M5596.19,1909.91c-3.856,4.461 -8.16,8.514 -12.844,12.094c-5.374,4.168 -11.178,7.751 -17.313,10.688c-6.815,3.303 -13.973,5.85 -21.343,7.593c-8.012,1.93 -16.228,2.885 -24.469,2.844c-8.899,0.101 -17.743,-1.424 -26.094,-4.5c-7.564,-2.77 -14.502,-7.02 -20.406,-12.5c-5.862,-5.62 -10.473,-12.414 -13.531,-19.938c-3.396,-8.286 -5.097,-17.17 -5,-26.125c-0,-20.833 7.364,-36.656 22.093,-47.468c14.729,-10.813 34.427,-16.979 59.094,-18.5c10.125,-0.625 20.167,-1.104 30.125,-1.438c9.958,-0.333 19.531,-0.489 28.719,-0.469l-0,-10.093c-0,-19.271 -4.115,-34.375 -12.344,-45.313c-8.229,-10.937 -21.833,-16.396 -40.812,-16.375c-10.668,-0.059 -21.291,1.371 -31.563,4.25c-9.991,2.861 -19.625,6.844 -28.719,11.875l-9.968,-31.25c11.376,-6.983 23.792,-12.11 36.781,-15.187c13.486,-2.943 27.259,-4.369 41.062,-4.25c26.896,-0 48.334,8.229 64.313,24.687c15.979,16.459 23.969,40 23.968,70.625l0.001,137.188l-41.751,-0l0.001,-28.438Zm-63.625,1.907c12.052,0.066 23.944,-2.786 34.656,-8.313c10.549,-5.324 20.072,-12.477 28.125,-21.125l-0,-42.312c-9.375,0.656 -18.344,1.281 -26.563,1.906c-8.218,0.625 -16.468,1.437 -24.687,2.375c-6.332,0.578 -12.604,1.686 -18.75,3.312c-5.341,1.329 -10.458,3.435 -15.188,6.25c-4.158,2.586 -7.589,6.189 -9.968,10.469c-2.489,4.745 -3.716,10.051 -3.563,15.406c0,10.782 3.125,18.75 9.375,23.969c6.25,5.219 15.188,8 26.563,8l-0,0.063Z" class="cls-1"/><path d="M5667.84,1710.5l40.812,0l0,-58.406l42.75,-0l0,58.406l75,0l0,34.625l-75,0l0,116.313c-0.029,6.277 0.442,12.547 1.406,18.75c0.738,5.274 2.512,10.351 5.219,14.937c2.535,4.133 6.142,7.502 10.438,9.75c5.476,2.6 11.506,3.823 17.562,3.563c12.313,0.152 24.549,-1.967 36.094,-6.25l3.781,32.281c-6.962,2.752 -14.202,4.743 -21.594,5.937c-8.996,1.691 -18.127,2.56 -27.281,2.594c-10.719,0.297 -21.378,-1.718 -31.25,-5.906c-8.281,-3.753 -15.531,-9.458 -21.125,-16.625c-5.734,-7.548 -9.851,-16.197 -12.093,-25.406c-2.629,-10.557 -3.91,-21.404 -3.813,-32.282l0,-117.656l-40.813,-0l-0.093,-34.625Z" class="cls-1"/><path d="M5866.75,1938.34l0,-335.125l42.719,-0l-0,136.219c8.399,-10.459 18.909,-19.032 30.843,-25.157c12.442,-5.92 26.1,-8.843 39.876,-8.531c12.767,-0.371 25.397,2.741 36.531,9c10.125,6.096 18.687,14.476 25,24.469c6.93,10.977 11.841,23.106 14.5,35.812c3.06,14.201 4.569,28.692 4.5,43.219l-0,120.094l-42.719,-0l0,-118.75c0.091,-10.744 -0.861,-21.472 -2.844,-32.032c-1.567,-8.786 -4.621,-17.24 -9.031,-25c-3.913,-6.726 -9.459,-12.359 -16.125,-16.375c-7.391,-4.118 -15.761,-6.159 -24.219,-5.906c-11.918,-0.227 -23.617,3.258 -33.469,9.969c-8.685,5.746 -16.441,12.786 -22.999,20.875l-0.001,167.219l-42.562,-0Z" class="cls-1"/><path d="M6342.34,1888.03l47.937,-177.5l40.344,0l-67.375,227.813l-39.875,-0l-62.188,-191.313l-62.187,191.313l-39.875,-0l-67.406,-227.844l40.343,0l47.938,177.5l57.937,-177.5l46.5,0l57.907,177.531Z" class="cls-1"/><path d="M6588.22,1909.91c-3.836,4.469 -8.131,8.522 -12.813,12.094c-5.379,4.161 -11.182,7.744 -17.312,10.688c-6.827,3.303 -13.994,5.85 -21.375,7.593c-8.001,1.932 -16.207,2.887 -24.438,2.844c-8.899,0.104 -17.743,-1.421 -26.093,-4.5c-7.574,-2.77 -14.522,-7.02 -20.438,-12.5c-5.852,-5.622 -10.453,-12.416 -13.5,-19.938c-3.411,-8.282 -5.111,-17.168 -5,-26.125c0,-20.833 7.354,-36.656 22.063,-47.468c14.708,-10.813 34.458,-17.021 59.249,-18.625c10.094,-0.625 20.157,-1.094 30.126,-1.438c9.968,-0.344 19.531,-0.469 28.718,-0.469l0,-9.968c0,-19.271 -4.114,-34.375 -12.343,-45.313c-8.23,-10.937 -21.834,-16.396 -40.813,-16.375c-10.667,-0.062 -21.291,1.369 -31.562,4.25c-9.993,2.855 -19.628,6.839 -28.719,11.875l-9.969,-31.25c11.374,-6.988 23.791,-12.115 36.781,-15.187c13.487,-2.943 27.26,-4.369 41.063,-4.25c26.875,-0 48.312,8.229 64.312,24.687c16,16.459 23.99,40.031 23.969,70.719l0,137.187l-41.781,0l-0.125,-28.531Zm-63.594,1.907c12.053,0.066 23.945,-2.786 34.656,-8.313c10.55,-5.324 20.072,-12.477 28.125,-21.125l0,-42.312c-9.375,0.656 -18.343,1.281 -26.593,1.906c-8.251,0.625 -16.438,1.437 -24.657,2.375c-6.331,0.578 -12.603,1.686 -18.75,3.312c-5.348,1.337 -10.474,3.443 -15.218,6.25c-4.15,2.587 -7.571,6.191 -9.938,10.469c-2.488,4.745 -3.715,10.051 -3.562,15.406c-0,10.782 3.125,18.75 9.375,23.969c6.25,5.219 15.156,8 26.562,8l0,0.063Z" class="cls-1"/><path d="M6705.94,2036.12l33.718,-95.406l-83.562,-230.219l44.156,0l59.813,186.531l58.843,-186.531l44.032,0l-115.344,325.625l-41.656,0Z" class="cls-1"/><path d="M7038.69,1873.31c0.155,10.067 -2.208,20.015 -6.874,28.937c-4.629,8.613 -11.12,16.086 -19.001,21.875c-8.677,6.315 -18.398,11.054 -28.718,14c-11.715,3.403 -23.864,5.077 -36.063,4.969c-5.687,-0 -11.718,-0.313 -18.031,-0.938c-6.313,-0.625 -12.688,-1.593 -19,-2.843c-6.313,-1.25 -12.5,-2.782 -18.281,-4.5c-5.103,-1.468 -10.094,-3.295 -14.938,-5.469l7.125,-33.688c9.152,3.758 18.549,6.89 28.125,9.375c11.554,2.965 23.447,4.404 35.375,4.282c11.884,0.375 23.683,-2.145 34.375,-7.344c8.607,-4.613 13.998,-13.619 13.998,-23.384c0,-4.807 -1.306,-9.525 -3.779,-13.647c-2.643,-4.071 -6.024,-7.611 -9.969,-10.438c-4.527,-3.256 -9.375,-6.041 -14.468,-8.312c-5.563,-2.521 -11.344,-5.053 -17.344,-7.594c-8.229,-3.146 -16.459,-6.709 -24.688,-10.688c-8.048,-3.84 -15.612,-8.624 -22.531,-14.25c-6.653,-5.353 -12.285,-11.864 -16.625,-19.218c-4.449,-7.961 -6.663,-16.979 -6.406,-26.094c-0.286,-9.942 2.088,-19.782 6.875,-28.5c4.461,-7.77 10.64,-14.419 18.062,-19.438c7.864,-5.259 16.623,-9.04 25.844,-11.156c9.958,-2.393 20.165,-3.589 30.406,-3.562c11.843,0.038 23.641,1.454 35.157,4.218c10.699,2.442 21.058,6.189 30.843,11.157l-7.125,32.281c-9.175,-4.435 -18.804,-7.862 -28.718,-10.219c-9.868,-2.362 -19.979,-3.558 -30.126,-3.562c-9.688,-0.312 -19.318,1.636 -28.124,5.687c-7.605,3.813 -11.396,10.781 -11.375,20.906c-0.11,4.378 1.316,8.658 4.031,12.094c2.958,3.564 6.485,6.616 10.437,9.031c4.48,2.789 9.159,5.244 14,7.344c5.063,2.208 9.813,4.427 14.25,6.656c4.094,1.907 10.282,4.594 18.5,8.063c8.575,3.688 16.761,8.221 24.438,13.531c8.18,5.616 15.327,12.604 21.125,20.656c6.222,8.663 9.458,19.119 9.218,29.782Z" class="cls-1"/><rect class="cls-1" x="4612.84" y="5.438" width="31.25" height="2046.97"/></svg>
