<?xml version="1.0" standalone="no"?>
<!DOCTYPE svg PUBLIC "-//W3C//DTD SVG 20010904//EN"
 "http://www.w3.org/TR/2001/REC-SVG-20010904/DTD/svg10.dtd">
<svg version="1.0" xmlns="http://www.w3.org/2000/svg"
 width="258.000000pt" height="258.000000pt" viewBox="0 0 258.000000 258.000000"
 preserveAspectRatio="xMidYMid meet">
<metadata>
Created by potrace 1.14, written by Peter Selinger 2001-2017
</metadata>
<g transform="translate(0.000000,258.000000) scale(0.100000,-0.100000)"
fill="#000000" stroke="none">
<path d="M705 2534 c-309 -66 -561 -345 -611 -677 -8 -52 -10 -187 -4 -262 5
-61 1 -82 -28 -170 -18 -55 -35 -108 -37 -117 -2 -9 -8 -26 -14 -37 -26 -48
-2 -79 58 -76 31 1 41 -2 42 -14 0 -9 2 -36 4 -61 2 -25 6 -110 9 -190 10
-201 13 -228 35 -264 36 -57 50 -61 234 -64 l167 -4 1 -26 c0 -15 2 -34 3 -42
2 -8 6 -51 10 -95 6 -75 8 -99 21 -208 3 -23 7 -73 11 -112 3 -38 8 -73 11
-77 2 -5 152 -8 334 -8 l329 0 0 278 0 279 -39 11 c-21 7 -55 30 -76 51 -26
27 -45 38 -59 35 -12 -2 -27 1 -35 5 -20 13 -5 41 22 41 31 0 34 4 29 40 -3
23 -9 30 -28 30 -12 0 -25 4 -28 9 -11 17 6 41 29 41 13 0 25 7 27 18 6 22 -5
54 -17 52 -6 0 -18 1 -27 4 -20 5 -24 35 -5 37 6 1 19 2 27 3 14 1 16 8 12 36
-1 5 -23 24 -49 41 -238 162 -277 488 -83 688 83 85 176 129 292 138 250 20
480 -191 480 -442 0 -158 -73 -289 -219 -395 -47 -33 -57 -65 -22 -67 47 -4
50 -43 3 -43 -16 0 -24 -6 -25 -17 0 -10 -2 -26 -4 -35 -2 -13 3 -18 20 -18
48 0 53 -45 5 -51 -20 -3 -24 -10 -25 -36 -1 -29 2 -33 26 -33 15 0 29 -6 32
-14 8 -20 -18 -40 -43 -33 -15 4 -31 -5 -57 -33 -19 -22 -54 -45 -76 -53 l-40
-13 1 -190 c0 -104 1 -192 1 -195 1 -3 143 -6 316 -6 277 1 315 3 319 16 3 9
8 81 11 161 4 80 7 145 8 146 1 0 56 20 122 43 229 82 303 112 319 130 12 13
18 46 22 117 3 54 7 122 9 149 2 28 4 58 4 67 1 10 16 21 39 29 20 6 42 16 48
20 8 6 -2 52 -31 153 -24 80 -41 147 -39 149 2 2 5 36 5 75 l1 72 32 1 c17 1
37 1 44 0 10 -2 12 13 7 66 -49 540 -558 902 -1080 766 -107 -28 -104 -28
-138 4 -66 62 -180 129 -260 155 -121 38 -269 46 -382 22z"/>
<path d="M1264 1819 c-206 -27 -354 -185 -358 -384 -1 -83 5 -117 32 -178 30
-67 67 -112 136 -165 70 -54 83 -68 91 -102 5 -24 10 -26 60 -25 l55 0 0 217
c0 120 -3 218 -7 219 -5 1 -38 2 -75 3 -99 4 -137 48 -90 106 35 43 112 15
112 -41 0 -17 8 -19 85 -19 83 0 85 0 85 24 0 32 42 65 74 59 52 -10 70 -69
34 -106 -21 -21 -32 -24 -96 -22 -67 2 -72 0 -73 -19 -1 -27 -1 -374 0 -402 1
-18 7 -20 50 -20 53 1 61 5 65 29 3 24 39 67 67 82 38 20 102 84 131 131 150
237 14 550 -263 607 -38 7 -85 10 -115 6z"/>
<path d="M1173 904 c-2 -7 -3 -23 -1 -35 3 -24 -7 -23 212 -20 l54 1 -1 33 -2
32 -128 1 c-97 1 -130 -2 -134 -12z"/>
<path d="M1170 765 l0 -35 134 0 134 0 0 35 0 35 -134 0 -134 0 0 -35z"/>
<path d="M1208 679 c-19 -12 52 -41 98 -41 28 0 57 8 77 21 17 11 28 21 22 21
-55 5 -189 4 -197 -1z"/>
</g>
</svg>
