<?xml version="1.0" encoding="UTF-8" standalone="no"?><!DOCTYPE svg PUBLIC "-//W3C//DTD SVG 1.1//EN" "http://www.w3.org/Graphics/SVG/1.1/DTD/svg11.dtd"><svg width="100%" height="100%" viewBox="0 0 117 33" version="1.1" xmlns="http://www.w3.org/2000/svg" xmlns:xlink="http://www.w3.org/1999/xlink" xml:space="preserve" xmlns:serif="http://www.serif.com/" style="fill-rule:evenodd;clip-rule:evenodd;stroke-linejoin:round;stroke-miterlimit:2;"><g><path d="M49.992,3.755l-4.561,-0l-0,-0.94l10.222,0l-0,0.94l-4.581,-0l-0,12.342l-1.08,0l0,-12.342Z" style="fill:#221e1f;fill-rule:nonzero;"/><path d="M60.093,9.296l-4.062,-6.481l1.201,0l3.481,5.681l3.601,-5.681l1.16,0l-4.161,6.441l4.321,6.841l-1.2,0l-3.741,-6.061l-3.861,6.061l-1.18,0l4.441,-6.801Z" style="fill:#221e1f;fill-rule:nonzero;"/><rect x="65.773" y="10.356" width="4.14" height="0.921" style="fill:#221e1f;fill-rule:nonzero;"/><path d="M71.012,9.456c0,-4.161 2.541,-6.882 6.161,-6.882c2.98,-0 5.241,1.501 5.821,4.941l-2.12,0.02c-0.44,-2.36 -1.841,-3.12 -3.721,-3.12c-2.46,0 -4.101,1.88 -4.101,4.961l0,0.16c0,3.1 1.621,4.961 4.061,4.961c1.92,-0 3.401,-0.82 3.801,-3.261l2.101,0c-0.521,3.541 -2.881,5.102 -5.942,5.102c-3.541,-0 -6.061,-2.741 -6.061,-6.882Z" style="fill:#221e1f;fill-rule:nonzero;"/><path d="M87.273,4.555l-4.242,0l-0,-1.74l10.462,0l-0,1.74l-4.26,0l0,11.542l-1.96,0l0,-11.542Z" style="fill:#221e1f;fill-rule:nonzero;"/><path d="M98.713,9.316c2.5,-0 3.361,-1.4 3.361,-2.701c-0,-1.44 -0.901,-2.12 -3.101,-2.12l-2.801,0l-0,4.821l2.541,-0Zm-4.501,-6.501l4.78,0c3.542,0 5.102,1.38 5.102,3.62c0,1.841 -1.12,3.301 -3.26,3.681c2.16,0.6 3.121,2.341 3.48,5.481c0,0.1 0.04,0.4 0.061,0.5l-2.081,0l-0.02,-0.42c-0.36,-2.86 -1.44,-4.721 -4.301,-4.721l-1.801,-0l-0,5.141l-1.96,0l-0,-13.282Z" style="fill:#221e1f;fill-rule:nonzero;"/><path d="M105.391,2.815l2.3,0l6.622,9.942l0,-9.942l1.941,0l-0,13.302l-1.921,0l-7.001,-10.482l0,10.462l-1.941,0l-0,-13.282Z" style="fill:#221e1f;fill-rule:nonzero;"/><path d="M47.388,21.803l-1.144,0l-0,-0.527l2.878,0l0,0.527l-1.14,0l-0,3.425l-0.594,0l0,-3.425Z" style="fill:#221e1f;fill-rule:nonzero;"/><path d="M51.18,23.471l0,-0.024c0,-0.504 -0.185,-0.84 -0.701,-0.84c-0.408,0 -0.738,0.246 -0.773,0.864l1.474,-0Zm-2.068,0.264c-0,-0.972 0.533,-1.565 1.391,-1.565c0.918,0 1.277,0.63 1.277,1.468l-0.006,0.223l-2.081,0c0.042,0.684 0.366,0.978 0.852,0.978c0.354,-0 0.612,-0.168 0.744,-0.397l0.395,0.276c-0.227,0.318 -0.594,0.576 -1.169,0.576c-0.906,0 -1.41,-0.594 -1.403,-1.559Z" style="fill:#221e1f;fill-rule:nonzero;"/><path d="M52.927,23.932l0.192,-0.227l-0,-0.018l-0.174,-0.228l-0.815,-1.217l0.653,-0l0.54,0.852l0.132,0.275l0.018,0l0.144,-0.3l0.51,-0.827l0.653,-0l-0.816,1.193l-0.198,0.24l-0,0.024l0.168,0.198l0.901,1.331l-0.661,0l-0.599,-0.929l-0.126,-0.264l-0.03,-0l-0.15,0.294l-0.582,0.899l-0.672,0l0.912,-1.296Z" style="fill:#221e1f;fill-rule:nonzero;"/><path d="M57.018,24.155l0,-0.612c-0.065,0.095 -0.263,0.179 -0.515,0.246c-0.51,0.12 -0.774,0.288 -0.774,0.617c0,0.294 0.21,0.444 0.462,0.444c0.42,0 0.762,-0.294 0.827,-0.695Zm-1.877,0.306c-0,-0.558 0.42,-0.792 1.038,-0.918c0.587,-0.12 0.822,-0.186 0.839,-0.3l0,-0.048c0,-0.366 -0.197,-0.558 -0.617,-0.558c-0.372,0 -0.647,0.204 -0.768,0.457l-0.456,-0.241c0.21,-0.408 0.696,-0.666 1.284,-0.666c0.75,0 1.128,0.355 1.128,1.068l0,0.99c0,0.623 0.071,0.881 0.167,0.983l-0.593,0c-0.073,-0.078 -0.12,-0.294 -0.139,-0.654c-0.126,0.42 -0.521,0.714 -0.995,0.714c-0.582,-0.006 -0.894,-0.348 -0.888,-0.827Z" style="fill:#221e1f;fill-rule:nonzero;"/><path d="M58.25,24.671l0.389,-0.288c0.199,0.33 0.498,0.461 0.816,0.461c0.294,-0 0.521,-0.131 0.521,-0.389c0,-0.294 -0.323,-0.402 -0.767,-0.558c-0.42,-0.144 -0.839,-0.342 -0.839,-0.858c-0,-0.51 0.443,-0.858 1.091,-0.858c0.534,-0 0.851,0.216 1.061,0.516l-0.395,0.312c-0.096,-0.18 -0.325,-0.389 -0.678,-0.389c-0.3,-0 -0.504,0.155 -0.504,0.371c-0,0.294 0.324,0.402 0.714,0.534c0.456,0.162 0.888,0.348 0.888,0.905c0,0.54 -0.462,0.858 -1.117,0.858c-0.491,0 -0.953,-0.204 -1.18,-0.617Z" style="fill:#221e1f;fill-rule:nonzero;"/><path d="M62.293,23.249c-0,-1.236 0.719,-2.051 1.829,-2.051c0.839,-0 1.391,0.426 1.589,1.241l-0.582,0.132c-0.162,-0.629 -0.48,-0.887 -1.013,-0.887c-0.75,0 -1.218,0.6 -1.218,1.553l-0,0.018c-0,0.942 0.439,1.559 1.218,1.559c0.611,0 0.905,-0.348 1.031,-0.917l0.576,0.108c-0.168,0.839 -0.75,1.295 -1.613,1.295c-1.14,0 -1.817,-0.828 -1.817,-2.051Z" style="fill:#221e1f;fill-rule:nonzero;"/><path d="M66.446,20.82l0.558,-0l-0,1.806l-0.025,0.425l0.036,-0c0.138,-0.492 0.516,-0.87 1.062,-0.87c0.582,-0 0.899,0.361 0.899,1.08l-0,1.967l-0.588,0l0,-1.823c0,-0.527 -0.21,-0.72 -0.563,-0.72c-0.426,0 -0.804,0.42 -0.821,1.079l-0,1.464l-0.558,0l-0,-4.408Z" style="fill:#221e1f;fill-rule:nonzero;"/><path d="M69.907,22.242l0.575,-0l0,2.986l-0.575,0l-0,-2.986Zm-0.036,-0.558l0,-0.588c0,-0.03 0.017,-0.042 0.042,-0.042l0.563,-0c0.025,-0 0.036,0.012 0.036,0.042l0,0.588c0,0.024 -0.011,0.042 -0.036,0.042l-0.563,-0c-0.031,-0 -0.042,-0.018 -0.042,-0.042Z" style="fill:#221e1f;fill-rule:nonzero;"/><rect x="71.509" y="20.82" width="0.576" height="4.408" style="fill:#221e1f;fill-rule:nonzero;"/><path d="M75.059,23.777l-0,-0.162c-0,-0.527 -0.252,-1.002 -0.833,-1.002c-0.498,-0 -0.773,0.42 -0.773,1.067c0,0.691 0.263,1.134 0.755,1.134c0.515,0 0.851,-0.527 0.851,-1.037Zm-2.213,-0.066c0,-1.014 0.498,-1.547 1.212,-1.547c0.533,-0 0.864,0.33 1.001,0.731l0.03,0l-0.042,-0.569l-0,-1.506l0.564,-0l0,4.408l-0.546,0l0.007,-0.731l0.012,-0.151c-0.102,0.522 -0.498,0.924 -1.05,0.924c-0.737,-0 -1.188,-0.612 -1.188,-1.559Z" style="fill:#221e1f;fill-rule:nonzero;"/><path d="M76.633,20.82l0.558,-0l0,1.806l-0.024,0.425l0.036,-0c0.137,-0.492 0.515,-0.87 1.061,-0.87c0.582,-0 0.9,0.361 0.9,1.08l0,1.967l-0.588,0l-0,-1.823c-0,-0.527 -0.21,-0.72 -0.564,-0.72c-0.425,0 -0.803,0.42 -0.821,1.079l0,1.464l-0.558,0l0,-4.408Z" style="fill:#221e1f;fill-rule:nonzero;"/><path d="M82.158,23.722c-0,-0.659 -0.282,-1.109 -0.822,-1.109c-0.552,-0 -0.852,0.45 -0.852,1.109c0,0.666 0.294,1.122 0.834,1.122c0.533,-0 0.84,-0.45 0.84,-1.122Zm-2.279,0.007c-0,-0.882 0.545,-1.559 1.469,-1.559c0.911,0 1.409,0.611 1.409,1.541c0,0.905 -0.557,1.583 -1.451,1.583c-0.929,0 -1.427,-0.612 -1.427,-1.565Z" style="fill:#221e1f;fill-rule:nonzero;"/><path d="M85.578,23.722c0,-0.659 -0.282,-1.109 -0.822,-1.109c-0.552,-0 -0.852,0.45 -0.852,1.109c-0,0.666 0.294,1.122 0.834,1.122c0.533,-0 0.84,-0.45 0.84,-1.122Zm-2.28,0.007c-0,-0.882 0.546,-1.559 1.47,-1.559c0.911,0 1.409,0.611 1.409,1.541c0,0.905 -0.557,1.583 -1.451,1.583c-0.929,0 -1.428,-0.612 -1.428,-1.565Z" style="fill:#221e1f;fill-rule:nonzero;"/><path d="M88.943,23.777l0,-0.162c0,-0.527 -0.252,-1.002 -0.833,-1.002c-0.498,-0 -0.773,0.42 -0.773,1.067c-0,0.691 0.263,1.134 0.754,1.134c0.516,0 0.852,-0.527 0.852,-1.037Zm-2.213,-0.066c0,-1.014 0.498,-1.547 1.212,-1.547c0.533,-0 0.863,0.33 1.001,0.731l0.03,0l-0.042,-0.569l-0,-1.506l0.564,-0l0,4.408l-0.545,0l0.006,-0.731l0.011,-0.151c-0.101,0.522 -0.498,0.924 -1.049,0.924c-0.738,-0 -1.188,-0.612 -1.188,-1.559Z" style="fill:#221e1f;fill-rule:nonzero;"/><path d="M92.471,21.803l-1.144,0l0,-0.527l2.878,0l0,0.527l-1.14,0l0,3.425l-0.594,0l0,-3.425Z" style="fill:#221e1f;fill-rule:nonzero;"/><path d="M94.458,22.242l0.557,-0l-0,0.401l-0.065,0.93l0.042,-0c0.065,-0.624 0.353,-1.373 1.037,-1.373l0.09,-0l0,0.695c-0.06,-0.006 -0.144,-0.006 -0.216,-0.006c-0.564,-0 -0.827,0.468 -0.869,1.133l-0,1.206l-0.576,0l0,-2.986Z" style="fill:#221e1f;fill-rule:nonzero;"/><path d="M98.261,24.155l0,-0.612c-0.065,0.095 -0.263,0.179 -0.515,0.246c-0.51,0.12 -0.774,0.288 -0.774,0.617c0,0.294 0.21,0.444 0.462,0.444c0.42,0 0.762,-0.294 0.827,-0.695Zm-1.877,0.306c0,-0.558 0.42,-0.792 1.038,-0.918c0.587,-0.12 0.822,-0.186 0.839,-0.3l0,-0.048c0,-0.366 -0.197,-0.558 -0.617,-0.558c-0.372,0 -0.647,0.204 -0.767,0.457l-0.456,-0.241c0.21,-0.408 0.695,-0.666 1.283,-0.666c0.75,0 1.128,0.355 1.128,1.068l0,0.99c0,0.623 0.071,0.881 0.167,0.983l-0.593,0c-0.072,-0.078 -0.12,-0.294 -0.139,-0.654c-0.126,0.42 -0.521,0.714 -0.995,0.714c-0.582,-0.006 -0.893,-0.348 -0.888,-0.827Z" style="fill:#221e1f;fill-rule:nonzero;"/><path d="M99.721,24.178l0,-1.936l0.594,-0l0,1.841c0,0.504 0.144,0.701 0.498,0.701c0.402,0 0.719,-0.396 0.744,-0.953l-0,-1.589l0.587,-0l-0,2.986l-0.552,0l0,-0.347l0.024,-0.462l-0.036,-0c-0.048,0.299 -0.353,0.863 -0.935,0.857c-0.648,0 -0.924,-0.384 -0.924,-1.098Z" style="fill:#221e1f;fill-rule:nonzero;"/><path d="M103.165,22.242l0.564,-0l-0,0.42c-0,0.096 -0.025,0.395 -0.025,0.395l0.036,0c0.145,-0.479 0.498,-0.876 1.038,-0.876c0.534,-0 0.791,0.378 0.828,0.882l0.036,-0c0.162,-0.563 0.546,-0.882 1.025,-0.882c0.575,-0 0.821,0.426 0.821,1.098l-0,1.949l-0.588,0l0,-1.817c0,-0.468 -0.083,-0.726 -0.461,-0.726c-0.372,0 -0.749,0.306 -0.81,1.031l-0,1.512l-0.581,0l-0,-1.823c-0,-0.527 -0.162,-0.72 -0.51,-0.72c-0.42,0 -0.779,0.384 -0.792,1.031l0,1.512l-0.581,0l0,-2.986Z" style="fill:#221e1f;fill-rule:nonzero;"/><path d="M110.082,24.155l0,-0.612c-0.065,0.095 -0.264,0.179 -0.515,0.246c-0.51,0.12 -0.774,0.288 -0.774,0.617c-0,0.294 0.21,0.444 0.462,0.444c0.42,0 0.762,-0.294 0.827,-0.695Zm-1.877,0.306c0,-0.558 0.42,-0.792 1.038,-0.918c0.587,-0.12 0.822,-0.186 0.839,-0.3l0,-0.048c0,-0.366 -0.197,-0.558 -0.617,-0.558c-0.372,0 -0.648,0.204 -0.768,0.457l-0.456,-0.241c0.21,-0.408 0.696,-0.666 1.284,-0.666c0.75,0 1.127,0.355 1.127,1.068l0,0.99c0,0.623 0.072,0.881 0.167,0.983l-0.592,0c-0.073,-0.078 -0.12,-0.294 -0.139,-0.654c-0.126,0.42 -0.521,0.714 -0.995,0.714c-0.582,-0.006 -0.894,-0.348 -0.888,-0.827Z" style="fill:#221e1f;fill-rule:nonzero;"/><path d="M48.816,28.65c0,-0.408 -0.21,-0.647 -0.924,-0.647l-0.647,-0l-0,1.415l0.659,-0c0.672,-0 0.912,-0.36 0.912,-0.768Zm-2.153,-1.127l1.325,-0c1.025,-0 1.428,0.426 1.428,1.049c0,0.39 -0.199,0.857 -0.9,1.002c0.6,0.126 0.942,0.701 1.014,1.684c0.006,0.126 0.017,0.193 0.017,0.216l-0.611,-0l-0.006,-0.185c-0.072,-0.953 -0.372,-1.415 -1.08,-1.415l-0.605,0l-0,1.6l-0.582,-0l-0,-3.951Z" style="fill:#221e1f;fill-rule:nonzero;"/><path d="M52.194,29.717l0,-0.024c0,-0.503 -0.186,-0.839 -0.701,-0.839c-0.408,0 -0.738,0.246 -0.774,0.863l1.475,0Zm-2.068,0.264c-0,-0.972 0.533,-1.564 1.39,-1.564c0.918,-0 1.278,0.629 1.278,1.469l-0.006,0.221l-2.081,0c0.042,0.684 0.366,0.978 0.851,0.978c0.355,0 0.613,-0.168 0.744,-0.396l0.396,0.276c-0.228,0.318 -0.594,0.576 -1.169,0.576c-0.906,0 -1.41,-0.594 -1.403,-1.56Z" style="fill:#221e1f;fill-rule:nonzero;"/><path d="M53.246,30.917l0.389,-0.288c0.199,0.33 0.498,0.462 0.816,0.462c0.294,-0 0.521,-0.132 0.521,-0.39c0,-0.294 -0.323,-0.401 -0.767,-0.558c-0.42,-0.143 -0.839,-0.342 -0.839,-0.857c0,-0.51 0.443,-0.858 1.091,-0.858c0.534,-0 0.851,0.216 1.061,0.516l-0.395,0.312c-0.096,-0.18 -0.325,-0.39 -0.678,-0.39c-0.3,0 -0.504,0.156 -0.504,0.372c0,0.294 0.324,0.401 0.714,0.533c0.456,0.162 0.888,0.348 0.888,0.907c-0,0.538 -0.462,0.857 -1.117,0.857c-0.491,-0 -0.953,-0.204 -1.18,-0.618Z" style="fill:#221e1f;fill-rule:nonzero;"/><path d="M58.14,29.717l-0,-0.024c-0,-0.503 -0.185,-0.839 -0.701,-0.839c-0.408,0 -0.738,0.246 -0.773,0.863l1.474,0Zm-2.068,0.264c-0,-0.972 0.533,-1.564 1.391,-1.564c0.918,-0 1.277,0.629 1.277,1.469l-0.006,0.221l-2.081,0c0.042,0.684 0.366,0.978 0.852,0.978c0.354,0 0.612,-0.168 0.744,-0.396l0.395,0.276c-0.227,0.318 -0.594,0.576 -1.169,0.576c-0.906,0 -1.41,-0.594 -1.403,-1.56Z" style="fill:#221e1f;fill-rule:nonzero;"/><path d="M61.08,30.401l0,-0.611c-0.066,0.096 -0.264,0.179 -0.516,0.245c-0.51,0.12 -0.773,0.288 -0.773,0.618c0,0.294 0.21,0.443 0.462,0.443c0.419,-0 0.761,-0.293 0.827,-0.695Zm-1.877,0.306c-0,-0.558 0.42,-0.791 1.038,-0.917c0.587,-0.12 0.821,-0.187 0.839,-0.3l0,-0.048c0,-0.366 -0.198,-0.559 -0.617,-0.559c-0.373,-0 -0.648,0.205 -0.768,0.457l-0.456,-0.24c0.21,-0.408 0.695,-0.666 1.283,-0.666c0.75,0 1.128,0.354 1.128,1.068l0,0.989c0,0.624 0.071,0.882 0.167,0.983l-0.593,-0c-0.072,-0.078 -0.12,-0.294 -0.138,-0.653c-0.126,0.42 -0.522,0.714 -0.996,0.714c-0.582,-0.006 -0.893,-0.349 -0.887,-0.828Z" style="fill:#221e1f;fill-rule:nonzero;"/><path d="M62.599,28.488l0.558,-0l0,0.402l-0.066,0.929l0.042,0c0.066,-0.623 0.354,-1.373 1.037,-1.373l0.09,0l0,0.696c-0.059,-0.006 -0.143,-0.006 -0.215,-0.006c-0.564,-0 -0.828,0.467 -0.87,1.133l-0,1.205l-0.576,-0l-0,-2.986Z" style="fill:#221e1f;fill-rule:nonzero;"/><path d="M64.501,29.975c-0,-0.887 0.528,-1.558 1.421,-1.558c0.587,-0 0.959,0.221 1.164,0.743l-0.516,0.222c-0.084,-0.27 -0.264,-0.504 -0.636,-0.504c-0.504,-0 -0.827,0.372 -0.827,1.08c0,0.72 0.281,1.121 0.827,1.121c0.342,-0 0.575,-0.168 0.678,-0.45l0.462,0.228c-0.181,0.396 -0.558,0.684 -1.164,0.684c-0.881,0 -1.409,-0.618 -1.409,-1.566Z" style="fill:#221e1f;fill-rule:nonzero;"/><path d="M67.67,27.067l0.557,-0l-0,1.805l-0.024,0.426l0.036,0c0.138,-0.492 0.516,-0.87 1.061,-0.87c0.582,-0 0.9,0.36 0.9,1.08l-0,1.966l-0.588,-0l-0,-1.823c-0,-0.527 -0.21,-0.719 -0.564,-0.719c-0.425,0 -0.803,0.419 -0.821,1.079l-0,1.463l-0.557,-0l-0,-4.407Z" style="fill:#221e1f;fill-rule:nonzero;"/><path d="M72.541,27.523l0.683,-0l1.47,2.345l0.485,0.941l-0.078,-0.954l-0,-2.332l0.576,-0l0,3.951l-0.569,-0l-1.619,-2.554l-0.481,-0.906l0.097,0.918l0,2.542l-0.564,-0l0,-3.951Z" style="fill:#221e1f;fill-rule:nonzero;"/><path d="M78.54,29.717l0,-0.024c0,-0.503 -0.186,-0.839 -0.701,-0.839c-0.409,0 -0.739,0.246 -0.774,0.863l1.475,0Zm-2.069,0.264c0,-0.972 0.534,-1.564 1.391,-1.564c0.918,-0 1.277,0.629 1.277,1.469l-0.006,0.221l-2.081,0c0.042,0.684 0.367,0.978 0.852,0.978c0.354,0 0.612,-0.168 0.744,-0.396l0.396,0.276c-0.228,0.318 -0.594,0.576 -1.169,0.576c-0.907,0 -1.411,-0.594 -1.404,-1.56Z" style="fill:#221e1f;fill-rule:nonzero;"/><path d="M79.981,30.659l0,-1.685l-0.491,-0l-0,-0.486l0.516,-0l-0,-0.743l0.521,-0.24l0,0.767l-0.024,0.216l0.78,-0l-0,0.486l-0.78,-0l0.024,0.222l0,1.373c0,0.39 0.078,0.462 0.408,0.462c0.15,0 0.3,-0.03 0.449,-0.072l0,0.437c-0.179,0.072 -0.425,0.126 -0.641,0.126c-0.546,-0 -0.762,-0.216 -0.762,-0.863Z" style="fill:#221e1f;fill-rule:nonzero;"/><path d="M81.637,28.488l0.618,-0l0.389,1.649l0.145,0.804l0.023,-0l0.198,-0.809l0.492,-1.644l0.593,-0l0.439,1.644l0.197,0.815l0.019,0l0.161,-0.815l0.42,-1.644l0.582,-0l-0.888,2.986l-0.6,-0l-0.503,-1.793l-0.138,-0.665l-0.025,0l-0.143,0.665l-0.54,1.793l-0.593,-0l-0.846,-2.986Z" style="fill:#221e1f;fill-rule:nonzero;"/><path d="M88.506,29.969c-0,-0.66 -0.282,-1.109 -0.822,-1.109c-0.552,0 -0.851,0.449 -0.851,1.109c0,0.667 0.294,1.122 0.834,1.122c0.533,-0 0.839,-0.45 0.839,-1.122Zm-2.279,0.006c-0,-0.881 0.546,-1.558 1.47,-1.558c0.911,-0 1.409,0.611 1.409,1.541c0,0.905 -0.558,1.583 -1.451,1.583c-0.93,0 -1.428,-0.613 -1.428,-1.566Z" style="fill:#221e1f;fill-rule:nonzero;"/><path d="M89.839,28.488l0.557,-0l0,0.402l-0.065,0.929l0.042,0c0.065,-0.623 0.353,-1.373 1.037,-1.373l0.09,0l-0,0.696c-0.06,-0.006 -0.144,-0.006 -0.216,-0.006c-0.564,-0 -0.827,0.467 -0.869,1.133l0,1.205l-0.576,-0l-0,-2.986Z" style="fill:#221e1f;fill-rule:nonzero;"/><path d="M92.059,27.067l0.558,-0l-0,2.435l-0.025,0.641l1.289,-1.655l0.714,-0l-0.995,1.193l1.073,1.793l-0.647,-0l-0.834,-1.439l-0.588,0.684l0.013,0.204l-0,0.551l-0.558,-0l-0,-4.407Z" style="fill:#221e1f;fill-rule:nonzero;"/><path d="M12.601,21.433l19.475,-4.129l-0.304,-6.388c-0.012,-0.259 -0.241,-0.455 -0.5,-0.427l-30.87,3.395c-0.413,0.045 -0.55,0.58 -0.209,0.818l4.002,2.791c0.095,0.066 0.161,0.167 0.184,0.281l1.426,7.137c0.05,0.252 0.3,0.411 0.549,0.351l6.144,-1.493l-0.25,-1.833c-0.032,-0.234 0.122,-0.453 0.353,-0.503Z" style="fill:#e23c30;fill-rule:nonzero;"/><path d="M34.817,16.722l-2.741,0.582l0.063,1.318c0.01,0.216 -0.134,0.409 -0.344,0.46l-19.297,4.687l1.208,8.841c0.04,0.289 0.338,0.464 0.61,0.36l19.352,-7.489c0.17,-0.066 0.284,-0.227 0.288,-0.41l0.135,-5.786c0.002,-0.087 0.029,-0.172 0.079,-0.245l1.112,-1.621c0.231,-0.336 -0.067,-0.781 -0.465,-0.697Z" style="fill:#1969b3;fill-rule:nonzero;"/><path d="M32.139,18.622l-0.063,-1.318l-19.475,4.129c-0.231,0.05 -0.385,0.269 -0.353,0.503l0.25,1.833l19.297,-4.687c0.21,-0.051 0.354,-0.244 0.344,-0.46Z" style="fill:#ef4628;fill-rule:nonzero;"/><path d="M32.139,18.622l-0.063,-1.318l-19.475,4.129c-0.231,0.05 -0.385,0.269 -0.353,0.503l0.25,1.833l19.297,-4.687c0.21,-0.051 0.354,-0.244 0.344,-0.46Z" style="fill:#2e2951;fill-rule:nonzero;"/><path d="M17.179,17.199l2.324,-1.689l-2.873,0l-0.887,-2.732l-0.888,2.732l-2.873,0l2.324,1.689l-0.888,2.732l2.325,-1.689l2.324,1.689l-0.888,-2.732Z" style="fill:#fff;fill-rule:nonzero;"/><path d="M9.918,12.05c-0.277,-0 -0.5,-0.224 -0.5,-0.5l0,-9.671c0,-0.519 0.422,-0.941 0.94,-0.941l10.769,-0c0.518,-0 0.94,0.422 0.94,0.941l-0,8.39c-0,0.276 -0.223,0.5 -0.5,0.5c-0.276,-0 -0.5,-0.224 -0.5,-0.5l-0,-8.39l-10.709,0.059l0.06,9.612c0,0.276 -0.224,0.5 -0.5,0.5Z" style="fill:#2e2951;fill-rule:nonzero;"/></g></svg>