<?xml version="1.0" encoding="UTF-8" standalone="no"?><!DOCTYPE svg PUBLIC "-//W3C//DTD SVG 1.1//EN" "http://www.w3.org/Graphics/SVG/1.1/DTD/svg11.dtd"><svg width="100%" height="100%" viewBox="0 0 129 145" version="1.1" xmlns="http://www.w3.org/2000/svg" xmlns:xlink="http://www.w3.org/1999/xlink" xml:space="preserve" xmlns:serif="http://www.serif.com/" style="fill-rule:evenodd;clip-rule:evenodd;stroke-miterlimit:10;"><g><g><path d="M2.8,130.3l41,-11.8l41.6,-1.8l40.3,-13.6" style="fill:none;fill-rule:nonzero;stroke:#787878;stroke-width:0.5px;"/><path d="M2.8,124.4l41,-11.8l41.6,-1.8l40.3,-13.5" style="fill:none;fill-rule:nonzero;stroke:#787878;stroke-width:0.5px;"/><path d="M2.8,118.2l41,-11.8l41.6,-1.8l40.3,-13.6" style="fill:none;fill-rule:nonzero;stroke:#787878;stroke-width:0.5px;"/><path d="M2.8,112.5l41,-11.8l41.6,-1.8l40.3,-13.5" style="fill:none;fill-rule:nonzero;stroke:#787878;stroke-width:0.5px;"/><path d="M2.8,107.4l41,-11.8l41.6,-1.8l40.3,-13.6" style="fill:none;fill-rule:nonzero;stroke:#787878;stroke-width:0.5px;"/><path d="M2.8,100.3l41,-11.8l41.6,-1.8l40.3,-13.5" style="fill:none;fill-rule:nonzero;stroke:#787878;stroke-width:0.5px;"/><path d="M2.8,94.5l41,-11.8l41.6,-1.8l40.3,-13.6" style="fill:none;fill-rule:nonzero;stroke:#787878;stroke-width:0.5px;"/><path d="M2.8,88.9l41,-11.8l41.6,-1.8l40.3,-13.6" style="fill:none;fill-rule:nonzero;stroke:#787878;stroke-width:0.5px;"/><path d="M2.8,83.5l41,-11.8l41.6,-1.8l40.3,-13.6" style="fill:none;fill-rule:nonzero;stroke:#787878;stroke-width:0.5px;"/><path d="M2.8,78.1l41,-11.8l41.6,-1.8l40.3,-13.6" style="fill:none;fill-rule:nonzero;stroke:#787878;stroke-width:0.5px;"/><path d="M2.8,73.3l41,-11.8l41.6,-1.8l40.3,-13.6" style="fill:none;fill-rule:nonzero;stroke:#787878;stroke-width:0.5px;"/><path d="M2.8,67.8l41,-11.8l41.6,-1.8l40.3,-13.5" style="fill:none;fill-rule:nonzero;stroke:#787878;stroke-width:0.5px;"/><path d="M2.8,62.5l41,-11.8l41.6,-1.8l40.3,-13.5" style="fill:none;fill-rule:nonzero;stroke:#787878;stroke-width:0.5px;"/></g><g><path d="M10.2,54.3l0.8,82.8" style="fill:none;fill-rule:nonzero;stroke:#787878;stroke-width:0.5px;"/><path d="M15.8,53.1l0.8,82.8" style="fill:none;fill-rule:nonzero;stroke:#787878;stroke-width:0.5px;"/><path d="M21.3,50.3l0.9,82.8" style="fill:none;fill-rule:nonzero;stroke:#787878;stroke-width:0.5px;"/><path d="M26.9,48.8l0.8,82.8" style="fill:none;fill-rule:nonzero;stroke:#787878;stroke-width:0.5px;"/><path d="M32.5,47.5l0.8,82.8" style="fill:none;fill-rule:nonzero;stroke:#787878;stroke-width:0.5px;"/><path d="M38,45.4l0.8,82.7" style="fill:none;fill-rule:nonzero;stroke:#787878;stroke-width:0.5px;"/></g><g><path d="M90.4,42.8l0.9,82.8" style="fill:none;fill-rule:nonzero;stroke:#787878;stroke-width:0.5px;"/><path d="M96,41.6l0.8,82.8" style="fill:none;fill-rule:nonzero;stroke:#787878;stroke-width:0.5px;"/><path d="M101.6,38.8l0.8,82.8" style="fill:none;fill-rule:nonzero;stroke:#787878;stroke-width:0.5px;"/><path d="M107.1,37.4l0.8,82.7" style="fill:none;fill-rule:nonzero;stroke:#787878;stroke-width:0.5px;"/><path d="M112.7,36l0.8,82.8" style="fill:none;fill-rule:nonzero;stroke:#787878;stroke-width:0.5px;"/><path d="M118.2,33.9l0.9,82.8" style="fill:none;fill-rule:nonzero;stroke:#787878;stroke-width:0.5px;"/></g><g><path d="M48.9,46.1l0.9,82.8" style="fill:none;fill-rule:nonzero;stroke:#787878;stroke-width:0.5px;"/><path d="M54.5,44.9l0.8,82.8" style="fill:none;fill-rule:nonzero;stroke:#787878;stroke-width:0.5px;"/><path d="M60.1,42.1l0.8,82.8" style="fill:none;fill-rule:nonzero;stroke:#787878;stroke-width:0.5px;"/><path d="M66.4,44l0,82.2" style="fill:none;fill-rule:nonzero;stroke:#787878;stroke-width:0.5px;"/><path d="M72.6,44.9l-0.6,80.7" style="fill:none;fill-rule:nonzero;stroke:#787878;stroke-width:0.5px;"/><path d="M78.7,42.8l-1.1,82.8" style="fill:none;fill-rule:nonzero;stroke:#787878;stroke-width:0.5px;"/></g><g><g><g><g><g><g><clipPath id="_clip1"><path d="M43.8,133.9l-41,12.3l-0,-89.1l41,-12.2l-0,89Z"/></clipPath><g clip-path="url(#_clip1)"><g><path d="M33.7,114.3c-0.7,0.2 -1.3,0.1 -1.7,-0.5c-0.9,-1.2 -1.4,-2.8 -1.4,-4.6c0,-1.1 0.8,-2.2 1.9,-2.6c1.1,-0.4 2,0.1 2.1,1.1c0.2,1.2 0.5,2.2 1,3.2c0.4,0.8 0,2.1 -0.9,2.8c-0.4,0.3 -0.7,0.5 -1,0.6Z" style="fill:#d7d18a;fill-rule:nonzero;"/><path d="M78.5,81c-9.2,-3.3 -16.4,0.2 -22.2,8.4c-3.3,-0.8 -6.9,-0.3 -10.8,1.5c-3.4,1 -6.1,4.6 -6.1,8l0,0.1c-3.8,1.6 -6.8,5.8 -6.8,9.7c0.2,1.3 0.6,2.6 1.1,3.7c2.5,5.3 8.4,7.7 15.3,5.7c3.1,-0.9 5.9,-2.6 8.4,-4.8c31.6,-17.4 39,-6.9 48.6,-10.8c4.9,-2.1 7.4,-5.4 7.5,-9.5c2.2,-2.2 3.7,-5.2 3.7,-8.1c0,-1.1 -0.2,-2.1 -0.6,-2.9c0.7,-1.3 1.1,-2.7 1.1,-4.1c0,-1.7 -0.6,-3.1 -1.7,-4c0.1,-0.5 0.2,-1 0.2,-1.5c0,-2.4 -1.2,-4.1 -3.1,-4.8c0.1,-0.4 0.1,-0.8 0.1,-1.2c0,-3 -1.9,-5 -4.6,-5.1c0.1,-0.6 0.2,-1.2 0.2,-1.8c-0,-4.4 -3.4,-7 -7.8,-6.1c-1.2,-7 -7.7,-10.8 -15.5,-8.5c-0.3,0.1 -0.6,0.2 -0.9,0.3c-1.6,-1.6 -4.2,-2.2 -7.1,-1.4c-1.6,0.5 -3.1,1.3 -4.3,2.4c-1.4,-1.6 -3.8,-2.2 -6.5,-1.5c-1.8,0.5 -3.6,1.7 -4.9,3.2c-1.3,-0.7 -3.1,-0.8 -4.9,-0.2c-2.6,0.8 -4.8,2.6 -6.2,5c-1.6,-0.1 -3.2,0.2 -5,0.7c-6.1,1.8 -11.3,6.8 -13.9,12.6c-0.8,-0 -1.7,0.1 -2.6,0.4c-4.4,1.3 -8.1,5.9 -8.4,10.4c-5.8,5 -9.8,12.4 -9.8,19.6c-0,10.5 8.5,16.5 19,13.3c0.9,-0.3 1.8,-0.6 2.6,-1" style="fill:#222;fill-rule:nonzero;"/><path d="M104.8,104.7c-3.1,0.9 -5.9,0.7 -9.2,0.4c-7.2,-0.7 -17,-1.5 -37.5,9.7c-2.8,2.4 -5.9,4.2 -9.1,5.1c-7.6,2.3 -14.3,-0.2 -17.2,-6.3c-0.3,-0.7 -0.6,-1.5 -0.9,-2.3c-12.1,4.2 -22,-2.5 -22,-14.4c0,-7.3 3.8,-15.2 10,-20.8c0.9,-5.2 5.2,-10.2 10.3,-11.7c0.5,-0.2 1,-0.3 1.6,-0.3c3.2,-6.1 8.8,-10.8 14.9,-12.6c1.5,-0.4 2.9,-0.7 4.3,-0.8c1.8,-2.3 4.3,-4.1 6.9,-4.9c1.7,-0.5 3.4,-0.6 4.9,-0.2c1.5,-1.3 3.2,-2.2 4.9,-2.8c2.7,-0.8 5.2,-0.5 7,0.8c1.2,-0.8 2.5,-1.4 3.8,-1.8c3.1,-0.9 5.9,-0.5 7.9,1.1l0.1,-0c8.2,-2.5 15.2,1 17.1,8.2c4.6,-0.3 8.1,2.8 8.1,7.8l0,0.5c2.7,0.8 4.4,3.2 4.4,6.3l0,0.2c1.9,1.1 3,3.2 3,5.8c0,0.3 0,0.6 -0.1,0.9c1,1.2 1.6,2.8 1.6,4.6c0,1.4 -0.3,2.8 -0.9,4.2c0.3,0.9 0.4,1.8 0.4,2.8c0,3.1 -1.4,6.4 -3.7,9.1c-0.5,4.7 -3.8,8.7 -9.1,11c-0.5,0.1 -1,0.3 -1.5,0.4Zm-28.4,-1.9c9.6,-2.9 15.7,-2.3 20.6,-1.9c3.4,0.3 6.1,0.6 8.7,-0.6c3.7,-1.6 5.6,-3.9 5.7,-7c0,-0.7 0.3,-1.3 0.9,-1.9c1.8,-1.7 2.8,-4 2.8,-6.1c-0,-0.8 -0.1,-1.6 -0.4,-2.2c-0.2,-0.5 -0.2,-1.2 0.2,-1.9c0.5,-0.9 0.8,-1.9 0.8,-2.9c0,-1.2 -0.4,-2.2 -1.2,-2.8c-0.4,-0.4 -0.6,-1 -0.4,-1.7c0.1,-0.3 0.1,-0.7 0.1,-1c0,-1.6 -0.8,-2.9 -2.2,-3.4c-0.7,-0.2 -1,-0.9 -0.9,-1.8c0,-0.3 0.1,-0.5 0.1,-0.8c0,-2.1 -1.3,-3.5 -3.2,-3.6c-0.9,-0.1 -1.5,-0.9 -1.3,-1.9c0.1,-0.4 0.1,-0.9 0.1,-1.3c0,-3.3 -2.6,-5.4 -5.9,-4.6c-0.9,0.2 -1.7,-0.3 -1.8,-1.1c-1.1,-6.3 -6.8,-9.4 -13.5,-7.4c-0.3,0.1 -0.6,0.2 -0.8,0.3c-0.7,0.2 -1.3,0.2 -1.7,-0.3c-1.3,-1.3 -3.3,-1.7 -5.5,-1c-1.2,0.4 -2.3,1 -3.3,1.9c-0.9,0.8 -2,0.8 -2.6,0.2c-1.1,-1.2 -2.9,-1.7 -4.8,-1.1c-1.3,0.4 -2.6,1.2 -3.6,2.3c-0.7,0.8 -1.8,1.1 -2.5,0.7c-1,-0.5 -2.3,-0.6 -3.7,-0.2c-1.8,0.6 -3.5,1.9 -4.7,3.7c-0.5,0.8 -1.4,1.4 -2.2,1.3c-1.4,-0.1 -2.8,0.1 -4.3,0.6c-5.1,1.5 -9.8,5.8 -12.1,11c-0.4,1 -1.5,1.7 -2.4,1.7c-0.6,0 -1.3,0.1 -1.9,0.3c-3.4,1 -6.2,4.5 -6.4,7.9c0,0.7 -0.4,1.4 -1,1.9c-5.8,4.6 -9.1,11.4 -9.1,17.5c0,9.6 8,15.1 17.8,11.7c0.7,-3.8 3.3,-7.4 6.8,-9.5c0.8,-3.9 4,-7.6 7.8,-8.9c3.7,-1.7 7.3,-2.3 10.5,-1.8c6.7,-8.6 14.6,-11.4 23.7,-8.1c0.9,0.3 1.2,1.5 0.6,2.6c-0.6,1.1 -1.9,1.7 -2.8,1.4c-7.8,-2.8 -14.1,-0.5 -19.5,7.3c-0.6,0.9 -1.6,1.4 -2.5,1.2c-2.9,-0.7 -6,-0.3 -9.5,1.3c-0.1,0.1 -0.2,0.1 -0.3,0.1c-2.3,0.7 -4.1,3.1 -4.1,5.4c0,1 -0.8,2.2 -1.8,2.6c-2.8,1.2 -4.9,4.2 -5,7c0.2,1.1 0.5,2.1 0.9,3.1c2.3,4.8 7.6,6.8 13.5,5c2.6,-0.8 5.1,-2.2 7.4,-4.2c0.2,-0.1 0.3,-0.3 0.5,-0.4c7.7,-4.4 14.1,-7.1 19.4,-8.6Z" style="fill:#d7d18a;fill-rule:nonzero;"/><path d="M38.9,100.1c-0.6,0.2 -1,-0.2 -1,-0.7c0,-3.7 -2.6,-6 -6.3,-5.5c-0.6,0.1 -0.9,-0.3 -0.8,-0.9c0.1,-0.6 0.6,-1.1 1.2,-1.2c4.6,-0.6 8,2.3 8,7c-0.1,0.6 -0.6,1.2 -1.1,1.3Z" style="fill:#d7d18a;fill-rule:nonzero;"/><path d="M24.1,104.2l-0.3,0c-3.3,-0.1 -5.6,-2.4 -5.6,-5.9c0,-2.7 1.3,-5.5 3.5,-7.7c0.5,-0.4 1.1,-0.5 1.4,-0.2c0.3,0.4 0.2,1 -0.3,1.5c-1.7,1.6 -2.6,3.8 -2.6,5.8c0,2.6 1.7,4.4 4.2,4.4c0.5,0 0.8,0.5 0.7,1.1c-0.2,0.5 -0.6,0.9 -1,1Z" style="fill:#d7d18a;fill-rule:nonzero;"/><path d="M19.8,94c-1.1,0.3 -2.1,0.3 -3,-0.1c-0.4,-0.2 -0.5,-0.8 -0.2,-1.3c0.3,-0.5 1,-0.8 1.4,-0.6c1.2,0.6 3,-0.2 4,-1.6c0.3,-0.5 1,-0.8 1.4,-0.6c0.4,0.2 0.5,0.8 0.1,1.4c-0.9,1.3 -2.2,2.3 -3.7,2.8Z" style="fill:#d7d18a;fill-rule:nonzero;"/><path d="M26.8,85.4c-0.4,0.1 -0.7,0 -0.9,-0.3c-0.7,-1.2 -1.1,-2.7 -1.1,-4.3c0,-5.8 4.7,-11.9 10.5,-13.6c1.4,-0.4 2.8,-0.6 4.1,-0.4c0.5,0.1 0.8,0.6 0.5,1.2c-0.2,0.6 -0.8,1 -1.3,0.9c-1,-0.1 -2.2,-0 -3.3,0.3c-4.7,1.4 -8.5,6.3 -8.5,11c-0,1.3 0.3,2.5 0.8,3.5c0.2,0.4 -0,1.1 -0.5,1.5c-0,0.1 -0.2,0.1 -0.3,0.2Z" style="fill:#d7d18a;fill-rule:nonzero;"/><path d="M37.1,68.6c-0.1,-0 -0.3,0.1 -0.4,-0c-0.5,-0.1 -0.7,-0.6 -0.5,-1.2c0.3,-0.9 0.8,-1.7 1.3,-2.6c3.6,-5.6 10.2,-8.4 14.7,-6.2c1.1,0.5 2,1.3 2.7,2.3c0.3,0.4 0.1,1.1 -0.4,1.5c-0.5,0.4 -1.1,0.4 -1.4,-0c-0.6,-0.8 -1.3,-1.5 -2.2,-1.9c-3.7,-1.8 -9,0.5 -11.9,5c-0.4,0.7 -0.8,1.4 -1.1,2.1c-0,0.6 -0.4,0.9 -0.8,1Z" style="fill:#d7d18a;fill-rule:nonzero;"/><path d="M34.3,85.5c-0.6,0.2 -1,-0.2 -1,-0.7c-0,-0.5 0.4,-1.1 1,-1.3c1.7,-0.5 3.1,-2.1 3.5,-3.8c-2.6,0.2 -4.5,-1.4 -4.5,-4.2c-0,-0.6 0.4,-1.1 1,-1.3c0.6,-0.2 1,0.2 1,0.7c-0,2 1.6,3.1 3.6,2.5c0.6,-0.2 1,0.2 1,0.7c-0,3.2 -2.6,6.5 -5.6,7.4Z" style="fill:#d7d18a;fill-rule:nonzero;"/><path d="M43.9,112.8c-0.4,0.1 -0.7,0 -0.9,-0.3c-0.4,-0.8 -0.7,-1.8 -0.7,-2.8c0,-2.2 1,-4.6 2.7,-6.4c0.4,-0.5 1.1,-0.6 1.4,-0.2c0.3,0.3 0.3,1 -0.2,1.5c-1.2,1.3 -2,3 -2,4.6c0,0.8 0.2,1.4 0.5,2c0.2,0.4 0,1.1 -0.5,1.5c-0.1,0 -0.2,0.1 -0.3,0.1Z" style="fill:#d7d18a;fill-rule:nonzero;"/><path d="M46.5,104.6c-2,0.6 -3.9,0.4 -5.4,-0.6c-0.4,-0.3 -0.4,-0.9 0,-1.4c0.4,-0.5 1,-0.7 1.4,-0.4c1.1,0.7 2.4,0.9 3.9,0.4c1.4,-0.4 2.8,-1.3 3.8,-2.6c0.4,-0.5 1,-0.7 1.4,-0.4c0.4,0.3 0.3,0.9 -0.1,1.4c-1.3,1.8 -3.1,3 -5,3.6Z" style="fill:#d7d18a;fill-rule:nonzero;"/><path d="M43.2,125.7l-37.5,11.2l-0,-78.5l37.5,-11.2c0.1,-0.3 0.1,-0.6 0.2,-1l-0,-0.6c-0,-0.3 -0,-0.5 0.1,-0.8l-0,-0.7l-40.7,12.2l-0,84.3l40.5,-12.1c-0.1,-0.9 -0.1,-1.8 -0.1,-2.8Z" style="fill:#fff;fill-rule:nonzero;"/></g></g></g></g></g></g><g><g><g><g><clipPath id="_clip2"><path d="M85.4,133.1l-41,0.7l-0,-89.1l41,-0.7l0,89.1Z"/></clipPath><g clip-path="url(#_clip2)"><g><path d="M78.6,90.7c-9.2,-5.9 -16.4,-4.4 -22.2,2.2c-3.3,-1.7 -6.9,-2.2 -10.8,-1.6c-3.4,0.1 -6.1,2.8 -6.1,6.2l-0,0.1c-3.8,0.5 -6.8,3.8 -6.8,7.8c0.2,1.4 0.6,2.7 1.1,4c2.5,6 8.4,10.1 15.3,10c3.1,-0.1 5.9,-0.9 8.4,-2.4c31.6,-8.5 39,4.1 48.6,2.8c4.9,-0.7 7.4,-3.4 7.5,-7.4c2.2,-1.6 3.7,-4.1 3.7,-7c-0,-1.1 -0.2,-2.2 -0.6,-3.1c0.7,-1.1 1.1,-2.4 1.1,-3.8c-0,-1.7 -0.6,-3.3 -1.7,-4.5c0.1,-0.5 0.2,-1 0.2,-1.5c-0,-2.4 -1.2,-4.5 -3.1,-5.7c0.1,-0.4 0.1,-0.8 0.1,-1.1c-0,-3 -1.9,-5.5 -4.6,-6.4c0.1,-0.6 0.2,-1.1 0.2,-1.7c-0,-4.4 -3.4,-8 -7.8,-8.3c-1.2,-7.4 -7.7,-12.9 -15.5,-12.8c-0.3,0 -0.6,0 -0.9,0.1c-1.6,-2.1 -4.2,-3.4 -7.1,-3.3c-1.6,-0 -3.1,0.5 -4.3,1.2c-1.4,-2 -3.8,-3.3 -6.5,-3.3c-1.8,-0 -3.6,0.7 -4.9,1.8c-1.3,-1.1 -3.1,-1.7 -4.9,-1.6c-2.6,0.1 -4.8,1.3 -6.2,3.2c-1.6,-0.5 -3.2,-0.8 -5,-0.7c-6.1,0.1 -11.3,3.6 -13.9,8.7c-0.8,-0.2 -1.7,-0.4 -2.6,-0.3c-4.4,0.1 -8.1,3.6 -8.4,8c-5.9,3.1 -9.9,9.4 -9.9,16.6c-0,10.5 8.5,18.9 19,18.7c0.9,-0 1.8,-0.1 2.6,-0.2" style="fill:#222;fill-rule:nonzero;"/><path d="M104.9,121.8c-3.1,0.1 -5.9,-1 -9.2,-2.2c-7.2,-2.7 -17,-6.3 -37.5,-0.8c-2.8,1.6 -5.9,2.5 -9.1,2.6c-7.6,0.1 -14.3,-4.2 -17.2,-11.2c-0.3,-0.8 -0.6,-1.7 -0.9,-2.6c-12.1,0.8 -22,-8.7 -22,-20.6c-0,-7.3 3.8,-14.1 10,-18.1c0.9,-4.9 5.2,-8.7 10.3,-8.8c0.5,-0 1,-0 1.6,0.1c3.2,-5.1 8.8,-8.3 14.9,-8.4c1.5,-0 2.9,0.1 4.3,0.5c1.8,-1.8 4.3,-2.9 6.9,-2.9c1.7,-0 3.4,0.4 4.9,1.2c1.5,-0.9 3.2,-1.3 4.9,-1.4c2.7,-0 5.2,1 7,2.8c1.2,-0.5 2.5,-0.7 3.8,-0.7c3.1,-0.1 5.9,1.1 7.9,3.3l0.1,-0c8.2,-0.2 15.2,5.2 17.1,13c4.6,1 8.1,5.1 8.1,10l0,0.5c2.7,1.5 4.4,4.4 4.4,7.6l0,0.2c1.9,1.6 3,4 3,6.6c0,0.3 0,0.6 -0.1,0.9c1,1.5 1.6,3.2 1.6,5.1c0,1.4 -0.3,2.7 -0.9,4c0.3,0.9 0.4,1.9 0.4,2.9c0,3.1 -1.4,6.1 -3.7,8.1c-0.5,4.6 -3.8,7.6 -9.1,8.4c-0.5,-0.2 -1,-0.1 -1.5,-0.1Zm-28.4,-10c9.6,-0.2 15.7,2.1 20.6,3.9c3.4,1.2 6.1,2.2 8.7,1.9c3.7,-0.6 5.6,-2.3 5.7,-5.4c0,-0.7 0.3,-1.2 0.9,-1.6c1.8,-1.2 2.8,-3.2 2.8,-5.3c0,-0.8 -0.1,-1.6 -0.4,-2.4c-0.2,-0.6 -0.2,-1.3 0.2,-1.8c0.5,-0.8 0.8,-1.7 0.8,-2.7c0,-1.2 -0.4,-2.3 -1.2,-3.2c-0.4,-0.5 -0.6,-1.1 -0.4,-1.8c0.1,-0.3 0.1,-0.7 0.1,-1c0,-1.6 -0.8,-3.1 -2.2,-4c-0.7,-0.4 -1,-1.2 -0.9,-2c0,-0.2 0.1,-0.5 0.1,-0.8c0,-2.1 -1.3,-3.9 -3.2,-4.5c-0.9,-0.3 -1.5,-1.3 -1.3,-2.3c0.1,-0.4 0.1,-0.8 0.1,-1.3c0,-3.3 -2.6,-6.1 -5.9,-6.3c-0.9,-0.1 -1.7,-0.7 -1.8,-1.6c-1.2,-6.6 -6.9,-11.3 -13.6,-11.1l-0.8,-0c-0.7,0.1 -1.3,-0.2 -1.7,-0.8c-1.3,-1.7 -3.3,-2.6 -5.5,-2.6c-1.2,-0 -2.3,0.3 -3.3,0.9c-0.9,0.5 -2,0.3 -2.6,-0.6c-1.1,-1.6 -2.9,-2.5 -4.8,-2.4c-1.3,-0 -2.6,0.5 -3.6,1.3c-0.7,0.6 -1.8,0.6 -2.5,0.1c-1,-0.8 -2.3,-1.2 -3.7,-1.2c-1.8,-0 -3.5,0.9 -4.7,2.4c-0.5,0.7 -1.4,1 -2.2,0.7c-1.4,-0.4 -2.8,-0.7 -4.3,-0.6c-5.1,0.1 -9.8,3 -12.1,7.6c-0.4,0.9 -1.5,1.3 -2.4,1c-0.6,-0.2 -1.3,-0.3 -1.9,-0.3c-3.4,0.1 -6.2,2.7 -6.4,6.1c0,0.7 -0.4,1.3 -1,1.6c-5.4,3.1 -8.8,8.9 -8.8,15.1c0,9.6 8,17.3 17.8,16.7c0.7,-3.6 3.3,-6.5 6.8,-7.6c0.8,-3.7 4,-6.5 7.8,-6.7c3.7,-0.6 7.3,-0.2 10.5,1.1c6.7,-6.8 14.6,-7.2 23.7,-1.4c0.9,0.6 1.2,1.8 0.6,2.8c-0.6,0.9 -1.9,1.2 -2.8,0.6c-7.8,-5 -14.1,-4.5 -19.5,1.8c-0.6,0.7 -1.6,0.9 -2.5,0.5c-2.9,-1.5 -6,-2 -9.5,-1.4l-0.3,0c-2.3,0 -4.1,1.9 -4.1,4.2c0,1 -0.8,1.9 -1.8,2.1c-2.8,0.4 -4.9,2.8 -5,5.6c0.2,1.2 0.5,2.3 0.9,3.3c2.3,5.4 7.6,8.9 13.5,8.8c2.6,-0.1 5.1,-0.8 7.4,-2.1c0.2,-0.1 0.3,-0.2 0.5,-0.2c7.5,-2.1 13.9,-2.9 19.2,-3.1Z" style="fill:#d7d18a;fill-rule:nonzero;"/><path d="M47.4,91.5c-0.1,0 -0.3,0 -0.4,-0.1c-0.5,-0.2 -0.8,-0.8 -0.5,-1.3c0.3,-0.7 0.4,-1.4 0.4,-2.2c0,-0.9 -0.2,-1.8 -0.6,-2.6c-0.3,-0.5 -0.1,-1.1 0.4,-1.4c0.5,-0.3 1.1,-0.1 1.4,0.4c0.6,1.1 0.9,2.3 0.9,3.5c0,1 -0.2,2 -0.6,2.9c-0.2,0.6 -0.6,0.8 -1,0.8Z" style="fill:#d7d18a;fill-rule:nonzero;"/><path d="M37.3,66.7c-0.1,0 -0.3,0 -0.4,-0.1c-0.5,-0.2 -0.7,-0.8 -0.5,-1.3c0.3,-0.8 0.8,-1.5 1.3,-2.2c3.6,-4.6 10.2,-5.6 14.7,-2.1c1.1,0.8 2,1.9 2.7,3.1c0.3,0.5 0.1,1.1 -0.4,1.4c-0.5,0.3 -1.1,0.1 -1.4,-0.4c-0.6,-1 -1.3,-1.8 -2.2,-2.5c-3.7,-2.8 -9,-2.1 -11.9,1.7c-0.4,0.6 -0.8,1.1 -1.1,1.8c-0.1,0.3 -0.5,0.6 -0.8,0.6Z" style="fill:#d7d18a;fill-rule:nonzero;"/><path d="M52.4,63.1c-0.6,0 -1,-0.4 -1,-1c0,-0.6 0.4,-1 1,-1c1.6,0 2.8,-1.3 2.8,-2.8c0,-0.6 0.4,-1 1,-1c0.6,-0 1,0.4 1,1c0,2.6 -2.2,4.8 -4.8,4.8Z" style="fill:#d7d18a;fill-rule:nonzero;"/><path d="M53,82.4c-0.3,0 -0.6,-0.1 -0.8,-0.3c-1.6,-1.9 -2.5,-4.3 -2.5,-6.8c0,-2.5 0.8,-4.6 2.2,-6.5c0.3,-0.4 1,-0.5 1.4,-0.2c0.4,0.3 0.5,1 0.2,1.4c-1.2,1.5 -1.8,3.4 -1.8,5.3c-0,2 0.7,4 2,5.5c0.4,0.4 0.3,1.1 -0.1,1.4c-0.1,0.2 -0.3,0.2 -0.6,0.2Z" style="fill:#d7d18a;fill-rule:nonzero;"/><path d="M50.7,76.3c-0.3,0 -0.6,-0.1 -0.8,-0.4c-0.8,-1.2 -2,-2 -3.4,-2.3c-0.5,-0.1 -0.9,-0.7 -0.8,-1.2c0.1,-0.5 0.7,-0.9 1.2,-0.8c1.9,0.4 3.6,1.5 4.7,3.1c0.3,0.4 0.2,1.1 -0.3,1.4c-0.3,0.1 -0.5,0.2 -0.6,0.2Z" style="fill:#d7d18a;fill-rule:nonzero;"/><path d="M59.3,78.7c-0.2,0 -0.4,-0.1 -0.6,-0.2c-1.5,-1 -2.4,-2.6 -2.4,-4.4c-0,-2.4 1.5,-4.5 3.8,-5.2c0.1,0 0.1,-0.1 0.2,-0.1c3.2,-1.2 5.4,-4.3 5.4,-7.7c0,-1.2 -0.3,-2.4 -0.8,-3.6c-0.2,-0.5 0,-1.1 0.4,-1.3c0.5,-0.3 1.1,-0.1 1.3,0.4c0.7,1.4 1,2.9 1,4.4c-0,4.2 -2.6,8 -6.5,9.5c-0.1,0.1 -0.2,0.1 -0.3,0.2c-1.5,0.4 -2.5,1.8 -2.5,3.3c-0,1.1 0.6,2.2 1.5,2.8c0.5,0.3 0.6,0.9 0.3,1.4c-0.2,0.3 -0.5,0.5 -0.8,0.5Z" style="fill:#d7d18a;fill-rule:nonzero;"/><path d="M70,79.8c-0.4,0 -0.8,-0.2 -0.9,-0.6c-0.6,-1.4 -0.9,-2.9 -0.9,-4.5c0,-6.4 5.2,-11.7 11.6,-11.8c2.2,-0 4.3,0.5 6.1,1.6c0.5,0.3 0.6,0.9 0.3,1.4c-0.3,0.5 -0.9,0.6 -1.4,0.3c-1.5,-0.9 -3.2,-1.4 -5,-1.3c-5.3,0.1 -9.6,4.5 -9.6,9.7c0,1.3 0.2,2.5 0.8,3.7c0.2,0.5 0,1.1 -0.5,1.3c-0.2,0.1 -0.4,0.1 -0.5,0.2Z" style="fill:#d7d18a;fill-rule:nonzero;"/><path d="M75.8,65.7c-0.4,0 -0.8,-0.3 -1,-0.7c-0.2,-0.6 -0.3,-1.2 -0.3,-1.8c0,-2.5 1.5,-4.7 3.7,-5.7c0.5,-0.2 1.1,0 1.3,0.5c0.2,0.5 0,1.1 -0.5,1.3c-1.5,0.7 -2.5,2.2 -2.5,3.8c0,0.4 0.1,0.8 0.2,1.2c0.2,0.5 -0.1,1.1 -0.7,1.3c0,0.1 -0.1,0.1 -0.2,0.1Z" style="fill:#d7d18a;fill-rule:nonzero;"/><path d="M88.7,84.6c-0.6,-0 -1,-0.4 -1,-1c0,-3.7 -3,-6.6 -6.6,-6.5c-2.4,-0 -4.7,1.4 -5.8,3.6c-0.3,0.5 -0.9,0.7 -1.4,0.4c-0.5,-0.2 -0.7,-0.9 -0.4,-1.3c1.5,-2.8 4.4,-4.6 7.6,-4.7c4.8,-0.1 8.6,3.7 8.6,8.5c0,0.5 -0.4,1 -1,1Z" style="fill:#d7d18a;fill-rule:nonzero;"/><path d="M81.1,77.1c-0.2,-0 -0.5,-0.1 -0.7,-0.2c-1.7,-1.4 -2.6,-3.4 -2.6,-5.6c-0,-0.9 0.2,-1.8 0.5,-2.7c0.2,-0.5 0.8,-0.8 1.3,-0.6c0.5,0.2 0.8,0.8 0.6,1.3c-0.2,0.6 -0.4,1.3 -0.4,2c0,1.6 0.7,3.1 1.9,4.1c0.4,0.3 0.5,1 0.1,1.4c-0.1,0.2 -0.4,0.3 -0.7,0.3Z" style="fill:#d7d18a;fill-rule:nonzero;"/><path d="M44,112.7c-0.4,0 -0.7,-0.2 -0.9,-0.6c-0.4,-0.9 -0.7,-2 -0.7,-3c0,-2.2 1,-4.3 2.7,-5.7c0.4,-0.3 1.1,-0.3 1.4,0.2c0.3,0.4 0.3,1.1 -0.2,1.4c-1.2,1 -2,2.5 -2,4.1c0,0.8 0.2,1.5 0.5,2.2c0.2,0.5 0,1.1 -0.5,1.3c-0.1,0.1 -0.2,0.1 -0.3,0.1Z" style="fill:#d7d18a;fill-rule:nonzero;"/><path d="M46.6,105.2c-2,0 -3.9,-0.7 -5.4,-2.1c-0.4,-0.4 -0.4,-1 0,-1.4c0.4,-0.4 1,-0.4 1.4,0c1.1,1 2.4,1.6 3.9,1.6c1.4,0 2.8,-0.6 3.8,-1.6c0.4,-0.4 1,-0.4 1.4,0c0.4,0.4 0.3,1 -0.1,1.4c-1.2,1.4 -3.1,2.1 -5,2.1Z" style="fill:#d7d18a;fill-rule:nonzero;"/><path d="M54.2,104.2c-2,0 -3.9,-0.7 -5.4,-2.1c-0.4,-0.4 -0.4,-1 -0,-1.4c0.4,-0.4 1,-0.4 1.4,0c1.1,1 2.4,1.6 3.9,1.6c1.5,0 2.9,-0.6 3.9,-1.7c0.4,-0.4 1,-0.4 1.4,0c0.4,0.4 0.4,1 0,1.4c-1.3,1.3 -3.2,2.1 -5.2,2.2Z" style="fill:#d7d18a;fill-rule:nonzero;"/><path d="M62.4,102.9c-2,0 -3.9,-0.7 -5.4,-2.1c-0.4,-0.4 -0.4,-1 0,-1.4c0.4,-0.4 1,-0.4 1.4,0c1.1,1 2.4,1.6 3.9,1.6c1.5,0 2.9,-0.6 3.9,-1.7c0.4,-0.4 1,-0.4 1.4,0c0.4,0.4 0.4,1 -0,1.4c-1.3,1.3 -3.2,2.2 -5.2,2.2Z" style="fill:#d7d18a;fill-rule:nonzero;"/><path d="M76.2,103.2c-4.9,0.1 -9.6,-2 -12.8,-5.7c-0.4,-0.4 -0.3,-1.1 0.1,-1.4c0.4,-0.4 1.1,-0.3 1.4,0.1c2.8,3.3 6.9,5.1 11.3,5c4.4,-0.1 8.2,-1.9 11,-5.1c0.4,-0.4 1,-0.5 1.4,-0.1c0.4,0.4 0.4,1 0.1,1.4c-3.1,3.6 -7.7,5.7 -12.5,5.8Z" style="fill:#d7d18a;fill-rule:nonzero;"/><path d="M78.2,110.3c-3.8,0.1 -7.3,-1.1 -10.3,-3.4c-0.4,-0.3 -0.5,-1 -0.2,-1.4c0.3,-0.4 1,-0.5 1.4,-0.2c2.6,2 5.7,3.1 9,3c1.9,0 3.8,-0.4 5.6,-1.2c0.5,-0.2 1.1,0 1.3,0.5c0.2,0.5 0,1.1 -0.5,1.3c-1.9,0.9 -4,1.3 -6.3,1.4Z" style="fill:#d7d18a;fill-rule:nonzero;"/><path d="M62.7,111.7c-1.4,0 -2.8,-0.2 -4.2,-0.6c-0.5,-0.2 -0.8,-0.7 -0.6,-1.3c0.2,-0.6 0.8,-0.8 1.3,-0.7c1.1,0.4 2.3,0.5 3.5,0.5c2.6,-0.1 5.2,-1 7.1,-2.8c0.4,-0.4 1.1,-0.3 1.4,0.1c0.4,0.4 0.3,1.1 -0.1,1.4c-2.3,2.2 -5.3,3.4 -8.4,3.4Z" style="fill:#d7d18a;fill-rule:nonzero;"/><path d="M123,45.5l0,78.5l-117.2,2.1l0,-78.5l117.2,-2.1m2.9,-3l-123,2.2l-0,84.4l123,-2.2l0,-84.4Z" style="fill:#fff;fill-rule:nonzero;"/></g></g></g></g></g></g><g><g><g><g><clipPath id="_clip3"><path d="M126.3,120.8l-40.9,12.3l0,-89.1l40.9,-12.3l-0,89.1Z"/></clipPath><g clip-path="url(#_clip3)"><g><path d="M79,92.4c-9.2,-3.3 -16.4,0.2 -22.2,8.4c-3.3,-0.8 -6.9,-0.3 -10.8,1.5c-3.4,1 -6.1,4.6 -6.1,8l0,0.1c-3.8,1.6 -6.8,5.8 -6.8,9.7c0.2,1.3 0.6,2.6 1.1,3.6c2.5,5.3 8.4,7.7 15.3,5.6c3.1,-0.9 5.9,-2.6 8.4,-4.8c31.6,-17.4 39,-6.9 48.6,-10.9c4.9,-2.1 7.4,-5.4 7.5,-9.5c2.2,-2.2 3.7,-5.2 3.7,-8.1c0,-1.1 -0.2,-2.1 -0.6,-2.9c0.7,-1.3 1.1,-2.7 1.1,-4.1c0,-1.7 -0.6,-3.1 -1.7,-4c0.1,-0.5 0.2,-1 0.2,-1.5c0,-2.4 -1.2,-4.1 -3.1,-4.8c0.1,-0.4 0.1,-0.8 0.1,-1.2c0,-3 -1.9,-5 -4.6,-5.1c0.1,-0.6 0.2,-1.2 0.2,-1.8c-0,-4.4 -3.4,-7 -7.8,-6.1c-1.2,-7.1 -7.7,-10.8 -15.5,-8.5c-0.3,0.1 -0.6,0.2 -0.9,0.3c-1.6,-1.6 -4.2,-2.2 -7.1,-1.4c-1.6,0.5 -3.1,1.3 -4.3,2.4c-1.4,-1.6 -3.8,-2.2 -6.5,-1.4c-1.8,0.6 -3.6,1.7 -4.9,3.2c-1.3,-0.7 -3.1,-0.8 -4.9,-0.2c-2.6,0.8 -4.8,2.6 -6.2,4.9c-1.6,-0.1 -3.2,0.2 -5,0.7c-6.1,1.8 -11.3,6.8 -13.9,12.6c-0.8,-0 -1.7,0.1 -2.6,0.4c-4.4,1.3 -8.1,5.9 -8.4,10.4c-5.8,5 -9.8,12.4 -9.8,19.6c-0,10.5 8.5,16.5 19,13.3c0.9,-0.3 1.8,-0.6 2.6,-1" style="fill:#222;fill-rule:nonzero;"/><path d="M105.4,116.1c-3.1,0.9 -5.9,0.7 -9.2,0.4c-7.2,-0.6 -17,-1.5 -37.5,9.7c-2.8,2.4 -5.9,4.2 -9.1,5.1c-7.6,2.3 -14.3,-0.2 -17.2,-6.3c-0.3,-0.7 -0.6,-1.5 -0.9,-2.3c-12.1,4.2 -22,-2.5 -22,-14.4c-0,-7.3 3.8,-15.2 10,-20.8c0.9,-5.2 5.2,-10.2 10.3,-11.7c0.5,-0.2 1,-0.3 1.6,-0.3c3.2,-6.1 8.8,-10.8 14.9,-12.6c1.5,-0.4 2.9,-0.7 4.3,-0.8c1.8,-2.3 4.3,-4.1 6.9,-4.9c1.7,-0.5 3.4,-0.6 4.9,-0.2c1.5,-1.3 3.2,-2.2 4.9,-2.8c2.7,-0.8 5.2,-0.5 7,0.8c1.2,-0.8 2.5,-1.4 3.8,-1.8c3.1,-0.9 5.9,-0.5 7.9,1.1l0.1,-0c8.2,-2.4 15.2,1 17.1,8.2c4.6,-0.3 8.1,2.8 8.1,7.8l-0,0.5c2.7,0.8 4.4,3.2 4.4,6.3l-0,0.2c1.9,1.1 3,3.2 3,5.8c-0,0.3 -0,0.6 -0.1,0.9c1,1.2 1.6,2.8 1.6,4.6c-0,1.4 -0.3,2.8 -0.9,4.2c0.3,0.9 0.4,1.8 0.4,2.8c-0,3.1 -1.4,6.4 -3.7,9.1c-0.5,4.7 -3.8,8.7 -9.1,11c-0.6,0.1 -1.1,0.3 -1.5,0.4Zm-28.4,-1.9c9.6,-2.9 15.7,-2.3 20.6,-1.9c3.4,0.3 6.1,0.6 8.7,-0.6c3.7,-1.6 5.6,-3.9 5.7,-7c-0,-0.7 0.3,-1.3 0.9,-1.9c1.8,-1.7 2.8,-4 2.8,-6.1c-0,-0.8 -0.1,-1.6 -0.4,-2.2c-0.2,-0.5 -0.2,-1.2 0.2,-1.9c0.5,-0.9 0.8,-1.9 0.8,-2.9c-0,-1.2 -0.4,-2.2 -1.2,-2.8c-0.4,-0.4 -0.6,-1 -0.4,-1.7c0.1,-0.3 0.1,-0.7 0.1,-1c-0,-1.6 -0.8,-2.9 -2.2,-3.4c-0.7,-0.2 -1,-0.9 -0.9,-1.8c0,-0.3 0.1,-0.5 0.1,-0.8c0,-2.1 -1.3,-3.5 -3.2,-3.6c-0.9,-0.1 -1.5,-0.9 -1.3,-1.9c0.1,-0.4 0.1,-0.9 0.1,-1.3c0,-3.3 -2.6,-5.4 -5.9,-4.6c-0.9,0.2 -1.7,-0.3 -1.8,-1.1c-1.1,-6.3 -6.8,-9.4 -13.5,-7.4c-0.3,0.1 -0.6,0.2 -0.8,0.3c-0.7,0.2 -1.3,0.2 -1.7,-0.3c-1.3,-1.3 -3.3,-1.7 -5.5,-1.1c-1.2,0.4 -2.3,1 -3.3,1.9c-0.9,0.8 -2,0.8 -2.6,0.2c-1.1,-1.2 -2.9,-1.7 -4.8,-1.1c-1.3,0.4 -2.6,1.2 -3.6,2.3c-0.7,0.8 -1.8,1.1 -2.5,0.8c-1,-0.5 -2.3,-0.6 -3.7,-0.2c-1.8,0.6 -3.5,1.9 -4.7,3.7c-0.5,0.8 -1.4,1.4 -2.2,1.3c-1.4,-0.1 -2.8,0.1 -4.3,0.6c-5.1,1.5 -9.8,5.8 -12.1,11c-0.4,1 -1.5,1.7 -2.4,1.7c-0.6,0 -1.3,0.1 -1.9,0.3c-3.4,1 -6.2,4.5 -6.4,7.9c0,0.7 -0.4,1.4 -1,1.9c-5.4,4.6 -8.8,11.3 -8.8,17.5c0,9.6 8,15.1 17.8,11.7c0.7,-3.8 3.3,-7.4 6.8,-9.5c0.8,-3.9 4,-7.6 7.8,-8.9c3.7,-1.7 7.3,-2.3 10.5,-1.8c6.7,-8.6 14.6,-11.4 23.7,-8.1c0.9,0.3 1.2,1.5 0.6,2.6c-0.6,1.1 -1.9,1.7 -2.8,1.4c-7.8,-2.8 -14.1,-0.5 -19.5,7.3c-0.6,0.9 -1.6,1.4 -2.5,1.2c-2.9,-0.7 -6,-0.3 -9.5,1.3c-0.1,0.1 -0.2,0.1 -0.3,0.1c-2.3,0.7 -4.1,3.1 -4.1,5.4c0,1 -0.8,2.2 -1.8,2.6c-2.8,1.2 -4.9,4.2 -5,7c0.2,1.1 0.5,2.1 0.9,3.1c2.3,4.8 7.6,6.8 13.5,5c2.6,-0.8 5.1,-2.2 7.4,-4.2c0.2,-0.1 0.3,-0.3 0.5,-0.4c7.4,-4.4 13.8,-7 19.1,-8.6Z" style="fill:#d7d18a;fill-rule:nonzero;"/><path d="M70.5,83.9c-0.4,0.1 -0.8,0 -0.9,-0.3c-0.6,-1.2 -0.9,-2.7 -0.9,-4.2c0,-6.4 5.2,-13.1 11.6,-15.1c2.2,-0.6 4.3,-0.7 6.1,-0.1c0.5,0.2 0.6,0.7 0.3,1.3c-0.3,0.6 -0.9,0.9 -1.4,0.7c-1.5,-0.5 -3.2,-0.4 -5,0.1c-5.3,1.6 -9.6,7.2 -9.6,12.4c0,1.3 0.2,2.5 0.8,3.5c0.2,0.4 0,1.1 -0.5,1.5c-0.3,0.1 -0.4,0.2 -0.5,0.2Z" style="fill:#d7d18a;fill-rule:nonzero;"/><path d="M89.2,83.5c-0.6,0.2 -1,-0.2 -1,-0.7c0,-3.7 -3,-5.7 -6.6,-4.6c-2.4,0.7 -4.7,2.7 -5.8,5.2c-0.3,0.6 -0.9,0.9 -1.4,0.8c-0.5,-0.1 -0.7,-0.7 -0.4,-1.2c1.5,-3.3 4.4,-5.9 7.6,-6.8c4.8,-1.4 8.6,1.3 8.6,6c0,0.6 -0.5,1.2 -1,1.3Z" style="fill:#d7d18a;fill-rule:nonzero;"/><path d="M87.3,79.1c-0.1,-0 -0.2,0.1 -0.4,-0c-0.5,-0.1 -0.8,-0.6 -0.6,-1.1c0.8,-2.1 2.3,-4.1 4.3,-5.3c0.5,-0.3 1.1,-0.2 1.3,0.3c0.2,0.5 -0.1,1.1 -0.6,1.5c-1.4,0.8 -2.5,2.2 -3,3.7c-0.2,0.5 -0.6,0.8 -1,0.9Z" style="fill:#d7d18a;fill-rule:nonzero;"/><path d="M101.8,74.8c-0.5,0.1 -0.9,-0.1 -1,-0.5c-0.9,-4 -4.7,-5.9 -9,-4.6c-0.6,0.2 -1,-0.2 -1,-0.7c0,-0.5 0.4,-1.1 1,-1.3c5.3,-1.6 9.9,0.8 11,5.7c0.1,0.5 -0.2,1.2 -0.8,1.4l-0.2,-0Z" style="fill:#d7d18a;fill-rule:nonzero;"/><path d="M94.8,69.3c-0.1,0 -0.2,0.1 -0.3,0c-0.5,0 -0.8,-0.5 -0.6,-1.1c0.1,-0.2 0.1,-0.5 0.1,-0.8c0,-0.6 -0.2,-1.1 -0.6,-1.4c-0.4,-0.3 -0.4,-0.9 0,-1.4c0.4,-0.5 1,-0.7 1.4,-0.4c0.8,0.6 1.2,1.5 1.2,2.6c-0,0.5 -0.1,1 -0.2,1.5c-0.2,0.5 -0.6,0.9 -1,1Z" style="fill:#d7d18a;fill-rule:nonzero;"/><path d="M76.7,105.7c-4.9,1.5 -9.6,0.7 -12.8,-2.1c-0.4,-0.3 -0.3,-1 0.1,-1.4c0.4,-0.4 1.1,-0.6 1.4,-0.3c2.8,2.5 6.9,3.1 11.3,1.8c4.2,-1.3 8.2,-4.2 11,-8.2c0.4,-0.5 1,-0.8 1.4,-0.5c0.4,0.3 0.4,0.9 0.1,1.4c-3.2,4.4 -7.8,7.8 -12.5,9.3Z" style="fill:#d7d18a;fill-rule:nonzero;"/><path d="M88.5,96.9l-0.3,0c-0.5,0 -0.8,-0.4 -0.7,-1c0.9,-3.7 2.9,-7.3 5.8,-10.4c0.4,-0.5 1.1,-0.6 1.4,-0.3c0.4,0.3 0.3,1 -0.2,1.5c-2.5,2.7 -4.2,5.9 -5.1,9.2c-0.1,0.4 -0.5,0.9 -0.9,1Z" style="fill:#d7d18a;fill-rule:nonzero;"/><path d="M97.6,92.7c-0.1,0 -0.3,0.1 -0.4,0c-2.6,-0.5 -4.3,-2.6 -4.3,-5.5c0,-2 0.8,-4.1 2.2,-6c0.4,-0.5 1,-0.7 1.4,-0.4c0.4,0.3 0.4,0.9 -0,1.4c-1,1.4 -1.6,2.9 -1.6,4.4c-0,2.1 1.2,3.7 3.2,4.1c0.5,0.1 0.7,0.6 0.5,1.2c-0.3,0.3 -0.6,0.7 -1,0.8Z" style="fill:#d7d18a;fill-rule:nonzero;"/><path d="M103.8,88.9c-0.2,0.1 -0.4,0.1 -0.6,0c-0.4,-0.2 -0.5,-0.8 -0.2,-1.4c0.8,-1.2 1.2,-2.5 1.2,-3.8c0,-2 -1.1,-3.5 -2.9,-4c-0.5,-0.1 -0.7,-0.7 -0.4,-1.2c0.3,-0.6 0.9,-0.9 1.4,-0.8c2.4,0.6 3.9,2.7 3.9,5.4c0,1.7 -0.6,3.5 -1.6,5.1c-0.2,0.4 -0.5,0.6 -0.8,0.7Z" style="fill:#d7d18a;fill-rule:nonzero;"/><path d="M108.9,91.7c-0.1,0 -0.3,0.1 -0.4,0c-0.5,-0.1 -0.8,-0.6 -0.5,-1.2c0.1,-0.4 0.2,-0.8 0.2,-1.2c0,-1.6 -1.3,-2.5 -2.9,-2c-0.2,0.1 -0.4,0.1 -0.6,0.2c-0.6,0.3 -1.1,0.1 -1.2,-0.4c-0.1,-0.5 0.2,-1.2 0.8,-1.4c0.3,-0.2 0.7,-0.3 1,-0.4c2.7,-0.8 4.9,0.7 4.9,3.4c0,0.7 -0.1,1.3 -0.4,2c-0.2,0.5 -0.5,0.8 -0.9,1Z" style="fill:#d7d18a;fill-rule:nonzero;"/><path d="M78.7,112.2c-3.8,1.1 -7.3,0.9 -10.3,-0.5c-0.4,-0.2 -0.5,-0.8 -0.2,-1.4c0.3,-0.5 1,-0.8 1.4,-0.6c2.6,1.3 5.7,1.4 9,0.5c1.9,-0.6 3.8,-1.5 5.6,-2.8c0.5,-0.4 1.1,-0.3 1.3,0.1c0.2,0.4 0,1.1 -0.5,1.5c-1.9,1.4 -4.1,2.5 -6.3,3.2Z" style="fill:#d7d18a;fill-rule:nonzero;"/><path d="M106.3,106.9l-0.3,0c-3.4,0 -5.7,-2.4 -5.7,-6c0,-0.6 0.4,-1.1 1,-1.3c0.6,-0.2 1,0.2 1,0.7c0,2.7 1.7,4.5 4.3,4.5c0.5,-0 0.8,0.5 0.7,1.1c-0.1,0.4 -0.5,0.9 -1,1Z" style="fill:#d7d18a;fill-rule:nonzero;"/><path d="M101.4,101.6c-0.5,0.2 -1,-0.1 -1,-0.7c0,-0.6 0.4,-1.1 1,-1.3c1.5,-0.5 2.9,-1.6 4,-3c0.4,-0.6 0.8,-1.2 1.1,-1.8c0.3,-0.6 0.9,-0.9 1.4,-0.8c0.5,0.1 0.7,0.7 0.4,1.2c-0.4,0.8 -0.9,1.6 -1.4,2.4c-1.6,1.9 -3.5,3.3 -5.5,4Z" style="fill:#d7d18a;fill-rule:nonzero;"/><path d="M123.4,34.8l0,78.5l-117.1,35.1l0,-78.6l117.1,-35m2.9,-3.8l-122.9,36.8l-0,84.4l123,-36.8l-0.1,-84.4Z" style="fill:#fff;fill-rule:nonzero;"/></g></g></g></g></g></g></g><path d="M44.9,128.4l-2.2,0.4l0,-83.7l2.2,-0.4l0,83.7Z" style="fill:#fff;fill-rule:nonzero;"/><path d="M86.5,126.6l-2.2,0.4l0,-82.9l2.2,-0.3l0,82.8Z" style="fill:#fff;fill-rule:nonzero;"/></g><path d="M2.8,56.4l-0,84.3l42.1,-12.3l39.4,-1.4l42,-11.6l0,-83.7l-40.9,13.9l-41.9,-0.7l-40.7,11.5Z" style="fill:none;fill-rule:nonzero;stroke:#fff;stroke-width:5px;"/><path d="M64.9,0c-12.7,0 -23,10.3 -23,23c-0,12.7 23,57.4 23,57.4c0,0 23,-44.7 23,-57.4c0,-12.7 -10.3,-23 -23,-23Zm0,39c-8.8,-0 -15.9,-7.1 -15.9,-16c-0,-8.9 7.1,-16 15.9,-16c8.8,-0 15.9,7.1 15.9,16c-0,8.9 -7.1,16 -15.9,16Z" style="fill:#8b96f0;fill-rule:nonzero;"/></g></svg>