<?xml version="1.0" encoding="UTF-8"?>
<svg id="Layer_1" data-name="Layer 1" xmlns="http://www.w3.org/2000/svg" viewBox="0 0 1219.61 142.59">
  <defs>
    <style>
      .cls-1 {
        fill: #fff;
      }
    </style>
  </defs>
  <path class="cls-1" d="M0,71.29C0,20.98,29.52,0,64.43,0c37.5,0,52.36,19.31,58.11,43.81l-35.09,10.4c-3.72-13.18-8.91-23.58-23.21-23.58-18.38,0-27.1,15.04-27.1,40.66s9.1,41.59,27.48,41.59c14.48,0,20.42-9.1,24.69-26.18l35.09,7.8c-6.68,27.85-22.47,48.09-59.97,48.09S0,121.61,0,71.29Z"/>
  <path class="cls-1" d="M135.72,71.29C135.72,20.98,170.07,0,203.3,0s67.39,20.98,67.39,71.29-34.35,71.29-67.39,71.29-67.58-20.98-67.58-71.29ZM233.56,71.29c0-25.25-10.96-40.66-30.26-40.66s-30.45,15.41-30.45,40.66,10.95,41.59,30.45,41.59,30.26-16.34,30.26-41.59Z"/>
  <path class="cls-1" d="M289.82,139.99V2.6h53.66c35.28,0,56.81,11.7,56.81,44.74,0,21.54-9.1,33.98-27.1,40.1l29.15,52.55h-39.36l-26.55-47.72h-10.21v47.72h-36.39ZM326.21,64.05h15.97c15.22,0,21.91-4.27,21.91-15.78s-6.68-15.59-21.91-15.59h-15.97v31.38Z"/>
  <path class="cls-1" d="M423.31,139.99V2.6h98.03v30.82h-60.9v22.28h43.45v28.96h-43.45v25.44h64.05v29.89h-101.19Z"/>
  <path class="cls-1" d="M548.63,2.6h44.74c29.89,0,46.23,13,46.23,35.65,0,25.62-18.38,37.5-47.71,37.5h-33.98v64.24h-9.28V2.6ZM592.63,67.21c23.76,0,37.69-7.24,37.69-28.59,0-20.05-13.74-27.48-37.88-27.48h-34.53v56.07h34.72Z"/>
  <path class="cls-1" d="M659.84,71.29c0-41.96,23.21-71.29,56.44-71.29s56.25,29.33,56.25,71.29-23.21,71.29-56.25,71.29-56.44-29.34-56.44-71.29ZM763.25,71.29c0-39.36-20.05-62.94-46.97-62.94s-47.16,23.58-47.16,62.94,20.05,62.94,47.16,62.94,46.97-23.58,46.97-62.94Z"/>
  <path class="cls-1" d="M802.61,2.6h44.74c29.89,0,46.23,13,46.23,35.65s-13.55,32.86-33.6,36.21l35.46,65.54h-10.77l-34.91-64.43h-37.87v64.43h-9.28V2.6ZM846.61,67.21c23.76,0,37.69-7.24,37.69-28.59,0-20.05-13.74-27.48-37.88-27.48h-34.53v56.07h34.72Z"/>
  <path class="cls-1" d="M955.6,11.14h-45.12V2.6h99.52v8.54h-45.12v128.85h-9.28V11.14Z"/>
  <path class="cls-1" d="M1056.23,2.04h10.95l48.64,137.95h-9.84l-15.97-46.05h-57l-15.97,46.05h-9.47L1056.23,2.04ZM1087.05,85.59l-25.43-73.15h-.37l-25.25,73.15h51.06Z"/>
  <path class="cls-1" d="M1141.63,2.6h9.28v128.85h68.69v8.54h-77.98V2.6Z"/>
</svg>