<svg width="64" height="64" viewBox="0 0 64 64" fill="none" xmlns="http://www.w3.org/2000/svg">
<path d="M10.3525 9.14405V13.9023H17.5212V9.14405H13.7858H10.3525Z" fill="#6667AB"/>
<path d="M10.3525 54.9394H17.5212V47.4375H10.3525V54.9394Z" fill="#6667AB"/>
<path fill-rule="evenodd" clip-rule="evenodd" d="M30.7874 54.9394H17.5212H10.3525V61.8706L30.7874 62.1181C33.8087 62.1181 36.6377 61.5405 39.2745 60.3853C41.9662 59.2301 44.3008 57.6623 46.2784 55.682C48.2559 53.7017 49.8215 51.3913 50.9751 48.7508C51.2134 48.194 51.4271 47.6302 51.6162 47.0593H43.8425C43.1372 48.3741 42.2463 49.5705 41.1697 50.6486C39.8513 51.9689 38.2857 53.0141 36.4729 53.7842C34.7151 54.5543 32.8199 54.9394 30.7874 54.9394ZM44.7511 19.0732C44.6402 18.7573 44.5176 18.4456 44.3832 18.1381C43.6142 16.3228 42.543 14.755 41.1697 13.4348C39.8513 12.1146 38.2857 11.0694 36.4729 10.2993C34.7151 9.52912 32.8199 9.14405 30.7874 9.14405H17.5212H13.7858H10.3525V1.88281H30.7874C33.8087 1.88281 36.6377 2.46041 39.2745 3.61561C41.9662 4.77081 44.3008 6.33857 46.2784 8.31891C48.2559 10.2993 49.8215 12.6372 50.9751 15.3326C51.5023 16.5393 51.909 17.7862 52.1953 19.0732H44.7511ZM17.5212 13.9023V47.4375H10.3525V13.9023H17.5212Z" fill="#6667AB"/>
<path d="M52.1953 19.0732H44.7511C45.1439 20.1924 45.3894 21.3642 45.4876 22.5887H52.6725C52.6079 21.3853 52.4489 20.2135 52.1953 19.0732Z" fill="#6667AB"/>
<path d="M44.3832 45.9453C44.2171 46.3256 44.0368 46.697 43.8425 47.0593H51.6162C52.2157 45.2489 52.5678 43.3678 52.6724 41.4158H45.4876C45.3616 42.9949 44.9935 44.5048 44.3832 45.9453Z" fill="#6667AB"/>
<circle cx="49.6466" cy="32.7062" r="3.52941" fill="#006850"/>
</svg>
