<?xml version="1.0" encoding="UTF-8" standalone="no"?>
<svg width="100%" height="100%" viewBox="0 0 180 40" version="1.1" xml:space="preserve" id="svg27" xmlns="http://www.w3.org/2000/svg" xmlns:svg="http://www.w3.org/2000/svg">
  <style>
    g > * {
      fill: #000000;
    }
  </style>
  <g transform="matrix(2.7230946,0,0,2.7298983,-449.29196,-898.51551)" id="CI-PACIFIC">
    <path d="m 171.48463,331.12132 c -0.25386,-0.35056 -0.58025,-0.60442 -0.95499,-0.78575 -0.37474,-0.16923 -0.77366,-0.25385 -1.18466,-0.25385 -0.47145,0 -0.90663,0.0967 -1.30555,0.29012 -0.39892,0.19341 -0.74948,0.44727 -1.0396,0.77366 -0.29012,0.32638 -0.5198,0.71321 -0.67695,1.13631 -0.15715,0.43518 -0.24177,0.88245 -0.24177,1.3539 0,0.49562 0.0846,0.96707 0.24177,1.39016 0.15715,0.43518 0.38683,0.80993 0.67695,1.12422 0.27803,0.32639 0.6286,0.58025 1.02751,0.76157 0.39892,0.18133 0.8341,0.27804 1.31764,0.27804 0.5198,0 0.99125,-0.1088 1.40225,-0.3143 0.41101,-0.19342 0.77366,-0.49563 1.07587,-0.88246 l 0.76157,0.64069 c -0.38683,0.5198 -0.85828,0.89454 -1.39017,1.13631 -0.54397,0.24177 -1.16048,0.36265 -1.84952,0.36265 -0.61651,0 -1.18466,-0.10879 -1.71655,-0.33847 -0.53189,-0.22968 -0.99125,-0.54398 -1.37808,-0.9429 -0.39892,-0.39892 -0.70113,-0.87036 -0.91872,-1.41434 -0.22968,-0.54398 -0.33848,-1.1484 -0.33848,-1.80117 0,-0.6286 0.1088,-1.22093 0.32639,-1.76491 0.2055,-0.54398 0.50771,-1.02751 0.89454,-1.42643 0.38683,-0.39892 0.84619,-0.72531 1.37808,-0.95498 0.53189,-0.22968 1.11213,-0.35057 1.75282,-0.35057 0.58024,0 1.13631,0.1088 1.68029,0.3143 0.53189,0.2055 0.97916,0.55607 1.34181,1.02751 z" id="cip-C1" />
    <rect x="174.72379" y="329.35641" width="1.0154256" height="8.5585871" id="cip-I2" />
    <rect x="178.06088" y="334.57861" width="2.961658" height="0.87036479" id="cip--" />
    <path d="m 183.34278,329.35641 h 2.53856 c 0.39892,0 0.77366,0.0363 1.13631,0.1088 0.35057,0.0846 0.67695,0.2055 0.95499,0.38683 0.27803,0.18132 0.49562,0.42309 0.66486,0.7253 0.15715,0.30221 0.24177,0.67695 0.24177,1.12422 0,0.47145 -0.0846,0.85828 -0.26595,1.16049 -0.18132,0.30221 -0.39892,0.54398 -0.67695,0.7253 -0.29012,0.18133 -0.59233,0.30221 -0.91872,0.37474 -0.32638,0.0725 -0.64068,0.1088 -0.94289,0.1088 h -1.71656 v 3.84411 h -1.01542 z m 1.01542,3.77158 h 1.71656 c 0.50771,0 0.91872,-0.10879 1.2451,-0.35056 0.3143,-0.22968 0.47145,-0.58024 0.47145,-1.06378 0,-0.48354 -0.15715,-0.84619 -0.47145,-1.07587 -0.32638,-0.21759 -0.73739,-0.33847 -1.2451,-0.33847 h -1.71656 z" id="cip-P" />
    <path d="m 193.12211,329.35641 h 0.95498 l 3.63861,8.55859 h -1.18466 l -0.87036,-2.10338 h -4.2793 l -0.88245,2.10338 h -1.1484 z m 0.45936,1.30555 h -0.0242 l -1.77699,4.20676 h 3.49355 z" id="cip-A" />
    <path d="m 205.57363,331.12132 c -0.25386,-0.35056 -0.58025,-0.60442 -0.95499,-0.78575 -0.37474,-0.16923 -0.77366,-0.25385 -1.18466,-0.25385 -0.47145,0 -0.90663,0.0967 -1.30555,0.29012 -0.39892,0.19341 -0.74948,0.44727 -1.0396,0.77366 -0.29012,0.32638 -0.5198,0.71321 -0.67695,1.13631 -0.15715,0.43518 -0.24177,0.88245 -0.24177,1.3539 0,0.49562 0.0846,0.96707 0.24177,1.39016 0.15715,0.43518 0.38683,0.80993 0.67695,1.12422 0.27803,0.32639 0.6286,0.58025 1.02751,0.76157 0.39892,0.18133 0.8341,0.27804 1.31764,0.27804 0.5198,0 0.99125,-0.1088 1.40225,-0.3143 0.41101,-0.19342 0.77366,-0.49563 1.07587,-0.88246 l 0.76157,0.64069 c -0.38683,0.5198 -0.85828,0.89454 -1.39017,1.13631 -0.54397,0.24177 -1.16048,0.36265 -1.84952,0.36265 -0.61651,0 -1.18466,-0.10879 -1.71655,-0.33847 -0.53189,-0.22968 -0.99125,-0.54398 -1.37808,-0.9429 -0.39892,-0.39892 -0.70113,-0.87036 -0.91872,-1.41434 -0.22968,-0.54398 -0.33848,-1.1484 -0.33848,-1.80117 0,-0.6286 0.1088,-1.22093 0.32639,-1.76491 0.2055,-0.54398 0.50771,-1.02751 0.89454,-1.42643 0.38683,-0.39892 0.84619,-0.72531 1.37808,-0.95498 0.53189,-0.22968 1.11213,-0.35057 1.75282,-0.35057 0.58024,0 1.13631,0.1088 1.68029,0.3143 0.53189,0.2055 0.97916,0.55607 1.34181,1.02751 z" id="cip-C2" />
    <rect x="208.81277" y="329.35641" width="1.0154256" height="8.5585871" id="cip-I2" />
    <path d="m 212.68178,329.35641 h 5.30681 v 0.9429 h -4.29139 v 2.82868 h 3.98918 v 0.9429 h -3.98918 v 3.84411 h -1.01542 z" id="cip-F" />
    <rect x="220.12778" y="329.35641" width="1.0154256" height="8.5585871" id="cip-I3" />
    <path d="m 229.99163,331.12132 c -0.25386,-0.35056 -0.58025,-0.60442 -0.95499,-0.78575 -0.37474,-0.16923 -0.77366,-0.25385 -1.18466,-0.25385 -0.47145,0 -0.90663,0.0967 -1.30555,0.29012 -0.39892,0.19341 -0.74948,0.44727 -1.0396,0.77366 -0.29012,0.32638 -0.5198,0.71321 -0.67695,1.13631 -0.15715,0.43518 -0.24177,0.88245 -0.24177,1.3539 0,0.49562 0.0846,0.96707 0.24177,1.39016 0.15715,0.43518 0.38683,0.80993 0.67695,1.12422 0.27803,0.32639 0.6286,0.58025 1.02751,0.76157 0.39892,0.18133 0.8341,0.27804 1.31764,0.27804 0.5198,0 0.99125,-0.1088 1.40225,-0.3143 0.41101,-0.19342 0.77366,-0.49563 1.07587,-0.88246 l 0.76157,0.64069 c -0.38683,0.5198 -0.85828,0.89454 -1.39017,1.13631 -0.54397,0.24177 -1.16048,0.36265 -1.84952,0.36265 -0.61651,0 -1.18466,-0.10879 -1.71655,-0.33847 -0.53189,-0.22968 -0.99125,-0.54398 -1.37808,-0.9429 -0.39892,-0.39892 -0.70113,-0.87036 -0.91872,-1.41434 -0.22968,-0.54398 -0.33848,-1.1484 -0.33848,-1.80117 0,-0.6286 0.1088,-1.22093 0.32639,-1.76491 0.2055,-0.54398 0.50771,-1.02751 0.89454,-1.42643 0.38683,-0.39892 0.84619,-0.72531 1.37808,-0.95498 0.53189,-0.22968 1.11213,-0.35057 1.75282,-0.35057 0.58024,0 1.13631,0.1088 1.68029,0.3143 0.53189,0.2055 0.97916,0.55607 1.34181,1.02751 z" id="cip-C3" />
  </g>
  <g transform="matrix(2.3619497,0,0,2.7419969,-389.59838,-886.84407)" id="PROFESSIONALS">
    <path d="m 164.94762,334.30011 h 1.24718 c 0.19598,0 0.38009,0.0153 0.55825,0.046 0.17223,0.0357 0.33258,0.0868 0.46918,0.16338 0.13659,0.0766 0.24349,0.1787 0.32664,0.30635 0.0772,0.12764 0.11877,0.28592 0.11877,0.47483 0,0.19913 -0.0416,0.36251 -0.13065,0.49016 -0.0891,0.12764 -0.19599,0.22976 -0.33258,0.30634 -0.14253,0.0766 -0.29101,0.12765 -0.45136,0.15828 -0.16035,0.0306 -0.31476,0.046 -0.46323,0.046 h -0.84333 v 1.62363 h -0.49887 z m 0.49887,1.59301 h 0.84333 c 0.24943,0 0.45135,-0.046 0.61171,-0.14807 0.15441,-0.097 0.23161,-0.24508 0.23161,-0.44931 0,-0.20423 -0.0772,-0.3574 -0.23161,-0.45441 -0.16036,-0.0919 -0.36228,-0.14297 -0.61171,-0.14297 h -0.84333 z" id="pro-P" />
    <path d="m 170.96362,334.30011 h 1.07495 c 0.20192,0 0.40384,0.0102 0.60577,0.0306 0.19598,0.0204 0.37415,0.0664 0.5345,0.13275 0.16035,0.0664 0.28507,0.16849 0.38603,0.29613 0.10096,0.13275 0.14847,0.31146 0.14847,0.53611 0,0.2655 -0.095,0.47994 -0.27913,0.64333 -0.18411,0.16338 -0.44542,0.2655 -0.77206,0.31145 l 1.19372,1.66448 h -0.6117 l -1.14028,-1.62363 h -0.6414 v 1.62363 h -0.49887 z m 0.49887,1.59301 h 0.44542 c 0.1366,0 0.28507,-0.005 0.43354,-0.0102 0.14847,-0.005 0.28507,-0.0306 0.40979,-0.0664 0.11877,-0.0357 0.22567,-0.097 0.30882,-0.1787 0.0772,-0.0766 0.11878,-0.19402 0.11878,-0.34209 0,-0.12764 -0.0297,-0.23487 -0.0891,-0.31145 -0.0594,-0.0766 -0.13659,-0.13786 -0.23161,-0.18381 -0.10097,-0.0408 -0.20787,-0.0664 -0.32664,-0.0817 -0.12472,-0.0153 -0.2435,-0.0204 -0.36822,-0.0204 h -0.70079 z" id="pro-R" />
    <path d="m 179.04053,338.0069 c -0.32071,0 -0.61171,-0.0459 -0.87896,-0.14296 -0.26725,-0.097 -0.49887,-0.22976 -0.69486,-0.39825 -0.19598,-0.16849 -0.35039,-0.36761 -0.45729,-0.60248 -0.11284,-0.22976 -0.16629,-0.48505 -0.16629,-0.75565 0,-0.27061 0.0534,-0.5259 0.16629,-0.76076 0.1069,-0.22976 0.26131,-0.43399 0.45729,-0.60248 0.19599,-0.16849 0.42761,-0.29614 0.69486,-0.39315 0.26725,-0.097 0.55825,-0.14296 0.87896,-0.14296 0.3207,0 0.61764,0.046 0.88489,0.14296 0.26725,0.097 0.49887,0.22466 0.69486,0.39315 0.19598,0.16849 0.34445,0.37272 0.45729,0.60248 0.1069,0.23486 0.16035,0.49015 0.16035,0.76076 0,0.2706 -0.0534,0.52589 -0.16035,0.75565 -0.11284,0.23487 -0.26131,0.43399 -0.45729,0.60248 -0.19599,0.16849 -0.42761,0.30124 -0.69486,0.39825 -0.26725,0.097 -0.56419,0.14296 -0.88489,0.14296 z m 0,-0.39825 c 0.24349,0 0.46917,-0.0408 0.67703,-0.11743 0.20192,-0.0766 0.37415,-0.18381 0.52263,-0.32166 0.14847,-0.13786 0.26131,-0.29614 0.34445,-0.47994 0.0772,-0.17871 0.11878,-0.37273 0.11878,-0.58206 0,-0.20934 -0.0416,-0.40336 -0.11878,-0.58717 -0.0831,-0.1787 -0.19598,-0.33698 -0.34445,-0.47483 -0.14848,-0.13786 -0.32071,-0.24508 -0.52263,-0.32167 -0.20786,-0.0766 -0.43354,-0.11743 -0.67703,-0.11743 -0.2435,0 -0.46918,0.0408 -0.6711,0.11743 -0.20786,0.0766 -0.38009,0.18381 -0.52856,0.32167 -0.14848,0.13785 -0.26132,0.29613 -0.33852,0.47483 -0.0832,0.18381 -0.12472,0.37783 -0.12472,0.58717 0,0.20933 0.0416,0.40335 0.12472,0.58206 0.0772,0.1838 0.19004,0.34208 0.33852,0.47994 0.14847,0.13785 0.3207,0.24507 0.52856,0.32166 0.20192,0.0766 0.4276,0.11743 0.6711,0.11743 z" id="pro-O1" />
    <path d="m 184.53362,334.30011 h 2.60719 v 0.39825 h -2.10832 v 1.19476 h 1.95984 v 0.39825 h -1.95984 v 1.62363 h -0.49887 z" id="pro-F" />
    <path d="m 190.33062,334.30011 h 2.64282 v 0.39825 h -2.14395 v 1.13349 h 2.00142 v 0.39825 h -2.00142 v 1.28665 h 2.25085 v 0.39825 h -2.74972 z" id="pro-E" />
    <path d="m 198.3421,334.93834 c -0.0831,-0.11744 -0.19599,-0.19913 -0.33258,-0.25529 -0.1366,-0.0511 -0.28507,-0.0766 -0.43354,-0.0766 -0.11284,0 -0.21974,0.0102 -0.32664,0.0357 -0.1069,0.0255 -0.20192,0.0613 -0.28507,0.10722 -0.0891,0.046 -0.15441,0.11233 -0.20786,0.18892 -0.0534,0.0766 -0.0772,0.16849 -0.0772,0.27571 0,0.0817 0.0178,0.15317 0.0475,0.21444 0.0297,0.0664 0.0772,0.12254 0.14254,0.1736 0.0653,0.0511 0.16035,0.097 0.27319,0.14296 0.11284,0.046 0.25537,0.0868 0.42166,0.13275 0.16035,0.046 0.3207,0.0919 0.47511,0.14296 0.14848,0.0511 0.28507,0.11743 0.40385,0.19402 0.11284,0.0766 0.20786,0.17359 0.27913,0.29103 0.0653,0.11743 0.10096,0.2655 0.10096,0.4442 0,0.1787 -0.0416,0.33698 -0.12472,0.46973 -0.0831,0.13275 -0.19004,0.23997 -0.32664,0.32677 -0.14253,0.0868 -0.29694,0.15317 -0.47511,0.19912 -0.17817,0.0408 -0.36227,0.0613 -0.55232,0.0613 -0.12472,0 -0.24349,-0.0102 -0.36821,-0.0255 -0.12472,-0.0204 -0.23756,-0.0511 -0.3504,-0.0919 -0.11284,-0.0357 -0.21974,-0.0868 -0.3207,-0.15317 -0.10096,-0.0613 -0.1841,-0.13786 -0.25537,-0.22976 l 0.4276,-0.30124 c 0.0891,0.13275 0.21974,0.23486 0.38009,0.30124 0.16035,0.0664 0.33258,0.10211 0.51669,0.10211 0.1069,0 0.2138,-0.0153 0.32664,-0.0408 0.1069,-0.0255 0.20192,-0.0664 0.291,-0.12254 0.0891,-0.0511 0.16035,-0.11743 0.2138,-0.19402 0.0534,-0.0766 0.0831,-0.16849 0.0831,-0.27061 0,-0.11232 -0.0238,-0.20423 -0.0653,-0.27571 -0.0416,-0.0664 -0.11284,-0.12764 -0.20192,-0.1787 -0.0891,-0.0511 -0.20787,-0.097 -0.34446,-0.13786 -0.1366,-0.0408 -0.30288,-0.0868 -0.48699,-0.14296 -0.14847,-0.0408 -0.29101,-0.0868 -0.41572,-0.14296 -0.12472,-0.0511 -0.23756,-0.11743 -0.32664,-0.19402 -0.095,-0.0766 -0.16629,-0.16849 -0.21974,-0.27571 -0.0594,-0.10722 -0.0831,-0.23486 -0.0831,-0.38293 0,-0.1736 0.0416,-0.32677 0.11878,-0.45442 0.0772,-0.12764 0.18411,-0.23997 0.3207,-0.32676 0.1366,-0.0868 0.28507,-0.14807 0.4573,-0.19402 0.17222,-0.046 0.35039,-0.0664 0.5345,-0.0664 0.23755,0 0.45729,0.0306 0.65328,0.0919 0.19598,0.0664 0.36821,0.1736 0.52262,0.33188 z" id="pro-S1" />
    <path d="m 204.1381,334.93834 c -0.0832,-0.11744 -0.19599,-0.19913 -0.33258,-0.25529 -0.1366,-0.0511 -0.28507,-0.0766 -0.43354,-0.0766 -0.11284,0 -0.21974,0.0102 -0.32664,0.0357 -0.1069,0.0255 -0.20192,0.0613 -0.28507,0.10722 -0.0891,0.046 -0.15441,0.11233 -0.20786,0.18892 -0.0534,0.0766 -0.0772,0.16849 -0.0772,0.27571 0,0.0817 0.0178,0.15317 0.0475,0.21444 0.0297,0.0664 0.0772,0.12254 0.14254,0.1736 0.0653,0.0511 0.16035,0.097 0.27319,0.14296 0.11284,0.046 0.25537,0.0868 0.42166,0.13275 0.16035,0.046 0.3207,0.0919 0.47511,0.14296 0.14848,0.0511 0.28507,0.11743 0.40385,0.19402 0.11284,0.0766 0.20786,0.17359 0.27913,0.29103 0.0653,0.11743 0.10096,0.2655 0.10096,0.4442 0,0.1787 -0.0416,0.33698 -0.12472,0.46973 -0.0831,0.13275 -0.19004,0.23997 -0.32664,0.32677 -0.14253,0.0868 -0.29694,0.15317 -0.47511,0.19912 -0.17817,0.0408 -0.36227,0.0613 -0.55232,0.0613 -0.12472,0 -0.24349,-0.0102 -0.36821,-0.0255 -0.12472,-0.0204 -0.23756,-0.0511 -0.3504,-0.0919 -0.11284,-0.0357 -0.21974,-0.0868 -0.3207,-0.15317 -0.10096,-0.0613 -0.1841,-0.13786 -0.25537,-0.22976 l 0.4276,-0.30124 c 0.0891,0.13275 0.21974,0.23486 0.38009,0.30124 0.16035,0.0664 0.33258,0.10211 0.51669,0.10211 0.1069,0 0.2138,-0.0153 0.32664,-0.0408 0.1069,-0.0255 0.20192,-0.0664 0.291,-0.12254 0.0891,-0.0511 0.16035,-0.11743 0.2138,-0.19402 0.0534,-0.0766 0.0832,-0.16849 0.0832,-0.27061 0,-0.11232 -0.0238,-0.20423 -0.0653,-0.27571 -0.0416,-0.0664 -0.11284,-0.12764 -0.20192,-0.1787 -0.0891,-0.0511 -0.20787,-0.097 -0.34446,-0.13786 -0.1366,-0.0408 -0.30288,-0.0868 -0.48699,-0.14296 -0.14847,-0.0408 -0.29101,-0.0868 -0.41572,-0.14296 -0.12472,-0.0511 -0.23756,-0.11743 -0.32664,-0.19402 -0.095,-0.0766 -0.16629,-0.16849 -0.21974,-0.27571 -0.0594,-0.10722 -0.0832,-0.23486 -0.0832,-0.38293 0,-0.1736 0.0416,-0.32677 0.11878,-0.45442 0.0772,-0.12764 0.18411,-0.23997 0.3207,-0.32676 0.1366,-0.0868 0.28507,-0.14807 0.4573,-0.19402 0.17222,-0.046 0.35039,-0.0664 0.5345,-0.0664 0.23755,0 0.45729,0.0306 0.65328,0.0919 0.19598,0.0664 0.36821,0.1736 0.52262,0.33188 z" id="pro-S2" />
    <rect x="207.93863" y="334.30011" width="0.49886844" height="3.6148851" id="pro-I" />
    <path d="m 213.93153,338.0069 c -0.32071,0 -0.61171,-0.0459 -0.87896,-0.14296 -0.26725,-0.097 -0.49887,-0.22976 -0.69486,-0.39825 -0.19598,-0.16849 -0.35039,-0.36761 -0.45729,-0.60248 -0.11284,-0.22976 -0.16629,-0.48505 -0.16629,-0.75565 0,-0.27061 0.0534,-0.5259 0.16629,-0.76076 0.1069,-0.22976 0.26131,-0.43399 0.45729,-0.60248 0.19599,-0.16849 0.42761,-0.29614 0.69486,-0.39315 0.26725,-0.097 0.55825,-0.14296 0.87896,-0.14296 0.3207,0 0.61764,0.046 0.88489,0.14296 0.26725,0.097 0.49887,0.22466 0.69486,0.39315 0.19598,0.16849 0.34445,0.37272 0.45729,0.60248 0.1069,0.23486 0.16035,0.49015 0.16035,0.76076 0,0.2706 -0.0534,0.52589 -0.16035,0.75565 -0.11284,0.23487 -0.26131,0.43399 -0.45729,0.60248 -0.19599,0.16849 -0.42761,0.30124 -0.69486,0.39825 -0.26725,0.097 -0.56419,0.14296 -0.88489,0.14296 z m 0,-0.39825 c 0.24349,0 0.46917,-0.0408 0.67703,-0.11743 0.20192,-0.0766 0.37415,-0.18381 0.52263,-0.32166 0.14847,-0.13786 0.26131,-0.29614 0.34445,-0.47994 0.0772,-0.17871 0.11878,-0.37273 0.11878,-0.58206 0,-0.20934 -0.0416,-0.40336 -0.11878,-0.58717 -0.0831,-0.1787 -0.19598,-0.33698 -0.34445,-0.47483 -0.14848,-0.13786 -0.32071,-0.24508 -0.52263,-0.32167 -0.20786,-0.0766 -0.43354,-0.11743 -0.67703,-0.11743 -0.2435,0 -0.46918,0.0408 -0.6711,0.11743 -0.20786,0.0766 -0.38009,0.18381 -0.52856,0.32167 -0.14848,0.13785 -0.26132,0.29613 -0.33852,0.47483 -0.0831,0.18381 -0.12472,0.37783 -0.12472,0.58717 0,0.20933 0.0416,0.40335 0.12472,0.58206 0.0772,0.1838 0.19004,0.34208 0.33852,0.47994 0.14847,0.13785 0.3207,0.24507 0.52856,0.32166 0.20192,0.0766 0.4276,0.11743 0.6711,0.11743 z" id="pro-O2" />
    <path d="m 219.42462,334.30011 h 0.62953 l 2.43495,3.0022 h 0.0119 v -3.0022 h 0.49887 v 3.61489 h -0.62953 l -2.43495,-3.00219 h -0.0119 v 3.00219 h -0.49887 z" id="pro-N" />
    <path d="m 227.90557,334.30011 h 0.46918 l 1.78761,3.61489 h -0.58201 l -0.42761,-0.8884 h -2.10237 l -0.43354,0.8884 h -0.5642 z m 0.22568,0.55143 h -0.0119 l -0.87302,1.77681 h 1.71635 z" id="pro-A" />
    <path d="m 233.21462,334.30011 h 0.49887 v 3.21664 h 1.92421 v 0.39825 h -2.42308 z" id="pro-L" />
    <path d="m 240.6741,334.93834 c -0.0832,-0.11744 -0.19599,-0.19913 -0.33258,-0.25529 -0.1366,-0.0511 -0.28507,-0.0766 -0.43354,-0.0766 -0.11284,0 -0.21974,0.0102 -0.32664,0.0357 -0.1069,0.0255 -0.20192,0.0613 -0.28507,0.10722 -0.0891,0.046 -0.15441,0.11233 -0.20786,0.18892 -0.0534,0.0766 -0.0772,0.16849 -0.0772,0.27571 0,0.0817 0.0178,0.15317 0.0475,0.21444 0.0297,0.0664 0.0772,0.12254 0.14254,0.1736 0.0653,0.0511 0.16035,0.097 0.27319,0.14296 0.11284,0.046 0.25537,0.0868 0.42166,0.13275 0.16035,0.046 0.3207,0.0919 0.47511,0.14296 0.14848,0.0511 0.28507,0.11743 0.40385,0.19402 0.11284,0.0766 0.20786,0.17359 0.27913,0.29103 0.0653,0.11743 0.10096,0.2655 0.10096,0.4442 0,0.1787 -0.0416,0.33698 -0.12472,0.46973 -0.0831,0.13275 -0.19004,0.23997 -0.32664,0.32677 -0.14253,0.0868 -0.29694,0.15317 -0.47511,0.19912 -0.17817,0.0408 -0.36227,0.0613 -0.55232,0.0613 -0.12472,0 -0.24349,-0.0102 -0.36821,-0.0255 -0.12472,-0.0204 -0.23756,-0.0511 -0.3504,-0.0919 -0.11284,-0.0357 -0.21974,-0.0868 -0.3207,-0.15317 -0.10096,-0.0613 -0.1841,-0.13786 -0.25537,-0.22976 l 0.4276,-0.30124 c 0.0891,0.13275 0.21974,0.23486 0.38009,0.30124 0.16035,0.0664 0.33258,0.10211 0.51669,0.10211 0.1069,0 0.2138,-0.0153 0.32664,-0.0408 0.1069,-0.0255 0.20192,-0.0664 0.291,-0.12254 0.0891,-0.0511 0.16035,-0.11743 0.2138,-0.19402 0.0534,-0.0766 0.0832,-0.16849 0.0832,-0.27061 0,-0.11232 -0.0238,-0.20423 -0.0653,-0.27571 -0.0416,-0.0664 -0.11284,-0.12764 -0.20192,-0.1787 -0.0891,-0.0511 -0.20787,-0.097 -0.34446,-0.13786 -0.1366,-0.0408 -0.30288,-0.0868 -0.48699,-0.14296 -0.14847,-0.0408 -0.29101,-0.0868 -0.41572,-0.14296 -0.12472,-0.0511 -0.23756,-0.11743 -0.32664,-0.19402 -0.095,-0.0766 -0.16629,-0.16849 -0.21974,-0.27571 -0.0594,-0.10722 -0.0832,-0.23486 -0.0832,-0.38293 0,-0.1736 0.0416,-0.32677 0.11878,-0.45442 0.0772,-0.12764 0.18411,-0.23997 0.3207,-0.32676 0.1366,-0.0868 0.28507,-0.14807 0.4573,-0.19402 0.17222,-0.046 0.35039,-0.0664 0.5345,-0.0664 0.23755,0 0.45729,0.0306 0.65328,0.0919 0.19598,0.0664 0.36821,0.1736 0.52262,0.33188 z" id="pro-S3" />
  </g>
</svg>