<?xml version="1.0" encoding="UTF-8" standalone="no"?>
<!DOCTYPE svg PUBLIC "-//W3C//DTD SVG 1.1//EN" "http://www.w3.org/Graphics/SVG/1.1/DTD/svg11.dtd">
<svg width="100%" height="100%" viewBox="0 0 273 68" version="1.1" xmlns="http://www.w3.org/2000/svg" xmlns:xlink="http://www.w3.org/1999/xlink" xml:space="preserve" xmlns:serif="http://www.serif.com/" style="fill-rule:evenodd;clip-rule:evenodd;stroke-linejoin:round;stroke-miterlimit:2;">
    <g transform="matrix(1,0,0,1,-5.47,-8.34)">
        <path d="M277.873,32.571L261.824,32.536C261.484,30.972 260.652,28.612 258.627,26.561C256.48,24.387 252.961,22.491 247.096,22.491C242.686,22.491 239.612,23.577 237.445,25.252C234.861,27.25 233.512,30.127 232.86,33.343C232.272,36.24 232.255,39.416 232.255,42.332C232.255,45.248 232.267,48.412 232.85,51.295C233.497,54.499 234.843,57.359 237.433,59.345C239.599,61.005 242.675,62.081 247.096,62.081C252.983,62.081 256.484,60.197 258.604,58.041C260.594,56.017 261.396,53.69 261.718,52.132L277.873,52.132C277.52,55.223 276.215,61.692 271.39,67.164C266.933,72.216 259.475,76.344 247.096,76.344C237.77,76.344 231.078,74.006 226.298,70.466C215.153,62.213 214.431,47.624 214.431,42.333L214.431,42.333C214.431,37.043 215.153,22.462 226.298,14.214C231.078,10.676 237.77,8.34 247.096,8.34C259.474,8.34 266.932,12.472 271.389,17.528C276.214,23.003 277.519,29.477 277.873,32.571Z" style="fill:rgb(254,255,254);"/>
    </g>
    <g transform="matrix(1,0,0,1,-5.47,-8.34)">
        <path d="M204.206,32.571L188.157,32.536C187.817,30.972 186.985,28.612 184.96,26.561C182.813,24.387 179.294,22.491 173.429,22.491C169.019,22.491 165.945,23.577 163.778,25.252C161.194,27.25 159.845,30.127 159.193,33.343C158.605,36.24 158.588,39.416 158.588,42.332C158.588,45.248 158.6,48.412 159.183,51.295C159.83,54.499 161.176,57.359 163.766,59.345C165.932,61.005 169.008,62.081 173.429,62.081C179.316,62.081 182.817,60.197 184.937,58.041C186.927,56.017 187.729,53.69 188.051,52.132L204.206,52.132C203.853,55.223 202.548,61.692 197.723,67.164C193.266,72.216 185.808,76.344 173.429,76.344C164.103,76.344 157.411,74.006 152.631,70.466C141.486,62.213 140.764,47.624 140.764,42.333C140.764,37.043 141.486,22.462 152.631,14.214C157.411,10.676 164.103,8.34 173.429,8.34C185.807,8.34 193.265,12.472 197.722,17.528C202.547,23.003 203.852,29.477 204.206,32.571Z" style="fill:rgb(254,255,254);"/>
    </g>
    <g transform="matrix(1.08293,0,0,1.02998,-13.8011,-11.8159)">
        <path d="M84.408,76.881L90.405,54.8L77.637,42.667L94.442,42.667L100.445,22.415L106.432,42.667L123.277,42.667L110.464,54.79L116.428,76.881L100.398,62.833L84.408,76.881Z" style="fill:white;fill-rule:nonzero;"/>
    </g>
    <path d="M69.399,34.709L58.5,68L74.827,68L75.203,66.684C75.203,66.684 81.27,45.438 81.27,45.438L69.399,34.709ZM131.25,68L115.06,68L108.654,45.433L120.261,34.988L131.25,68ZM118.477,29.63L103.298,29.63C103.298,29.63 94.977,2.859 94.977,2.859L86.634,29.63L71.061,29.63L80.75,0.035L108.625,0.035L118.477,29.63Z" style="fill:rgb(254,255,255);"/>
    <g transform="matrix(1,0,0,1,-5.47,-8.34)">
        <path d="M5.47,8.375L68.845,8.375L68.845,24.25L47.72,24.375L47.345,76.34L27.72,76.34L27.345,24.375L5.47,24L5.47,8.375Z" style="fill:rgb(254,255,255);fill-rule:nonzero;"/>
    </g>
</svg>
