<svg xmlns="http://www.w3.org/2000/svg" viewBox="0 0 324 72.6"><path d="M35.66,39c.2.4.4.7.6,1.1l2.4,3.89c.1.1.1.2.2.3.8,1.2,1.5,2.3,2.3,3.39.3.4.6.8.8,1.1.4.6.9,1.2,1.3,1.8a10.09,10.09,0,0,0,1.5-.7,4.18,4.18,0,0,1,1-.4c1-.5,2.1-1,3-1.5,1.2-.69,2.5-1.39,3.7-2.09a10.54,10.54,0,0,0,1.1-.7,16.29,16.29,0,0,0,1.7-1.1,17.41,17.41,0,0,0-1.2-1.4c-.3-.4-.7-.8-1-1.2-.8-1-1.7-2-2.5-3.09-.1-.2-.3-.3-.4-.5-1-1.2-2-2.5-2.9-3.8-.3-.4-.5-.7-.8-1.1L45,30.86a80.36,80.36,0,0,1-10.5,5.89A21.82,21.82,0,0,1,35.66,39Z" style="fill:#fff"/><path d="M92.86,29.26A103,103,0,0,0,85.46,22c-.5-.4-1-.9-1.5-1.3-.3.5-.7.9-1,1.4a10.47,10.47,0,0,1-.8,1.1c-.7,1-1.5,1.9-2.3,2.89-.1.2-.3.3-.4.5-.9,1.1-1.8,2.2-2.8,3.2-.3.3-.6.7-.9,1-.5.5-.9,1-1.4,1.5l9.7,9.68c.4-.5.9-.9,1.3-1.4a9.38,9.38,0,0,1,1-1c.8-.9,1.5-1.7,2.2-2.6a2.65,2.65,0,0,0,.5-.6c.9-1.1,1.8-2.2,2.6-3.3a5.9,5.9,0,0,1,.7-.89c.5-.6.9-1.3,1.4-1.9A9,9,0,0,1,92.86,29.26Z" style="fill:#fff"/><path d="M92.66,5.69c-.8,1.9-1.8,3.8-2.8,5.69-1.2,2.1-2.5,4.4-3.9,6.6h0c.6.59,1.2,1.09,1.8,1.59,2.8,2.6,5.4,5.1,7.6,7.49l.4.4c.3-.4.5-.8.8-1.2s.5-.79.7-1.19c.5-.8,1-1.7,1.4-2.5a4.05,4.05,0,0,0,.5-.9c.6-1.2,1.2-2.3,1.8-3.49a1.42,1.42,0,0,0,.2-.6c.4-.8.7-1.6,1.1-2.4a12.17,12.17,0,0,0-1.5-1.7A61,61,0,0,0,92.66,5.69Z" style="fill:#fff"/><path d="M50.86,63.61c-.7-.7-1.5-1.3-2.2-2.09a6,6,0,0,0-.8-.8l-1.4-1.4c-.3-.3-.6-.7-.9-1-.4-.5-.8-.9-1.2-1.4a5.24,5.24,0,0,0-1-1.1,16.4,16.4,0,0,1-1.1-1.29c-.8.29-1.5.59-2.2.79-.2.1-.3.1-.5.2-1.1.4-2.2.7-3.4,1.1a2.92,2.92,0,0,1-.9.2l-2.5.6c-.3.1-.6.1-1,.2-.2,0-.4.1-.6.1l.1.1c.2.2.4.5.6.7s.2.3.3.4c.3.3.5.7.8,1a18,18,0,0,0,1.9,2l.6.59,1.3,1.3a5,5,0,0,1,.8.7,15,15,0,0,0,1.3,1.1,5.55,5.55,0,0,1,.8.6c.3.2.7.5,1,.7a4.25,4.25,0,0,0,1.1-.2c.3-.1.7-.1,1-.2l1.5-.3c.3-.1.7-.1,1-.2.6-.1,1.1-.3,1.7-.4.3-.1.6-.1.9-.2.9-.3,1.7-.5,2.6-.8.4-.1.7-.3,1.1-.4A4.35,4.35,0,0,1,50.86,63.61Z" style="fill:#fff"/><path d="M66.66,55.62c-2.4-2.19-4.9-4.79-7.5-7.59-.5-.59-1-1.09-1.5-1.69h0c-.7.4-1.3.8-2,1.29a14.8,14.8,0,0,1-1.3.8c-1.3.8-2.6,1.6-3.9,2.3s-2.9,1.5-4.4,2.2c-.2.1-.3.2-.5.3a5.72,5.72,0,0,0,.7.8c.3.3.5.6.8.89a15.38,15.38,0,0,0,1.2,1.3c.3.3.5.6.8.9a18.48,18.48,0,0,0,1.4,1.4l.7.7c.7.7,1.4,1.3,2,1.9L55,62.61l.2.2,2.1-.89a2,2,0,0,0,.8-.4c1.1-.5,2.2-1.1,3.4-1.7.3-.1.5-.3.8-.4.9-.5,1.7-1,2.6-1.5.4-.2.8-.5,1.2-.7s.9-.6,1.4-.9A6.53,6.53,0,0,1,66.66,55.62Z" style="fill:#fff"/><path d="M76.86,39.55l-4.8-4.8h0c-.6.6-1.2,1.1-1.8,1.7a6,6,0,0,0-.8.8c-1.1,1-2.1,1.9-3.2,2.8-.2.19-.5.39-.7.59-.9.7-1.7,1.4-2.6,2.1l-1.2.9-1.3,1c.4.5.8.9,1.2,1.4,2.5,2.69,5,5.19,7.3,7.39.4.3.7.7,1.1,1,.5-.3.9-.7,1.4-1a11.32,11.32,0,0,0,1.3-1c.7-.5,1.4-1.1,2.1-1.6.4-.3.7-.6,1.1-.9,1-.9,2-1.7,3-2.59.1,0,.1-.1.2-.1.9-.8,1.8-1.7,2.7-2.5Z" style="fill:#fff"/><path d="M108.66,26.36c-.1-.2-.1-.4-.2-.6a29.25,29.25,0,0,0-2.7-5.69,17.39,17.39,0,0,0-1.1-1.8c-.1.2-.2.5-.3.7-.2.4-.3.7-.5,1.1-.4.9-.9,1.7-1.3,2.6-.2.3-.3.7-.5,1-.6,1.2-1.3,2.29-2,3.49a.76.76,0,0,0-.2.4c-.5.8-1,1.6-1.6,2.5h0c.3.4.7.8,1,1.2.9,1.1,1.7,2.09,2.4,3.09.3.5.6.9.9,1.4.1.1.1.2.2.3l.6.9A87.2,87.2,0,0,0,108.66,26.36Z" style="fill:#fff"/><path d="M75.46,62.71a13.34,13.34,0,0,1-1.4-1,32.41,32.41,0,0,1-3.1-2.4c-.4-.3-.7-.6-1.1-.9-1,.7-2,1.3-3,1.9a2.19,2.19,0,0,0-.5.3c-1,.6-1.9,1.1-2.9,1.69-.4.2-.7.4-1.1.6L60,64.11a5.36,5.36,0,0,1-1.1.5l-.6.3c.5.3,1,.7,1.5,1a29,29,0,0,0,5.7,2.7l1,.3a69.43,69.43,0,0,0,10.4-5.5A4.59,4.59,0,0,1,75.46,62.71Z" style="fill:#fff"/><path d="M15.86,53.33a8.34,8.34,0,0,0,.8,1.2,15.48,15.48,0,0,0,2.1.39h.3a17.85,17.85,0,0,0,2.3.2h3.8c-.7-1.09-1.4-2.29-2.1-3.49-.2-.3-.3-.6-.5-.9-.7-1.2-1.3-2.4-1.9-3.59-.2-.5-.5-1-.7-1.5-.1-.2-.2-.3-.2-.5-.2-.4-.3-.7-.5-1.1a4.88,4.88,0,0,1-.3-.7c-.1-.4-.3-.7-.4-1.1-.1-.2-.2-.5-.3-.7s-.1-.3-.2-.4a34.07,34.07,0,0,1-5.5.1l-1.9-.1h-.2a2.35,2.35,0,0,1,.2.8c.2.5.3.9.5,1.4.3.8.5,1.5.8,2.3.2.4.3.9.5,1.3.3.79.7,1.49,1,2.29.2.4.3.7.5,1.1A30.49,30.49,0,0,1,15.86,53.33Z" style="fill:#fff"/><path d="M36,70.7c.7.1,1.5.3,2.3.4h.2c1.2.3,2.5.6,3.8.9-.5-.3-1.1-.6-1.5-.9l-.9-.6C38.46,70.6,37.16,70.7,36,70.7Z" style="fill:#fff"/><path d="M11.26,52l-.6-1.2a18.89,18.89,0,0,1-1.1-2.5c-.2-.4-.3-.7-.5-1.09-.5-1.2-1-2.5-1.4-3.7h0c-.4-1.1-.7-2.2-1-3.3a20.81,20.81,0,0,1-4.4-1.79,33.78,33.78,0,0,0,1.5,4.49A40.45,40.45,0,0,0,8,50.53c.1.1.2.1.2.2a14.63,14.63,0,0,0,1.3.9c.2.1.3.2.5.3a10.93,10.93,0,0,0,1.5.8c.1,0,.1.1.2.1A5.9,5.9,0,0,0,11.26,52Z" style="fill:#fff"/><path d="M50,31.86c.9,1.19,1.8,2.29,2.7,3.49.1.1.1.2.2.2,1,1.2,1.9,2.4,2.9,3.5.3.4.6.7.9,1.1a19.26,19.26,0,0,1,1.4,1.69c.5-.4,1-.7,1.5-1.1s.7-.5,1.1-.79l2.8-2.2c.1-.1.3-.2.4-.3,1.1-.9,2.1-1.8,3.1-2.7a9,9,0,0,1,1-.9,21.12,21.12,0,0,1,1.6-1.49l-11.9-12a87.16,87.16,0,0,1-10,8.39c.4.6.9,1.2,1.3,1.8S49.66,31.46,50,31.86Z" style="fill:#fff"/><path d="M17.06,61.12c-.8-1.1-1.5-2.2-2.2-3.3l-.2-.3c-.2,0-.3-.1-.4-.1l-.9-.3c-.1,0-.2-.1-.3-.1A30.35,30.35,0,0,0,17.06,61.12Z" style="fill:#fff"/><path d="M53.36,72.6A41.18,41.18,0,0,0,61,71c.2-.1.4-.1.6-.2-.1,0-.1-.1-.2-.1l-1.2-.6-.6-.3a9.46,9.46,0,0,1-1.7-1c-.6-.4-1.2-.8-1.9-1.2-.2-.1-.4-.3-.6-.4l-.9-.6h0c-.3.1-.5.2-.8.3a1.42,1.42,0,0,1-.6.2c-.6.2-1.2.4-1.7.6-1,.4-2.1.7-3.1,1-.3.1-.7.2-1,.3a19.25,19.25,0,0,1-2,.49c-.1,0-.3.1-.4.1a40.58,40.58,0,0,0,5.2,2.2c.6.2,1.2.3,1.7.5S52.86,72.5,53.36,72.6Z" style="fill:#fff"/><path d="M112,12.18l-.1-.6a4.79,4.79,0,0,1,.1-1.19V8.19c-.1-.6-.1-1.3-.2-2a20.45,20.45,0,0,0-2-6.19A54.65,54.65,0,0,1,107,12.38c-.3.8-.5,1.5-.8,2.3h0c.2.3.5.7.7,1s.3.5.5.7c.5.7.9,1.4,1.3,2,.5.8.9,1.6,1.3,2.4a5.94,5.94,0,0,0,.4.8,40.17,40.17,0,0,0,1.6-9.39Z" style="fill:#fff"/><path d="M90.26,48.23l2.3,2.3a82.13,82.13,0,0,0,8.5-10.38,7.46,7.46,0,0,0-.7-1.2c-.5-.8-1.1-1.7-1.7-2.5s-1.4-1.9-2.3-3l-.4-.4c-.3.4-.7.9-1,1.3s-.5.7-.8,1.1c-.7,1-1.5,1.9-2.2,2.8-.1.2-.3.3-.4.5-.9,1.1-1.8,2.19-2.8,3.19l-.9.9a10.7,10.7,0,0,0-1.4,1.6l3.8,3.79" style="fill:#fff"/><path d="M87.86,50.63l-3.7-3.79a15.29,15.29,0,0,1-1.9,1.69,4.62,4.62,0,0,0-.7.7c-1.1,1-2.1,1.9-3.2,2.8-.3.2-.5.4-.8.6-.8.7-1.7,1.4-2.5,2a9.44,9.44,0,0,0-1.1.89l-1.2.9a1.38,1.38,0,0,0,.4.3c1,.8,2,1.6,3,2.3s1.7,1.2,2.5,1.7a8.26,8.26,0,0,0,1.3.7,84.67,84.67,0,0,0,10.3-8.59l-2.4-2.2" style="fill:#fff"/><path d="M21.56,40.74c.3.8.6,1.6.9,2.3l.3.6a20,20,0,0,0,1,2.1c.4.8.8,1.6,1.2,2.49a3.51,3.51,0,0,0,.5.8c.3.5.6,1.1.9,1.6l.6.9.9,1.5.6.9.6.89a18.17,18.17,0,0,0,2.4-.39h.1c1.1-.2,2.2-.5,3.3-.8.2-.1.5-.1.7-.2a24.13,24.13,0,0,0,2.5-.8c.4-.1.7-.3,1.1-.4a6.89,6.89,0,0,0,1-.4l-.9-1.2a17,17,0,0,1-1-1.4c-.6-.9-1.2-1.7-1.8-2.59a10.47,10.47,0,0,0-.8-1.1l-2.4-3.9v-.1c-.7-1.2-1.3-2.29-2-3.49a98.88,98.88,0,0,1-9.7,2.69Z" style="fill:#fff"/><path d="M25.66,65.81h0a28.53,28.53,0,0,0,8.5,1.5h1.5l-.4-.4c-.6-.5-1.2-1.1-1.8-1.6-.3-.2-.5-.5-.8-.7-.8-.8-1.6-1.6-2.4-2.5A20.19,20.19,0,0,1,29,60.52c-.1-.1-.1-.2-.2-.2a22,22,0,0,0-1.4-1.8.1.1,0,0,0-.1-.1c-.4,0-.8.1-1.2.1a1.7,1.7,0,0,0-.7.1c-.8,0-1.6.1-2.4.1h-2.1a3.75,3.75,0,0,1-1-.1,2.77,2.77,0,0,1-.9-.1A47.53,47.53,0,0,0,25.66,65.81Z" style="fill:#fff"/><path d="M60.06,18,72,29.86a18.48,18.48,0,0,1,1.4-1.4,9,9,0,0,0,.9-1c.9-1,1.7-2,2.6-3,.1-.1.1-.2.2-.2.9-1.1,1.8-2.2,2.6-3.3a6.07,6.07,0,0,0,.7-1c.4-.6.8-1.1,1.2-1.7-4.1-3.49-8.5-7-13.1-10.48A93.82,93.82,0,0,1,60.06,18Z" style="fill:#fff"/><path d="M8.66,16.78a38.25,38.25,0,0,0-2.9,8.49c1,1.09,2.1,2.39,3.3,3.59a39.67,39.67,0,0,1,3.3-7.79C11,19.57,9.76,18.08,8.66,16.78Z" style="fill:#fff"/><path d="M8.26,31.66c-1.1-1.1-2.1-2.2-3-3.2a41.5,41.5,0,0,0-.1,7.09,13.32,13.32,0,0,0,2.4,1C7.76,34.85,8,33.25,8.26,31.66Z" style="fill:#fff"/><path d="M6.86,14.48c-1.4-1.8-2.5-3.4-3.3-4.59a34,34,0,0,0-2.9,8.68c.5.7,1.5,2.2,3.1,4.1A35.8,35.8,0,0,1,6.86,14.48Z" style="fill:#fff"/><path d="M10.06,37.35a28.51,28.51,0,0,0,4.4.9c.1-.3.1-.6.2-1a48.67,48.67,0,0,1-4.2-3.5C10.26,35,10.16,36.15,10.06,37.35Z" style="fill:#fff"/><path d="M2.56,34.05a36.5,36.5,0,0,1,.5-8.19C1.86,24.47,1,23.17.16,22.17a35.2,35.2,0,0,0,.6,10.59C1.26,33.15,1.86,33.55,2.56,34.05Z" style="fill:#fff"/><path d="M21.26,13.48a35.66,35.66,0,0,0-5.8,7.29,62.51,62.51,0,0,0,4.5,4.4,44.71,44.71,0,0,1,5.7-6.9C24.16,16.78,22.66,15.08,21.26,13.48Z" style="fill:#fff"/><path d="M38,.3a33.89,33.89,0,0,0-7,5.09l3.5,4.9L41,5.59Z" style="fill:#fff"/><path d="M24.56-.4A36.23,36.23,0,0,0,18,5.49a41,41,0,0,0,3.5,4.7,44.25,44.25,0,0,1,6.4-5.5C26.56,2.9,25.66,1.4,24.56-.4Z" style="fill:#fff"/><path d="M14.16,23a33.24,33.24,0,0,0-3,7.89,52.87,52.87,0,0,0,4.3,3.79,33,33,0,0,1,3.3-7.29A48.26,48.26,0,0,1,14.16,23Z" style="fill:#fff"/><path d="M19.66,11.48c-1.4-1.69-2.6-3.39-3.7-5a36.9,36.9,0,0,0-5.9,7.79c1.1,1.4,2.4,2.9,3.7,4.39A36.39,36.39,0,0,1,19.66,11.48Z" style="fill:#fff"/><path d="M207.1,12.25H192.8V7.85h33.8v4.4H212.3v54.2h-5.2Z" style="fill:#fff"/><path d="M249,38.15v28.4h-5.2V8H260c11.3,0,14.1,3.7,14.1,14,0,7.3-1.2,12.2-9.1,14v.2c8.2,1.7,8.7,2.7,8.7,23.6,0,2.3.4,4.5.6,6.8h-5c-.5-1.7-.7-11.4-.8-14.6-.1-2.5,1.6-13.8-9.7-13.8Zm0-4.4h8.4c7.8,0,11.4-2,11.4-11.9,0-8-3.2-9.6-9.3-9.6H248.9v21.5Z" style="fill:#fff"/><path d="M148.9,43.65c0,7.6,0,18.5,11.9,18.5s11.9-10.9,11.9-18.5V6.75h5.2v40.7c0,15.1-8,19.1-17.1,19.1s-17.1-4-17.1-19.1V6.75h5.2v36.9Z" style="fill:#fff"/><path d="M291.5,36.05c0-15.8.2-30.4,17.7-30.4,14.2,0,14.5,11.7,14.5,17h-5.2c0-6.5-1.8-12.6-9.3-12.6-12.3,0-12.5,10.5-12.5,26.1s.2,26.1,12.5,26.1c6.7,0,9.3-6,9.3-13.6H324c0,4.2-1,17.9-14.9,17.9C291.7,66.55,291.5,52,291.5,36.05Z" style="fill:#fff"/></svg>