<?xml version="1.0" encoding="UTF-8"?>
<svg id="Layer_1" data-name="Layer 1" xmlns="http://www.w3.org/2000/svg" viewBox="0 0 705.76 140.79">
  <defs>
    <style>
      .cls-1 {
        fill: #b2b3b2;
      }

      .cls-2 {
        fill: #191e42;
      }

      .cls-3 {
        fill: #fff;
      }

      .cls-4 {
        fill: #e09333;
      }

      .cls-5 {
        fill: #1b4a34;
      }
    </style>
  </defs>
  <g>
    <g>
      <path class="cls-4" d="M63.25,62.88c.45,0,.86-.29,1-.73l4.15-12.78c-8.14.76-14.94,6.15-17.74,13.51h12.58Z"/>
      <path class="cls-4" d="M76.53,62.16c.14.43.54.73,1,.73h12.58c-2.8-7.36-9.6-12.75-17.74-13.51l4.15,12.78Z"/>
      <path class="cls-4" d="M56.43,86.22l3.4-10.47c.14-.43-.01-.91-.38-1.18l-9.95-7.23c-.14.99-.22,2.01-.22,3.05,0,6.3,2.77,11.96,7.15,15.83h0Z"/>
      <path class="cls-4" d="M81.33,74.57c-.37.27-.52.74-.38,1.18l3.4,10.47c4.38-3.87,7.15-9.52,7.15-15.83,0-1.04-.08-2.05-.22-3.05l-9.95,7.23h0Z"/>
      <path class="cls-4" d="M71.01,82.97c-.37-.27-.87-.27-1.23,0l-8.73,6.34c2.82,1.4,5.99,2.19,9.35,2.19s6.53-.79,9.35-2.19l-8.73-6.34h0Z"/>
    </g>
    <path class="cls-5" d="M70.39,140.78c-14.48,0-28.39-4.36-40.22-12.62-.84-.59-1.4-1.46-1.58-2.47-.18-1.01.04-2.03.63-2.86.72-1.03,1.89-1.64,3.15-1.64.78,0,1.54.24,2.19.69,10.54,7.35,22.93,11.24,35.84,11.24,34.58,0,62.72-28.13,62.72-62.72,0-2.11,1.72-3.84,3.84-3.84s3.84,1.72,3.84,3.84c0,38.81-31.58,70.39-70.39,70.39h0Z"/>
    <path class="cls-4" d="M116.53,18.66c-.1-1.02-.59-1.94-1.38-2.59C102.59,5.71,86.7,0,70.39,0c-.04,0-.07,0-.11,0C31.52.06,0,31.61,0,70.39c0,11.21,2.7,22.37,7.82,32.26.66,1.28,1.97,2.07,3.41,2.07.62,0,1.2-.14,1.76-.43,1.88-.97,2.62-3.29,1.65-5.17-4.62-8.94-6.96-18.61-6.96-28.74C7.67,35.81,35.81,7.68,70.39,7.68h.07c14.51.02,28.64,5.1,39.82,14.31.69.58,1.54.88,2.44.88h0c1.15,0,2.23-.51,2.96-1.4.65-.79.95-1.79.86-2.8h0Z"/>
    <path class="cls-2" d="M88.26,120.04c-1.62,0-3.05-.98-3.64-2.48-.38-.97-.36-2.03.06-2.99.42-.95,1.18-1.69,2.15-2.07,17.22-6.75,28.79-23.68,28.79-42.14,0-10.31-3.58-20.41-10.08-28.43-1.35-1.67-1.09-4.13.58-5.49.7-.57,1.55-.87,2.45-.87,1.18,0,2.29.53,3.03,1.45,7.62,9.41,11.82,21.25,11.82,33.35,0,21.65-13.56,41.5-33.75,49.41-.46.18-.94.27-1.42.27h0Z"/>
    <path class="cls-1" d="M78.46,17.93c-2.66-.41-5.37-.62-8.07-.62-20.01,0-38.11,11.09-47.25,28.95,0,.02-.01.03-.02.05-3.78,7.39-5.77,15.71-5.77,24.05,0,24.01,16.2,45.09,39.41,51.26.33.08.67.13,1.01.13h0c1.77,0,3.31-1.19,3.77-2.89.56-2.08-.69-4.22-2.77-4.78-19.79-5.27-33.61-23.25-33.61-43.72,0-7.2,1.65-14.09,4.9-20.47.01-.02.03-.04.03-.06,7.79-15.24,23.24-24.7,40.3-24.7,2.31,0,4.63.17,6.89.52.2.03.4.05.6.05,1.91,0,3.56-1.43,3.85-3.31.33-2.13-1.14-4.12-3.27-4.45h0Z"/>
    <path class="cls-4" d="M97.09,93.81c.02-1.12-.39-2.18-1.17-2.98-.79-.82-1.86-1.28-3.01-1.28-1.09,0-2.12.42-2.9,1.17-5.3,5.12-12.27,7.93-19.62,7.93-10,0-19.36-5.38-24.42-14.04-2.52-4.3-3.84-9.22-3.84-14.22,0-10.33,5.65-19.84,14.75-24.82.98-.54,1.69-1.42,2.01-2.49.31-1.07.19-2.2-.34-3.18-.73-1.34-2.14-2.18-3.67-2.18-.7,0-1.39.18-2,.51-11.78,6.45-19.1,18.77-19.1,32.16,0,6.44,1.71,12.78,4.93,18.34.02.03.03.07.06.11,6.56,11.22,18.69,18.19,31.64,18.19,9.53,0,18.55-3.65,25.42-10.28.8-.78,1.26-1.82,1.28-2.94h0Z"/>
    <path class="cls-4" d="M102.84,74.58c-2.3,0-4.18-1.88-4.18-4.18,0-13.36-9.5-25.01-22.58-27.69-1.09-.22-2.04-.86-2.65-1.79s-.83-2.05-.61-3.14c.4-1.93,2.12-3.34,4.09-3.34.28,0,.56.03.84.08,16.95,3.48,29.26,18.57,29.26,35.89,0,2.31-1.88,4.18-4.18,4.18h0Z"/>
  </g>
  <g>
    <path class="cls-3" d="M207.77,102.62l-14.87-.28-15.43.28-.46-3.21,11.02-1.19v-55.64l-13.77.18-4.23,11.66h-3.58v-16.25l26.35.28,26.44-.28v16.25h-3.58l-4.23-11.66-13.77-.18v55.64l10.56,1.19-.46,3.21Z"/>
    <path class="cls-3" d="M225.93,79.12c0,10.47,5.6,17.9,15.24,17.9,3.67,0,8.08-1.74,11.48-3.86l1.47,3.49c-4.4,3.03-10.19,5.6-16.06,7.25-11.11,0-21.12-7.9-21.12-22.31,0-13.59,8.17-20.84,20.75-23.6,12.12,0,16.25,7.62,16.25,17.26v3.86h-28ZM244.39,74.53c0-7.07-1.38-11.94-8.45-11.94-5.6,0-9.18,5.23-9.91,12.85l18.36-.92Z"/>
    <path class="cls-3" d="M273.02,99.41l-.46,3.21-7.16-.28-9.45.28-.46-3.21,6.43-.92,13.59-16.71-13.32-18.27-5.69-.92.46-3.31,10.56.28,8.72-.28.45,3.31-3.58.92,6.79,10.19.74,2.39,8.72-12.58-4.5-.92.46-3.31,7.16.28,9.46-.28.46,3.31-6.61.92-12.12,14.69,14.41,20.29,5.69.92-.46,3.21-10.56-.28-8.72.28-.46-3.21,3.77-.92-8.17-11.84-.74-2.11-9.73,13.96,4.32.92Z"/>
    <path class="cls-3" d="M325.05,58c11.57,0,14.51,2.94,14.51,14.6v18c0,3.95.64,5.42,1.56,6.89h4.59l.37,3.21-11.84,2.3-2.85-7.07-10.93,7.99c-7.89,0-13.49-4.41-13.49-11.75,0-3.31,1.2-5.69,3.21-8.45l20.66-6.89v-4.59c0-5.51-.46-8.81-5.42-8.81-2.48,0-5.51.83-7.53,1.65l-1.56,7.26h-7.89v-6.98l16.62-7.35ZM330.84,80.49l-13.32,5.51c-1.37,1.38-1.83,3.21-1.83,5.14,0,4.68,2.66,6.33,5.32,6.33s4.78-1.56,5.97-2.39l3.86-2.66v-11.94Z"/>
    <path class="cls-3" d="M374.07,64.52c-.92-.55-3.67-2.02-6.98-2.02-3.58,0-6.98,1.93-6.98,5.42,0,2.94,2.3,4.77,6.43,6.89l7.07,3.58c6.15,3.12,8.63,6.61,8.63,11.84,0,8.26-6.7,11.39-17.26,13.68-5.6,0-11.57-2.75-13.96-4.13l-1.74-10.38h5.88l3.12,7.62c1.93,1.29,4.59,2.29,7.53,2.29,4.87,0,7.35-3.12,7.35-6.98,0-3.58-1.93-5.14-6.7-7.62l-7.25-3.76c-3.95-2.02-7.72-5.51-7.72-10.65,0-6.43,5.97-10.01,16.62-12.3,4.96,0,10.28,2.2,12.94,4.13v9.18h-4.86l-2.11-6.79Z"/>
    <path class="cls-3" d="M389.3,74.34h28v5.97h-28v-5.97Z"/>
    <path class="cls-3" d="M488.9,69.02c0,20.29-10.38,31.4-33.05,35.17-18.55,0-31.22-13.87-31.22-32.41,0-20.29,10.37-31.4,33.05-35.17,18.55,0,31.22,13.86,31.22,32.41ZM458.14,99.13c14.14,0,20.2-12.21,20.2-27.08,0-13.41-5.96-30.39-22.86-30.39-14.14,0-20.29,12.12-20.29,27.09,0,13.68,6.15,30.39,22.95,30.39Z"/>
    <path class="cls-3" d="M504.49,93.35c2.76,3.4,7.81,5.78,12.95,5.78,7.89,0,12.49-4.96,12.49-11.66,0-6.24-4.04-9.82-9.55-12.21l-11.11-4.87c-6.61-2.85-12.03-7.07-12.03-15.24,0-10.01,9.18-15.88,21.94-18.55,5.79,0,12.21,1.93,16.81,5.32v12.4h-4.59l-2.66-8.35c-2.39-2.48-5.32-4.5-10.83-4.5-7.26,0-11.57,3.95-11.57,10.1,0,5.05,3.58,8.17,8.63,10.38l10.56,4.59c7.26,3.12,13.59,7.71,13.5,17.08,0,8.63-5.88,16.98-23.14,20.57-8.45,0-14.14-2.39-19.01-6.24l-2.02-12.39h6.43l3.21,7.8Z"/>
    <path class="cls-3" d="M543.67,41.38l.46-3.21,12.4.28,17.9-.28c11.48-.09,20.2,5.51,20.2,16.25,0,12.3-11.57,18.09-22.95,20.47h-10.1v23.32l11.02,1.19-.46,3.21-15.33-.28-12.67.28-.46-3.21,8.26-1.19v-55.64l-8.26-1.19ZM561.58,70.3h7.8c8.63,0,14.69-5.97,14.69-14.69,0-7.9-4.22-13.59-13.77-13.59l-8.72.55v27.73Z"/>
    <path class="cls-3" d="M663.47,69.02c0,20.29-10.38,31.4-33.05,35.17-18.55,0-31.22-13.87-31.22-32.41,0-20.29,10.37-31.4,33.05-35.17,18.55,0,31.22,13.86,31.22,32.41ZM632.71,99.13c14.14,0,20.2-12.21,20.2-27.08,0-13.41-5.96-30.39-22.86-30.39-14.14,0-20.29,12.12-20.29,27.09,0,13.68,6.15,30.39,22.95,30.39Z"/>
  </g>
</svg>