<?xml version="1.0" encoding="UTF-8"?>
<svg id="LOGO" xmlns="http://www.w3.org/2000/svg" viewBox="0 0 400 400">
  <defs>
    <style>
      .cls-1 {
        fill: #f7961f;
      }

      .cls-2 {
        fill: #071943;
      }

      .cls-3 {
        fill: #0e4933;
      }

      .cls-4 {
        fill: #b1b3b2;
      }
    </style>
  </defs>
  <g>
    <path class="cls-1" d="M183.16,182.3c1.07,0,2.02-.69,2.36-1.71l9.79-30.12c-19.19,1.8-35.2,14.49-41.81,31.83h29.66Z"/>
    <path class="cls-1" d="M214.48,180.59c.33,1.02,1.28,1.71,2.36,1.71h29.66c-6.6-17.34-22.62-30.04-41.81-31.83l9.79,30.12Z"/>
    <path class="cls-1" d="M167.1,237.29l8.02-24.67c.33-1.02-.03-2.14-.9-2.77l-23.44-17.03c-.34,2.34-.52,4.74-.52,7.18,0,14.86,6.52,28.18,16.85,37.3h-.01Z"/>
    <path class="cls-1" d="M225.79,209.84c-.87.63-1.23,1.75-.9,2.77l8.02,24.67c10.33-9.12,16.85-22.44,16.85-37.3,0-2.44-.18-4.83-.52-7.18l-23.44,17.03h-.01Z"/>
    <path class="cls-1" d="M201.46,229.64c-.87-.63-2.04-.63-2.91,0l-20.58,14.95c6.64,3.29,14.12,5.15,22.04,5.15s15.4-1.86,22.04-5.15l-20.58-14.95h-.01Z"/>
  </g>
  <path class="cls-3" d="M200,365.9c-34.13,0-66.91-10.28-94.8-29.74-1.98-1.38-3.3-3.45-3.73-5.83-.42-2.38.1-4.78,1.49-6.75,1.69-2.42,4.46-3.87,7.42-3.87,1.85,0,3.63.56,5.16,1.63,24.84,17.33,54.05,26.49,84.46,26.49,81.51,0,147.82-66.31,147.82-147.82,0-4.98,4.05-9.04,9.04-9.04s9.04,4.05,9.04,9.04c0,91.48-74.42,165.9-165.9,165.9h0Z"/>
  <path class="cls-1" d="M308.75,78.06c-.23-2.41-1.39-4.57-3.25-6.11-29.6-24.41-67.06-37.86-105.5-37.86-.09,0-.17.01-.26.01-91.36.14-165.64,74.5-165.64,165.9,0,26.42,6.37,52.72,18.42,76.04,1.56,3.02,4.64,4.89,8.04,4.89,1.45,0,2.84-.34,4.14-1.01,4.42-2.29,6.17-7.75,3.88-12.18-10.88-21.06-16.4-43.86-16.4-67.74,0-81.51,66.31-147.82,147.82-147.82.05,0,.11,0,.16,0,34.19.04,67.51,12.01,93.84,33.73,1.63,1.36,3.62,2.07,5.74,2.07h.01c2.71,0,5.26-1.21,6.98-3.3,1.53-1.86,2.25-4.21,2.02-6.61Z"/>
  <path class="cls-2" d="M242.11,317c-3.81,0-7.18-2.3-8.57-5.85-.9-2.29-.85-4.79.14-7.04.98-2.25,2.79-3.98,5.07-4.88,40.59-15.9,67.86-55.81,67.86-99.33,0-24.31-8.43-48.11-23.75-67.01-3.19-3.94-2.58-9.74,1.36-12.94,1.66-1.34,3.66-2.05,5.78-2.05,2.79,0,5.4,1.24,7.15,3.41,17.96,22.17,27.85,50.08,27.85,78.59,0,51.02-31.97,97.82-79.55,116.46-1.08.42-2.21.64-3.35.64h.01Z"/>
  <path class="cls-4" d="M219.03,76.34c-6.26-.96-12.66-1.45-19.03-1.45-47.15,0-89.82,26.14-111.36,68.23-.02.04-.03.08-.05.11-8.9,17.42-13.6,37.03-13.6,56.68,0,56.58,38.19,106.26,92.88,120.82.77.2,1.57.31,2.37.31h0c4.16.01,7.81-2.8,8.88-6.82,1.31-4.91-1.62-9.95-6.52-11.26-46.64-12.42-79.21-54.79-79.21-103.05,0-16.97,3.89-33.21,11.56-48.25.03-.05.06-.09.08-.14,18.37-35.91,54.77-58.22,94.98-58.22,5.44,0,10.91.41,16.24,1.23.47.07.94.11,1.41.11,4.49,0,8.39-3.36,9.07-7.81.77-5.02-2.69-9.72-7.7-10.49Z"/>
  <g>
    <polygon class="cls-1" points="200 286.34 200 286.34 199.99 286.34 200 286.34"/>
    <path class="cls-1" d="M262.92,255.19c.05-2.63-.93-5.13-2.76-7.02-1.87-1.94-4.39-3.01-7.09-3.01-2.56,0-4.99.98-6.84,2.76-12.49,12.06-28.91,18.7-46.23,18.7-23.56,0-45.62-12.68-57.56-33.1-5.93-10.14-9.06-21.73-9.06-33.52,0-24.35,13.32-46.77,34.77-58.5,2.31-1.27,3.99-3.35,4.73-5.88.74-2.53.45-5.19-.81-7.5-1.73-3.16-5.05-5.13-8.66-5.13-1.64,0-3.27.42-4.72,1.21-27.77,15.19-45.02,44.24-45.02,75.8,0,15.18,4.02,30.12,11.62,43.22.04.08.08.17.13.25,15.47,26.45,44.04,42.87,74.58,42.87,22.45,0,43.73-8.61,59.91-24.23,1.89-1.83,2.96-4.29,3.01-6.92Z"/>
  </g>
  <path class="cls-1" d="M276.48,209.86c-5.43,0-9.86-4.42-9.86-9.86,0-31.49-22.38-58.94-53.21-65.27-2.58-.53-4.8-2.03-6.25-4.23s-1.96-4.83-1.43-7.41c.94-4.56,4.99-7.88,9.65-7.88.66,0,1.33.07,1.99.2,39.96,8.2,68.96,43.77,68.96,84.58,0,5.44-4.42,9.86-9.86,9.86h0Z"/>
</svg>