<?xml version="1.0" encoding="utf-8"?>
<!-- Generator: Adobe Illustrator 21.0.1, SVG Export Plug-In . SVG Version: 6.00 Build 0)  -->
<svg version="1.1" id="Layer_1" xmlns="http://www.w3.org/2000/svg" xmlns:xlink="http://www.w3.org/1999/xlink" x="0px" y="0px"
	 width="400px" height="146.9px" viewBox="0 0 400 146.9" style="enable-background:new 0 0 400 146.9;" xml:space="preserve">
<style type="text/css">
	.st0{fill:#FFFFFF;}
	.st1{fill:#00957F;}
	.st2{fill:#B11E3B;}
	.st3{fill:#4CBFDD;}
	.st4{fill:#B6C934;}
	.st5{fill:#6EC9D5;}
</style>
<g>
	<g>
		<path class="st0" d="M155.1,42.8h45.3v9.7h-34.6v15.7h30.7V78h-30.7v16.4h35.1v9.7h-45.8V42.8z"/>
		<path class="st0" d="M214.2,42.8h24.1c3.6,0,6.8,0.5,9.7,1.4c2.9,1,5.3,2.3,7.3,4.2c2,1.8,3.6,4,4.6,6.5c1.1,2.5,1.6,5.3,1.6,8.4
			v0.2c0,3.4-0.6,6.5-1.9,9.1c-1.3,2.6-3,4.8-5.3,6.5c-2.2,1.8-4.8,3.1-7.8,4c-3,0.9-6.2,1.4-9.6,1.4h-12.2V104h-10.7V42.8z
			 M237.4,74.6c4.1,0,7.3-1,9.7-3.1c2.4-2,3.6-4.7,3.6-7.9v-0.2c0-3.6-1.2-6.4-3.6-8.2c-2.4-1.8-5.6-2.8-9.7-2.8h-12.6v22.1H237.4z"
			/>
		<path class="st0" d="M302.1,105.1c-4.7,0-9-0.8-12.9-2.5c-3.9-1.7-7.3-3.9-10.1-6.8c-2.8-2.9-5-6.2-6.6-10
			c-1.6-3.8-2.4-7.9-2.4-12.2v-0.2c0-4.3,0.8-8.4,2.4-12.2c1.6-3.8,3.8-7.2,6.6-10.1c2.9-2.9,6.2-5.2,10.1-6.9
			c3.9-1.7,8.2-2.5,12.9-2.5c4.7,0,9,0.8,12.9,2.5c3.9,1.7,7.3,3.9,10.1,6.8c2.8,2.9,5,6.2,6.6,10c1.6,3.8,2.4,7.9,2.4,12.2v0.2
			c0,4.3-0.8,8.4-2.4,12.2c-1.6,3.8-3.8,7.2-6.6,10.1c-2.9,2.9-6.2,5.2-10.1,6.9S306.8,105.1,302.1,105.1z M302.3,95.2
			c3,0,5.8-0.6,8.3-1.7c2.5-1.1,4.7-2.7,6.5-4.6c1.8-2,3.2-4.2,4.2-6.9c1-2.6,1.5-5.4,1.5-8.4v-0.2c0-3-0.5-5.8-1.5-8.4
			c-1-2.7-2.4-5-4.3-6.9c-1.8-2-4-3.5-6.6-4.7c-2.6-1.2-5.3-1.7-8.4-1.7c-3,0-5.8,0.6-8.3,1.7c-2.5,1.1-4.7,2.7-6.5,4.6
			c-1.8,2-3.2,4.2-4.2,6.9c-1,2.6-1.5,5.4-1.5,8.4v0.2c0,3,0.5,5.8,1.5,8.4c1,2.7,2.4,5,4.3,6.9c1.8,2,4,3.5,6.6,4.7
			C296.4,94.6,299.2,95.2,302.3,95.2z"/>
		<path class="st0" d="M375.2,105.1c-4.5,0-8.6-0.8-12.4-2.5c-3.8-1.6-7.1-3.9-9.9-6.7c-2.8-2.8-5-6.2-6.6-10
			c-1.6-3.8-2.4-8-2.4-12.3v-0.2c0-4.4,0.8-8.5,2.3-12.3c1.6-3.8,3.7-7.2,6.6-10.1c2.8-2.9,6.2-5.2,10-6.8c3.9-1.7,8.1-2.5,12.8-2.5
			c2.8,0,5.3,0.2,7.7,0.7c2.3,0.5,4.4,1.1,6.3,2c1.9,0.8,3.7,1.9,5.3,3c1.6,1.2,3.2,2.5,4.6,3.9l-6.9,8c-2.5-2.3-5-4.1-7.8-5.5
			c-2.7-1.4-5.9-2.1-9.4-2.1c-2.9,0-5.6,0.6-8.1,1.7c-2.5,1.1-4.6,2.7-6.4,4.6c-1.8,2-3.2,4.2-4.2,6.9c-1,2.6-1.5,5.4-1.5,8.4v0.2
			c0,3,0.5,5.8,1.5,8.4c1,2.7,2.4,5,4.2,7c1.8,2,3.9,3.5,6.4,4.7c2.5,1.1,5.2,1.7,8.1,1.7c3.7,0,6.9-0.7,9.6-2.1
			c2.7-1.4,5.3-3.4,8-5.8l6.9,7c-1.6,1.7-3.2,3.2-4.9,4.5c-1.7,1.3-3.6,2.4-5.6,3.4c-2,1-4.2,1.7-6.5,2.2
			C380.6,104.8,378,105.1,375.2,105.1z"/>
	</g>
	<g>
		<g>
			<path class="st1" d="M122.8,33.3c-6-7.5-14.2-12.9-23.2-15.4c-0.6-0.2-1.1-0.3-1.7-0.4c-0.6-0.1-1.1-0.3-1.7-0.4l-1.7-0.3
				c-0.3-0.1-0.6-0.1-0.9-0.2l-0.9-0.1L91,16.3l-1.7-0.1C88.2,16,87,16,85.8,16c-0.3,0-0.6,0-0.9,0l-0.9,0c-0.6,0-1.2,0-1.7,0.1
				l-1.7,0.1l-0.9,0.1c-0.3,0-0.6,0.1-0.9,0.1c-1.2,0.2-2.3,0.3-3.4,0.5l-1.7,0.3L72,17.6c-4.5,1.1-8.9,2.7-13.2,4.6
				c-4.3,1.9-8.4,4.2-12.3,6.8c-4,2.6-7.7,5.5-11.4,8.6c-1.8,1.6-3.5,3.2-5.2,4.9c-1.7,1.7-3.3,3.5-4.8,5.3l-1.7-1.3
				c1.4-2,2.9-3.9,4.5-5.8c1.6-1.9,3.2-3.7,4.9-5.5c0.9-0.9,1.8-1.7,2.6-2.6c0.9-0.9,1.8-1.7,2.7-2.5l1.4-1.2l1.4-1.2
				c1-0.8,1.9-1.6,2.9-2.3c4-3,8.2-5.6,12.8-7.7c4.5-2.1,9.3-3.7,14.2-4.8c4.9-1,9.9-1.6,15-1.3c1.3,0.1,2.5,0.1,3.8,0.3l1.9,0.2
				l1.9,0.3l0.9,0.2c0.3,0.1,0.6,0.1,0.9,0.2l1.8,0.5c0.6,0.2,1.2,0.4,1.8,0.5c0.6,0.2,1.2,0.4,1.8,0.6c4.7,1.7,9.2,4.1,13,7.3
				c1,0.8,1.9,1.6,2.8,2.5c0.4,0.4,0.9,0.9,1.3,1.3l0.6,0.7c0.2,0.2,0.4,0.5,0.6,0.7l1.2,1.4c0.4,0.5,0.7,1,1.1,1.5l0.5,0.7l0.5,0.8
				l1,1.6L122.8,33.3z"/>
			<path class="st1" d="M15.3,64.2c-1.9,4.4-3.2,9-4,13.7L11,79.7c-0.1,0.6-0.1,1.2-0.2,1.8c-0.1,1.2-0.2,2.4-0.3,3.6
				c0,0.6,0,1.2,0,1.8l0,0.9c0,0.3,0,0.6,0,0.9l0.1,1.8l0.2,1.8c0.3,2.3,0.6,4.7,1.2,6.9c0.6,2.3,1.3,4.5,2.2,6.6
				c0.1,0.3,0.2,0.5,0.3,0.8l0.4,0.8c0.3,0.5,0.5,1,0.8,1.5l0.8,1.5l0.9,1.5c1.3,1.9,2.6,3.8,4.2,5.4c3.1,3.4,6.7,6.2,10.8,8.3
				c2,1,4.1,2,6.3,2.7c1.1,0.4,2.2,0.7,3.2,0.9l1.6,0.4l1.7,0.3c4.4,0.6,9,0.3,13.5-0.6c4.5-0.9,8.8-2.5,12.9-4.5l2.6,5.2
				c-4.5,2.3-9.3,4.1-14.4,5c-5,1-10.3,1.2-15.4,0.4c-0.6-0.1-1.3-0.2-1.9-0.3l-1.9-0.5c-1.2-0.4-2.5-0.7-3.7-1.2
				c-2.4-0.9-4.7-2-7-3.2l-1.7-1c-0.5-0.3-1.1-0.7-1.6-1.1c-0.3-0.2-0.5-0.3-0.8-0.5l-0.8-0.6l-0.8-0.6c-0.3-0.2-0.5-0.4-0.8-0.6
				l-1.5-1.3c-0.5-0.4-0.9-0.9-1.4-1.3c-0.2-0.2-0.5-0.4-0.7-0.7l-0.7-0.7c-0.4-0.5-0.9-0.9-1.3-1.4l-1.2-1.5
				c-0.4-0.5-0.7-1-1.1-1.6c-0.4-0.5-0.7-1.1-1-1.6c-0.3-0.5-0.7-1.1-1-1.6c-1.3-2.2-2.3-4.5-3.1-6.9c-0.9-2.4-1.5-4.8-1.9-7.3
				c-0.5-2.5-0.7-4.9-0.8-7.4l0-1.9l0-1.9c0-0.3,0-0.6,0-0.9l0.1-0.9c0-0.6,0.1-1.2,0.1-1.8c0.2-2.5,0.6-4.9,1.1-7.3
				c0.1-0.6,0.3-1.2,0.4-1.8c0.1-0.6,0.3-1.2,0.4-1.8c0.3-1.2,0.7-2.4,1-3.5c0.2-0.6,0.4-1.2,0.6-1.7l0.6-1.7
				c0.2-0.6,0.4-1.1,0.7-1.7l0.7-1.7L15.3,64.2z"/>
			<path class="st1" d="M86.9,114.1c1.9-1.7,3.7-3.5,5.5-5.5c0.9-1,1.7-2,2.5-3c0.8-1,1.6-2,2.3-3.1c1.5-2.1,2.8-4.3,4-6.6
				c1.1-2.3,2.2-4.6,3-7.1c1.6-4.9,2.4-10.1,1.9-15.2c-0.1-1.3-0.3-2.6-0.6-3.8c-0.3-1.3-0.6-2.5-1.1-3.7c-0.9-2.4-2.2-4.7-3.9-6.8
				l0.4-0.4c1,0.9,1.9,1.9,2.8,3c0.8,1.1,1.5,2.3,2.2,3.5c0.3,0.6,0.6,1.2,0.9,1.9c0.2,0.6,0.5,1.3,0.7,2c0.4,1.3,0.8,2.7,1,4
				c0.1,0.7,0.2,1.4,0.3,2.1c0.1,0.7,0.1,1.4,0.2,2.1c0.1,1.4,0.1,2.8,0,4.2c-0.1,1.4-0.2,2.8-0.4,4.1c-0.2,1.4-0.5,2.7-0.8,4.1
				c-1.3,5.4-3.7,10.6-6.6,15.2c-2.9,4.7-6.5,9-10.5,12.8L86.9,114.1z"/>
		</g>
		<g>
			<path class="st2" d="M89.9,52.8c-0.8-0.9-1.7-1.7-2.6-2.5c-0.9-0.8-1.9-1.4-2.8-2.1c-2-1.2-4.1-2.2-6.2-2.8
				c-4.3-1.3-8.9-1.4-13.3-0.6c-2.2,0.4-4.4,1-6.5,1.8c-2.1,0.8-4.2,1.8-6.2,2.9c-2,1.1-4,2.3-5.9,3.6c-1.9,1.3-3.8,2.8-5.5,4.4
				c-0.4,0.4-0.9,0.8-1.3,1.2l-1.2,1.3c-0.8,0.9-1.6,1.8-2.2,2.7c-1.4,1.9-2.6,3.9-3.6,6.1c-1,2.2-1.7,4.4-2.2,6.7
				c-0.5,2.3-0.6,4.7-0.5,7c0.3,4.6,1.8,9.1,4.4,12.6c1.3,1.8,2.8,3.3,4.6,4.6c1.7,1.3,3.7,2.3,5.7,3l-1.8,4.9c-2.5-1-4.8-2.3-6.9-4
				c-2.1-1.7-3.8-3.8-5.2-6.1c-1.3-2.3-2.3-4.8-2.8-7.3c-0.5-2.5-0.7-5.1-0.5-7.6c0.1-2.5,0.6-5,1.2-7.4c0.6-2.4,1.5-4.7,2.5-7
				c1-2.3,2.2-4.4,3.5-6.5c0.6-1.1,1.4-2.1,2-3.1l1.1-1.5c0.4-0.5,0.8-1,1.2-1.5l0.6-0.7l0.6-0.7c0.4-0.5,0.8-0.9,1.2-1.4l1.3-1.3
				c0.4-0.4,0.9-0.9,1.4-1.3c1.8-1.7,3.8-3.3,6-4.7c4.3-2.7,9.2-4.6,14.4-5.3c5.1-0.7,10.5,0,15.2,2.1c2.4,1.1,4.5,2.5,6.4,4.2
				c0.9,0.9,1.8,1.8,2.5,2.8c0.8,1,1.4,2.1,2,3.2L89.9,52.8z"/>
			<path class="st2" d="M61.1,101.2c3.2-1.5,6.1-3.5,8.8-5.8c1.3-1.2,2.6-2.5,3.8-3.8c1.2-1.4,2.2-2.8,3.2-4.3
				c0.9-1.5,1.7-3.1,2.3-4.8c0.1-0.4,0.3-0.8,0.4-1.3l0.3-1.3l0.3-1.3c0.1-0.4,0.1-0.9,0.2-1.3c0.2-1.8,0.1-3.6-0.3-5.3
				c-0.4-1.8-1.1-3.5-2.2-5l0.4-0.4c1.5,1.2,2.7,2.9,3.5,4.8c0.8,1.9,1.2,3.9,1.3,6c0,0.5,0,1,0,1.5l-0.1,1.5
				c-0.1,0.5-0.1,1-0.2,1.5c-0.1,0.5-0.2,1-0.3,1.5c-0.4,2-1.1,4-2,5.8c-1.8,3.7-4.2,7-7.1,9.9c-2.9,2.9-6.2,5.4-10,7.2L61.1,101.2z
				"/>
		</g>
		<g>
			<path class="st3" d="M136.8,25.4c-5.9-7.6-13.7-13.5-22.5-16.9C105.5,5,96,3.8,86.7,4.6C82,5,77.4,5.8,72.9,7.1l-3.4,1
				c-1.1,0.4-2.2,0.8-3.3,1.2C64,10.1,61.9,11,59.7,12c-4.3,2-8.4,4.3-12.4,6.8c-4,2.5-7.8,5.4-11.6,8.3l-2.4-2.7
				c3.6-3.3,7.4-6.4,11.5-9.3c4.1-2.8,8.3-5.3,12.8-7.5c8.9-4.3,18.8-7,28.7-7.5c5-0.3,10,0,14.9,0.9c4.9,0.9,9.7,2.4,14.2,4.6
				l0.8,0.4c0.3,0.1,0.5,0.3,0.8,0.4l1.6,0.9c0.6,0.3,1.1,0.6,1.6,1l1.6,1c0.5,0.4,1,0.7,1.5,1.1l0.8,0.5l0.4,0.3l0.4,0.3l1.4,1.2
				c0.2,0.2,0.5,0.4,0.7,0.6l0.7,0.6c3.7,3.3,6.8,7.1,9.3,11.3L136.8,25.4z"/>
			<path class="st3" d="M22,40.4c-3.1,3.6-5.9,7.5-8.4,11.6l-0.9,1.5l-0.5,0.8l-0.4,0.8c-0.6,1.1-1.1,2.1-1.7,3.2
				c-0.5,1.1-1,2.2-1.5,3.3l-1.3,3.3c-3.4,8.9-5.1,18.6-4.7,28c0.2,4.7,1,9.4,2.4,13.9c1.4,4.5,3.4,8.7,5.9,12.6
				c2.5,3.9,5.6,7.4,9.1,10.4c3.5,3,7.4,5.5,11.6,7.3l-2.2,4.7c-4.6-2.2-8.9-5-12.6-8.4l-1.4-1.3c-0.2-0.2-0.5-0.4-0.7-0.7l-0.6-0.7
				l-1.3-1.4c-0.2-0.2-0.4-0.5-0.6-0.7l-0.6-0.7l-1.2-1.5l-1.1-1.6c-0.4-0.5-0.7-1-1.1-1.6l-1-1.6c-2.5-4.4-4.4-9.1-5.6-13.9
				C0.5,102.9,0,97.9,0,93c0-1.2,0-2.5,0.1-3.7c0.1-1.2,0.1-2.5,0.3-3.7c0.1-1.2,0.3-2.4,0.5-3.7c0.2-1.2,0.4-2.4,0.6-3.6
				c0.3-1.2,0.5-2.4,0.8-3.6L2.8,73l0.2-0.9l0.3-0.9l0.5-1.8c0.2-0.6,0.4-1.2,0.6-1.7c0.4-1.1,0.8-2.3,1.3-3.4
				c3.6-9.1,8.6-17.6,14.5-25.4L22,40.4z"/>
			<path class="st3" d="M49.2,141.2c2.3,0,4.6-0.1,6.8-0.4c0.6-0.1,1.1-0.1,1.7-0.2l1.7-0.3c1.1-0.2,2.3-0.5,3.4-0.8l0.8-0.2
				l0.8-0.2c0.6-0.2,1.1-0.3,1.7-0.5l1.6-0.5l1.6-0.6c2.2-0.8,4.3-1.8,6.4-2.8c8.3-4.1,16-9.8,22.5-16.5c3.3-3.4,6.2-7,8.9-10.9
				l1-1.5l0.9-1.5c0.6-1,1.2-2,1.7-3c1.1-2.1,2.1-4.2,2.9-6.4c0.9-2.2,1.5-4.4,2.1-6.7l0.4-1.7c0.1-0.3,0.1-0.6,0.2-0.9l0.2-0.9
				c0.2-1.2,0.3-2.3,0.5-3.5c0.2-2.3,0.3-4.7,0.1-7c-0.2-2.3-0.6-4.7-1.2-6.9l1.7-0.6c0.8,2.3,1.4,4.8,1.8,7.2
				c0.4,2.5,0.5,5,0.4,7.5c-0.1,1.2-0.1,2.5-0.2,3.7c-0.1,1.2-0.3,2.5-0.5,3.7c-0.5,2.5-1,4.9-1.8,7.3c-1.5,4.8-3.7,9.3-6.3,13.6
				c-0.3,0.5-0.7,1.1-1,1.6c-0.3,0.5-0.7,1-1,1.6l-1.1,1.5l-1.1,1.5c-1.5,2-3.1,3.9-4.8,5.8c-1.7,1.8-3.4,3.6-5.2,5.3
				c-1.8,1.7-3.7,3.3-5.7,4.8c-2,1.5-4,3-6.1,4.3c-2.1,1.3-4.3,2.6-6.5,3.7c-4.5,2.2-9.2,4.1-14.2,5.3c-4.9,1.2-10,1.8-15.2,1.6
				L49.2,141.2z"/>
		</g>
		<g>
			<path class="st4" d="M106.8,43.8c-3.1-3.7-6.8-6.7-11-8.8c-4.1-2.1-8.6-3.4-13.2-3.9c-2.3-0.2-4.6-0.3-6.9-0.1
				c-1.1,0.1-2.3,0.2-3.4,0.4c-0.6,0.1-1.1,0.1-1.7,0.3c-0.6,0.1-1.1,0.2-1.7,0.3c-2.2,0.5-4.5,1.1-6.6,1.9
				c-2.2,0.8-4.3,1.7-6.4,2.7c-4.2,2-8.2,4.5-12,7.3l-1.4,1.1c-0.5,0.4-0.9,0.7-1.4,1.1l-1.4,1.1l-1.3,1.2c-0.5,0.4-0.9,0.8-1.3,1.2
				c-0.4,0.4-0.9,0.8-1.3,1.2c-0.8,0.9-1.7,1.7-2.5,2.6c-1.6,1.8-3.1,3.6-4.4,5.6c-1.4,2-2.6,4-3.6,6.2c-1.1,2.1-2,4.3-2.7,6.6
				c-0.7,2.3-1.3,4.6-1.7,6.9L19,78.2c0.5-2.4,1.2-4.8,2-7.1c0.4-1.2,0.9-2.3,1.3-3.4c0.5-1.1,1-2.3,1.5-3.4
				c0.3-0.6,0.5-1.1,0.8-1.6c0.3-0.5,0.6-1.1,0.9-1.6c0.6-1.1,1.2-2.1,1.9-3.2l0.5-0.8l0.5-0.8c0.3-0.5,0.7-1,1-1.5
				c0.7-1,1.4-2,2.2-3c1.5-2,3.1-3.9,4.7-5.7l1.3-1.4c0.4-0.4,0.9-0.9,1.3-1.3c0.4-0.4,0.9-0.9,1.3-1.3l1.4-1.3
				c1.8-1.7,3.8-3.2,5.8-4.7c0.5-0.4,1-0.7,1.6-1c0.5-0.3,1-0.7,1.6-1c1.1-0.6,2.1-1.3,3.3-1.9c2.2-1.2,4.6-2.2,6.9-3
				c1.2-0.4,2.4-0.8,3.6-1.1c1.2-0.4,2.5-0.6,3.7-0.9c2.5-0.4,5-0.7,7.6-0.8c2.5,0,5.1,0.2,7.6,0.6c5,0.9,9.9,2.7,14,5.5
				c2.1,1.4,4,3.1,5.7,4.9l0.6,0.7c0.2,0.2,0.4,0.5,0.6,0.7c0.4,0.5,0.8,0.9,1.1,1.5c0.4,0.5,0.7,1,1,1.5c0.3,0.5,0.6,1.1,0.9,1.6
				L106.8,43.8z"/>
			<path class="st4" d="M22.6,97.1c1.6,4.3,4,8.3,7.1,11.5c3.1,3.2,6.9,5.7,11.1,7.3c0.5,0.2,1.1,0.4,1.6,0.6
				c0.5,0.2,1.1,0.3,1.6,0.5c1.1,0.3,2.1,0.5,3.2,0.6c2.2,0.3,4.4,0.3,6.6,0.1c4.4-0.5,8.8-1.8,12.8-3.8c4.1-2,8-4.5,11.4-7.5
				c1.8-1.5,3.4-3.1,4.9-4.8c0.4-0.4,0.8-0.9,1.1-1.3c0.4-0.4,0.7-0.9,1.1-1.3c0.4-0.4,0.7-0.9,1.1-1.4c0.4-0.5,0.7-0.9,1-1.4
				c1.3-1.9,2.4-3.9,3.4-6c1-2.1,1.7-4.3,2.2-6.5c0.5-2.2,0.8-4.5,0.8-6.8c0-2.3-0.3-4.6-1-6.8l1.5-0.6c1.1,2.3,1.7,4.8,2,7.3
				c0.3,2.5,0.2,5.1-0.1,7.6c-0.3,2.5-1,5-1.8,7.4c-0.9,2.4-2,4.7-3.3,6.9c-0.3,0.5-0.6,1.1-1,1.6c-0.3,0.5-0.7,1.1-1,1.6
				c-0.4,0.5-0.7,1-1.1,1.5c-0.4,0.5-0.8,1-1.2,1.5c-1.6,2-3.3,3.8-5.2,5.6c-3.7,3.5-7.9,6.5-12.5,8.7c-4.6,2.3-9.6,3.8-14.9,4.2
				c-2.6,0.2-5.3,0.1-7.9-0.3c-1.3-0.2-2.6-0.5-3.9-0.9c-0.6-0.2-1.3-0.4-1.9-0.6c-0.6-0.2-1.2-0.4-1.8-0.7c-4.8-2-9.2-5.1-12.6-9
				c-3.4-3.9-5.8-8.7-7.1-13.6L22.6,97.1z"/>
		</g>
		<path class="st5" d="M76.2,61.7c-1.8-1.6-3.7-2.8-5.7-3.6c-2-0.7-4.1-1.1-6.2-1c-2.1,0-4.2,0.4-6.2,1.1c-1,0.3-2,0.7-3,1.2
			c-1,0.5-1.9,0.9-2.9,1.4c-3.8,2.1-7.8,4.7-10.3,8.6c-1.3,1.9-2.1,4.1-2.6,6.3C39,76.9,38.9,78,39,79.1c0,1.1,0.2,2.2,0.4,3.3
			c0.5,2.1,1.5,4,2.8,5.6c1.3,1.6,2.8,2.8,4.6,3.6c0.9,0.4,1.9,0.7,2.8,0.8c0.2,0.1,0.5,0.1,0.7,0.1l0.7,0.1c0.2,0,0.5,0,0.7,0
			c0.2,0,0.5,0,0.7,0c1.9-0.2,3.8-0.8,5.7-1.6c3.7-1.7,7.1-4.6,9.4-8.1c1.1-1.8,2-3.7,2.3-5.8c0.3-2.1,0.1-4.3-1.1-6.3l0.4-0.4
			c1,0.7,1.9,1.8,2.4,2.9c0.6,1.2,0.9,2.5,1.1,3.8c0.3,2.6-0.2,5.3-1.3,7.8c-0.3,0.6-0.5,1.2-0.9,1.8c-0.3,0.6-0.6,1.1-1,1.7
			L68.8,89l-0.6,0.8c-0.2,0.3-0.4,0.5-0.6,0.8l-0.7,0.7c-0.9,1-1.9,1.8-2.9,2.7c-0.5,0.4-1.1,0.8-1.6,1.1c-0.6,0.3-1.2,0.7-1.7,1
			c-2.4,1.2-5.1,2-7.9,2.1c-0.4,0-0.7,0-1.1,0l-1.1-0.1l-1.1-0.2c-0.4-0.1-0.7-0.1-1.1-0.2c-1.4-0.4-2.7-0.9-3.9-1.6
			c-1.2-0.7-2.4-1.5-3.4-2.4l-0.7-0.7l-0.7-0.8c-0.2-0.3-0.4-0.6-0.6-0.8c-0.2-0.3-0.4-0.6-0.5-0.9c-0.7-1.2-1.2-2.5-1.5-3.7
			c-0.3-1.3-0.5-2.6-0.6-3.9c0-1.3,0.1-2.6,0.2-3.8c0.2-1.2,0.5-2.5,0.8-3.6c0.7-2.4,1.7-4.6,2.8-6.8c1.2-2.1,2.5-4.2,4-6.2
			c0.8-1,1.6-1.9,2.5-2.8c0.4-0.5,0.9-0.9,1.4-1.3c0.2-0.2,0.5-0.4,0.7-0.6c0.2-0.2,0.5-0.4,0.8-0.6l0.8-0.6
			c0.3-0.2,0.5-0.3,0.8-0.5c0.5-0.4,1.1-0.6,1.7-0.9c1.2-0.6,2.4-1,3.6-1.4c2.5-0.7,5.2-1,7.8-0.7c2.6,0.3,5.2,1.2,7.4,2.7
			c2.2,1.5,3.9,3.5,4.8,5.8L76.2,61.7z"/>
	</g>
</g>
</svg>
