<?xml version="1.0" encoding="UTF-8"?>
<svg id="Layer_1" data-name="Layer 1" xmlns="http://www.w3.org/2000/svg" xmlns:xlink="http://www.w3.org/1999/xlink" viewBox="0 0 376.36 131.56">
  <defs>
    <style>
      .cls-1 {
        fill: url(#linear-gradient-2);
      }

      .cls-2 {
        fill: #3f5a83;
      }

      .cls-3 {
        fill: url(#linear-gradient);
      }

      .cls-4 {
        fill: #d37c51;
      }

      .cls-5 {
        fill: #3f5a84;
      }
    </style>
    <linearGradient id="linear-gradient" x1="115.79" y1="80.29" x2="-18.4" y2="-66.98" gradientUnits="userSpaceOnUse">
      <stop offset="0" stop-color="#3f5a83"/>
      <stop offset=".58" stop-color="#a5bbdd"/>
      <stop offset="1" stop-color="#dfedf0"/>
    </linearGradient>
    <linearGradient id="linear-gradient-2" x1="123.09" y1="73.64" x2="-11.1" y2="-73.63" xlink:href="#linear-gradient"/>
  </defs>
  <g>
    <path class="cls-3" d="M133.7,74.36l-6.32,5.68c-.39.34-.92.46-1.42.3-.49-.16-.87-.56-.98-1.06l-4.41-19.21-5.4,35.19c-.11.69-.69,1.21-1.39,1.24-.02,0-.03,0-.05,0-.68,0-1.27-.47-1.42-1.14l-5.7-25.07-4.46,3.76c-.26.22-.6.34-.94.34h-7.03c1.26,8.84,3.66,17.06,6.96,24.32h15.41v-.02c.16,0,.32.02.49.02,13.54,0,24.54-10.84,24.82-24.32l-8.16-.05Z"/>
    <path class="cls-1" d="M100.67,71.48l5.89-4.96c.39-.33.92-.43,1.4-.27.48.16.85.56.96,1.06l4.53,19.93,5.39-35.14c.11-.69.69-1.21,1.39-1.24.66-.05,1.32.45,1.47,1.13l5.57,24.22,4.9-4.4c.27-.24.62-.37.97-.37h0l8.61.05c-1.13-11.73-10.41-21.07-22.11-22.29-3.03-9.86-11.51-17.33-21.93-18.89-2.92,9.03-4.56,19.13-4.56,29.78,0,3.88.22,7.69.64,11.4h6.87Z"/>
  </g>
  <g>
    <path class="cls-2" d="M178.58,58.16c-.85,4.87-4.43,8.09-10.82,8.09-7.63,0-11.31-5.15-11.31-11.91s3.64-12.25,11.64-12.25c6.84,0,9.96,3.98,10.42,8.01h-6.77c-.31-1.68-1.28-3.21-3.8-3.21-3.32,0-4.45,3.15-4.45,7.21,0,3.69.94,7.34,4.52,7.34,2.71,0,3.47-1.97,3.76-3.29h6.81Z"/>
    <path class="cls-2" d="M181.85,42.53h17.41v5.06h-10.73v4.53h10.04v5.08h-10.04v8.62h-6.68v-23.29Z"/>
    <path class="cls-2" d="M202.67,42.53h10c7.41,0,11.71,4.69,11.71,11.39s-4.19,11.9-11.82,11.9h-9.9v-23.29ZM209.51,60.88h2.61c3.7,0,5.22-2.6,5.22-6.96,0-3.86-1.42-6.45-5.14-6.45h-2.7v13.4Z"/>
    <path class="cls-2" d="M245.34,56.39h-10.61v4.37h11.84l-.76,5.06h-17.65v-23.29h17.62v5.06h-11.06v3.75h10.61v5.06Z"/>
    <path class="cls-4" d="M278.78,58.29c-.98,4.55-4.41,7.87-10.53,7.87-7.74,0-11.4-5.48-11.4-12.42s3.78-12.69,11.65-12.69c6.5,0,9.65,3.82,10.25,7.89h-5.28c-.51-1.88-1.82-3.76-5.14-3.76-4.35,0-6.03,3.92-6.03,8.36,0,4.13,1.46,8.47,6.17,8.47,3.44,0,4.53-2.31,4.99-3.73h5.31Z"/>
    <path class="cls-4" d="M281.05,65.82v-25.84h5.07v25.84h-5.07Z"/>
    <path class="cls-4" d="M306.67,56.62c0,5.54-3.32,9.62-9.12,9.62s-9-4.05-9-9.52,3.42-9.65,9.24-9.65c5.39,0,8.88,3.81,8.88,9.55ZM293.7,56.66c0,3.53,1.52,5.62,3.96,5.62s3.86-2.09,3.86-5.59c0-3.83-1.41-5.65-3.93-5.65-2.35,0-3.89,1.74-3.89,5.62Z"/>
    <path class="cls-4" d="M325.23,60.49c0,1.77,0,3.69.04,5.32h-4.97c-.07-.49-.11-1.47-.14-2.11-1.09,1.84-2.7,2.54-5.04,2.54-3.73,0-6.12-2.27-6.12-6.81v-11.94h5.07v10.92c0,2.02.63,3.7,2.82,3.7,2.31,0,3.27-1.23,3.27-4.86v-9.75h5.07v13Z"/>
    <path class="cls-4" d="M345.7,39.98v20.81c0,1.67,0,3.36.04,5.04h-4.88c-.1-.55-.2-1.5-.23-1.91-.89,1.44-2.46,2.34-5.2,2.34-4.63,0-7.58-3.72-7.58-9.44s3.13-9.74,8.32-9.74c2.64,0,4.05.93,4.46,1.75v-8.84h5.07ZM333.05,56.67c0,3.57,1.39,5.51,3.88,5.51,3.49,0,3.89-2.91,3.89-5.54,0-3.13-.44-5.5-3.76-5.5-2.66,0-4.01,2.08-4.01,5.54Z"/>
    <path class="cls-4" d="M161.91,96.65l-6.21-24.41h5.63c2.29,11.21,3.33,16.19,3.61,18.87h.04c.93-4.48,3.28-12.98,4.71-18.87h4.74c1.25,4.68,3.72,14.15,4.52,18.62h.04c.81-5.37,3.21-14.83,4.06-18.62h5.13l-6.61,24.41h-5.47c-1.29-5.4-3.43-13.29-4.29-17.47h-.04c-.89,4.34-3.09,12.56-4.39,17.47h-5.46Z"/>
    <path class="cls-4" d="M205.79,87.45c0,5.54-3.32,9.62-9.12,9.62s-9-4.05-9-9.52,3.42-9.65,9.24-9.65c5.39,0,8.88,3.81,8.88,9.55ZM192.82,87.49c0,3.53,1.52,5.62,3.96,5.62s3.86-2.09,3.86-5.59c0-3.83-1.41-5.65-3.93-5.65-2.35,0-3.89,1.74-3.89,5.62Z"/>
    <path class="cls-4" d="M208.57,83.29c0-1.82,0-3.44-.04-4.97h4.98c.07.41.13,2.23.13,3.22.81-2.09,2.76-3.62,5.88-3.64v4.84c-3.68-.09-5.88.9-5.88,5.92v7.99h-5.07v-13.35Z"/>
    <path class="cls-4" d="M226.74,86.06c1.35-1.83,3.78-4.67,6.31-7.73h5.82l-6.39,6.92,6.99,11.4h-5.75l-4.64-8.15-2.35,2.27v5.88h-5.07v-25.84h5.07v15.25Z"/>
    <path class="cls-4" d="M244.49,91.14c.38,1.46,1.58,2.28,3.47,2.28s2.56-.67,2.56-1.78c0-1.18-.79-1.64-3.41-2.28-5.97-1.47-6.95-3.32-6.95-5.91s1.9-5.55,7.43-5.55,7.44,3.03,7.6,5.52h-4.82c-.16-.68-.61-1.96-3-1.96-1.68,0-2.22.74-2.22,1.57,0,.91.57,1.35,3.54,2.05,6.11,1.42,6.98,3.52,6.98,6.2,0,3.03-2.31,5.8-7.89,5.8s-7.86-2.68-8.26-5.93h4.98Z"/>
    <path class="cls-4" d="M263.32,95.03v8.64h-5.04v-20.92c0-1.48,0-2.95-.04-4.42h4.91c.07.49.17,1.61.17,2.28.79-1.34,2.42-2.71,5.33-2.71,4.12,0,7.3,3.44,7.3,9.13,0,6.47-3.55,10.05-7.99,10.05-2.58,0-3.93-.98-4.63-2.05ZM270.8,87.22c0-3.36-1.36-5.25-3.77-5.25-2.88,0-3.9,1.85-3.9,5.54,0,3.5.94,5.53,3.69,5.53s3.99-2.09,3.99-5.82Z"/>
    <path class="cls-4" d="M293.83,91.91c0,1.75.14,4.29.25,4.73h-4.85c-.14-.36-.25-1.33-.26-1.79-.66,1.03-1.91,2.22-5.15,2.22-4.42,0-6.28-2.9-6.28-5.75,0-4.17,3.35-6.1,8.72-6.1h2.62v-1.12c0-1.3-.47-2.58-2.82-2.58-2.14,0-2.61.91-2.84,2.24h-4.82c.28-3.26,2.29-5.89,7.86-5.86,4.91.03,7.58,1.95,7.58,6.31v7.7ZM288.89,88.31h-2.07c-3.06,0-4.19.93-4.19,2.7,0,1.33.81,2.44,2.64,2.44,3.22,0,3.62-2.24,3.62-4.66v-.48Z"/>
    <path class="cls-4" d="M313.48,90.73c-.63,3.05-2.78,6.35-8.24,6.35s-8.64-3.95-8.64-9.45,3.3-9.72,8.88-9.72c6.18,0,7.89,4.43,8,6.5h-4.95c-.31-1.49-1.16-2.54-3.14-2.54-2.32,0-3.63,2.03-3.63,5.58,0,3.9,1.39,5.68,3.61,5.68,1.74,0,2.68-1.03,3.13-2.41h4.98Z"/>
    <path class="cls-4" d="M320.2,88.57c0,2.29,1.15,4.53,3.68,4.53,2.11,0,2.71-.85,3.2-1.96h5.08c-.65,2.24-2.65,5.93-8.41,5.93s-8.65-4.51-8.65-9.32c0-5.75,2.95-9.85,8.83-9.85,6.29,0,8.43,4.55,8.43,9.13,0,.62,0,1.02-.07,1.54h-12.09ZM327.28,85.46c-.04-2.13-.89-3.93-3.36-3.93s-3.41,1.68-3.61,3.93h6.97Z"/>
  </g>
  <path class="cls-5" d="M117.04,99.73c-.07,0-.14,0-.2,0h-.29s-21.88,0-21.88,0v-2h20.73v-.02s1.16,0,1.16,0c.09,0,.18,0,.28.01.07,0,.13.01.2.01,13.14,0,23.83-10.69,23.83-23.83,0-12.24-9.17-22.43-21.33-23.7l-.66-.07-.19-.63c-2.62-8.55-14.46-22.4-31.16-17.3l-.58-1.91c16.35-4.99,29.75,7.08,33.46,18,12.86,1.67,22.47,12.56,22.47,25.61,0,14.24-11.59,25.83-25.83,25.83Z"/>
  <path class="cls-4" d="M94.59,95.44c-1.47,0-2.72.92-3.21,2.22h-14.51c-.11-.34-.25-.66-.43-.96l8.06-7.36c.56.42,1.24.68,1.99.68,1.83,0,3.32-1.49,3.32-3.32s-1.49-3.32-3.32-3.32-3.32,1.49-3.32,3.32c0,.56.15,1.07.39,1.53l-8.1,7.4c-.33-.25-.69-.45-1.08-.59l2.15-12.39c1.58-.11,2.83-1.42,2.83-3.03,0-.24-.03-.46-.08-.68l7.59-4.26c.55.58,1.31.94,2.17.94,1.66,0,3-1.34,3-3s-1.34-3-3-3c-.04,0-.08.01-.12.01l-2.25-7.64c2.47-1.03,4.21-3.47,4.21-6.32,0-3.78-3.06-6.84-6.84-6.84-1.74,0-3.32.65-4.52,1.72l-7.17-6.21c.22-.39.36-.83.36-1.31,0-.28-.05-.54-.13-.79,2.9-4.03,6.95-7.19,11.56-9.02.56,1.11,1.66,1.88,2.96,1.99l.89,5.91c-.58.34-.97.96-.97,1.68,0,1.08.88,1.96,1.96,1.96s1.96-.88,1.96-1.96c0-.92-.64-1.69-1.51-1.9l-.88-5.86c1.45-.49,2.5-1.84,2.5-3.45,0-2.02-1.64-3.66-3.66-3.66-1.72,0-3.15,1.19-3.54,2.78-5.18,1.92-9.74,5.34-13.03,9.8-.24-.07-.5-.13-.77-.13-1.05,0-1.95.62-2.39,1.5-2.57-.32-5.2-.14-7.69.54-.76-1.09-2.02-1.81-3.45-1.81-2.31,0-4.19,1.87-4.19,4.19s1.87,4.19,4.19,4.19c.45,0,.87-.09,1.28-.22l5.07,10c-.46.38-.8.88-.97,1.46h-11.99c-.27-1.08-1.11-1.92-2.19-2.19.27-1.37.7-2.7,1.28-3.97.04,0,.09.01.13.01,1.08,0,1.96-.88,1.96-1.96s-.88-1.96-1.96-1.96-1.96.88-1.96,1.96c0,.51.2.96.51,1.31-.67,1.47-1.16,3.01-1.45,4.6-1.11.29-1.98,1.18-2.22,2.31-3.67,1.6-6.75,4.21-8.93,7.45-.24-.05-.5-.08-.76-.08-2.02,0-3.66,1.64-3.66,3.66,0,1.2.59,2.26,1.49,2.93-.42,1.64-.64,3.34-.64,5.08,0,2.99.64,5.86,1.8,8.47-.38.51-.61,1.13-.61,1.81,0,1.68,1.36,3.05,3.05,3.05.19,0,.37-.02.55-.06,1.93,2.32,4.38,4.23,7.24,5.55.31.57.91.96,1.6.96,1.01,0,1.83-.82,1.83-1.83s-.82-1.83-1.83-1.83c-.36,0-.69.11-.97.29-2.28-1.12-4.24-2.68-5.83-4.54.29-.46.46-1.01.46-1.59,0-.2-.02-.39-.06-.58l17.61-8.17c.69,1.13,1.7,2.04,2.92,2.59l-4.05,12.39c-.1,0-.19-.03-.29-.03-1.68,0-3.05,1.36-3.05,3.05s1.36,3.05,3.05,3.05c1.24,0,2.31-.75,2.78-1.82h11.36c.53,1.67,2.07,2.89,3.91,2.89s3.39-1.22,3.91-2.89h14.51c.5,1.3,1.74,2.22,3.21,2.22,1.91,0,3.45-1.54,3.45-3.45s-1.54-3.45-3.45-3.45ZM37.93,71.09c-.05-.77-.34-1.47-.79-2.04,1.84-2.7,4.38-4.91,7.41-6.32.55.73,1.42,1.2,2.4,1.2.51,0,.99-.14,1.41-.37l8.67,9.52c-.55.63-.99,1.36-1.27,2.16l-17.82-4.16ZM81.21,61.9l-4.4,14.71c-.17-.03-.34-.05-.51-.05-.34,0-.66.07-.96.17l-8.5-13.44c.6-.56.97-1.34.97-2.22,0-.09-.02-.18-.03-.28l9.79-2.84c.63,1.76,1.95,3.19,3.64,3.95ZM68.58,77.71c0-.08.01-.17.01-.25,0-3.08-2.11-5.66-4.96-6.4l.99-6.96s.09.01.14.01c.28,0,.54-.05.79-.12l8.55,13.5c-.26.27-.47.59-.62.95l-4.9-.74ZM63.21,63.68l-1.02,7.18c-.07,0-.14-.01-.21-.01-1.45,0-2.79.47-3.88,1.27l-8.65-9.51c.2-.29.33-.62.42-.96h11.91c.17.87.7,1.6,1.44,2.04ZM68.36,79.16l4.91.74c.11,1.12.81,2.07,1.8,2.5l-2.14,12.37c-.41,0-.79.08-1.17.19l-6.14-11.98c1.33-.88,2.32-2.23,2.74-3.82ZM87.51,70.04c-.88.52-1.48,1.47-1.48,2.57,0,.27.05.53.12.78l-7.55,4.24c-.13-.16-.28-.3-.44-.42l4.45-14.85c.46.1.93.15,1.42.15.42,0,.84-.04,1.24-.12l2.26,7.65ZM59.05,48.05c.98-.77,1.62-1.95,1.62-3.29,0-.02,0-.03,0-.05,1.44-.39,2.94-.59,4.47-.59.86,0,1.72.07,2.57.2.46.8,1.31,1.35,2.3,1.35.46,0,.88-.13,1.26-.33l7.24,6.26c-.84,1.14-1.34,2.53-1.34,4.05,0,.3.02.58.06.87l-9.92,2.88c-.54-.83-1.48-1.39-2.55-1.39-.21,0-.42.02-.62.06l-5.09-10.04ZM38.09,87.73c-.56-.69-1.4-1.15-2.37-1.15-.1,0-.19.02-.28.03-.97-2.25-1.5-4.7-1.5-7.27,0-1.5.19-2.96.54-4.37,1.51-.08,2.77-1.06,3.25-2.43l17.68,4.13c-.03.26-.05.52-.05.78,0,.74.13,1.44.35,2.1l-17.62,8.17ZM60.62,83.94c.44.09.89.14,1.35.14.83,0,1.62-.16,2.35-.44l6.14,11.98c-.67.51-1.17,1.21-1.42,2.03h-11.36c-.24-.54-.63-1-1.11-1.32l4.06-12.4Z"/>
</svg>