<?xml version="1.0" encoding="UTF-8" standalone="no"?><!DOCTYPE svg PUBLIC "-//W3C//DTD SVG 1.1//EN" "http://www.w3.org/Graphics/SVG/1.1/DTD/svg11.dtd"><svg width="100%" height="100%" viewBox="0 0 227 81" version="1.1" xmlns="http://www.w3.org/2000/svg" xmlns:xlink="http://www.w3.org/1999/xlink" xml:space="preserve" xmlns:serif="http://www.serif.com/" style="fill-rule:evenodd;clip-rule:evenodd;stroke-linejoin:round;stroke-miterlimit:2;"><g><path d="M113.34,0.54l-48.21,79.462" style="fill:none;fill-rule:nonzero;"/><g><path d="M226.673,0l-96.413,0l48.203,79.463l48.202,-79.463l0.008,0Z" style="fill:#cb463f;fill-rule:nonzero;"/><path d="M96.413,0l-96.413,0l16.335,26.933l31.868,52.53l48.202,-79.463l0.008,0Z" style="fill:#136ac9;fill-rule:nonzero;"/><g><path d="M154.658,80.003l-2.063,-2.505c-1.305,0.87 -2.655,1.702 -4.043,2.504l6.106,0Z" style="fill:#48a59d;fill-rule:nonzero;"/><path d="M155.423,80.003l6.12,-0.001l-3.278,-5.4l-2.842,5.401Z" style="fill:#48a59d;fill-rule:nonzero;"/><path d="M161.543,80.003l-5.34,-8.806l-10.358,-17.077l-1.207,-1.988l-6.465,-10.65l-2.423,-3.997l-7.312,-12.053l-6.218,-10.245l-3.082,-5.077l-1.163,-1.913l-4.642,-7.657l-11.198,18.465l-2.145,3.54l-11.76,19.387l-5.032,8.295l-10.658,17.565l-1.86,3.06l-5.55,9.15l96.413,0Z" style="fill:#48a59d;fill-rule:nonzero;"/><path d="M96.81,76.013l8.752,1.117c10.823,-3.172 21.931,-7.8 32.348,-17.7l-1.942,-1.38l7.26,-4.523l1.92,3.165l-1.53,6.788l-3.87,-2.745c-9.63,9.27 -19.845,14.078 -29.918,17.34l-12.457,0l-0.57,-2.062l0.007,-0Z" style="fill:#fff;fill-rule:nonzero;"/><path d="M158.115,78.075l-10.545,0c1.245,-0.728 2.46,-1.478 3.63,-2.258l-2.055,-2.489l5.137,-1.553l3.825,6.3l0.008,0Z" style="fill:#fff;fill-rule:nonzero;"/><path d="M105.533,17.122c1.62,-0.93 3.21,-1.897 4.725,-2.91l-1.703,-2.07l0.398,-0.652l7.417,-2.243l1.56,2.58l-3.757,7.133l-2.528,-3.068c-2.647,1.778 -5.46,3.42 -8.385,4.965l2.265,-3.735l0.008,0Z" style="fill:#fff;fill-rule:nonzero;"/><path d="M90.967,41.13c11.063,-3.262 21.931,-6.922 30.601,-12.952l-2.663,-3.226l5.895,-1.785l2.58,4.26l-2.512,4.755l-1.98,-2.4c-9.638,6.766 -21.728,10.636 -33.435,14.041l-0.308,0.314l1.822,-3l0,-0.007Z" style="fill:#fff;fill-rule:nonzero;"/><path d="M75.375,66.84c4.643,-1.47 9.503,-2.542 14.453,-3.623c0.419,-0.09 0.847,-0.187 1.267,-0.277l-0.96,-3.473l10.215,1.306c11.062,-2.88 21.982,-7.2 31.71,-17.303l-2.767,-1.965l4.815,-3l3.449,5.693l-0.614,2.745l-3.18,-2.258c-10.688,11.153 -22.718,15.623 -34.418,18.563l-6.72,5.272l-0.96,-3.487c-0.458,0.097 -0.923,0.202 -1.38,0.3c-5.76,1.26 -11.378,2.512 -16.658,4.402l1.748,-2.88l-0,-0.015Z" style="fill:#fff;fill-rule:nonzero;"/></g><rect x="88.275" y="18.315" width="50.122" height="5.782" style="fill:#525252;"/><path d="M218.865,1.927l-7.283,6.075l1.313,10.995l-0.173,0.285l-6.742,-11.834l3.263,-5.521l9.622,0Z" style="fill:#fff;fill-rule:nonzero;"/><path d="M195.233,1.927l-16.246,13.568l11.243,11.55l-14.61,28.875l1.988,-28.875l-14.7,-13.103l12.952,-12.015l19.373,0Z" style="fill:#fff;fill-rule:nonzero;"/><path d="M152.43,1.927l2.61,5.07l-9.6,13.448l1.898,-13.17l-5.333,-5.348l10.425,0Z" style="fill:#fff;fill-rule:nonzero;"/><rect x="153.405" y="54.945" width="50.122" height="5.782" style="fill:#525252;"/></g><path d="M16.695,23.797c0.57,-3.172 1.74,-6.247 3.525,-8.925c2.183,-3.39 5.243,-6.21 8.82,-8.1c1.77,-0.982 3.683,-1.657 5.633,-2.175c2.055,-0.465 4.185,-0.607 6.285,-0.442c4.2,0.405 8.22,2.182 11.227,5.01c3.038,2.805 5.033,6.607 5.655,10.522c0.675,4.088 -0.487,8.303 -2.895,11.265c-2.385,2.993 -5.977,4.748 -9.375,4.71c6.068,-3.202 8.003,-9.892 6,-14.422c-1.897,-4.943 -6.585,-8.04 -11.272,-8.212c-1.17,-0.046 -2.34,0.067 -3.48,0.359c-1.208,0.345 -2.423,0.735 -3.518,1.365c-2.235,1.163 -4.147,2.925 -5.52,5.056c-2.812,4.312 -3.255,9.66 -1.23,14.699c1.905,5.056 6.023,9.173 11.033,11.408c2.512,1.11 5.265,1.71 8.047,1.74c2.775,0.052 5.55,-0.547 8.438,-1.493c5.737,-1.957 11.317,-5.205 16.687,-8.715c0.398,-0.262 0.788,-0.54 1.178,-0.81l-23.73,39.12l-31.516,-51.945l0.008,-0.015Z" style="fill:#fff;fill-rule:nonzero;"/></g></svg>