<?xml version="1.0" encoding="UTF-8" standalone="no"?><!DOCTYPE svg PUBLIC "-//W3C//DTD SVG 1.1//EN" "http://www.w3.org/Graphics/SVG/1.1/DTD/svg11.dtd"><svg width="100%" height="100%" viewBox="0 0 201 33" version="1.1" xmlns="http://www.w3.org/2000/svg" xmlns:xlink="http://www.w3.org/1999/xlink" xml:space="preserve" xmlns:serif="http://www.serif.com/" style="fill-rule:evenodd;clip-rule:evenodd;stroke-linecap:round;stroke-miterlimit:2;"><g><path d="M119.212,0.94l-0,32.06" style="fill:none;stroke:#2e2951;stroke-width:0.5px;"/><path d="M47.172,12.154l0,-5.021l-1.521,-0l0,-2.12l1.581,0l0.04,-2.2l2.44,-1.08l0,2.62l-0.12,0.66l2.361,0l-0,2.12l-2.341,-0l0.1,0.681l0,3.9c0,1.121 0.261,1.301 1.221,1.301c0.46,-0 0.92,-0.08 1.38,-0.2l-0,1.9c-0.66,0.24 -1.481,0.48 -2.44,0.48c-1.901,-0 -2.701,-0.82 -2.701,-3.041Z" style="fill:#030404;fill-rule:nonzero;"/><path d="M52.271,10.014c-0,-3.04 1.801,-5.281 4.981,-5.281c2.081,-0 3.521,0.8 4.081,2.821l-2.36,0.9c-0.18,-0.9 -0.56,-1.74 -1.721,-1.74c-1.38,0 -2.18,1.02 -2.18,3.22c-0,2.101 0.62,3.321 2.18,3.321c1.001,-0 1.641,-0.52 1.881,-1.48l2.16,0.92c-0.48,1.34 -1.74,2.58 -4.121,2.58c-3.08,-0 -4.901,-2.08 -4.901,-5.261Z" style="fill:#030404;fill-rule:nonzero;"/><path d="M61.692,5.013l2.64,0l0,1.341c0,0.299 -0.1,1.32 -0.1,1.32l0.141,-0c0.519,-1.801 1.76,-2.901 3.44,-2.901c1.74,0 2.641,1.18 2.801,2.801l0.12,-0c0.58,-1.801 1.82,-2.801 3.42,-2.801c1.921,0 2.801,1.38 2.801,3.641l0,6.621l-2.721,-0l0,-5.921c0,-1.4 -0.259,-2.081 -1.26,-2.081c-1.02,0 -2.06,0.741 -2.26,2.781l-0,5.221l-2.701,-0l0,-5.921c0,-1.64 -0.5,-2.061 -1.4,-2.061c-1.1,-0 -2.161,0.941 -2.201,2.901l0,5.081l-2.72,-0l0,-10.022Z" style="fill:#030404;fill-rule:nonzero;"/><path d="M78.071,0.352l2.621,0l0,5.561c0,0.2 -0.14,1.761 -0.14,1.761l0.12,-0c0.54,-1.801 1.8,-2.901 3.5,-2.901c1.921,0 3.021,1.16 3.021,3.621l0,6.641l-2.74,-0l0,-5.921c0,-1.64 -0.641,-2.061 -1.561,-2.061c-1.14,-0 -2.14,1.041 -2.2,3.061l0,4.921l-2.621,-0l-0,-14.683Z" style="fill:#030404;fill-rule:nonzero;"/><path d="M88.071,10.014c-0,-3.04 1.8,-5.281 4.981,-5.281c2.08,-0 3.521,0.8 4.081,2.821l-2.361,0.9c-0.18,-0.9 -0.56,-1.74 -1.72,-1.74c-1.381,0 -2.181,1.02 -2.181,3.22c0,2.101 0.62,3.321 2.181,3.321c1,-0 1.64,-0.52 1.88,-1.48l2.161,0.92c-0.481,1.34 -1.741,2.58 -4.121,2.58c-3.081,-0 -4.901,-2.08 -4.901,-5.261Z" style="fill:#030404;fill-rule:nonzero;"/><path d="M96.791,10.014c0,-3.04 1.8,-5.281 4.981,-5.281c2.08,-0 3.521,0.8 4.081,2.821l-2.361,0.9c-0.18,-0.9 -0.56,-1.74 -1.72,-1.74c-1.38,0 -2.181,1.02 -2.181,3.22c0,2.101 0.62,3.321 2.181,3.321c1,-0 1.641,-0.52 1.88,-1.48l2.161,0.92c-0.481,1.34 -1.741,2.58 -4.121,2.58c-3.081,-0 -4.901,-2.08 -4.901,-5.261Z" style="fill:#030404;fill-rule:nonzero;"/><path d="M47.341,20.143l-1.181,-0l-0,-0.42l2.83,-0l0,0.42l-1.175,-0l-0,3.52l-0.474,0l-0,-3.52Z" style="fill:#030404;fill-rule:nonzero;"/><path d="M51,21.954l0,-0.036c0,-0.576 -0.221,-0.935 -0.785,-0.935c-0.456,-0 -0.84,0.275 -0.875,0.971l1.66,0Zm-2.128,0.222c0,-0.971 0.54,-1.547 1.361,-1.547c0.882,-0 1.242,0.611 1.242,1.415c-0,0.072 -0,0.162 -0.007,0.228l-2.135,0c0.037,0.732 0.384,1.086 0.93,1.086c0.39,-0 0.654,-0.174 0.792,-0.408l0.323,0.221c-0.221,0.312 -0.575,0.552 -1.139,0.552c-0.882,-0 -1.373,-0.588 -1.367,-1.547Z" style="fill:#030404;fill-rule:nonzero;"/><path d="M52.562,22.398l0.209,-0.252l-0,-0.018l-0.18,-0.222l-0.827,-1.211l0.522,-0l0.599,0.905l0.138,0.264l0.024,0l0.162,-0.299l0.576,-0.87l0.522,-0l-0.822,1.163l-0.21,0.258l0,0.024l0.174,0.204l0.918,1.319l-0.528,0l-0.672,-0.989l-0.138,-0.27l-0.024,0l-0.18,0.318l-0.641,0.941l-0.54,0l0.918,-1.265Z" style="fill:#030404;fill-rule:nonzero;"/><path d="M56.491,22.542l0,-0.582c-0.066,0.102 -0.336,0.192 -0.588,0.252c-0.546,0.114 -0.851,0.294 -0.851,0.66c-0,0.329 0.227,0.491 0.521,0.491c0.486,-0 0.876,-0.354 0.918,-0.821Zm-1.913,0.372c0.006,-0.546 0.425,-0.786 1.055,-0.906c0.594,-0.12 0.852,-0.18 0.858,-0.336l0,-0.048c0,-0.408 -0.21,-0.623 -0.666,-0.623c-0.378,0 -0.701,0.21 -0.833,0.473l-0.366,-0.192c0.204,-0.383 0.678,-0.641 1.235,-0.641c0.72,-0 1.086,0.336 1.086,1.037l-0,1.002c-0,0.617 0.066,0.881 0.15,0.983l-0.468,0c-0.066,-0.09 -0.114,-0.282 -0.126,-0.678c-0.132,0.432 -0.546,0.732 -1.038,0.732c-0.593,-0.006 -0.887,-0.354 -0.887,-0.803Z" style="fill:#030404;fill-rule:nonzero;"/><path d="M57.512,23.117l0.318,-0.234c0.21,0.349 0.527,0.475 0.863,0.475c0.348,-0 0.594,-0.163 0.594,-0.457c-0,-0.323 -0.348,-0.443 -0.786,-0.593c-0.443,-0.15 -0.876,-0.33 -0.876,-0.845c0,-0.51 0.45,-0.828 1.05,-0.828c0.528,0 0.845,0.216 1.043,0.51l-0.317,0.245c-0.12,-0.203 -0.366,-0.401 -0.738,-0.401c-0.336,0 -0.576,0.18 -0.576,0.432c0,0.329 0.324,0.431 0.744,0.581c0.462,0.162 0.912,0.336 0.912,0.881c0,0.528 -0.444,0.834 -1.068,0.834c-0.486,0 -0.924,-0.192 -1.163,-0.6Z" style="fill:#030404;fill-rule:nonzero;"/><path d="M61.184,21.696c-0,-1.253 0.731,-2.05 1.811,-2.05c0.809,-0 1.331,0.407 1.541,1.199l-0.462,0.102c-0.186,-0.648 -0.522,-0.912 -1.085,-0.912c-0.804,-0 -1.325,0.63 -1.325,1.649l0,0.018c0,0.984 0.461,1.643 1.301,1.643c0.647,0 0.989,-0.354 1.133,-0.959l0.456,0.09c-0.18,0.816 -0.738,1.259 -1.596,1.259c-1.121,-0 -1.774,-0.834 -1.774,-2.039Z" style="fill:#030404;fill-rule:nonzero;"/><path d="M65.191,19.286l0.45,0l-0,1.804l-0.03,0.444l0.036,0c0.114,-0.455 0.498,-0.899 1.085,-0.899c0.6,0 0.894,0.39 0.894,1.097l-0,1.931l-0.468,0l-0,-1.817c-0,-0.564 -0.203,-0.809 -0.611,-0.809c-0.48,-0 -0.888,0.455 -0.906,1.181l-0,1.445l-0.45,0l0,-4.377Z" style="fill:#030404;fill-rule:nonzero;"/><path d="M68.468,20.695l0.455,-0l-0,2.968l-0.455,0l0,-2.968Zm-0.031,-0.6l-0,-0.558c-0,-0.024 0.013,-0.035 0.037,-0.035l0.443,-0c0.019,-0 0.03,0.011 0.03,0.035l-0,0.558c-0,0.018 -0.011,0.036 -0.03,0.036l-0.443,-0c-0.024,-0 -0.037,-0.018 -0.037,-0.036Z" style="fill:#030404;fill-rule:nonzero;"/><rect x="69.848" y="19.286" width="0.455" height="4.377" style="fill:#030404;fill-rule:nonzero;"/><path d="M73.225,22.236l-0,-0.156c-0,-0.582 -0.3,-1.091 -0.912,-1.091c-0.564,0 -0.863,0.443 -0.863,1.145c-0,0.744 0.305,1.205 0.839,1.205c0.546,-0 0.936,-0.503 0.936,-1.103Zm-2.255,-0.078c0,-0.977 0.48,-1.529 1.229,-1.529c0.534,-0 0.882,0.33 1.02,0.731l0.03,-0l-0.03,-0.509l0,-1.565l0.443,0l0,4.377l-0.432,0l0.006,-0.647l0.007,-0.192c-0.126,0.515 -0.534,0.887 -1.074,0.887c-0.732,0 -1.199,-0.605 -1.199,-1.553Z" style="fill:#030404;fill-rule:nonzero;"/><path d="M75.751,19.723l0.756,-0l1.097,2.885l0.162,0.624l0.024,0l0.144,-0.624l1.104,-2.885l0.749,-0l0,3.94l-0.45,0l-0,-2.14l0.042,-1.488l-0.036,-0l-0.36,1.032l-1.019,2.596l-0.384,0l-1.007,-2.542l-0.39,-1.086l-0.036,-0l0.06,1.488l0,2.14l-0.456,0l-0,-3.94Z" style="fill:#030404;fill-rule:nonzero;"/><path d="M82.62,21.954l0,-0.036c0,-0.576 -0.222,-0.935 -0.785,-0.935c-0.456,-0 -0.84,0.275 -0.876,0.971l1.661,0Zm-2.128,0.222c-0,-0.971 0.539,-1.547 1.361,-1.547c0.881,-0 1.241,0.611 1.241,1.415c0,0.072 0,0.162 -0.006,0.228l-2.135,0c0.036,0.732 0.384,1.086 0.93,1.086c0.389,-0 0.654,-0.174 0.791,-0.408l0.324,0.221c-0.222,0.312 -0.576,0.552 -1.139,0.552c-0.882,-0 -1.374,-0.588 -1.367,-1.547Z" style="fill:#030404;fill-rule:nonzero;"/><path d="M83.749,20.695l0.45,-0l-0,0.419l-0.024,0.444l0.031,-0c0.119,-0.455 0.503,-0.923 1.085,-0.923c0.605,0 0.899,0.413 0.899,1.121l0,1.907l-0.467,0l-0,-1.817c-0,-0.564 -0.204,-0.809 -0.606,-0.809c-0.486,-0 -0.888,0.431 -0.906,1.151l-0,1.475l-0.462,0l0,-2.968Z" style="fill:#030404;fill-rule:nonzero;"/><path d="M87.182,22.866l-0,-1.781l-0.516,0l0,-0.39l0.534,-0l0.006,-0.798l0.407,-0.192l-0,0.762l-0.018,0.228l0.846,-0l0,0.39l-0.846,0l0.018,0.246l-0,1.451c-0,0.431 0.084,0.534 0.432,0.534c0.162,-0 0.324,-0.031 0.492,-0.084l0,0.359c-0.168,0.06 -0.414,0.114 -0.63,0.114c-0.522,-0 -0.725,-0.222 -0.725,-0.839Z" style="fill:#030404;fill-rule:nonzero;"/><path d="M90.727,22.542l-0,-0.582c-0.066,0.102 -0.336,0.192 -0.588,0.252c-0.546,0.114 -0.851,0.294 -0.851,0.66c0,0.329 0.227,0.491 0.521,0.491c0.486,-0 0.876,-0.354 0.918,-0.821Zm-1.914,0.372c0.007,-0.546 0.426,-0.786 1.056,-0.906c0.594,-0.12 0.852,-0.18 0.858,-0.336l-0,-0.048c-0,-0.408 -0.21,-0.623 -0.666,-0.623c-0.378,0 -0.702,0.21 -0.833,0.473l-0.366,-0.192c0.203,-0.383 0.678,-0.641 1.235,-0.641c0.719,-0 1.086,0.336 1.086,1.037l-0,1.002c-0,0.617 0.066,0.881 0.149,0.983l-0.467,0c-0.066,-0.09 -0.115,-0.282 -0.126,-0.678c-0.132,0.432 -0.546,0.732 -1.038,0.732c-0.594,-0.006 -0.888,-0.354 -0.888,-0.803Z" style="fill:#030404;fill-rule:nonzero;"/><rect x="92.054" y="19.286" width="0.455" height="4.377" style="fill:#030404;fill-rule:nonzero;"/><path d="M47.33,26.601l0.474,-0l0,1.716l2.027,-0l0,-1.716l0.467,-0l0,3.94l-0.467,-0l0,-1.811l-2.027,0l0,1.811l-0.474,-0l0,-3.94Z" style="fill:#030404;fill-rule:nonzero;"/><path d="M53.131,28.832l0,-0.036c0,-0.576 -0.222,-0.936 -0.785,-0.936c-0.456,0 -0.84,0.276 -0.876,0.972l1.661,-0Zm-2.129,0.222c-0,-0.971 0.54,-1.547 1.361,-1.547c0.882,-0 1.242,0.611 1.242,1.415c-0,0.072 -0,0.162 -0.006,0.228l-2.135,0c0.036,0.731 0.384,1.085 0.93,1.085c0.389,-0 0.653,-0.173 0.791,-0.407l0.324,0.221c-0.222,0.312 -0.576,0.552 -1.139,0.552c-0.882,0 -1.374,-0.588 -1.368,-1.547Z" style="fill:#030404;fill-rule:nonzero;"/><path d="M55.897,29.42l-0,-0.582c-0.066,0.102 -0.336,0.192 -0.587,0.252c-0.546,0.114 -0.852,0.294 -0.852,0.66c0,0.329 0.228,0.491 0.521,0.491c0.486,-0 0.876,-0.354 0.918,-0.821Zm-1.913,0.372c0.006,-0.546 0.426,-0.786 1.056,-0.906c0.593,-0.12 0.851,-0.18 0.857,-0.336l-0,-0.048c-0,-0.408 -0.21,-0.623 -0.666,-0.623c-0.378,0 -0.701,0.209 -0.833,0.473l-0.366,-0.192c0.204,-0.384 0.678,-0.641 1.236,-0.641c0.719,0 1.085,0.336 1.085,1.037l0,1.002c0,0.617 0.066,0.881 0.15,0.983l-0.468,-0c-0.066,-0.09 -0.114,-0.282 -0.126,-0.678c-0.132,0.432 -0.546,0.732 -1.037,0.732c-0.594,-0.006 -0.888,-0.354 -0.888,-0.803Z" style="fill:#030404;fill-rule:nonzero;"/><rect x="57.224" y="26.164" width="0.456" height="4.377" style="fill:#030404;fill-rule:nonzero;"/><path d="M58.754,29.744l0,-1.781l-0.516,-0l-0,-0.39l0.534,-0l0.006,-0.798l0.408,-0.192l0,0.762l-0.019,0.228l0.846,-0l0,0.39l-0.846,-0l0.019,0.246l0,1.451c0,0.431 0.084,0.533 0.431,0.533c0.162,0 0.324,-0.03 0.492,-0.084l0,0.36c-0.168,0.06 -0.414,0.114 -0.63,0.114c-0.522,-0 -0.725,-0.222 -0.725,-0.839Z" style="fill:#030404;fill-rule:nonzero;"/><path d="M60.62,26.164l0.45,0l-0,1.804l-0.03,0.444l0.036,0c0.114,-0.455 0.498,-0.899 1.085,-0.899c0.6,0 0.894,0.389 0.894,1.097l0,1.931l-0.468,-0l0,-1.817c0,-0.564 -0.204,-0.809 -0.611,-0.809c-0.48,-0 -0.888,0.455 -0.906,1.181l-0,1.445l-0.45,-0l-0,-4.377Z" style="fill:#030404;fill-rule:nonzero;"/><path d="M64.724,28.574c-0,-1.253 0.732,-2.05 1.811,-2.05c0.81,0 1.331,0.407 1.541,1.199l-0.461,0.102c-0.186,-0.648 -0.522,-0.912 -1.086,-0.912c-0.803,0 -1.325,0.63 -1.325,1.649l0,0.018c0,0.984 0.462,1.643 1.301,1.643c0.648,0 0.99,-0.354 1.134,-0.959l0.455,0.09c-0.179,0.816 -0.738,1.259 -1.595,1.259c-1.121,-0 -1.775,-0.834 -1.775,-2.039Z" style="fill:#030404;fill-rule:nonzero;"/><path d="M70.387,29.42l0,-0.582c-0.066,0.102 -0.336,0.192 -0.588,0.252c-0.546,0.114 -0.851,0.294 -0.851,0.66c-0,0.329 0.227,0.491 0.521,0.491c0.486,-0 0.876,-0.354 0.918,-0.821Zm-1.913,0.372c0.006,-0.546 0.425,-0.786 1.055,-0.906c0.594,-0.12 0.852,-0.18 0.858,-0.336l0,-0.048c0,-0.408 -0.21,-0.623 -0.666,-0.623c-0.378,0 -0.701,0.209 -0.833,0.473l-0.366,-0.192c0.204,-0.384 0.678,-0.641 1.235,-0.641c0.72,0 1.086,0.336 1.086,1.037l0,1.002c0,0.617 0.066,0.881 0.15,0.983l-0.468,-0c-0.066,-0.09 -0.114,-0.282 -0.126,-0.678c-0.132,0.432 -0.546,0.732 -1.038,0.732c-0.593,-0.006 -0.887,-0.354 -0.887,-0.803Z" style="fill:#030404;fill-rule:nonzero;"/><path d="M71.714,27.573l0.444,-0l-0,0.413l-0.066,0.942l0.036,-0c0.09,-0.677 0.42,-1.397 1.073,-1.397l0.102,0l0,0.545c-0.06,-0.006 -0.126,-0.006 -0.198,-0.006c-0.557,0 -0.863,0.546 -0.941,1.224l0,1.247l-0.45,-0l-0,-2.968Z" style="fill:#030404;fill-rule:nonzero;"/><path d="M75.541,28.832l0,-0.036c0,-0.576 -0.222,-0.936 -0.786,-0.936c-0.456,0 -0.839,0.276 -0.875,0.972l1.661,-0Zm-2.129,0.222c0,-0.971 0.54,-1.547 1.361,-1.547c0.882,-0 1.242,0.611 1.242,1.415c-0,0.072 -0,0.162 -0.007,0.228l-2.134,0c0.036,0.731 0.383,1.085 0.929,1.085c0.39,-0 0.654,-0.173 0.792,-0.407l0.323,0.221c-0.221,0.312 -0.575,0.552 -1.139,0.552c-0.882,0 -1.373,-0.588 -1.367,-1.547Z" style="fill:#030404;fill-rule:nonzero;"/><path d="M77.498,28.574c0,-1.253 0.731,-2.05 1.811,-2.05c0.809,0 1.331,0.407 1.541,1.199l-0.462,0.102c-0.186,-0.648 -0.522,-0.912 -1.085,-0.912c-0.804,0 -1.325,0.63 -1.325,1.649l-0,0.018c-0,0.984 0.461,1.643 1.301,1.643c0.647,0 0.989,-0.354 1.133,-0.959l0.456,0.09c-0.18,0.816 -0.738,1.259 -1.596,1.259c-1.121,-0 -1.774,-0.834 -1.774,-2.039Z" style="fill:#030404;fill-rule:nonzero;"/><path d="M83.568,29.048c0,-0.708 -0.311,-1.181 -0.911,-1.181c-0.606,0 -0.948,0.479 -0.948,1.181c-0,0.72 0.336,1.187 0.93,1.187c0.588,-0 0.929,-0.467 0.929,-1.187Zm-2.339,0.006c-0,-0.876 0.535,-1.547 1.44,-1.547c0.888,-0 1.379,0.605 1.379,1.535c-0,0.918 -0.557,1.559 -1.409,1.559c-0.911,0 -1.41,-0.594 -1.41,-1.547Z" style="fill:#030404;fill-rule:nonzero;"/><path d="M84.686,27.573l0.449,-0l0,0.419l-0.024,0.444l0.031,-0c0.119,-0.455 0.503,-0.923 1.085,-0.923c0.605,0 0.899,0.413 0.899,1.121l-0,1.907l-0.467,-0l-0,-1.817c-0,-0.564 -0.204,-0.809 -0.606,-0.809c-0.486,-0 -0.887,0.431 -0.906,1.151l0,1.475l-0.461,-0l-0,-2.968Z" style="fill:#030404;fill-rule:nonzero;"/><path d="M87.686,29.995l0.318,-0.234c0.21,0.348 0.528,0.474 0.863,0.474c0.348,-0 0.594,-0.162 0.594,-0.456c-0,-0.323 -0.348,-0.443 -0.786,-0.593c-0.443,-0.15 -0.875,-0.33 -0.875,-0.846c0,-0.509 0.449,-0.827 1.05,-0.827c0.527,0 0.845,0.216 1.043,0.51l-0.318,0.245c-0.12,-0.203 -0.366,-0.401 -0.738,-0.401c-0.336,0 -0.575,0.179 -0.575,0.431c0,0.33 0.323,0.432 0.743,0.582c0.462,0.162 0.912,0.336 0.912,0.881c-0,0.528 -0.444,0.834 -1.067,0.834c-0.486,0 -0.924,-0.192 -1.164,-0.6Z" style="fill:#030404;fill-rule:nonzero;"/><path d="M92.658,29.048c-0,-0.708 -0.311,-1.181 -0.911,-1.181c-0.606,0 -0.948,0.479 -0.948,1.181c0,0.72 0.336,1.187 0.93,1.187c0.587,-0 0.929,-0.467 0.929,-1.187Zm-2.339,0.006c0,-0.876 0.534,-1.547 1.44,-1.547c0.887,-0 1.379,0.605 1.379,1.535c0,0.918 -0.557,1.559 -1.409,1.559c-0.912,0 -1.41,-0.594 -1.41,-1.547Z" style="fill:#030404;fill-rule:nonzero;"/><path d="M93.781,27.573l0.444,-0l-0,0.413l-0.066,0.942l0.036,-0c0.09,-0.677 0.42,-1.397 1.074,-1.397l0.102,0l0,0.545c-0.06,-0.006 -0.126,-0.006 -0.198,-0.006c-0.558,0 -0.864,0.546 -0.942,1.224l0,1.247l-0.45,-0l-0,-2.968Z" style="fill:#030404;fill-rule:nonzero;"/><path d="M96.025,29.744l0,-1.781l-0.515,-0l0,-0.39l0.533,-0l0.006,-0.798l0.408,-0.192l0,0.762l-0.018,0.228l0.846,-0l0,0.39l-0.846,-0l0.018,0.246l0,1.451c0,0.431 0.084,0.533 0.432,0.533c0.162,0 0.323,-0.03 0.491,-0.084l-0,0.36c-0.168,0.06 -0.413,0.114 -0.629,0.114c-0.522,-0 -0.726,-0.222 -0.726,-0.839Z" style="fill:#030404;fill-rule:nonzero;"/><path d="M97.897,27.573l0.456,-0l-0,2.968l-0.456,-0l0,-2.968Zm-0.03,-0.6l-0,-0.558c-0,-0.024 0.012,-0.036 0.036,-0.036l0.444,0c0.018,0 0.03,0.012 0.03,0.036l-0,0.558c-0,0.018 -0.012,0.036 -0.03,0.036l-0.444,-0c-0.024,-0 -0.036,-0.018 -0.036,-0.036Z" style="fill:#030404;fill-rule:nonzero;"/><path d="M99.187,29.462l-0,-1.889l0.468,-0l-0,1.835c-0,0.552 0.168,0.785 0.576,0.785c0.456,0 0.792,-0.438 0.834,-1.079l0,-1.541l0.468,-0l-0,2.968l-0.444,-0l-0,-0.329l0.024,-0.51l-0.03,-0c-0.054,0.318 -0.366,0.899 -0.977,0.893c-0.643,-0.006 -0.919,-0.42 -0.919,-1.133Z" style="fill:#030404;fill-rule:nonzero;"/><path d="M102.452,27.573l0.449,-0l0,0.419l-0.024,0.444l0.031,-0c0.119,-0.45 0.467,-0.923 1.055,-0.923c0.546,0 0.791,0.396 0.822,0.923l0.029,-0c0.163,-0.576 0.552,-0.923 1.032,-0.923c0.582,0 0.816,0.437 0.816,1.127l0,1.901l-0.468,-0l0,-1.811c0,-0.534 -0.114,-0.809 -0.516,-0.809c-0.42,0 -0.816,0.372 -0.869,1.139l-0,1.481l-0.468,-0l0,-1.817c0,-0.564 -0.156,-0.809 -0.552,-0.809c-0.479,-0 -0.857,0.431 -0.875,1.151l0,1.475l-0.462,-0l0,-2.968Z" style="fill:#030404;fill-rule:nonzero;"/><path d="M12.601,21.434l19.474,-4.13l-0.304,-6.387c-0.012,-0.26 -0.241,-0.455 -0.5,-0.427l-30.869,3.394c-0.413,0.046 -0.55,0.581 -0.209,0.819l4.002,2.79c0.095,0.067 0.161,0.168 0.184,0.282l1.426,7.137c0.05,0.251 0.3,0.41 0.549,0.35l6.144,-1.493l-0.251,-1.833c-0.032,-0.234 0.122,-0.453 0.354,-0.502Z" style="fill:#e23c30;fill-rule:nonzero;"/><path d="M34.816,16.723l-2.741,0.581l0.063,1.318c0.01,0.216 -0.134,0.409 -0.345,0.46l-19.295,4.687l1.208,8.841c0.039,0.289 0.338,0.464 0.61,0.36l19.351,-7.488c0.17,-0.066 0.284,-0.228 0.288,-0.411l0.135,-5.785c0.002,-0.088 0.029,-0.173 0.078,-0.245l1.113,-1.622c0.231,-0.336 -0.067,-0.781 -0.465,-0.696Z" style="fill:#1969b3;fill-rule:nonzero;"/><path d="M32.138,18.622l-0.063,-1.318l-19.474,4.13c-0.232,0.049 -0.386,0.268 -0.354,0.502l0.251,1.833l19.295,-4.687c0.211,-0.051 0.355,-0.244 0.345,-0.46Z" style="fill:#eb4825;fill-rule:nonzero;"/><path d="M32.138,18.622l-0.063,-1.318l-19.474,4.13c-0.232,0.049 -0.386,0.268 -0.354,0.502l0.251,1.833l19.295,-4.687c0.211,-0.051 0.355,-0.244 0.345,-0.46Z" style="fill:#2e2951;fill-rule:nonzero;"/><path d="M17.178,17.199l2.324,-1.688l-2.872,-0l-0.888,-2.732l-0.888,2.732l-2.872,-0l2.324,1.688l-0.888,2.732l2.324,-1.688l2.324,1.688l-0.888,-2.732Z" style="fill:#fff;fill-rule:nonzero;"/><path d="M9.917,12.051c-0.276,0 -0.5,-0.223 -0.5,-0.5l-0,-9.671c-0,-0.519 0.422,-0.94 0.941,-0.94l10.768,-0c0.519,-0 0.941,0.421 0.941,0.94l-0,8.39c-0,0.276 -0.224,0.5 -0.5,0.5c-0.277,0 -0.5,-0.224 -0.5,-0.5l-0,-8.39l-10.709,0.06l0.059,9.611c-0,0.277 -0.223,0.5 -0.5,0.5Z" style="fill:#2e2951;fill-rule:nonzero;"/><path d="M134.471,2.902l-4.561,0l0,-0.939l10.222,-0l0,0.939l-4.581,0l-0,12.343l-1.08,0l-0,-12.343Z" style="fill:#221e1f;fill-rule:nonzero;"/><path d="M144.572,8.444l-4.062,-6.481l1.2,-0l3.482,5.68l3.6,-5.68l1.161,-0l-4.162,6.441l4.322,6.841l-1.2,0l-3.742,-6.062l-3.86,6.062l-1.181,0l4.442,-6.801Z" style="fill:#221e1f;fill-rule:nonzero;"/><rect x="150.251" y="9.504" width="4.141" height="0.92" style="fill:#221e1f;fill-rule:nonzero;"/><path d="M155.491,8.603c-0,-4.16 2.541,-6.881 6.161,-6.881c2.98,0 5.241,1.5 5.821,4.941l-2.12,0.02c-0.44,-2.36 -1.841,-3.121 -3.721,-3.121c-2.461,0 -4.101,1.881 -4.101,4.962l0,0.159c0,3.101 1.621,4.962 4.061,4.962c1.92,0 3.401,-0.82 3.801,-3.261l2.101,0c-0.521,3.54 -2.881,5.101 -5.942,5.101c-3.541,0 -6.061,-2.74 -6.061,-6.882Z" style="fill:#221e1f;fill-rule:nonzero;"/><path d="M171.751,3.703l-4.241,-0l-0,-1.74l10.462,-0l0,1.74l-4.261,-0l-0,11.542l-1.96,0l0,-11.542Z" style="fill:#221e1f;fill-rule:nonzero;"/><path d="M183.192,8.464c2.5,0 3.36,-1.401 3.36,-2.701c0,-1.44 -0.9,-2.121 -3.1,-2.121l-2.801,0l0,4.822l2.541,0Zm-4.501,-6.501l4.78,-0c3.541,-0 5.102,1.379 5.102,3.62c-0,1.84 -1.12,3.3 -3.261,3.68c2.16,0.601 3.121,2.341 3.48,5.482c0,0.1 0.04,0.4 0.061,0.5l-2.081,0l-0.02,-0.42c-0.36,-2.861 -1.44,-4.721 -4.3,-4.721l-1.801,0l0,5.141l-1.96,0l-0,-13.282Z" style="fill:#221e1f;fill-rule:nonzero;"/><path d="M189.87,1.963l2.299,-0l6.622,9.941l0,-9.941l1.941,-0l-0,13.302l-1.921,-0l-7.001,-10.482l-0,10.462l-1.94,0l-0,-13.282Z" style="fill:#221e1f;fill-rule:nonzero;"/><path d="M131.867,20.951l-1.144,0l0,-0.527l2.878,-0l-0,0.527l-1.14,0l-0,3.425l-0.594,0l0,-3.425Z" style="fill:#221e1f;fill-rule:nonzero;"/><path d="M135.659,22.619l-0,-0.025c-0,-0.503 -0.185,-0.839 -0.701,-0.839c-0.408,0 -0.738,0.246 -0.773,0.864l1.474,0Zm-2.068,0.263c0,-0.971 0.533,-1.565 1.39,-1.565c0.918,0 1.278,0.63 1.278,1.469l-0.006,0.222l-2.081,0c0.042,0.684 0.366,0.978 0.851,0.978c0.355,0 0.613,-0.168 0.745,-0.396l0.395,0.276c-0.228,0.318 -0.594,0.576 -1.169,0.576c-0.906,0 -1.41,-0.594 -1.403,-1.56Z" style="fill:#221e1f;fill-rule:nonzero;"/><path d="M137.406,23.08l0.192,-0.227l0,-0.018l-0.174,-0.228l-0.816,-1.218l0.654,-0l0.54,0.852l0.132,0.276l0.018,0l0.144,-0.3l0.509,-0.828l0.654,-0l-0.816,1.194l-0.198,0.239l-0,0.024l0.168,0.199l0.9,1.331l-0.66,0l-0.599,-0.93l-0.126,-0.264l-0.031,0l-0.149,0.294l-0.582,0.9l-0.672,0l0.912,-1.296Z" style="fill:#221e1f;fill-rule:nonzero;"/><path d="M141.497,23.302l-0,-0.611c-0.065,0.095 -0.264,0.179 -0.516,0.246c-0.509,0.119 -0.773,0.287 -0.773,0.617c-0,0.294 0.21,0.444 0.462,0.444c0.42,0 0.762,-0.294 0.827,-0.696Zm-1.877,0.306c-0,-0.558 0.42,-0.791 1.038,-0.917c0.587,-0.121 0.821,-0.187 0.839,-0.3l-0,-0.048c-0,-0.366 -0.197,-0.558 -0.617,-0.558c-0.372,-0 -0.648,0.204 -0.768,0.456l-0.456,-0.24c0.21,-0.408 0.696,-0.666 1.283,-0.666c0.75,0 1.128,0.354 1.128,1.067l0,0.99c0,0.624 0.072,0.882 0.168,0.984l-0.593,0c-0.073,-0.079 -0.121,-0.294 -0.139,-0.654c-0.126,0.42 -0.522,0.714 -0.995,0.714c-0.582,-0.006 -0.894,-0.348 -0.888,-0.828Z" style="fill:#221e1f;fill-rule:nonzero;"/><path d="M142.728,23.818l0.39,-0.288c0.198,0.33 0.498,0.462 0.816,0.462c0.293,-0 0.521,-0.132 0.521,-0.39c0,-0.294 -0.323,-0.402 -0.768,-0.557c-0.419,-0.145 -0.838,-0.342 -0.838,-0.858c-0,-0.51 0.443,-0.858 1.09,-0.858c0.535,0 0.852,0.216 1.062,0.516l-0.396,0.312c-0.095,-0.18 -0.324,-0.39 -0.677,-0.39c-0.3,0 -0.504,0.156 -0.504,0.372c-0,0.294 0.324,0.402 0.714,0.533c0.456,0.163 0.887,0.348 0.887,0.906c-0,0.54 -0.462,0.858 -1.116,0.858c-0.491,-0 -0.953,-0.204 -1.181,-0.618Z" style="fill:#221e1f;fill-rule:nonzero;"/><path d="M146.771,22.397c-0,-1.236 0.72,-2.051 1.83,-2.051c0.839,-0 1.391,0.426 1.588,1.241l-0.581,0.132c-0.162,-0.63 -0.48,-0.887 -1.013,-0.887c-0.75,-0 -1.218,0.599 -1.218,1.553l-0,0.017c-0,0.942 0.438,1.56 1.218,1.56c0.611,-0 0.905,-0.348 1.031,-0.917l0.576,0.107c-0.168,0.84 -0.75,1.295 -1.613,1.295c-1.14,-0 -1.818,-0.827 -1.818,-2.05Z" style="fill:#221e1f;fill-rule:nonzero;"/><path d="M150.925,19.968l0.557,0l-0,1.805l-0.024,0.426l0.036,0c0.138,-0.492 0.516,-0.87 1.062,-0.87c0.582,0 0.899,0.36 0.899,1.08l0,1.967l-0.588,0l0,-1.823c0,-0.528 -0.21,-0.72 -0.563,-0.72c-0.426,0 -0.804,0.42 -0.822,1.079l-0,1.464l-0.557,0l0,-4.408Z" style="fill:#221e1f;fill-rule:nonzero;"/><path d="M154.386,21.389l0.575,-0l-0,2.987l-0.575,0l0,-2.987Zm-0.036,-0.557l0,-0.588c0,-0.03 0.017,-0.042 0.042,-0.042l0.563,-0c0.024,-0 0.036,0.012 0.036,0.042l-0,0.588c-0,0.024 -0.012,0.042 -0.036,0.042l-0.563,-0c-0.031,-0 -0.042,-0.018 -0.042,-0.042Z" style="fill:#221e1f;fill-rule:nonzero;"/><rect x="155.988" y="19.968" width="0.575" height="4.408" style="fill:#221e1f;fill-rule:nonzero;"/><path d="M159.538,22.924l-0,-0.162c-0,-0.527 -0.252,-1.001 -0.833,-1.001c-0.498,-0 -0.773,0.42 -0.773,1.067c0,0.69 0.263,1.134 0.754,1.134c0.516,-0 0.852,-0.528 0.852,-1.038Zm-2.213,-0.066c-0,-1.013 0.498,-1.547 1.212,-1.547c0.533,-0 0.863,0.33 1.001,0.732l0.03,0l-0.042,-0.57l0,-1.505l0.564,0l-0,4.408l-0.546,0l0.007,-0.732l0.011,-0.15c-0.101,0.522 -0.498,0.924 -1.049,0.924c-0.738,0 -1.188,-0.612 -1.188,-1.56Z" style="fill:#221e1f;fill-rule:nonzero;"/><path d="M161.112,19.968l0.558,0l-0,1.805l-0.025,0.426l0.037,0c0.137,-0.492 0.515,-0.87 1.061,-0.87c0.582,0 0.9,0.36 0.9,1.08l0,1.967l-0.588,0l-0,-1.823c-0,-0.528 -0.21,-0.72 -0.564,-0.72c-0.426,0 -0.804,0.42 -0.821,1.079l-0,1.464l-0.558,0l-0,-4.408Z" style="fill:#221e1f;fill-rule:nonzero;"/><path d="M166.637,22.87c-0,-0.659 -0.283,-1.109 -0.823,-1.109c-0.551,-0 -0.851,0.45 -0.851,1.109c-0,0.666 0.294,1.122 0.834,1.122c0.533,-0 0.84,-0.45 0.84,-1.122Zm-2.28,0.007c-0,-0.882 0.546,-1.56 1.47,-1.56c0.911,0 1.409,0.612 1.409,1.541c-0,0.906 -0.557,1.584 -1.451,1.584c-0.93,0 -1.428,-0.612 -1.428,-1.565Z" style="fill:#221e1f;fill-rule:nonzero;"/><path d="M170.057,22.87c0,-0.659 -0.283,-1.109 -0.823,-1.109c-0.551,-0 -0.851,0.45 -0.851,1.109c-0,0.666 0.294,1.122 0.834,1.122c0.533,-0 0.84,-0.45 0.84,-1.122Zm-2.28,0.007c-0,-0.882 0.546,-1.56 1.47,-1.56c0.911,0 1.409,0.612 1.409,1.541c0,0.906 -0.557,1.584 -1.451,1.584c-0.93,0 -1.428,-0.612 -1.428,-1.565Z" style="fill:#221e1f;fill-rule:nonzero;"/><path d="M173.422,22.924l-0,-0.162c-0,-0.527 -0.252,-1.001 -0.833,-1.001c-0.498,-0 -0.774,0.42 -0.774,1.067c0,0.69 0.264,1.134 0.755,1.134c0.516,-0 0.852,-0.528 0.852,-1.038Zm-2.213,-0.066c-0,-1.013 0.498,-1.547 1.212,-1.547c0.533,-0 0.863,0.33 1.001,0.732l0.03,0l-0.042,-0.57l0,-1.505l0.564,0l-0,4.408l-0.545,0l0.006,-0.732l0.011,-0.15c-0.101,0.522 -0.498,0.924 -1.05,0.924c-0.737,0 -1.187,-0.612 -1.187,-1.56Z" style="fill:#221e1f;fill-rule:nonzero;"/><path d="M176.95,20.951l-1.144,0l-0,-0.527l2.878,-0l0,0.527l-1.14,0l0,3.425l-0.594,0l-0,-3.425Z" style="fill:#221e1f;fill-rule:nonzero;"/><path d="M178.936,21.389l0.558,-0l0,0.402l-0.065,0.929l0.042,0c0.065,-0.623 0.353,-1.373 1.037,-1.373l0.09,0l0,0.696c-0.06,-0.006 -0.144,-0.006 -0.216,-0.006c-0.564,-0 -0.827,0.467 -0.869,1.133l0,1.206l-0.577,0l0,-2.987Z" style="fill:#221e1f;fill-rule:nonzero;"/><path d="M182.74,23.302l0,-0.611c-0.065,0.095 -0.263,0.179 -0.515,0.246c-0.51,0.119 -0.774,0.287 -0.774,0.617c0,0.294 0.21,0.444 0.462,0.444c0.42,0 0.762,-0.294 0.827,-0.696Zm-1.877,0.306c0,-0.558 0.42,-0.791 1.038,-0.917c0.587,-0.121 0.822,-0.187 0.839,-0.3l0,-0.048c0,-0.366 -0.197,-0.558 -0.617,-0.558c-0.372,-0 -0.647,0.204 -0.768,0.456l-0.456,-0.24c0.21,-0.408 0.696,-0.666 1.284,-0.666c0.75,0 1.127,0.354 1.127,1.067l-0,0.99c-0,0.624 0.072,0.882 0.167,0.984l-0.592,0c-0.073,-0.079 -0.12,-0.294 -0.139,-0.654c-0.126,0.42 -0.521,0.714 -0.995,0.714c-0.582,-0.006 -0.894,-0.348 -0.888,-0.828Z" style="fill:#221e1f;fill-rule:nonzero;"/><path d="M184.2,23.326l-0,-1.937l0.593,-0l-0,1.841c-0,0.504 0.144,0.702 0.498,0.702c0.402,0 0.72,-0.396 0.744,-0.954l0,-1.589l0.587,-0l-0,2.987l-0.552,0l0,-0.348l0.025,-0.462l-0.036,-0c-0.048,0.3 -0.354,0.864 -0.936,0.857c-0.647,0 -0.923,-0.383 -0.923,-1.097Z" style="fill:#221e1f;fill-rule:nonzero;"/><path d="M187.644,21.389l0.563,-0l0,0.42c0,0.096 -0.024,0.396 -0.024,0.396l0.036,-0c0.144,-0.48 0.498,-0.876 1.038,-0.876c0.533,0 0.791,0.378 0.827,0.882l0.036,0c0.162,-0.564 0.546,-0.882 1.025,-0.882c0.576,0 0.822,0.426 0.822,1.098l-0,1.949l-0.588,0l-0,-1.817c-0,-0.468 -0.084,-0.726 -0.462,-0.726c-0.371,0 -0.749,0.306 -0.81,1.031l-0,1.512l-0.581,0l0,-1.823c0,-0.528 -0.162,-0.72 -0.509,-0.72c-0.42,0 -0.78,0.384 -0.792,1.031l0,1.512l-0.581,0l-0,-2.987Z" style="fill:#221e1f;fill-rule:nonzero;"/><path d="M194.56,23.302l-0,-0.611c-0.065,0.095 -0.263,0.179 -0.515,0.246c-0.51,0.119 -0.774,0.287 -0.774,0.617c-0,0.294 0.21,0.444 0.462,0.444c0.42,0 0.762,-0.294 0.827,-0.696Zm-1.876,0.306c0,-0.558 0.419,-0.791 1.038,-0.917c0.587,-0.121 0.821,-0.187 0.838,-0.3l-0,-0.048c-0,-0.366 -0.197,-0.558 -0.617,-0.558c-0.372,-0 -0.647,0.204 -0.767,0.456l-0.456,-0.24c0.21,-0.408 0.695,-0.666 1.283,-0.666c0.75,0 1.128,0.354 1.128,1.067l-0,0.99c-0,0.624 0.071,0.882 0.167,0.984l-0.593,0c-0.072,-0.079 -0.12,-0.294 -0.139,-0.654c-0.126,0.42 -0.521,0.714 -0.995,0.714c-0.582,-0.006 -0.893,-0.348 -0.887,-0.828Z" style="fill:#221e1f;fill-rule:nonzero;"/><path d="M133.295,27.798c-0,-0.408 -0.21,-0.648 -0.924,-0.648l-0.647,0l-0,1.416l0.659,-0c0.672,-0 0.912,-0.36 0.912,-0.768Zm-2.153,-1.127l1.325,0c1.025,0 1.427,0.425 1.427,1.049c-0,0.389 -0.198,0.857 -0.899,1.001c0.6,0.126 0.941,0.702 1.014,1.685c0.006,0.126 0.017,0.192 0.017,0.216l-0.611,-0l-0.006,-0.186c-0.072,-0.953 -0.372,-1.415 -1.08,-1.415l-0.605,-0l-0,1.601l-0.582,-0l-0,-3.951Z" style="fill:#221e1f;fill-rule:nonzero;"/><path d="M136.673,28.865l0,-0.024c0,-0.503 -0.186,-0.839 -0.701,-0.839c-0.409,-0 -0.739,0.246 -0.774,0.863l1.475,-0Zm-2.069,0.264c0,-0.972 0.534,-1.565 1.391,-1.565c0.918,0 1.277,0.629 1.277,1.469l-0.005,0.222l-2.082,0c0.042,0.684 0.367,0.978 0.852,0.978c0.355,0 0.612,-0.168 0.744,-0.396l0.396,0.275c-0.228,0.318 -0.594,0.576 -1.169,0.576c-0.906,-0 -1.41,-0.594 -1.404,-1.559Z" style="fill:#221e1f;fill-rule:nonzero;"/><path d="M137.725,30.065l0.389,-0.289c0.198,0.331 0.498,0.462 0.816,0.462c0.294,-0 0.521,-0.131 0.521,-0.389c0,-0.294 -0.323,-0.402 -0.767,-0.558c-0.42,-0.144 -0.839,-0.342 -0.839,-0.858c0,-0.51 0.443,-0.857 1.09,-0.857c0.535,0 0.852,0.216 1.062,0.515l-0.395,0.312c-0.096,-0.179 -0.325,-0.389 -0.678,-0.389c-0.3,-0 -0.504,0.156 -0.504,0.371c-0,0.294 0.324,0.402 0.714,0.534c0.456,0.162 0.887,0.348 0.887,0.906c-0,0.539 -0.461,0.857 -1.116,0.857c-0.491,-0 -0.953,-0.204 -1.18,-0.617Z" style="fill:#221e1f;fill-rule:nonzero;"/><path d="M142.619,28.865l0,-0.024c0,-0.503 -0.185,-0.839 -0.701,-0.839c-0.408,-0 -0.738,0.246 -0.774,0.863l1.475,-0Zm-2.068,0.264c-0,-0.972 0.533,-1.565 1.39,-1.565c0.918,0 1.278,0.629 1.278,1.469l-0.006,0.222l-2.081,0c0.042,0.684 0.366,0.978 0.851,0.978c0.355,0 0.613,-0.168 0.744,-0.396l0.396,0.275c-0.228,0.318 -0.594,0.576 -1.169,0.576c-0.906,-0 -1.41,-0.594 -1.403,-1.559Z" style="fill:#221e1f;fill-rule:nonzero;"/><path d="M145.559,29.549l0,-0.612c-0.066,0.096 -0.264,0.18 -0.516,0.246c-0.51,0.12 -0.774,0.288 -0.774,0.617c-0,0.294 0.21,0.444 0.462,0.444c0.42,-0 0.762,-0.294 0.828,-0.695Zm-1.877,0.306c0,-0.558 0.42,-0.792 1.038,-0.918c0.587,-0.12 0.821,-0.186 0.839,-0.3l0,-0.048c0,-0.365 -0.198,-0.558 -0.618,-0.558c-0.372,0 -0.647,0.204 -0.767,0.456l-0.456,-0.239c0.21,-0.408 0.695,-0.666 1.283,-0.666c0.75,-0 1.128,0.354 1.128,1.067l-0,0.99c-0,0.623 0.071,0.881 0.167,0.983l-0.593,-0c-0.072,-0.078 -0.12,-0.294 -0.139,-0.654c-0.126,0.42 -0.521,0.714 -0.995,0.714c-0.582,-0.006 -0.893,-0.348 -0.887,-0.827Z" style="fill:#221e1f;fill-rule:nonzero;"/><path d="M147.078,27.636l0.558,0l0,0.402l-0.066,0.929l0.042,0c0.066,-0.624 0.354,-1.373 1.037,-1.373l0.09,-0l-0,0.696c-0.059,-0.007 -0.143,-0.007 -0.216,-0.007c-0.563,-0 -0.827,0.468 -0.869,1.134l0,1.205l-0.576,-0l0,-2.986Z" style="fill:#221e1f;fill-rule:nonzero;"/><path d="M148.979,29.123c0,-0.888 0.529,-1.559 1.422,-1.559c0.587,0 0.959,0.222 1.163,0.743l-0.515,0.222c-0.084,-0.27 -0.264,-0.504 -0.636,-0.504c-0.504,0 -0.827,0.373 -0.827,1.08c-0,0.72 0.281,1.121 0.827,1.121c0.342,0 0.575,-0.167 0.678,-0.45l0.462,0.228c-0.181,0.396 -0.558,0.684 -1.164,0.684c-0.881,-0 -1.41,-0.618 -1.41,-1.565Z" style="fill:#221e1f;fill-rule:nonzero;"/><path d="M152.148,26.214l0.558,0l-0,1.806l-0.024,0.425l0.036,0c0.137,-0.491 0.515,-0.869 1.061,-0.869c0.582,0 0.9,0.36 0.9,1.079l0,1.967l-0.588,-0l0,-1.823c0,-0.527 -0.21,-0.719 -0.564,-0.719c-0.425,-0 -0.803,0.419 -0.821,1.079l-0,1.463l-0.558,-0l-0,-4.408Z" style="fill:#221e1f;fill-rule:nonzero;"/><path d="M157.019,26.671l0.684,0l1.47,2.344l0.485,0.942l-0.078,-0.954l0,-2.332l0.576,0l0,3.951l-0.569,-0l-1.619,-2.555l-0.481,-0.905l0.097,0.918l-0,2.542l-0.565,-0l-0,-3.951Z" style="fill:#221e1f;fill-rule:nonzero;"/><path d="M163.019,28.865l-0,-0.024c-0,-0.503 -0.186,-0.839 -0.702,-0.839c-0.408,-0 -0.738,0.246 -0.773,0.863l1.475,-0Zm-2.069,0.264c-0,-0.972 0.533,-1.565 1.391,-1.565c0.918,0 1.277,0.629 1.277,1.469l-0.006,0.222l-2.081,0c0.042,0.684 0.366,0.978 0.852,0.978c0.354,0 0.612,-0.168 0.744,-0.396l0.395,0.275c-0.227,0.318 -0.593,0.576 -1.169,0.576c-0.906,-0 -1.41,-0.594 -1.403,-1.559Z" style="fill:#221e1f;fill-rule:nonzero;"/><path d="M164.46,29.807l0,-1.685l-0.491,0l-0,-0.486l0.515,0l-0,-0.744l0.522,-0.24l-0,0.768l-0.025,0.216l0.781,0l-0,0.486l-0.781,0l0.025,0.221l-0,1.374c-0,0.39 0.078,0.461 0.408,0.461c0.149,-0 0.3,-0.029 0.449,-0.071l0,0.437c-0.179,0.072 -0.426,0.126 -0.641,0.126c-0.546,0 -0.762,-0.216 -0.762,-0.863Z" style="fill:#221e1f;fill-rule:nonzero;"/><path d="M166.116,27.636l0.617,0l0.39,1.649l0.145,0.803l0.023,0l0.198,-0.809l0.491,-1.643l0.594,0l0.439,1.643l0.197,0.815l0.018,0l0.162,-0.815l0.42,-1.643l0.582,0l-0.888,2.986l-0.6,-0l-0.504,-1.793l-0.137,-0.665l-0.025,0l-0.143,0.665l-0.54,1.793l-0.593,-0l-0.846,-2.986Z" style="fill:#221e1f;fill-rule:nonzero;"/><path d="M172.985,29.117c0,-0.66 -0.282,-1.11 -0.822,-1.11c-0.552,-0 -0.852,0.45 -0.852,1.11c0,0.666 0.294,1.121 0.834,1.121c0.534,-0 0.84,-0.449 0.84,-1.121Zm-2.279,0.006c-0,-0.882 0.546,-1.559 1.47,-1.559c0.911,0 1.409,0.611 1.409,1.541c0,0.905 -0.558,1.583 -1.451,1.583c-0.93,-0 -1.428,-0.612 -1.428,-1.565Z" style="fill:#221e1f;fill-rule:nonzero;"/><path d="M174.317,27.636l0.558,0l0,0.402l-0.065,0.929l0.042,0c0.065,-0.624 0.353,-1.373 1.037,-1.373l0.089,-0l-0,0.696c-0.059,-0.007 -0.143,-0.007 -0.215,-0.007c-0.564,-0 -0.828,0.468 -0.869,1.134l-0,1.205l-0.577,-0l0,-2.986Z" style="fill:#221e1f;fill-rule:nonzero;"/><path d="M176.538,26.214l0.558,0l-0,2.435l-0.025,0.642l1.289,-1.655l0.714,0l-0.995,1.193l1.073,1.793l-0.647,-0l-0.834,-1.439l-0.588,0.684l0.013,0.203l-0,0.552l-0.558,-0l-0,-4.408Z" style="fill:#221e1f;fill-rule:nonzero;"/></g></svg>