<?xml version="1.0" encoding="UTF-8" standalone="no"?><!DOCTYPE svg PUBLIC "-//W3C//DTD SVG 1.1//EN" "http://www.w3.org/Graphics/SVG/1.1/DTD/svg11.dtd">
<svg width="100%" height="100%" viewBox="0 0 27 25" version="1.1"
    xmlns="http://www.w3.org/2000/svg"
    xmlns:xlink="http://www.w3.org/1999/xlink" xml:space="preserve"
    xmlns:serif="http://www.serif.com/" style="fill-rule:evenodd;clip-rule:evenodd;stroke-linejoin:round;stroke-miterlimit:2;">
    <path d="M9.451,15.371l14.606,-3.096l-0.228,-4.791c-0.009,-0.195 -0.181,-0.342 -0.375,-0.321l-23.153,2.547c-0.309,0.033 -0.412,0.435 -0.156,0.613l3.001,2.093c0.071,0.05 0.121,0.126 0.138,0.211l1.07,5.353c0.037,0.189 0.225,0.308 0.411,0.263l4.608,-1.12l-0.187,-1.374c-0.024,-0.176 0.091,-0.34 0.265,-0.378Z" style="fill:#e23c30;fill-rule:nonzero;"/>
    <path d="M26.113,11.838l-2.056,0.437l0.047,0.988c0.008,0.162 -0.1,0.307 -0.258,0.345l-14.473,3.515l0.906,6.631c0.03,0.217 0.254,0.348 0.458,0.27l14.514,-5.617c0.127,-0.049 0.213,-0.17 0.216,-0.307l0.101,-4.34c0.002,-0.065 0.022,-0.129 0.059,-0.183l0.834,-1.216c0.174,-0.252 -0.05,-0.586 -0.348,-0.523Z" style="fill:#1969b3;fill-rule:nonzero;"/>
    <path d="M24.104,13.263l-0.047,-0.988l-14.606,3.096c-0.174,0.038 -0.289,0.202 -0.265,0.378l0.187,1.374l14.473,-3.515c0.158,-0.038 0.266,-0.183 0.258,-0.345Z" style="fill:#ef4628;fill-rule:nonzero;"/>
    <path d="M24.104,13.263l-0.047,-0.988l-14.606,3.096c-0.174,0.038 -0.289,0.202 -0.265,0.378l0.187,1.374l14.473,-3.515c0.158,-0.038 0.266,-0.183 0.258,-0.345Z" style="fill:#2e2951;fill-rule:nonzero;"/>
    <path d="M12.884,12.196l1.743,-1.267l-2.155,0l-0.665,-2.049l-0.666,2.049l-2.155,0l1.743,1.267l-0.666,2.049l1.744,-1.267l1.743,1.267l-0.666,-2.049Z" style="fill:#fff;fill-rule:nonzero;"/>
    <path d="M7.438,8.334c-0.207,-0 -0.375,-0.168 -0.375,-0.375l0,-7.253c0,-0.389 0.317,-0.706 0.705,-0.706l8.077,0c0.389,0 0.705,0.317 0.705,0.706l0,6.292c0,0.207 -0.167,0.375 -0.375,0.375c-0.207,0 -0.375,-0.168 -0.375,-0.375l0,-6.292l-8.032,0.044l0.045,7.209c0,0.207 -0.168,0.375 -0.375,0.375Z" style="fill:#2e2951;fill-rule:nonzero;"/>
</svg>