<?xml version="1.0" encoding="UTF-8" standalone="no"?><!DOCTYPE svg PUBLIC "-//W3C//DTD SVG 1.1//EN" "http://www.w3.org/Graphics/SVG/1.1/DTD/svg11.dtd"><svg width="100%" height="100%" viewBox="0 0 84 55" version="1.1" xmlns="http://www.w3.org/2000/svg" xmlns:xlink="http://www.w3.org/1999/xlink" xml:space="preserve" xmlns:serif="http://www.serif.com/" style="fill-rule:evenodd;clip-rule:evenodd;stroke-linejoin:round;stroke-miterlimit:2;"><path d="M26.743,29.55c0.15,0.3 0.3,0.525 0.45,0.825l1.8,2.917c0.075,0.075 0.075,0.151 0.15,0.225c0.6,0.9 1.125,1.725 1.725,2.543c0.225,0.3 0.45,0.6 0.6,0.825c0.3,0.45 0.675,0.9 0.975,1.35c0.389,-0.144 0.765,-0.319 1.125,-0.525c0.236,-0.132 0.488,-0.233 0.75,-0.3c0.75,-0.375 1.575,-0.75 2.25,-1.125c0.9,-0.518 1.875,-1.043 2.775,-1.568c0.286,-0.157 0.561,-0.333 0.825,-0.525c0.442,-0.248 0.868,-0.523 1.275,-0.825c-0.281,-0.365 -0.582,-0.716 -0.9,-1.05c-0.225,-0.3 -0.525,-0.6 -0.75,-0.9c-0.6,-0.75 -1.275,-1.5 -1.875,-2.317c-0.075,-0.15 -0.225,-0.225 -0.3,-0.375c-0.75,-0.9 -1.5,-1.875 -2.175,-2.85c-0.225,-0.3 -0.375,-0.525 -0.6,-0.825l-1.095,-1.605c-2.511,1.667 -5.143,3.144 -7.875,4.417c0.323,0.546 0.613,1.109 0.87,1.688Z" style="fill:#fff;fill-rule:nonzero;"/><path d="M69.643,22.245c-1.757,-1.907 -3.61,-3.724 -5.55,-5.445c-0.375,-0.3 -0.75,-0.675 -1.125,-0.975c-0.225,0.375 -0.525,0.675 -0.75,1.05c-0.182,0.288 -0.382,0.563 -0.6,0.825c-0.525,0.75 -1.125,1.425 -1.725,2.168c-0.075,0.15 -0.225,0.225 -0.3,0.375c-0.675,0.825 -1.35,1.65 -2.1,2.4c-0.225,0.225 -0.45,0.525 -0.675,0.75c-0.375,0.375 -0.675,0.75 -1.05,1.125l7.275,7.26c0.3,-0.375 0.675,-0.675 0.975,-1.05c0.231,-0.269 0.482,-0.52 0.75,-0.75c0.6,-0.675 1.125,-1.276 1.65,-1.95c0.147,-0.131 0.273,-0.283 0.375,-0.451c0.675,-0.825 1.35,-1.649 1.95,-2.474c0.153,-0.239 0.329,-0.463 0.525,-0.668c0.375,-0.45 0.675,-0.975 1.05,-1.425c-0.244,-0.238 -0.469,-0.493 -0.675,-0.765Z" style="fill:#fff;fill-rule:nonzero;"/><path d="M69.493,4.568c-0.6,1.424 -1.35,2.849 -2.1,4.267c-0.9,1.575 -1.875,3.3 -2.925,4.95c0.45,0.443 0.9,0.818 1.35,1.193c2.1,1.95 4.05,3.825 5.7,5.617l0.3,0.3c0.225,-0.3 0.375,-0.6 0.6,-0.9c0.225,-0.3 0.375,-0.592 0.525,-0.892c0.375,-0.601 0.75,-1.276 1.05,-1.875c0.153,-0.209 0.279,-0.435 0.375,-0.675c0.45,-0.9 0.9,-1.726 1.35,-2.618c0.083,-0.137 0.135,-0.291 0.15,-0.45c0.3,-0.6 0.525,-1.2 0.825,-1.8c-0.334,-0.459 -0.711,-0.886 -1.125,-1.275c-1.841,-2.13 -3.874,-4.086 -6.075,-5.843Z" style="fill:#fff;fill-rule:nonzero;"/><path d="M38.143,48.007c-0.525,-0.525 -1.125,-0.974 -1.65,-1.567c-0.18,-0.218 -0.381,-0.419 -0.6,-0.6l-1.05,-1.05c-0.225,-0.225 -0.45,-0.525 -0.675,-0.75c-0.3,-0.375 -0.6,-0.675 -0.9,-1.05c-0.209,-0.309 -0.462,-0.587 -0.75,-0.825c-0.291,-0.308 -0.567,-0.631 -0.825,-0.968c-0.6,0.218 -1.125,0.443 -1.65,0.593c-0.15,0.075 -0.225,0.075 -0.375,0.15c-0.825,0.3 -1.65,0.525 -2.55,0.825c-0.215,0.085 -0.443,0.136 -0.675,0.15l-1.875,0.45c-0.225,0.075 -0.45,0.075 -0.75,0.15c-0.15,0 -0.3,0.075 -0.45,0.075l0.075,0.075c0.15,0.15 0.3,0.375 0.45,0.525c0.15,0.15 0.15,0.225 0.225,0.3c0.225,0.225 0.375,0.525 0.6,0.75c0.436,0.536 0.912,1.037 1.425,1.5l0.45,0.443l0.975,0.975c0.218,0.153 0.419,0.329 0.6,0.525c0.309,0.293 0.635,0.568 0.975,0.825c0.213,0.131 0.414,0.282 0.6,0.45c0.225,0.149 0.525,0.374 0.75,0.524c0.281,-0.013 0.558,-0.063 0.825,-0.15c0.225,-0.075 0.525,-0.075 0.75,-0.15l1.125,-0.225c0.225,-0.075 0.525,-0.075 0.75,-0.15c0.45,-0.075 0.825,-0.225 1.275,-0.3c0.225,-0.075 0.45,-0.075 0.675,-0.15c0.675,-0.225 1.275,-0.375 1.95,-0.6c0.3,-0.075 0.525,-0.225 0.825,-0.3c-0.19,-0.13 -0.366,-0.281 -0.525,-0.45Z" style="fill:#fff;fill-rule:nonzero;"/><path d="M49.993,42.015c-1.8,-1.643 -3.675,-3.593 -5.625,-5.693c-0.375,-0.442 -0.75,-0.817 -1.125,-1.267c-0.525,0.3 -0.975,0.6 -1.5,0.968c-0.314,0.216 -0.64,0.416 -0.975,0.599c-0.975,0.601 -1.95,1.201 -2.925,1.726c-0.975,0.524 -2.175,1.125 -3.3,1.65c-0.15,0.075 -0.225,0.15 -0.375,0.225c0.156,0.215 0.332,0.416 0.525,0.599c0.225,0.226 0.375,0.451 0.6,0.668c0.281,0.342 0.582,0.668 0.9,0.975c0.225,0.225 0.375,0.45 0.6,0.675c0.331,0.369 0.682,0.719 1.05,1.05l0.525,0.525c0.525,0.525 1.05,0.975 1.5,1.425l1.38,1.118l0.15,0.15l1.575,-0.668c0.22,-0.053 0.425,-0.156 0.6,-0.3c0.825,-0.375 1.65,-0.825 2.55,-1.275c0.225,-0.075 0.375,-0.225 0.6,-0.3c0.675,-0.375 1.275,-0.75 1.95,-1.125c0.3,-0.15 0.6,-0.375 0.9,-0.525c0.3,-0.15 0.675,-0.45 1.05,-0.675c-0.224,-0.157 -0.435,-0.333 -0.63,-0.525Z" style="fill:#fff;fill-rule:nonzero;"/><path d="M57.643,29.962l-3.6,-3.599c-0.45,0.45 -0.9,0.825 -1.35,1.275c-0.218,0.18 -0.419,0.381 -0.6,0.6c-0.825,0.75 -1.575,1.424 -2.4,2.099c-0.15,0.143 -0.375,0.293 -0.525,0.443c-0.675,0.525 -1.275,1.05 -1.95,1.575l-0.9,0.675l-0.975,0.75c0.3,0.375 0.6,0.675 0.9,1.05c1.875,2.017 3.75,3.892 5.475,5.542c0.3,0.225 0.525,0.526 0.825,0.75c0.375,-0.224 0.675,-0.525 1.05,-0.75c0.343,-0.226 0.669,-0.476 0.975,-0.75c0.525,-0.375 1.05,-0.825 1.575,-1.2c0.3,-0.224 0.525,-0.45 0.825,-0.675c0.75,-0.675 1.5,-1.275 2.25,-1.942c0.075,0 0.075,-0.075 0.15,-0.075c0.675,-0.6 1.35,-1.275 2.025,-1.875l-3.75,-3.892Z" style="fill:#fff;fill-rule:nonzero;"/><path d="M81.493,20.07c-0.075,-0.15 -0.075,-0.3 -0.15,-0.45c-0.519,-1.491 -1.198,-2.922 -2.025,-4.268c-0.247,-0.466 -0.523,-0.917 -0.825,-1.35c-0.075,0.15 -0.15,0.375 -0.225,0.525c-0.15,0.3 -0.225,0.525 -0.375,0.825c-0.3,0.675 -0.675,1.275 -0.975,1.95c-0.15,0.226 -0.225,0.525 -0.375,0.75c-0.45,0.9 -0.975,1.718 -1.5,2.618c-0.079,0.083 -0.131,0.187 -0.15,0.3c-0.375,0.6 -0.75,1.2 -1.2,1.875c0.225,0.3 0.525,0.6 0.75,0.9c0.675,0.825 1.275,1.567 1.8,2.317c0.225,0.375 0.45,0.675 0.675,1.05c0.075,0.075 0.075,0.151 0.15,0.225l0.45,0.675c1.504,-2.554 2.832,-5.207 3.975,-7.942Z" style="fill:#fff;fill-rule:nonzero;"/><path d="M56.593,47.332c-0.366,-0.227 -0.716,-0.477 -1.05,-0.75c-0.81,-0.552 -1.587,-1.153 -2.325,-1.8c-0.3,-0.224 -0.525,-0.45 -0.825,-0.675c-0.75,0.525 -1.5,0.975 -2.25,1.425c-0.134,0.058 -0.26,0.134 -0.375,0.225c-0.75,0.45 -1.425,0.825 -2.175,1.268c-0.3,0.15 -0.525,0.3 -0.825,0.45l-1.77,0.907c-0.26,0.156 -0.537,0.282 -0.825,0.375l-0.45,0.225c0.375,0.225 0.75,0.525 1.125,0.75c1.347,0.829 2.781,1.508 4.275,2.025l0.75,0.225c2.712,-1.151 5.322,-2.531 7.8,-4.125c-0.388,-0.11 -0.753,-0.288 -1.08,-0.525Z" style="fill:#fff;fill-rule:nonzero;"/><path d="M11.893,40.298c0.174,0.316 0.375,0.617 0.6,0.899c0.518,0.134 1.044,0.232 1.575,0.293l0.225,-0c0.571,0.087 1.148,0.137 1.725,0.15l2.85,0c-0.525,-0.818 -1.05,-1.718 -1.575,-2.617c-0.15,-0.226 -0.225,-0.451 -0.375,-0.676c-0.525,-0.9 -0.975,-1.8 -1.425,-2.692c-0.15,-0.375 -0.375,-0.75 -0.525,-1.125c-0.075,-0.15 -0.15,-0.225 -0.15,-0.375c-0.15,-0.3 -0.225,-0.525 -0.375,-0.825c-0.088,-0.169 -0.164,-0.344 -0.225,-0.525c-0.075,-0.3 -0.225,-0.525 -0.3,-0.825c-0.075,-0.15 -0.15,-0.375 -0.225,-0.525c-0.075,-0.15 -0.075,-0.225 -0.15,-0.3c-1.371,0.136 -2.75,0.161 -4.125,0.075l-1.425,-0.075l-0.15,-0c0.085,0.19 0.136,0.393 0.15,0.6c0.15,0.375 0.225,0.675 0.375,1.05c0.225,0.6 0.375,1.125 0.6,1.725c0.15,0.3 0.225,0.675 0.375,0.975c0.225,0.592 0.525,1.117 0.75,1.717c0.15,0.3 0.225,0.525 0.375,0.825c0.518,0.722 0.994,1.473 1.425,2.25Z" style="fill:#fff;fill-rule:nonzero;"/><path d="M26.998,53.325c0.525,0.075 1.125,0.225 1.725,0.3l0.15,0c0.9,0.225 1.875,0.45 2.85,0.675c-0.375,-0.225 -0.825,-0.45 -1.125,-0.675l-0.675,-0.45c-1.08,0.075 -2.055,0.15 -2.925,0.15Z" style="fill:#fff;fill-rule:nonzero;"/><path d="M8.443,39.3l-0.45,-0.9c-0.32,-0.604 -0.595,-1.231 -0.825,-1.875c-0.15,-0.3 -0.225,-0.525 -0.375,-0.818c-0.375,-0.9 -0.75,-1.875 -1.05,-2.775c-0.3,-0.825 -0.525,-1.65 -0.75,-2.475c-1.147,-0.32 -2.255,-0.77 -3.3,-1.342c0.296,1.147 0.672,2.273 1.125,3.367c0.851,2.015 1.917,3.931 3.18,5.715c0.075,0.075 0.15,0.075 0.15,0.15c0.313,0.243 0.638,0.468 0.975,0.675c0.15,0.075 0.225,0.151 0.375,0.225c0.359,0.229 0.735,0.43 1.125,0.6c0.075,0 0.075,0.075 0.15,0.075c-0.093,-0.215 -0.203,-0.424 -0.33,-0.622Z" style="fill:#fff;fill-rule:nonzero;"/><path d="M37.498,24.195c0.675,0.892 1.35,1.717 2.025,2.618c0.075,0.075 0.075,0.15 0.15,0.15c0.75,0.9 1.425,1.8 2.175,2.625c0.225,0.3 0.45,0.525 0.675,0.825c0.374,0.402 0.725,0.825 1.05,1.267c0.375,-0.3 0.75,-0.525 1.125,-0.825c0.375,-0.3 0.525,-0.375 0.825,-0.592l2.1,-1.65c0.075,-0.076 0.225,-0.151 0.3,-0.225c0.825,-0.675 1.575,-1.35 2.325,-2.025c0.233,-0.244 0.484,-0.47 0.75,-0.675c0.381,-0.393 0.781,-0.766 1.2,-1.118l-8.925,-9c-2.339,2.282 -4.846,4.385 -7.5,6.293c0.3,0.45 0.675,0.899 0.975,1.35c0.3,0.45 0.495,0.682 0.75,0.982Z" style="fill:#fff;fill-rule:nonzero;"/><path d="M12.793,46.14c-0.6,-0.825 -1.125,-1.65 -1.65,-2.475l-0.15,-0.225c-0.15,0 -0.225,-0.075 -0.3,-0.075l-0.675,-0.225c-0.075,0 -0.15,-0.075 -0.225,-0.075c0.901,1.117 1.905,2.147 3,3.075Z" style="fill:#fff;fill-rule:nonzero;"/><path d="M40.018,54.75c1.944,-0.218 3.862,-0.619 5.73,-1.2c0.15,-0.075 0.3,-0.075 0.45,-0.15c-0.075,-0 -0.075,-0.075 -0.15,-0.075l-1.35,-0.675c-0.45,-0.205 -0.877,-0.456 -1.275,-0.75c-0.45,-0.3 -0.9,-0.6 -1.425,-0.9c-0.15,-0.075 -0.3,-0.225 -0.45,-0.3l-0.675,-0.45c-0.225,0.075 -0.375,0.15 -0.6,0.225c-0.137,0.083 -0.29,0.134 -0.45,0.15c-0.45,0.15 -0.9,0.3 -1.275,0.45c-0.75,0.3 -1.575,0.525 -2.325,0.75c-0.225,0.075 -0.525,0.15 -0.75,0.225c-0.493,0.149 -0.994,0.272 -1.5,0.367c-0.075,0 -0.225,0.075 -0.3,0.075c1.26,0.64 2.563,1.192 3.9,1.65c0.45,0.15 0.9,0.225 1.275,0.375c0.375,0.15 0.795,0.158 1.17,0.233Z" style="fill:#fff;fill-rule:nonzero;"/><path d="M83.998,9.435l-0.075,-0.45c-0.012,-0.299 0.013,-0.599 0.075,-0.893l0,-1.65c-0.075,-0.45 -0.075,-0.975 -0.15,-1.5c-0.249,-1.617 -0.755,-3.184 -1.5,-4.642c-0.337,3.166 -1.042,6.282 -2.1,9.285c-0.225,0.6 -0.375,1.125 -0.6,1.725c0.15,0.225 0.375,0.525 0.525,0.75c0.15,0.225 0.225,0.375 0.375,0.525c0.375,0.525 0.675,1.05 0.975,1.5c0.375,0.6 0.675,1.2 0.975,1.8c0.085,0.207 0.185,0.408 0.3,0.6c0.678,-2.292 1.081,-4.656 1.2,-7.043l0,-0.007Z" style="fill:#fff;fill-rule:nonzero;"/><path d="M67.693,36.472l1.725,1.725c2.334,-2.416 4.466,-5.02 6.375,-7.785c-0.146,-0.315 -0.322,-0.616 -0.525,-0.9c-0.375,-0.6 -0.825,-1.275 -1.275,-1.875c-0.45,-0.6 -1.05,-1.425 -1.725,-2.25l-0.3,-0.3c-0.225,0.3 -0.525,0.675 -0.75,0.975c-0.225,0.3 -0.375,0.525 -0.6,0.825c-0.525,0.75 -1.125,1.425 -1.65,2.1c-0.075,0.15 -0.225,0.225 -0.3,0.375c-0.675,0.825 -1.35,1.643 -2.1,2.393l-0.675,0.675c-0.389,0.364 -0.741,0.766 -1.05,1.2l2.85,2.842" style="fill:#fff;fill-rule:nonzero;"/><path d="M65.893,38.273l-2.775,-2.843c-0.439,0.461 -0.915,0.885 -1.425,1.267c-0.193,0.156 -0.369,0.332 -0.525,0.525c-0.825,0.75 -1.575,1.425 -2.4,2.1c-0.225,0.15 -0.375,0.3 -0.6,0.45c-0.6,0.525 -1.275,1.05 -1.875,1.5c-0.291,0.202 -0.567,0.425 -0.825,0.668l-0.9,0.675c0.086,0.093 0.187,0.169 0.3,0.225c0.75,0.6 1.5,1.2 2.25,1.725c0.75,0.525 1.275,0.9 1.875,1.275c0.309,0.204 0.635,0.379 0.975,0.525c2.741,-1.94 5.325,-4.094 7.725,-6.443l-1.8,-1.65" style="fill:#fff;fill-rule:nonzero;"/><path d="M16.168,30.855c0.225,0.6 0.45,1.2 0.675,1.725l0.225,0.45c0.219,0.539 0.47,1.065 0.75,1.575c0.3,0.6 0.6,1.2 0.9,1.867c0.098,0.216 0.224,0.418 0.375,0.6c0.225,0.375 0.45,0.825 0.675,1.2l0.45,0.675l0.675,1.125l0.45,0.675l0.45,0.668c0.606,-0.057 1.207,-0.155 1.8,-0.292l0.075,-0.001c0.825,-0.15 1.65,-0.375 2.475,-0.599c0.15,-0.076 0.375,-0.076 0.525,-0.151c0.636,-0.165 1.262,-0.366 1.875,-0.599c0.3,-0.076 0.525,-0.226 0.825,-0.301c0.258,-0.08 0.508,-0.18 0.75,-0.3l-0.675,-0.9c-0.267,-0.337 -0.518,-0.687 -0.75,-1.05c-0.45,-0.675 -0.9,-1.275 -1.35,-1.942c-0.182,-0.288 -0.382,-0.563 -0.6,-0.825l-1.8,-2.925l0,-0.075c-0.525,-0.9 -0.975,-1.718 -1.5,-2.618c-2.389,0.796 -4.817,1.469 -7.275,2.018Z" style="fill:#fff;fill-rule:nonzero;"/><path d="M19.243,49.658c2.056,0.696 4.205,1.075 6.375,1.124l1.125,0l-0.3,-0.3c-0.45,-0.375 -0.9,-0.825 -1.35,-1.2c-0.225,-0.15 -0.375,-0.375 -0.6,-0.525c-0.6,-0.6 -1.2,-1.2 -1.8,-1.875c-0.335,-0.381 -0.65,-0.779 -0.945,-1.192c-0.075,-0.075 -0.075,-0.15 -0.15,-0.15c-0.326,-0.468 -0.677,-0.918 -1.05,-1.35c0,-0.041 -0.034,-0.075 -0.075,-0.075c-0.3,-0 -0.6,0.075 -0.9,0.075c-0.178,-0.012 -0.357,0.013 -0.525,0.075c-0.6,-0 -1.2,0.075 -1.8,0.075l-1.575,-0c-0.252,0.009 -0.504,-0.016 -0.75,-0.075c-0.227,0.012 -0.455,-0.013 -0.675,-0.075c1.471,1.991 3.145,3.823 4.995,5.468Z" style="fill:#fff;fill-rule:nonzero;"/><path d="M45.043,13.8l8.955,8.895c0.331,-0.369 0.682,-0.719 1.05,-1.05c0.244,-0.233 0.469,-0.484 0.675,-0.75c0.675,-0.75 1.275,-1.5 1.95,-2.25c0.075,-0.075 0.075,-0.15 0.15,-0.15c0.675,-0.825 1.35,-1.65 1.95,-2.475c0.2,-0.232 0.376,-0.483 0.525,-0.75c0.3,-0.45 0.6,-0.825 0.9,-1.275c-3.075,-2.617 -6.375,-5.25 -9.825,-7.86c-1.926,2.701 -4.042,5.262 -6.33,7.665Z" style="fill:#fff;fill-rule:nonzero;"/><path d="M6.493,12.885c-0.972,2.03 -1.702,4.167 -2.175,6.368c0.75,0.817 1.575,1.792 2.475,2.692c0.615,-2.03 1.444,-3.989 2.475,-5.842c-1.02,-1.126 -1.95,-2.243 -2.775,-3.218Z" style="fill:#fff;fill-rule:nonzero;"/><path d="M6.193,24.045c-0.825,-0.825 -1.575,-1.65 -2.25,-2.4c-0.177,1.767 -0.202,3.546 -0.075,5.317c0.574,0.309 1.177,0.56 1.8,0.75c0.15,-1.274 0.33,-2.475 0.525,-3.667Z" style="fill:#fff;fill-rule:nonzero;"/><path d="M5.143,11.16c-1.05,-1.35 -1.875,-2.55 -2.475,-3.443c-1.015,2.063 -1.747,4.252 -2.175,6.511c0.375,0.524 1.125,1.649 2.325,3.075c0.521,-2.135 1.302,-4.198 2.325,-6.143Z" style="fill:#fff;fill-rule:nonzero;"/><path d="M7.543,28.313c1.081,0.311 2.184,0.537 3.3,0.675c0.075,-0.225 0.075,-0.451 0.15,-0.75c-1.098,-0.816 -2.15,-1.692 -3.15,-2.625c-0.15,0.937 -0.225,1.799 -0.3,2.7Z" style="fill:#fff;fill-rule:nonzero;"/><path d="M1.918,25.837c-0.106,-2.055 0.02,-4.115 0.375,-6.142c-0.9,-1.043 -1.545,-2.017 -2.175,-2.767c-0.252,2.655 -0.1,5.332 0.45,7.942c0.375,0.292 0.825,0.592 1.35,0.967Z" style="fill:#fff;fill-rule:nonzero;"/><path d="M15.943,10.41c-1.683,1.624 -3.145,3.463 -4.35,5.468c1.069,1.155 2.195,2.257 3.375,3.3c1.248,-1.864 2.681,-3.598 4.275,-5.175c-1.125,-1.118 -2.25,-2.393 -3.3,-3.593Z" style="fill:#fff;fill-rule:nonzero;"/><path d="M28.498,0.525c-1.906,1.043 -3.67,2.326 -5.25,3.818l2.625,3.675l4.875,-3.526l-2.25,-3.967Z" style="fill:#fff;fill-rule:nonzero;"/><path d="M18.418,0c-1.814,1.267 -3.466,2.75 -4.92,4.418c0.79,1.236 1.667,2.414 2.625,3.524c1.465,-1.524 3.072,-2.906 4.8,-4.124c-1.005,-1.343 -1.68,-2.468 -2.505,-3.818Z" style="fill:#fff;fill-rule:nonzero;"/><path d="M10.618,17.55c-0.998,1.869 -1.754,3.857 -2.25,5.918c1.023,1.005 2.1,1.954 3.225,2.842c0.6,-1.916 1.431,-3.752 2.475,-5.467c-1.221,-1.021 -2.373,-2.121 -3.45,-3.293Z" style="fill:#fff;fill-rule:nonzero;"/><path d="M14.743,8.91c-1.05,-1.267 -1.95,-2.543 -2.775,-3.75c-1.727,1.743 -3.215,3.707 -4.425,5.843c0.825,1.05 1.8,2.174 2.775,3.292c1.239,-1.977 2.726,-3.786 4.425,-5.385Z" style="fill:#fff;fill-rule:nonzero;"/></svg>