<?xml version="1.0" encoding="UTF-8" standalone="no"?>
<!DOCTYPE svg PUBLIC "-//W3C//DTD SVG 1.1//EN" "http://www.w3.org/Graphics/SVG/1.1/DTD/svg11.dtd">
<svg width="100%" height="100%" viewBox="0 0 129 145" version="1.1" xmlns="http://www.w3.org/2000/svg" xmlns:xlink="http://www.w3.org/1999/xlink" xml:space="preserve" xmlns:serif="http://www.serif.com/" style="fill-rule:evenodd;clip-rule:evenodd;stroke-miterlimit:10;">
    <g>
        <g>
            <path d="M2.8,130.3L43.8,118.5L85.4,116.7L125.7,103.1" style="fill:none;fill-rule:nonzero;stroke:rgb(120,120,120);stroke-width:0.5px;"/>
            <path d="M2.8,124.4L43.8,112.6L85.4,110.8L125.7,97.3" style="fill:none;fill-rule:nonzero;stroke:rgb(120,120,120);stroke-width:0.5px;"/>
            <path d="M2.8,118.2L43.8,106.4L85.4,104.6L125.7,91" style="fill:none;fill-rule:nonzero;stroke:rgb(120,120,120);stroke-width:0.5px;"/>
            <path d="M2.8,112.5L43.8,100.7L85.4,98.9L125.7,85.4" style="fill:none;fill-rule:nonzero;stroke:rgb(120,120,120);stroke-width:0.5px;"/>
            <path d="M2.8,107.4L43.8,95.6L85.4,93.8L125.7,80.2" style="fill:none;fill-rule:nonzero;stroke:rgb(120,120,120);stroke-width:0.5px;"/>
            <path d="M2.8,100.3L43.8,88.5L85.4,86.7L125.7,73.2" style="fill:none;fill-rule:nonzero;stroke:rgb(120,120,120);stroke-width:0.5px;"/>
            <path d="M2.8,94.5L43.8,82.7L85.4,80.9L125.7,67.3" style="fill:none;fill-rule:nonzero;stroke:rgb(120,120,120);stroke-width:0.5px;"/>
            <path d="M2.8,88.9L43.8,77.1L85.4,75.3L125.7,61.7" style="fill:none;fill-rule:nonzero;stroke:rgb(120,120,120);stroke-width:0.5px;"/>
            <path d="M2.8,83.5L43.8,71.7L85.4,69.9L125.7,56.3" style="fill:none;fill-rule:nonzero;stroke:rgb(120,120,120);stroke-width:0.5px;"/>
            <path d="M2.8,78.1L43.8,66.3L85.4,64.5L125.7,50.9" style="fill:none;fill-rule:nonzero;stroke:rgb(120,120,120);stroke-width:0.5px;"/>
            <path d="M2.8,73.3L43.8,61.5L85.4,59.7L125.7,46.1" style="fill:none;fill-rule:nonzero;stroke:rgb(120,120,120);stroke-width:0.5px;"/>
            <path d="M2.8,67.8L43.8,56L85.4,54.2L125.7,40.7" style="fill:none;fill-rule:nonzero;stroke:rgb(120,120,120);stroke-width:0.5px;"/>
            <path d="M2.8,62.5L43.8,50.7L85.4,48.9L125.7,35.4" style="fill:none;fill-rule:nonzero;stroke:rgb(120,120,120);stroke-width:0.5px;"/>
        </g>
        <g>
            <path d="M10.2,54.3L11,137.1" style="fill:none;fill-rule:nonzero;stroke:rgb(120,120,120);stroke-width:0.5px;"/>
            <path d="M15.8,53.1L16.6,135.9" style="fill:none;fill-rule:nonzero;stroke:rgb(120,120,120);stroke-width:0.5px;"/>
            <path d="M21.3,50.3L22.2,133.1" style="fill:none;fill-rule:nonzero;stroke:rgb(120,120,120);stroke-width:0.5px;"/>
            <path d="M26.9,48.8L27.7,131.6" style="fill:none;fill-rule:nonzero;stroke:rgb(120,120,120);stroke-width:0.5px;"/>
            <path d="M32.5,47.5L33.3,130.3" style="fill:none;fill-rule:nonzero;stroke:rgb(120,120,120);stroke-width:0.5px;"/>
            <path d="M38,45.4L38.8,128.1" style="fill:none;fill-rule:nonzero;stroke:rgb(120,120,120);stroke-width:0.5px;"/>
        </g>
        <g>
            <path d="M90.4,42.8L91.3,125.6" style="fill:none;fill-rule:nonzero;stroke:rgb(120,120,120);stroke-width:0.5px;"/>
            <path d="M96,41.6L96.8,124.4" style="fill:none;fill-rule:nonzero;stroke:rgb(120,120,120);stroke-width:0.5px;"/>
            <path d="M101.6,38.8L102.4,121.6" style="fill:none;fill-rule:nonzero;stroke:rgb(120,120,120);stroke-width:0.5px;"/>
            <path d="M107.1,37.4L107.9,120.1" style="fill:none;fill-rule:nonzero;stroke:rgb(120,120,120);stroke-width:0.5px;"/>
            <path d="M112.7,36L113.5,118.8" style="fill:none;fill-rule:nonzero;stroke:rgb(120,120,120);stroke-width:0.5px;"/>
            <path d="M118.2,33.9L119.1,116.7" style="fill:none;fill-rule:nonzero;stroke:rgb(120,120,120);stroke-width:0.5px;"/>
        </g>
        <g>
            <path d="M48.9,46.1L49.8,128.9" style="fill:none;fill-rule:nonzero;stroke:rgb(120,120,120);stroke-width:0.5px;"/>
            <path d="M54.5,44.9L55.3,127.7" style="fill:none;fill-rule:nonzero;stroke:rgb(120,120,120);stroke-width:0.5px;"/>
            <path d="M60.1,42.1L60.9,124.9" style="fill:none;fill-rule:nonzero;stroke:rgb(120,120,120);stroke-width:0.5px;"/>
            <path d="M66.4,44L66.4,126.2" style="fill:none;fill-rule:nonzero;stroke:rgb(120,120,120);stroke-width:0.5px;"/>
            <path d="M72.6,44.9L72,125.6" style="fill:none;fill-rule:nonzero;stroke:rgb(120,120,120);stroke-width:0.5px;"/>
            <path d="M78.7,42.8L77.6,125.6" style="fill:none;fill-rule:nonzero;stroke:rgb(120,120,120);stroke-width:0.5px;"/>
        </g>
        <g>
            <g>
                <g>
                    <g>
                        <g>
                            <g>
                                <clipPath id="_clip1">
                                    <path d="M43.8,133.9L2.8,146.2L2.8,57.1L43.8,44.9L43.8,133.9Z"/>
                                </clipPath>
                                <g clip-path="url(#_clip1)">
                                    <g>
                                        <path d="M33.7,114.3C33,114.5 32.4,114.4 32,113.8C31.1,112.6 30.6,111 30.6,109.2C30.6,108.1 31.4,107 32.5,106.6C33.6,106.2 34.5,106.7 34.6,107.7C34.8,108.9 35.1,109.9 35.6,110.9C36,111.7 35.6,113 34.7,113.7C34.3,114 34,114.2 33.7,114.3Z" style="fill:rgb(215,209,138);fill-rule:nonzero;"/>
                                        <path d="M78.5,81C69.3,77.7 62.1,81.2 56.3,89.4C53,88.6 49.4,89.1 45.5,90.9C42.1,91.9 39.4,95.5 39.4,98.9L39.4,99C35.6,100.6 32.6,104.8 32.6,108.7C32.8,110 33.2,111.3 33.7,112.4C36.2,117.7 42.1,120.1 49,118.1C52.1,117.2 54.9,115.5 57.4,113.3C89,95.9 96.4,106.4 106,102.5C110.9,100.4 113.4,97.1 113.5,93C115.7,90.8 117.2,87.8 117.2,84.9C117.2,83.8 117,82.8 116.6,82C117.3,80.7 117.7,79.3 117.7,77.9C117.7,76.2 117.1,74.8 116,73.9C116.1,73.4 116.2,72.9 116.2,72.4C116.2,70 115,68.3 113.1,67.6C113.2,67.2 113.2,66.8 113.2,66.4C113.2,63.4 111.3,61.4 108.6,61.3C108.7,60.7 108.8,60.1 108.8,59.5C108.8,55.1 105.4,52.5 101,53.4C99.8,46.4 93.3,42.6 85.5,44.9C85.2,45 84.9,45.1 84.6,45.2C83,43.6 80.4,43 77.5,43.8C75.9,44.3 74.4,45.1 73.2,46.2C71.8,44.6 69.4,44 66.7,44.7C64.9,45.2 63.1,46.4 61.8,47.9C60.5,47.2 58.7,47.1 56.9,47.7C54.3,48.5 52.1,50.3 50.7,52.7C49.1,52.6 47.5,52.9 45.7,53.4C39.6,55.2 34.4,60.2 31.8,66C31,66 30.1,66.1 29.2,66.4C24.8,67.7 21.1,72.3 20.8,76.8C15,81.8 11,89.2 11,96.4C11,106.9 19.5,112.9 30,109.7C30.9,109.4 31.8,109.1 32.6,108.7" style="fill:rgb(34,34,34);fill-rule:nonzero;"/>
                                        <path d="M104.8,104.7C101.7,105.6 98.9,105.4 95.6,105.1C88.4,104.4 78.6,103.6 58.1,114.8C55.3,117.2 52.2,119 49,119.9C41.4,122.2 34.7,119.7 31.8,113.6C31.5,112.9 31.2,112.1 30.9,111.3C18.8,115.5 8.9,108.8 8.9,96.9C8.9,89.6 12.7,81.7 18.9,76.1C19.8,70.9 24.1,65.9 29.2,64.4C29.7,64.2 30.2,64.1 30.8,64.1C34,58 39.6,53.3 45.7,51.5C47.2,51.1 48.6,50.8 50,50.7C51.8,48.4 54.3,46.6 56.9,45.8C58.6,45.3 60.3,45.2 61.8,45.6C63.3,44.3 65,43.4 66.7,42.8C69.4,42 71.9,42.3 73.7,43.6C74.9,42.8 76.2,42.2 77.5,41.8C80.6,40.9 83.4,41.3 85.4,42.9L85.5,42.9C93.7,40.4 100.7,43.9 102.6,51.1C107.2,50.8 110.7,53.9 110.7,58.9L110.7,59.4C113.4,60.2 115.1,62.6 115.1,65.7L115.1,65.9C117,67 118.1,69.1 118.1,71.7C118.1,72 118.1,72.3 118,72.6C119,73.8 119.6,75.4 119.6,77.2C119.6,78.6 119.3,80 118.7,81.4C119,82.3 119.1,83.2 119.1,84.2C119.1,87.3 117.7,90.6 115.4,93.3C114.9,98 111.6,102 106.3,104.3C105.8,104.4 105.3,104.6 104.8,104.7ZM76.4,102.8C86,99.9 92.1,100.5 97,100.9C100.4,101.2 103.1,101.5 105.7,100.3C109.4,98.7 111.3,96.4 111.4,93.3C111.4,92.6 111.7,92 112.3,91.4C114.1,89.7 115.1,87.4 115.1,85.3C115.1,84.5 115,83.7 114.7,83.1C114.5,82.6 114.5,81.9 114.9,81.2C115.4,80.3 115.7,79.3 115.7,78.3C115.7,77.1 115.3,76.1 114.5,75.5C114.1,75.1 113.9,74.5 114.1,73.8C114.2,73.5 114.2,73.1 114.2,72.8C114.2,71.2 113.4,69.9 112,69.4C111.3,69.2 111,68.5 111.1,67.6C111.1,67.3 111.2,67.1 111.2,66.8C111.2,64.7 109.9,63.3 108,63.2C107.1,63.1 106.5,62.3 106.7,61.3C106.8,60.9 106.8,60.4 106.8,60C106.8,56.7 104.2,54.6 100.9,55.4C100,55.6 99.2,55.1 99.1,54.3C98,48 92.3,44.9 85.6,46.9C85.3,47 85,47.1 84.8,47.2C84.1,47.4 83.5,47.4 83.1,46.9C81.8,45.6 79.8,45.2 77.6,45.9C76.4,46.3 75.3,46.9 74.3,47.8C73.4,48.6 72.3,48.6 71.7,48C70.6,46.8 68.8,46.3 66.9,46.9C65.6,47.3 64.3,48.1 63.3,49.2C62.6,50 61.5,50.3 60.8,49.9C59.8,49.4 58.5,49.3 57.1,49.7C55.3,50.3 53.6,51.6 52.4,53.4C51.9,54.2 51,54.8 50.2,54.7C48.8,54.6 47.4,54.8 45.9,55.3C40.8,56.8 36.1,61.1 33.8,66.3C33.4,67.3 32.3,68 31.4,68C30.8,68 30.1,68.1 29.5,68.3C26.1,69.3 23.3,72.8 23.1,76.2C23.1,76.9 22.7,77.6 22.1,78.1C16.3,82.7 13,89.5 13,95.6C13,105.2 21,110.7 30.8,107.3C31.5,103.5 34.1,99.9 37.6,97.8C38.4,93.9 41.6,90.2 45.4,88.9C49.1,87.2 52.7,86.6 55.9,87.1C62.6,78.5 70.5,75.7 79.6,79C80.5,79.3 80.8,80.5 80.2,81.6C79.6,82.7 78.3,83.3 77.4,83C69.6,80.2 63.3,82.5 57.9,90.3C57.3,91.2 56.3,91.7 55.4,91.5C52.5,90.8 49.4,91.2 45.9,92.8C45.8,92.9 45.7,92.9 45.6,92.9C43.3,93.6 41.5,96 41.5,98.3C41.5,99.3 40.7,100.5 39.7,100.9C36.9,102.1 34.8,105.1 34.7,107.9C34.9,109 35.2,110 35.6,111C37.9,115.8 43.2,117.8 49.1,116C51.7,115.2 54.2,113.8 56.5,111.8C56.7,111.7 56.8,111.5 57,111.4C64.7,107 71.1,104.3 76.4,102.8Z" style="fill:rgb(215,209,138);fill-rule:nonzero;"/>
                                        <path d="M38.9,100.1C38.3,100.3 37.9,99.9 37.9,99.4C37.9,95.7 35.3,93.4 31.6,93.9C31,94 30.7,93.6 30.8,93C30.9,92.4 31.4,91.9 32,91.8C36.6,91.2 40,94.1 40,98.8C39.9,99.4 39.4,100 38.9,100.1Z" style="fill:rgb(215,209,138);fill-rule:nonzero;"/>
                                        <path d="M24.1,104.2L23.8,104.2C20.5,104.1 18.2,101.8 18.2,98.3C18.2,95.6 19.5,92.8 21.7,90.6C22.2,90.2 22.8,90.1 23.1,90.4C23.4,90.8 23.3,91.4 22.8,91.9C21.1,93.5 20.2,95.7 20.2,97.7C20.2,100.3 21.9,102.1 24.4,102.1C24.9,102.1 25.2,102.6 25.1,103.2C24.9,103.7 24.5,104.1 24.1,104.2Z" style="fill:rgb(215,209,138);fill-rule:nonzero;"/>
                                        <path d="M19.8,94C18.7,94.3 17.7,94.3 16.8,93.9C16.4,93.7 16.3,93.1 16.6,92.6C16.9,92.1 17.6,91.8 18,92C19.2,92.6 21,91.8 22,90.4C22.3,89.9 23,89.6 23.4,89.8C23.8,90 23.9,90.6 23.5,91.2C22.6,92.5 21.3,93.5 19.8,94Z" style="fill:rgb(215,209,138);fill-rule:nonzero;"/>
                                        <path d="M26.8,85.4C26.4,85.5 26.1,85.4 25.9,85.1C25.2,83.9 24.8,82.4 24.8,80.8C24.8,75 29.5,68.9 35.3,67.2C36.7,66.8 38.1,66.6 39.4,66.8C39.9,66.9 40.2,67.4 39.9,68C39.7,68.6 39.1,69 38.6,68.9C37.6,68.8 36.4,68.9 35.3,69.2C30.6,70.6 26.8,75.5 26.8,80.2C26.8,81.5 27.1,82.7 27.6,83.7C27.8,84.1 27.6,84.8 27.1,85.2C27.1,85.3 26.9,85.3 26.8,85.4Z" style="fill:rgb(215,209,138);fill-rule:nonzero;"/>
                                        <path d="M37.1,68.6C37,68.6 36.8,68.7 36.7,68.6C36.2,68.5 36,68 36.2,67.4C36.5,66.5 37,65.7 37.5,64.8C41.1,59.2 47.7,56.4 52.2,58.6C53.3,59.1 54.2,59.9 54.9,60.9C55.2,61.3 55,62 54.5,62.4C54,62.8 53.4,62.8 53.1,62.4C52.5,61.6 51.8,60.9 50.9,60.5C47.2,58.7 41.9,61 39,65.5C38.6,66.2 38.2,66.9 37.9,67.6C37.9,68.2 37.5,68.5 37.1,68.6Z" style="fill:rgb(215,209,138);fill-rule:nonzero;"/>
                                        <path d="M34.3,85.5C33.7,85.7 33.3,85.3 33.3,84.8C33.3,84.3 33.7,83.7 34.3,83.5C36,83 37.4,81.4 37.8,79.7C35.2,79.9 33.3,78.3 33.3,75.5C33.3,74.9 33.7,74.4 34.3,74.2C34.9,74 35.3,74.4 35.3,74.9C35.3,76.9 36.9,78 38.9,77.4C39.5,77.2 39.9,77.6 39.9,78.1C39.9,81.3 37.3,84.6 34.3,85.5Z" style="fill:rgb(215,209,138);fill-rule:nonzero;"/>
                                        <path d="M43.9,112.8C43.5,112.9 43.2,112.8 43,112.5C42.6,111.7 42.3,110.7 42.3,109.7C42.3,107.5 43.3,105.1 45,103.3C45.4,102.8 46.1,102.7 46.4,103.1C46.7,103.4 46.7,104.1 46.2,104.6C45,105.9 44.2,107.6 44.2,109.2C44.2,110 44.4,110.6 44.7,111.2C44.9,111.6 44.7,112.3 44.2,112.7C44.1,112.7 44,112.8 43.9,112.8Z" style="fill:rgb(215,209,138);fill-rule:nonzero;"/>
                                        <path d="M46.5,104.6C44.5,105.2 42.6,105 41.1,104C40.7,103.7 40.7,103.1 41.1,102.6C41.5,102.1 42.1,101.9 42.5,102.2C43.6,102.9 44.9,103.1 46.4,102.6C47.8,102.2 49.2,101.3 50.2,100C50.6,99.5 51.2,99.3 51.6,99.6C52,99.9 51.9,100.5 51.5,101C50.2,102.8 48.4,104 46.5,104.6Z" style="fill:rgb(215,209,138);fill-rule:nonzero;"/>
                                        <path d="M43.2,125.7L5.7,136.9L5.7,58.4L43.2,47.2C43.3,46.9 43.3,46.6 43.4,46.2L43.4,45.6C43.4,45.3 43.4,45.1 43.5,44.8L43.5,44.1L2.8,56.3L2.8,140.6L43.3,128.5C43.2,127.6 43.2,126.7 43.2,125.7Z" style="fill:white;fill-rule:nonzero;"/>
                                    </g>
                                </g>
                            </g>
                        </g>
                    </g>
                </g>
                <g>
                    <g>
                        <g>
                            <g>
                                <clipPath id="_clip2">
                                    <path d="M85.4,133.1L44.4,133.8L44.4,44.7L85.4,44L85.4,133.1Z"/>
                                </clipPath>
                                <g clip-path="url(#_clip2)">
                                    <g>
                                        <path d="M78.6,90.7C69.4,84.8 62.2,86.3 56.4,92.9C53.1,91.2 49.5,90.7 45.6,91.3C42.2,91.4 39.5,94.1 39.5,97.5L39.5,97.6C35.7,98.1 32.7,101.4 32.7,105.4C32.9,106.8 33.3,108.1 33.8,109.4C36.3,115.4 42.2,119.5 49.1,119.4C52.2,119.3 55,118.5 57.5,117C89.1,108.5 96.5,121.1 106.1,119.8C111,119.1 113.5,116.4 113.6,112.4C115.8,110.8 117.3,108.3 117.3,105.4C117.3,104.3 117.1,103.2 116.7,102.3C117.4,101.2 117.8,99.9 117.8,98.5C117.8,96.8 117.2,95.2 116.1,94C116.2,93.5 116.3,93 116.3,92.5C116.3,90.1 115.1,88 113.2,86.8C113.3,86.4 113.3,86 113.3,85.7C113.3,82.7 111.4,80.2 108.7,79.3C108.8,78.7 108.9,78.2 108.9,77.6C108.9,73.2 105.5,69.6 101.1,69.3C99.9,61.9 93.4,56.4 85.6,56.5C85.3,56.5 85,56.5 84.7,56.6C83.1,54.5 80.5,53.2 77.6,53.3C76,53.3 74.5,53.8 73.3,54.5C71.9,52.5 69.5,51.2 66.8,51.2C65,51.2 63.2,51.9 61.9,53C60.6,51.9 58.8,51.3 57,51.4C54.4,51.5 52.2,52.7 50.8,54.6C49.2,54.1 47.6,53.8 45.8,53.9C39.7,54 34.5,57.5 31.9,62.6C31.1,62.4 30.2,62.2 29.3,62.3C24.9,62.4 21.2,65.9 20.9,70.3C15,73.4 11,79.7 11,86.9C11,97.4 19.5,105.8 30,105.6C30.9,105.6 31.8,105.5 32.6,105.4" style="fill:rgb(34,34,34);fill-rule:nonzero;"/>
                                        <path d="M104.9,121.8C101.8,121.9 99,120.8 95.7,119.6C88.5,116.9 78.7,113.3 58.2,118.8C55.4,120.4 52.3,121.3 49.1,121.4C41.5,121.5 34.8,117.2 31.9,110.2C31.6,109.4 31.3,108.5 31,107.6C18.9,108.4 9,98.9 9,87C9,79.7 12.8,72.9 19,68.9C19.9,64 24.2,60.2 29.3,60.1C29.8,60.1 30.3,60.1 30.9,60.2C34.1,55.1 39.7,51.9 45.8,51.8C47.3,51.8 48.7,51.9 50.1,52.3C51.9,50.5 54.4,49.4 57,49.4C58.7,49.4 60.4,49.8 61.9,50.6C63.4,49.7 65.1,49.3 66.8,49.2C69.5,49.2 72,50.2 73.8,52C75,51.5 76.3,51.3 77.6,51.3C80.7,51.2 83.5,52.4 85.5,54.6L85.6,54.6C93.8,54.4 100.8,59.8 102.7,67.6C107.3,68.6 110.8,72.7 110.8,77.6L110.8,78.1C113.5,79.6 115.2,82.5 115.2,85.7L115.2,85.9C117.1,87.5 118.2,89.9 118.2,92.5C118.2,92.8 118.2,93.1 118.1,93.4C119.1,94.9 119.7,96.6 119.7,98.5C119.7,99.9 119.4,101.2 118.8,102.5C119.1,103.4 119.2,104.4 119.2,105.4C119.2,108.5 117.8,111.5 115.5,113.5C115,118.1 111.7,121.1 106.4,121.9C105.9,121.7 105.4,121.8 104.9,121.8ZM76.5,111.8C86.1,111.6 92.2,113.9 97.1,115.7C100.5,116.9 103.2,117.9 105.8,117.6C109.5,117 111.4,115.3 111.5,112.2C111.5,111.5 111.8,111 112.4,110.6C114.2,109.4 115.2,107.4 115.2,105.3C115.2,104.5 115.1,103.7 114.8,102.9C114.6,102.3 114.6,101.6 115,101.1C115.5,100.3 115.8,99.4 115.8,98.4C115.8,97.2 115.4,96.1 114.6,95.2C114.2,94.7 114,94.1 114.2,93.4C114.3,93.1 114.3,92.7 114.3,92.4C114.3,90.8 113.5,89.3 112.1,88.4C111.4,88 111.1,87.2 111.2,86.4C111.2,86.2 111.3,85.9 111.3,85.6C111.3,83.5 110,81.7 108.1,81.1C107.2,80.8 106.6,79.8 106.8,78.8C106.9,78.4 106.9,78 106.9,77.5C106.9,74.2 104.3,71.4 101,71.2C100.1,71.1 99.3,70.5 99.2,69.6C98,63 92.3,58.3 85.6,58.5L84.8,58.5C84.1,58.6 83.5,58.3 83.1,57.7C81.8,56 79.8,55.1 77.6,55.1C76.4,55.1 75.3,55.4 74.3,56C73.4,56.5 72.3,56.3 71.7,55.4C70.6,53.8 68.8,52.9 66.9,53C65.6,53 64.3,53.5 63.3,54.3C62.6,54.9 61.5,54.9 60.8,54.4C59.8,53.6 58.5,53.2 57.1,53.2C55.3,53.2 53.6,54.1 52.4,55.6C51.9,56.3 51,56.6 50.2,56.3C48.8,55.9 47.4,55.6 45.9,55.7C40.8,55.8 36.1,58.7 33.8,63.3C33.4,64.2 32.3,64.6 31.4,64.3C30.8,64.1 30.1,64 29.5,64C26.1,64.1 23.3,66.7 23.1,70.1C23.1,70.8 22.7,71.4 22.1,71.7C16.7,74.8 13.3,80.6 13.3,86.8C13.3,96.4 21.3,104.1 31.1,103.5C31.8,99.9 34.4,97 37.9,95.9C38.7,92.2 41.9,89.4 45.7,89.2C49.4,88.6 53,89 56.2,90.3C62.9,83.5 70.8,83.1 79.9,88.9C80.8,89.5 81.1,90.7 80.5,91.7C79.9,92.6 78.6,92.9 77.7,92.3C69.9,87.3 63.6,87.8 58.2,94.1C57.6,94.8 56.6,95 55.7,94.6C52.8,93.1 49.7,92.6 46.2,93.2L45.9,93.2C43.6,93.2 41.8,95.1 41.8,97.4C41.8,98.4 41,99.3 40,99.5C37.2,99.9 35.1,102.3 35,105.1C35.2,106.3 35.5,107.4 35.9,108.4C38.2,113.8 43.5,117.3 49.4,117.2C52,117.1 54.5,116.4 56.8,115.1C57,115 57.1,114.9 57.3,114.9C64.8,112.8 71.2,112 76.5,111.8Z" style="fill:rgb(215,209,138);fill-rule:nonzero;"/>
                                        <path d="M47.4,91.5C47.3,91.5 47.1,91.5 47,91.4C46.5,91.2 46.2,90.6 46.5,90.1C46.8,89.4 46.9,88.7 46.9,87.9C46.9,87 46.7,86.1 46.3,85.3C46,84.8 46.2,84.2 46.7,83.9C47.2,83.6 47.8,83.8 48.1,84.3C48.7,85.4 49,86.6 49,87.8C49,88.8 48.8,89.8 48.4,90.7C48.2,91.3 47.8,91.5 47.4,91.5Z" style="fill:rgb(215,209,138);fill-rule:nonzero;"/>
                                        <path d="M37.3,66.7C37.2,66.7 37,66.7 36.9,66.6C36.4,66.4 36.2,65.8 36.4,65.3C36.7,64.5 37.2,63.8 37.7,63.1C41.3,58.5 47.9,57.5 52.4,61C53.5,61.8 54.4,62.9 55.1,64.1C55.4,64.6 55.2,65.2 54.7,65.5C54.2,65.8 53.6,65.6 53.3,65.1C52.7,64.1 52,63.3 51.1,62.6C47.4,59.8 42.1,60.5 39.2,64.3C38.8,64.9 38.4,65.4 38.1,66.1C38,66.4 37.6,66.7 37.3,66.7Z" style="fill:rgb(215,209,138);fill-rule:nonzero;"/>
                                        <path d="M52.4,63.1C51.8,63.1 51.4,62.7 51.4,62.1C51.4,61.5 51.8,61.1 52.4,61.1C54,61.1 55.2,59.8 55.2,58.3C55.2,57.7 55.6,57.3 56.2,57.3C56.8,57.3 57.2,57.7 57.2,58.3C57.2,60.9 55,63.1 52.4,63.1Z" style="fill:rgb(215,209,138);fill-rule:nonzero;"/>
                                        <path d="M53,82.4C52.7,82.4 52.4,82.3 52.2,82.1C50.6,80.2 49.7,77.8 49.7,75.3C49.7,72.8 50.5,70.7 51.9,68.8C52.2,68.4 52.9,68.3 53.3,68.6C53.7,68.9 53.8,69.6 53.5,70C52.3,71.5 51.7,73.4 51.7,75.3C51.7,77.3 52.4,79.3 53.7,80.8C54.1,81.2 54,81.9 53.6,82.2C53.5,82.4 53.3,82.4 53,82.4Z" style="fill:rgb(215,209,138);fill-rule:nonzero;"/>
                                        <path d="M50.7,76.3C50.4,76.3 50.1,76.2 49.9,75.9C49.1,74.7 47.9,73.9 46.5,73.6C46,73.5 45.6,72.9 45.7,72.4C45.8,71.9 46.4,71.5 46.9,71.6C48.8,72 50.5,73.1 51.6,74.7C51.9,75.1 51.8,75.8 51.3,76.1C51,76.2 50.8,76.3 50.7,76.3Z" style="fill:rgb(215,209,138);fill-rule:nonzero;"/>
                                        <path d="M59.3,78.7C59.1,78.7 58.9,78.6 58.7,78.5C57.2,77.5 56.3,75.9 56.3,74.1C56.3,71.7 57.8,69.6 60.1,68.9C60.2,68.9 60.2,68.8 60.3,68.8C63.5,67.6 65.7,64.5 65.7,61.1C65.7,59.9 65.4,58.7 64.9,57.5C64.7,57 64.9,56.4 65.3,56.2C65.8,55.9 66.4,56.1 66.6,56.6C67.3,58 67.6,59.5 67.6,61C67.6,65.2 65,69 61.1,70.5C61,70.6 60.9,70.6 60.8,70.7C59.3,71.1 58.3,72.5 58.3,74C58.3,75.1 58.9,76.2 59.8,76.8C60.3,77.1 60.4,77.7 60.1,78.2C59.9,78.5 59.6,78.7 59.3,78.7Z" style="fill:rgb(215,209,138);fill-rule:nonzero;"/>
                                        <path d="M70,79.8C69.6,79.8 69.2,79.6 69.1,79.2C68.5,77.8 68.2,76.3 68.2,74.7C68.2,68.3 73.4,63 79.8,62.9C82,62.9 84.1,63.4 85.9,64.5C86.4,64.8 86.5,65.4 86.2,65.9C85.9,66.4 85.3,66.5 84.8,66.2C83.3,65.3 81.6,64.8 79.8,64.9C74.5,65 70.2,69.4 70.2,74.6C70.2,75.9 70.4,77.1 71,78.3C71.2,78.8 71,79.4 70.5,79.6C70.3,79.7 70.1,79.7 70,79.8Z" style="fill:rgb(215,209,138);fill-rule:nonzero;"/>
                                        <path d="M75.8,65.7C75.4,65.7 75,65.4 74.8,65C74.6,64.4 74.5,63.8 74.5,63.2C74.5,60.7 76,58.5 78.2,57.5C78.7,57.3 79.3,57.5 79.5,58C79.7,58.5 79.5,59.1 79,59.3C77.5,60 76.5,61.5 76.5,63.1C76.5,63.5 76.6,63.9 76.7,64.3C76.9,64.8 76.6,65.4 76,65.6C76,65.7 75.9,65.7 75.8,65.7Z" style="fill:rgb(215,209,138);fill-rule:nonzero;"/>
                                        <path d="M88.7,84.6C88.1,84.6 87.7,84.2 87.7,83.6C87.7,79.9 84.7,77 81.1,77.1C78.7,77.1 76.4,78.5 75.3,80.7C75,81.2 74.4,81.4 73.9,81.1C73.4,80.9 73.2,80.2 73.5,79.8C75,77 77.9,75.2 81.1,75.1C85.9,75 89.7,78.8 89.7,83.6C89.7,84.1 89.3,84.6 88.7,84.6Z" style="fill:rgb(215,209,138);fill-rule:nonzero;"/>
                                        <path d="M81.1,77.1C80.9,77.1 80.6,77 80.4,76.9C78.7,75.5 77.8,73.5 77.8,71.3C77.8,70.4 78,69.5 78.3,68.6C78.5,68.1 79.1,67.8 79.6,68C80.1,68.2 80.4,68.8 80.2,69.3C80,69.9 79.8,70.6 79.8,71.3C79.8,72.9 80.5,74.4 81.7,75.4C82.1,75.7 82.2,76.4 81.8,76.8C81.7,77 81.4,77.1 81.1,77.1Z" style="fill:rgb(215,209,138);fill-rule:nonzero;"/>
                                        <path d="M44,112.7C43.6,112.7 43.3,112.5 43.1,112.1C42.7,111.2 42.4,110.1 42.4,109.1C42.4,106.9 43.4,104.8 45.1,103.4C45.5,103.1 46.2,103.1 46.5,103.6C46.8,104 46.8,104.7 46.3,105C45.1,106 44.3,107.5 44.3,109.1C44.3,109.9 44.5,110.6 44.8,111.3C45,111.8 44.8,112.4 44.3,112.6C44.2,112.7 44.1,112.7 44,112.7Z" style="fill:rgb(215,209,138);fill-rule:nonzero;"/>
                                        <path d="M46.6,105.2C44.6,105.2 42.7,104.5 41.2,103.1C40.8,102.7 40.8,102.1 41.2,101.7C41.6,101.3 42.2,101.3 42.6,101.7C43.7,102.7 45,103.3 46.5,103.3C47.9,103.3 49.3,102.7 50.3,101.7C50.7,101.3 51.3,101.3 51.7,101.7C52.1,102.1 52,102.7 51.6,103.1C50.4,104.5 48.5,105.2 46.6,105.2Z" style="fill:rgb(215,209,138);fill-rule:nonzero;"/>
                                        <path d="M54.2,104.2C52.2,104.2 50.3,103.5 48.8,102.1C48.4,101.7 48.4,101.1 48.8,100.7C49.2,100.3 49.8,100.3 50.2,100.7C51.3,101.7 52.6,102.3 54.1,102.3C55.6,102.3 57,101.7 58,100.6C58.4,100.2 59,100.2 59.4,100.6C59.8,101 59.8,101.6 59.4,102C58.1,103.3 56.2,104.1 54.2,104.2Z" style="fill:rgb(215,209,138);fill-rule:nonzero;"/>
                                        <path d="M62.4,102.9C60.4,102.9 58.5,102.2 57,100.8C56.6,100.4 56.6,99.8 57,99.4C57.4,99 58,99 58.4,99.4C59.5,100.4 60.8,101 62.3,101C63.8,101 65.2,100.4 66.2,99.3C66.6,98.9 67.2,98.9 67.6,99.3C68,99.7 68,100.3 67.6,100.7C66.3,102 64.4,102.9 62.4,102.9Z" style="fill:rgb(215,209,138);fill-rule:nonzero;"/>
                                        <path d="M76.2,103.2C71.3,103.3 66.6,101.2 63.4,97.5C63,97.1 63.1,96.4 63.5,96.1C63.9,95.7 64.6,95.8 64.9,96.2C67.7,99.5 71.8,101.3 76.2,101.2C80.6,101.1 84.4,99.3 87.2,96.1C87.6,95.7 88.2,95.6 88.6,96C89,96.4 89,97 88.7,97.4C85.6,101 81,103.1 76.2,103.2Z" style="fill:rgb(215,209,138);fill-rule:nonzero;"/>
                                        <path d="M78.2,110.3C74.4,110.4 70.9,109.2 67.9,106.9C67.5,106.6 67.4,105.9 67.7,105.5C68,105.1 68.7,105 69.1,105.3C71.7,107.3 74.8,108.4 78.1,108.3C80,108.3 81.9,107.9 83.7,107.1C84.2,106.9 84.8,107.1 85,107.6C85.2,108.1 85,108.7 84.5,108.9C82.6,109.8 80.5,110.2 78.2,110.3Z" style="fill:rgb(215,209,138);fill-rule:nonzero;"/>
                                        <path d="M62.7,111.7C61.3,111.7 59.9,111.5 58.5,111.1C58,110.9 57.7,110.4 57.9,109.8C58.1,109.2 58.7,109 59.2,109.1C60.3,109.5 61.5,109.6 62.7,109.6C65.3,109.5 67.9,108.6 69.8,106.8C70.2,106.4 70.9,106.5 71.2,106.9C71.6,107.3 71.5,108 71.1,108.3C68.8,110.5 65.8,111.7 62.7,111.7Z" style="fill:rgb(215,209,138);fill-rule:nonzero;"/>
                                        <path d="M123,45.5L123,124L5.8,126.1L5.8,47.6L123,45.5M125.9,42.5L2.9,44.7L2.9,129.1L125.9,126.9L125.9,42.5Z" style="fill:white;fill-rule:nonzero;"/>
                                    </g>
                                </g>
                            </g>
                        </g>
                    </g>
                </g>
                <g>
                    <g>
                        <g>
                            <g>
                                <clipPath id="_clip3">
                                    <path d="M126.3,120.8L85.4,133.1L85.4,44L126.3,31.7L126.3,120.8Z"/>
                                </clipPath>
                                <g clip-path="url(#_clip3)">
                                    <g>
                                        <path d="M79,92.4C69.8,89.1 62.6,92.6 56.8,100.8C53.5,100 49.9,100.5 46,102.3C42.6,103.3 39.9,106.9 39.9,110.3L39.9,110.4C36.1,112 33.1,116.2 33.1,120.1C33.3,121.4 33.7,122.7 34.2,123.7C36.7,129 42.6,131.4 49.5,129.3C52.6,128.4 55.4,126.7 57.9,124.5C89.5,107.1 96.9,117.6 106.5,113.6C111.4,111.5 113.9,108.2 114,104.1C116.2,101.9 117.7,98.9 117.7,96C117.7,94.9 117.5,93.9 117.1,93.1C117.8,91.8 118.2,90.4 118.2,89C118.2,87.3 117.6,85.9 116.5,85C116.6,84.5 116.7,84 116.7,83.5C116.7,81.1 115.5,79.4 113.6,78.7C113.7,78.3 113.7,77.9 113.7,77.5C113.7,74.5 111.8,72.5 109.1,72.4C109.2,71.8 109.3,71.2 109.3,70.6C109.3,66.2 105.9,63.6 101.5,64.5C100.3,57.4 93.8,53.7 86,56C85.7,56.1 85.4,56.2 85.1,56.3C83.5,54.7 80.9,54.1 78,54.9C76.4,55.4 74.9,56.2 73.7,57.3C72.3,55.7 69.9,55.1 67.2,55.9C65.4,56.5 63.6,57.6 62.3,59.1C61,58.4 59.2,58.3 57.4,58.9C54.8,59.7 52.6,61.5 51.2,63.8C49.6,63.7 48,64 46.2,64.5C40.1,66.3 34.9,71.3 32.3,77.1C31.5,77.1 30.6,77.2 29.7,77.5C25.3,78.8 21.6,83.4 21.3,87.9C15.5,92.9 11.5,100.3 11.5,107.5C11.5,118 20,124 30.5,120.8C31.4,120.5 32.3,120.2 33.1,119.8" style="fill:rgb(34,34,34);fill-rule:nonzero;"/>
                                        <path d="M105.4,116.1C102.3,117 99.5,116.8 96.2,116.5C89,115.9 79.2,115 58.7,126.2C55.9,128.6 52.8,130.4 49.6,131.3C42,133.6 35.3,131.1 32.4,125C32.1,124.3 31.8,123.5 31.5,122.7C19.4,126.9 9.5,120.2 9.5,108.3C9.5,101 13.3,93.1 19.5,87.5C20.4,82.3 24.7,77.3 29.8,75.8C30.3,75.6 30.8,75.5 31.4,75.5C34.6,69.4 40.2,64.7 46.3,62.9C47.8,62.5 49.2,62.2 50.6,62.1C52.4,59.8 54.9,58 57.5,57.2C59.2,56.7 60.9,56.6 62.4,57C63.9,55.7 65.6,54.8 67.3,54.2C70,53.4 72.5,53.7 74.3,55C75.5,54.2 76.8,53.6 78.1,53.2C81.2,52.3 84,52.7 86,54.3L86.1,54.3C94.3,51.9 101.3,55.3 103.2,62.5C107.8,62.2 111.3,65.3 111.3,70.3L111.3,70.8C114,71.6 115.7,74 115.7,77.1L115.7,77.3C117.6,78.4 118.7,80.5 118.7,83.1C118.7,83.4 118.7,83.7 118.6,84C119.6,85.2 120.2,86.8 120.2,88.6C120.2,90 119.9,91.4 119.3,92.8C119.6,93.7 119.7,94.6 119.7,95.6C119.7,98.7 118.3,102 116,104.7C115.5,109.4 112.2,113.4 106.9,115.7C106.3,115.8 105.8,116 105.4,116.1ZM77,114.2C86.6,111.3 92.7,111.9 97.6,112.3C101,112.6 103.7,112.9 106.3,111.7C110,110.1 111.9,107.8 112,104.7C112,104 112.3,103.4 112.9,102.8C114.7,101.1 115.7,98.8 115.7,96.7C115.7,95.9 115.6,95.1 115.3,94.5C115.1,94 115.1,93.3 115.5,92.6C116,91.7 116.3,90.7 116.3,89.7C116.3,88.5 115.9,87.5 115.1,86.9C114.7,86.5 114.5,85.9 114.7,85.2C114.8,84.9 114.8,84.5 114.8,84.2C114.8,82.6 114,81.3 112.6,80.8C111.9,80.6 111.6,79.9 111.7,79C111.7,78.7 111.8,78.5 111.8,78.2C111.8,76.1 110.5,74.7 108.6,74.6C107.7,74.5 107.1,73.7 107.3,72.7C107.4,72.3 107.4,71.8 107.4,71.4C107.4,68.1 104.8,66 101.5,66.8C100.6,67 99.8,66.5 99.7,65.7C98.6,59.4 92.9,56.3 86.2,58.3C85.9,58.4 85.6,58.5 85.4,58.6C84.7,58.8 84.1,58.8 83.7,58.3C82.4,57 80.4,56.6 78.2,57.2C77,57.6 75.9,58.2 74.9,59.1C74,59.9 72.9,59.9 72.3,59.3C71.2,58.1 69.4,57.6 67.5,58.2C66.2,58.6 64.9,59.4 63.9,60.5C63.2,61.3 62.1,61.6 61.4,61.3C60.4,60.8 59.1,60.7 57.7,61.1C55.9,61.7 54.2,63 53,64.8C52.5,65.6 51.6,66.2 50.8,66.1C49.4,66 48,66.2 46.5,66.7C41.4,68.2 36.7,72.5 34.4,77.7C34,78.7 32.9,79.4 32,79.4C31.4,79.4 30.7,79.5 30.1,79.7C26.7,80.7 23.9,84.2 23.7,87.6C23.7,88.3 23.3,89 22.7,89.5C17.3,94.1 13.9,100.8 13.9,107C13.9,116.6 21.9,122.1 31.7,118.7C32.4,114.9 35,111.3 38.5,109.2C39.3,105.3 42.5,101.6 46.3,100.3C50,98.6 53.6,98 56.8,98.5C63.5,89.9 71.4,87.1 80.5,90.4C81.4,90.7 81.7,91.9 81.1,93C80.5,94.1 79.2,94.7 78.3,94.4C70.5,91.6 64.2,93.9 58.8,101.7C58.2,102.6 57.2,103.1 56.3,102.9C53.4,102.2 50.3,102.6 46.8,104.2C46.7,104.3 46.6,104.3 46.5,104.3C44.2,105 42.4,107.4 42.4,109.7C42.4,110.7 41.6,111.9 40.6,112.3C37.8,113.5 35.7,116.5 35.6,119.3C35.8,120.4 36.1,121.4 36.5,122.4C38.8,127.2 44.1,129.2 50,127.4C52.6,126.6 55.1,125.2 57.4,123.2C57.6,123.1 57.7,122.9 57.9,122.8C65.3,118.4 71.7,115.8 77,114.2Z" style="fill:rgb(215,209,138);fill-rule:nonzero;"/>
                                        <path d="M70.5,83.9C70.1,84 69.7,83.9 69.6,83.6C69,82.4 68.7,80.9 68.7,79.4C68.7,73 73.9,66.3 80.3,64.3C82.5,63.7 84.6,63.6 86.4,64.2C86.9,64.4 87,64.9 86.7,65.5C86.4,66.1 85.8,66.4 85.3,66.2C83.8,65.7 82.1,65.8 80.3,66.3C75,67.9 70.7,73.5 70.7,78.7C70.7,80 70.9,81.2 71.5,82.2C71.7,82.6 71.5,83.3 71,83.7C70.7,83.8 70.6,83.9 70.5,83.9Z" style="fill:rgb(215,209,138);fill-rule:nonzero;"/>
                                        <path d="M89.2,83.5C88.6,83.7 88.2,83.3 88.2,82.8C88.2,79.1 85.2,77.1 81.6,78.2C79.2,78.9 76.9,80.9 75.8,83.4C75.5,84 74.9,84.3 74.4,84.2C73.9,84.1 73.7,83.5 74,83C75.5,79.7 78.4,77.1 81.6,76.2C86.4,74.8 90.2,77.5 90.2,82.2C90.2,82.8 89.7,83.4 89.2,83.5Z" style="fill:rgb(215,209,138);fill-rule:nonzero;"/>
                                        <path d="M87.3,79.1C87.2,79.1 87.1,79.2 86.9,79.1C86.4,79 86.1,78.5 86.3,78C87.1,75.9 88.6,73.9 90.6,72.7C91.1,72.4 91.7,72.5 91.9,73C92.1,73.5 91.8,74.1 91.3,74.5C89.9,75.3 88.8,76.7 88.3,78.2C88.1,78.7 87.7,79 87.3,79.1Z" style="fill:rgb(215,209,138);fill-rule:nonzero;"/>
                                        <path d="M101.8,74.8C101.3,74.9 100.9,74.7 100.8,74.3C99.9,70.3 96.1,68.4 91.8,69.7C91.2,69.9 90.8,69.5 90.8,69C90.8,68.5 91.2,67.9 91.8,67.7C97.1,66.1 101.7,68.5 102.8,73.4C102.9,73.9 102.6,74.6 102,74.8L101.8,74.8Z" style="fill:rgb(215,209,138);fill-rule:nonzero;"/>
                                        <path d="M94.8,69.3C94.7,69.3 94.6,69.4 94.5,69.3C94,69.3 93.7,68.8 93.9,68.2C94,68 94,67.7 94,67.4C94,66.8 93.8,66.3 93.4,66C93,65.7 93,65.1 93.4,64.6C93.8,64.1 94.4,63.9 94.8,64.2C95.6,64.8 96,65.7 96,66.8C96,67.3 95.9,67.8 95.8,68.3C95.6,68.8 95.2,69.2 94.8,69.3Z" style="fill:rgb(215,209,138);fill-rule:nonzero;"/>
                                        <path d="M76.7,105.7C71.8,107.2 67.1,106.4 63.9,103.6C63.5,103.3 63.6,102.6 64,102.2C64.4,101.8 65.1,101.6 65.4,101.9C68.2,104.4 72.3,105 76.7,103.7C80.9,102.4 84.9,99.5 87.7,95.5C88.1,95 88.7,94.7 89.1,95C89.5,95.3 89.5,95.9 89.2,96.4C86,100.8 81.4,104.2 76.7,105.7Z" style="fill:rgb(215,209,138);fill-rule:nonzero;"/>
                                        <path d="M88.5,96.9L88.2,96.9C87.7,96.9 87.4,96.5 87.5,95.9C88.4,92.2 90.4,88.6 93.3,85.5C93.7,85 94.4,84.9 94.7,85.2C95.1,85.5 95,86.2 94.5,86.7C92,89.4 90.3,92.6 89.4,95.9C89.3,96.3 88.9,96.8 88.5,96.9Z" style="fill:rgb(215,209,138);fill-rule:nonzero;"/>
                                        <path d="M97.6,92.7C97.5,92.7 97.3,92.8 97.2,92.7C94.6,92.2 92.9,90.1 92.9,87.2C92.9,85.2 93.7,83.1 95.1,81.2C95.5,80.7 96.1,80.5 96.5,80.8C96.9,81.1 96.9,81.7 96.5,82.2C95.5,83.6 94.9,85.1 94.9,86.6C94.9,88.7 96.1,90.3 98.1,90.7C98.6,90.8 98.8,91.3 98.6,91.9C98.3,92.2 98,92.6 97.6,92.7Z" style="fill:rgb(215,209,138);fill-rule:nonzero;"/>
                                        <path d="M103.8,88.9C103.6,89 103.4,89 103.2,88.9C102.8,88.7 102.7,88.1 103,87.5C103.8,86.3 104.2,85 104.2,83.7C104.2,81.7 103.1,80.2 101.3,79.7C100.8,79.6 100.6,79 100.9,78.5C101.2,77.9 101.8,77.6 102.3,77.7C104.7,78.3 106.2,80.4 106.2,83.1C106.2,84.8 105.6,86.6 104.6,88.2C104.4,88.6 104.1,88.8 103.8,88.9Z" style="fill:rgb(215,209,138);fill-rule:nonzero;"/>
                                        <path d="M108.9,91.7C108.8,91.7 108.6,91.8 108.5,91.7C108,91.6 107.7,91.1 108,90.5C108.1,90.1 108.2,89.7 108.2,89.3C108.2,87.7 106.9,86.8 105.3,87.3C105.1,87.4 104.9,87.4 104.7,87.5C104.1,87.8 103.6,87.6 103.5,87.1C103.4,86.6 103.7,85.9 104.3,85.7C104.6,85.5 105,85.4 105.3,85.3C108,84.5 110.2,86 110.2,88.7C110.2,89.4 110.1,90 109.8,90.7C109.6,91.2 109.3,91.5 108.9,91.7Z" style="fill:rgb(215,209,138);fill-rule:nonzero;"/>
                                        <path d="M78.7,112.2C74.9,113.3 71.4,113.1 68.4,111.7C68,111.5 67.9,110.9 68.2,110.3C68.5,109.8 69.2,109.5 69.6,109.7C72.2,111 75.3,111.1 78.6,110.2C80.5,109.6 82.4,108.7 84.2,107.4C84.7,107 85.3,107.1 85.5,107.5C85.7,107.9 85.5,108.6 85,109C83.1,110.4 80.9,111.5 78.7,112.2Z" style="fill:rgb(215,209,138);fill-rule:nonzero;"/>
                                        <path d="M106.3,106.9L106,106.9C102.6,106.9 100.3,104.5 100.3,100.9C100.3,100.3 100.7,99.8 101.3,99.6C101.9,99.4 102.3,99.8 102.3,100.3C102.3,103 104,104.8 106.6,104.8C107.1,104.8 107.4,105.3 107.3,105.9C107.2,106.3 106.8,106.8 106.3,106.9Z" style="fill:rgb(215,209,138);fill-rule:nonzero;"/>
                                        <path d="M101.4,101.6C100.9,101.8 100.4,101.5 100.4,100.9C100.4,100.3 100.8,99.8 101.4,99.6C102.9,99.1 104.3,98 105.4,96.6C105.8,96 106.2,95.4 106.5,94.8C106.8,94.2 107.4,93.9 107.9,94C108.4,94.1 108.6,94.7 108.3,95.2C107.9,96 107.4,96.8 106.9,97.6C105.3,99.5 103.4,100.9 101.4,101.6Z" style="fill:rgb(215,209,138);fill-rule:nonzero;"/>
                                        <path d="M123.4,34.8L123.4,113.3L6.3,148.4L6.3,69.8L123.4,34.8M126.3,31L3.4,67.8L3.4,152.2L126.4,115.4L126.3,31Z" style="fill:white;fill-rule:nonzero;"/>
                                    </g>
                                </g>
                            </g>
                        </g>
                    </g>
                </g>
            </g>
            <path d="M44.9,128.4L42.7,128.8L42.7,45.1L44.9,44.7L44.9,128.4Z" style="fill:white;fill-rule:nonzero;"/>
            <path d="M86.5,126.6L84.3,127L84.3,44.1L86.5,43.8L86.5,126.6Z" style="fill:white;fill-rule:nonzero;"/>
        </g>
        <path d="M2.8,56.4L2.8,140.7L44.9,128.4L84.3,127L126.3,115.4L126.3,31.7L85.4,45.6L43.5,44.9L2.8,56.4Z" style="fill:none;fill-rule:nonzero;stroke:white;stroke-width:5px;"/>
        <path d="M64.9,0C52.2,0 41.9,10.3 41.9,23C41.9,35.7 64.9,80.4 64.9,80.4C64.9,80.4 87.9,35.7 87.9,23C87.9,10.3 77.6,0 64.9,0ZM64.9,39C56.1,39 49,31.9 49,23C49,14.1 56.1,7 64.9,7C73.7,7 80.8,14.1 80.8,23C80.8,31.9 73.7,39 64.9,39Z" style="fill:rgb(139,150,240);fill-rule:nonzero;"/>
    </g>
</svg>
