<?xml version="1.0" encoding="UTF-8"?><svg id="a" xmlns="http://www.w3.org/2000/svg" xmlns:xlink="http://www.w3.org/1999/xlink" viewBox="0 0 460.89 144.02"><defs><style>.e,.f,.g{fill:none;}.h{fill:#fff;}.i{fill:#30302e;}.j{fill:#aaa561;}.k{fill:#3e50a2;}.f{stroke:#30302e;stroke-width:5px;}.f,.g{stroke-miterlimit:10;}.l{clip-path:url(#c);}.m{clip-path:url(#b);}.n{clip-path:url(#d);}.g{stroke:#878786;stroke-width:.5px;}</style><clipPath id="b"><polygon points="43.46 133.92 2.5 146.17 2.5 57.11 43.46 44.86 43.46 133.92" style="fill:none;"/></clipPath><clipPath id="c"><polygon points="85.07 133.06 44.1 133.8 44.1 44.73 85.07 44 85.07 133.06" style="fill:none;"/></clipPath><clipPath id="d"><polygon points="126.03 120.81 85.07 133.06 85.07 44 126.03 31.74 126.03 120.81" style="fill:none;"/></clipPath></defs><g><path d="M154.54,95.77V55.5h8.63c1.86,0,3.52,.19,4.99,.58s2.75,.98,3.85,1.78,1.95,1.84,2.54,3.15c.59,1.3,.89,2.82,.89,4.56,0,2.52-.53,4.43-1.6,5.74-1.06,1.31-2.7,2.27-4.92,2.89,2.4,.79,4.19,1.96,5.39,3.49,1.2,1.54,1.8,3.73,1.8,6.57,0,3.55-1.03,6.36-3.09,8.42s-4.86,3.09-8.41,3.09h-10.07Zm5.75-23.01h2.88c4.79,0,7.19-2.4,7.19-7.19,0-.79-.1-1.49-.29-2.1-.19-.61-.43-1.11-.7-1.52-.27-.4-.68-.75-1.22-1.02-.55-.28-1.04-.49-1.49-.64-.45-.15-1.09-.26-1.92-.33s-1.52-.11-2.08-.12c-.55-.01-1.34-.02-2.36-.02v12.94h-.01Zm0,18.69h2.88c2.49,0,4.31-.57,5.46-1.72,1.15-1.15,1.73-2.97,1.73-5.47s-.58-4.33-1.73-5.47c-1.15-1.15-2.97-1.72-5.46-1.72h-2.88v14.38Z" style="fill:#30302e;"/><path d="M183.52,95.77V55.5h7.19c4.28,0,7.51,.83,9.68,2.49s3.26,4.43,3.26,8.29c0,2.4-.43,4.4-1.28,6.02-.85,1.62-2.1,2.73-3.75,3.33l6.47,20.13h-5.71l-5.8-18.69h-4.31v18.69h-5.75Zm5.75-23h1.44c2.4,0,4.19-.51,5.39-1.52,1.2-1.01,1.8-2.66,1.8-4.95s-.6-3.94-1.8-4.95c-1.2-1.01-3-1.52-5.39-1.52h-1.44v12.94h0Z" style="fill:#30302e;"/><path d="M209.12,95.77l8.63-40.27h5.75l8.63,40.27h-5.75l-2.16-10.07h-7.19l-2.16,10.07h-5.75Zm8.63-14.38h5.75l-2.88-17.26-2.88,17.26h.01Z" style="fill:#30302e;"/><path d="M238.85,95.77V55.5h5.75v40.27h-5.75Z" style="fill:#30302e;"/><path d="M253.98,95.77V55.5h4.31l10.07,24.9v-24.9h5.75v40.27h-4.09l-10.29-26.78v26.78h-5.75Z" style="fill:#30302e;"/><path d="M283.09,95.77V55.5h7.95l5.71,30.83,5.71-30.83h7.95v40.27h-5.75v-31.77l-5.75,31.77h-4.31l-5.75-31.77v31.77h-5.76Z" style="fill:#30302e;"/><path d="M316.87,95.77l8.63-40.27h5.75l8.63,40.27h-5.75l-2.16-10.07h-7.19l-2.16,10.07h-5.75Zm8.63-14.38h5.75l-2.88-17.26-2.88,17.26h.01Z" style="fill:#30302e;"/><path d="M346.33,95.77V55.5h10.07c6.71,0,10.07,3.83,10.07,11.5,0,3.28-.87,5.78-2.6,7.49-1.73,1.72-4.22,2.57-7.47,2.57h-4.31v18.69h-5.75v.02Zm5.74-23.01h1.44c1.3,0,2.37-.07,3.2-.22,.83-.15,1.56-.43,2.2-.84,.64-.41,1.09-1,1.37-1.76s.42-1.74,.42-2.92c0-1.44-.11-2.6-.31-3.49-.21-.89-.6-1.62-1.16-2.19s-1.29-.96-2.18-1.18c-.89-.22-2.07-.33-3.54-.33h-1.44v12.94h0Z" style="fill:#30302e;"/><path d="M367.46,95.77v-5.75h5.75v5.75h-5.75Z" style="fill:#30302e;"/><path d="M391.13,96.18c-2.02,0-3.76-.31-5.2-.92-1.45-.61-2.6-1.51-3.45-2.7-.85-1.18-1.48-2.57-1.87-4.17-.39-1.6-.58-3.45-.58-5.56v-14.6c0-2.11,.19-3.95,.58-5.53,.39-1.57,1.01-2.94,1.87-4.1,.85-1.16,2-2.03,3.45-2.62,1.45-.58,3.18-.88,5.2-.88,3.92,0,6.76,1.12,8.49,3.37,1.74,2.25,2.61,5.5,2.61,9.75v14.6c0,2.08-.2,3.92-.59,5.52-.4,1.6-1.02,2.99-1.88,4.18-.85,1.19-2,2.1-3.45,2.72s-3.17,.93-5.18,.93h0Zm-4.19-6.53c.77,1.21,2.17,1.82,4.19,1.82s3.42-.61,4.19-1.82,1.16-3,1.16-5.37v-17.48c0-2.34-.38-4.08-1.15-5.24-.76-1.15-2.17-1.73-4.2-1.73s-3.44,.58-4.2,1.73-1.15,2.9-1.15,5.24v17.48c0,2.37,.39,4.16,1.16,5.37Z" style="fill:#30302e;"/><path d="M410.48,95.77V55.5h7.19c4.28,0,7.51,.83,9.68,2.49,2.17,1.66,3.26,4.43,3.26,8.29,0,2.4-.43,4.4-1.28,6.02-.85,1.62-2.1,2.73-3.75,3.33l6.47,20.13h-5.71l-5.8-18.69h-4.31v18.69h-5.75Zm5.75-23h1.44c2.4,0,4.19-.51,5.39-1.52s1.8-2.66,1.8-4.95-.6-3.94-1.8-4.95c-1.2-1.01-3-1.52-5.39-1.52h-1.44v12.94h0Z" style="fill:#30302e;"/><path d="M449.39,96.18c-1.84,0-3.44-.26-4.8-.79-1.36-.52-2.46-1.24-3.31-2.13s-1.54-2.04-2.04-3.44c-.51-1.39-.86-2.86-1.06-4.4s-.29-3.32-.29-5.33v-10.2c0-9.86,3.91-14.78,11.73-14.78,1.87,0,3.5,.28,4.88,.84s2.49,1.38,3.35,2.46c.85,1.08,1.5,2.34,1.93,3.79,.43,1.45,.69,3.12,.76,5.02,.01,.27,.02,.68,.02,1.24h-5.75v-1.21c-.01-.94-.06-1.76-.15-2.44-.08-.68-.23-1.35-.45-2.01s-.51-1.19-.89-1.61c-.38-.41-.87-.74-1.49-.99s-1.36-.37-2.21-.37c-1.17,0-2.15,.21-2.95,.64-.8,.43-1.42,1.05-1.84,1.86-.43,.82-.73,1.72-.91,2.7-.18,.98-.27,2.12-.27,3.43v12.94c0,.96,.03,1.82,.09,2.6s.16,1.56,.3,2.36c.14,.8,.35,1.49,.63,2.08,.28,.58,.62,1.11,1.03,1.58s.93,.83,1.55,1.08,1.34,.37,2.15,.37c.96,0,1.79-.19,2.49-.56,.7-.37,1.26-.86,1.67-1.45s.74-1.34,.98-2.26c.24-.91,.4-1.82,.48-2.72,.08-.9,.12-1.92,.12-3.08v-1.44h-5.75v-4.27h11.5v20.09h-4.31l-1.44-4.31c-1.12,3.15-3.04,4.72-5.75,4.72h0Z" style="fill:#30302e;"/></g><g><g><polyline points="2.5 130.29 43.46 118.48 85.07 116.68 125.39 103.12" style="fill:none; stroke:#878786; stroke-miterlimit:10; stroke-width:.5px;"/><polyline points="2.5 124.44 43.46 112.62 85.07 110.82 125.39 97.26" style="fill:none; stroke:#878786; stroke-miterlimit:10; stroke-width:.5px;"/><polyline points="2.5 118.17 43.46 106.36 85.07 104.56 125.39 91" style="fill:none; stroke:#878786; stroke-miterlimit:10; stroke-width:.5px;"/><polyline points="2.5 112.54 43.46 100.72 85.07 98.93 125.39 85.37" style="fill:none; stroke:#878786; stroke-miterlimit:10; stroke-width:.5px;"/><polyline points="2.5 107.37 43.46 95.56 85.07 93.76 125.39 80.2" style="fill:none; stroke:#878786; stroke-miterlimit:10; stroke-width:.5px;"/><polyline points="2.5 100.33 43.46 88.52 85.07 86.72 125.39 73.16" style="fill:none; stroke:#878786; stroke-miterlimit:10; stroke-width:.5px;"/><polyline points="2.5 94.5 43.46 82.68 85.07 80.89 125.39 67.33" style="fill:none; stroke:#878786; stroke-miterlimit:10; stroke-width:.5px;"/><polyline points="2.5 88.87 43.46 77.06 85.07 75.26 125.39 61.7" style="fill:none; stroke:#878786; stroke-miterlimit:10; stroke-width:.5px;"/><polyline points="2.5 83.5 43.46 71.68 85.07 69.89 125.39 56.33" style="fill:none; stroke:#878786; stroke-miterlimit:10; stroke-width:.5px;"/><polyline points="2.5 78.1 43.46 66.28 85.07 64.49 125.39 50.93" style="fill:none; stroke:#878786; stroke-miterlimit:10; stroke-width:.5px;"/><polyline points="2.5 73.27 43.46 61.45 85.07 59.66 125.39 46.1" style="fill:none; stroke:#878786; stroke-miterlimit:10; stroke-width:.5px;"/><polyline points="2.5 67.85 43.46 56.03 85.07 54.24 125.39 40.67" style="fill:none; stroke:#878786; stroke-miterlimit:10; stroke-width:.5px;"/><polyline points="2.5 62.53 43.46 50.72 85.07 48.92 125.39 35.36" style="fill:none; stroke:#878786; stroke-miterlimit:10; stroke-width:.5px;"/></g><g><line x1="9.92" y1="54.26" x2="10.73" y2="137.06" style="fill:none; stroke:#878786; stroke-miterlimit:10; stroke-width:.5px;"/><line x1="15.48" y1="53.1" x2="16.29" y2="135.9" style="fill:none; stroke:#878786; stroke-miterlimit:10; stroke-width:.5px;"/><line x1="21.03" y1="50.27" x2="21.85" y2="133.06" style="fill:none; stroke:#878786; stroke-miterlimit:10; stroke-width:.5px;"/><line x1="26.59" y1="48.82" x2="27.41" y2="131.61" style="fill:none; stroke:#878786; stroke-miterlimit:10; stroke-width:.5px;"/><line x1="32.15" y1="47.5" x2="32.97" y2="130.29" style="fill:none; stroke:#878786; stroke-miterlimit:10; stroke-width:.5px;"/><line x1="37.71" y1="45.35" x2="38.52" y2="128.14" style="fill:none; stroke:#878786; stroke-miterlimit:10; stroke-width:.5px;"/></g><g><line x1="90.13" y1="42.8" x2="90.95" y2="125.59" style="fill:none; stroke:#878786; stroke-miterlimit:10; stroke-width:.5px;"/><line x1="95.69" y1="41.64" x2="96.51" y2="124.44" style="fill:none; stroke:#878786; stroke-miterlimit:10; stroke-width:.5px;"/><line x1="101.25" y1="38.81" x2="102.06" y2="121.6" style="fill:none; stroke:#878786; stroke-miterlimit:10; stroke-width:.5px;"/><line x1="106.8" y1="37.35" x2="107.62" y2="120.15" style="fill:none; stroke:#878786; stroke-miterlimit:10; stroke-width:.5px;"/><line x1="112.36" y1="36.04" x2="113.18" y2="118.83" style="fill:none; stroke:#878786; stroke-miterlimit:10; stroke-width:.5px;"/><line x1="117.92" y1="33.89" x2="118.74" y2="116.68" style="fill:none; stroke:#878786; stroke-miterlimit:10; stroke-width:.5px;"/></g><g><line x1="48.63" y1="46.1" x2="49.45" y2="128.89" style="fill:none; stroke:#878786; stroke-miterlimit:10; stroke-width:.5px;"/><line x1="54.19" y1="44.94" x2="55" y2="127.73" style="fill:none; stroke:#878786; stroke-miterlimit:10; stroke-width:.5px;"/><line x1="59.74" y1="42.1" x2="60.56" y2="124.9" style="fill:none; stroke:#878786; stroke-miterlimit:10; stroke-width:.5px;"/><line x1="66.13" y1="44" x2="66.13" y2="126.19" style="fill:none; stroke:#878786; stroke-miterlimit:10; stroke-width:.5px;"/><line x1="72.31" y1="44.94" x2="71.71" y2="125.59" style="fill:none; stroke:#878786; stroke-miterlimit:10; stroke-width:.5px;"/><line x1="78.4" y1="42.8" x2="77.29" y2="125.59" style="fill:none; stroke:#878786; stroke-miterlimit:10; stroke-width:.5px;"/></g><g><g><g style="clip-path:url(#b);"><g><path d="M33.37,114.26c-.69,.2-1.35,.05-1.72-.46-.91-1.24-1.39-2.83-1.39-4.6,0-1.05,.81-2.17,1.87-2.56,1.07-.39,1.98,.08,2.13,1.08,.17,1.16,.5,2.23,.96,3.19,.41,.85,0,2.1-.94,2.85-.29,.23-.6,.4-.91,.49h0Z" style="fill:#aaa561;"/><path d="M78.14,81.02c-9.25-3.34-16.4,.22-22.15,8.4-3.33-.81-6.94-.29-10.8,1.46-3.39,1.01-6.14,4.58-6.14,7.97v.06c-3.83,1.61-6.79,5.75-6.79,9.7,.2,1.33,.57,2.55,1.1,3.65,2.49,5.27,8.42,7.72,15.34,5.65,3.06-.91,5.92-2.6,8.38-4.77,31.63-17.44,39.02-6.87,48.59-10.85,4.85-2.07,7.37-5.44,7.47-9.52,2.21-2.18,3.66-5.16,3.66-8.05,0-1.1-.21-2.09-.59-2.94,.7-1.28,1.11-2.69,1.11-4.07,0-1.74-.64-3.14-1.72-4.02,.11-.5,.16-1.01,.16-1.52,0-2.39-1.22-4.13-3.08-4.8,.06-.39,.09-.77,.09-1.16,0-2.99-1.91-4.96-4.58-5.1,.12-.58,.17-1.17,.17-1.76,0-4.43-3.42-7.04-7.76-6.07-1.23-7.05-7.68-10.78-15.46-8.46-.32,.1-.64,.2-.95,.32-1.62-1.63-4.18-2.22-7.05-1.36-1.57,.47-3.05,1.32-4.33,2.42-1.42-1.62-3.79-2.25-6.48-1.45-1.84,.55-3.55,1.7-4.89,3.17-1.35-.67-3.05-.79-4.9-.24-2.55,.76-4.81,2.64-6.25,4.95-1.57-.07-3.24,.15-4.99,.67-6.05,1.81-11.3,6.81-13.91,12.62-.8-.02-1.66,.1-2.55,.37-4.45,1.33-8.11,5.88-8.4,10.36-5.85,4.99-9.82,12.42-9.82,19.58,0,10.5,8.51,16.46,19.01,13.32,.89-.26,1.76-.59,2.61-.96" style="fill:#fff;"/><path d="M104.48,104.72c-3.09,.92-5.94,.67-9.18,.37-7.18-.65-17.01-1.53-37.46,9.69-2.78,2.4-5.93,4.17-9.14,5.13-7.55,2.26-14.3-.23-17.19-6.34-.35-.73-.64-1.5-.86-2.33-12.08,4.17-22.01-2.49-22.01-14.41,0-7.3,3.79-15.19,9.96-20.85,.86-5.17,5.18-10.17,10.27-11.7,.52-.16,1.04-.27,1.55-.35,3.23-6.05,8.81-10.82,14.91-12.64,1.48-.44,2.94-.7,4.34-.76,1.84-2.34,4.28-4.08,6.9-4.86,1.72-.51,3.42-.57,4.9-.17,1.48-1.28,3.17-2.24,4.89-2.76,2.66-.8,5.19-.48,7.03,.83,1.2-.8,2.48-1.42,3.77-1.8,3.05-.91,5.9-.52,7.95,1.06l.05-.02c8.19-2.45,15.18,.98,17.14,8.2,4.64-.32,8.09,2.85,8.09,7.75,0,.17,0,.34,0,.51,2.69,.76,4.41,3.15,4.41,6.35v.22c1.89,1.1,2.98,3.18,2.98,5.75,0,.31-.02,.62-.05,.93,1.04,1.17,1.6,2.77,1.6,4.61,0,1.38-.32,2.83-.93,4.23,.27,.86,.41,1.79,.41,2.78,0,3.1-1.38,6.44-3.73,9.11-.51,4.72-3.8,8.68-9.15,10.97-.49,.2-.97,.37-1.45,.52v-.02Zm-28.35-1.95c9.55-2.86,15.68-2.3,20.63-1.86,3.38,.3,6.05,.55,8.69-.55,3.74-1.6,5.61-3.91,5.69-7.04,.02-.65,.34-1.34,.87-1.87,1.75-1.72,2.79-4.01,2.79-6.13,0-.82-.15-1.57-.45-2.24-.24-.54-.17-1.24,.19-1.9,.51-.94,.78-1.93,.78-2.88,0-1.19-.43-2.2-1.21-2.84-.43-.36-.6-.97-.45-1.65,.07-.34,.11-.69,.11-1.04,0-1.63-.81-2.9-2.18-3.4-.66-.24-1.01-.93-.87-1.75,.04-.27,.07-.54,.07-.81,0-2.06-1.3-3.5-3.23-3.61-.95-.05-1.51-.87-1.3-1.92,.09-.44,.13-.89,.13-1.33,0-3.33-2.59-5.36-5.91-4.63-.92,.2-1.68-.26-1.83-1.13-1.1-6.28-6.76-9.38-13.47-7.37-.27,.08-.55,.17-.82,.27-.67,.25-1.32,.15-1.73-.26-1.31-1.31-3.3-1.7-5.46-1.05-1.19,.36-2.32,.99-3.35,1.87-.9,.77-2.04,.85-2.63,.18-1.1-1.25-2.9-1.65-4.83-1.08-1.34,.4-2.6,1.21-3.64,2.35-.73,.8-1.77,1.11-2.5,.75-1.04-.52-2.31-.58-3.65-.18-1.84,.55-3.54,1.89-4.66,3.69-.52,.84-1.42,1.38-2.24,1.35-1.38-.06-2.84,.14-4.34,.59-5.12,1.53-9.77,5.75-12.13,11.01-.45,1.01-1.47,1.73-2.4,1.71-.62-.01-1.27,.08-1.93,.28-3.36,1.01-6.17,4.47-6.4,7.89-.05,.69-.43,1.42-1.03,1.93-5.42,4.62-8.79,11.33-8.79,17.52,0,9.63,8.01,15.05,17.78,11.66,.69-3.76,3.31-7.45,6.78-9.52,.75-3.92,3.96-7.64,7.82-8.87,3.73-1.67,7.26-2.27,10.51-1.82,6.66-8.64,14.63-11.36,23.71-8.09,.93,.33,1.18,1.5,.57,2.61s-1.86,1.74-2.78,1.4c-7.85-2.83-14.06-.52-19.55,7.28-.62,.88-1.64,1.36-2.46,1.17-2.92-.71-6.04-.28-9.54,1.3-.1,.05-.2,.08-.3,.11-2.28,.68-4.13,3.09-4.13,5.36,0,1.02-.76,2.16-1.77,2.58-2.82,1.18-4.95,4.19-5.02,7.04,.18,1.11,.49,2.13,.94,3.05,2.27,4.8,7.57,6.75,13.49,4.98,2.59-.78,5.14-2.23,7.37-4.19,.16-.14,.34-.27,.52-.37,7.83-4.32,14.21-6.97,19.54-8.56h0Z" style="fill:#aaa561;"/><path d="M38.56,100.13c-.55,.17-1-.15-1-.7,0-3.69-2.64-6-6.28-5.5-.55,.08-.92-.33-.83-.9s.6-1.1,1.15-1.18c4.62-.64,7.97,2.29,7.97,6.97,0,.55-.45,1.14-1,1.3h-.01Z" style="fill:#aaa561;"/><path d="M23.78,104.24c-.1,.03-.2,.04-.3,.04-3.35-.05-5.59-2.44-5.59-5.95,0-2.66,1.32-5.53,3.52-7.68,.46-.45,1.08-.51,1.39-.15,.31,.37,.19,1.03-.27,1.47-1.65,1.61-2.64,3.76-2.64,5.75,0,2.63,1.68,4.42,4.19,4.45,.53,0,.82,.48,.66,1.06-.13,.47-.53,.86-.96,.99v.02Z" style="fill:#aaa561;"/><path d="M19.49,93.96c-1.09,.32-2.11,.28-2.97-.12-.44-.21-.52-.81-.18-1.35s.97-.81,1.41-.61c1.19,.56,3.01-.19,3.96-1.64,.35-.53,.99-.78,1.41-.56,.43,.23,.49,.84,.14,1.37-.93,1.41-2.3,2.46-3.76,2.9h-.01Z" style="fill:#aaa561;"/><path d="M26.48,85.37c-.37,.11-.73,.01-.9-.29-.7-1.23-1.06-2.67-1.06-4.28,0-5.78,4.7-11.89,10.48-13.62,1.41-.42,2.79-.56,4.08-.4,.51,.06,.75,.58,.53,1.16-.22,.57-.8,.99-1.32,.93-1.04-.13-2.15-.02-3.3,.32-4.67,1.4-8.47,6.34-8.47,11.01,0,1.3,.29,2.46,.85,3.46,.24,.43,.04,1.09-.46,1.48-.14,.11-.29,.19-.44,.23h.01Z" style="fill:#aaa561;"/><path d="M36.83,68.64c-.14,.04-.28,.05-.41,.03-.51-.08-.73-.6-.5-1.18,.34-.87,.78-1.72,1.3-2.55,3.56-5.62,10.16-8.41,14.71-6.21,1.12,.54,2.03,1.33,2.71,2.35,.27,.4,.1,1.07-.39,1.48-.48,.41-1.1,.42-1.37,.02-.55-.83-1.29-1.46-2.19-1.9-3.68-1.77-9.02,.48-11.89,5.02-.42,.67-.78,1.36-1.05,2.06-.17,.42-.53,.75-.92,.87h0Z" style="fill:#aaa561;"/><path d="M33.95,85.53c-.55,.17-1-.15-1-.7s.45-1.14,1-1.3c1.68-.5,3.09-2.08,3.49-3.75-2.56,.25-4.5-1.44-4.5-4.16,0-.55,.45-1.14,1-1.3s1,.15,1,.7c0,1.99,1.62,3.12,3.6,2.53,.55-.17,1,.15,1,.7,0,3.09-2.52,6.36-5.61,7.29h.02Z" style="fill:#aaa561;"/><path d="M43.54,112.83c-.38,.11-.74,0-.91-.3-.45-.82-.68-1.78-.68-2.85,0-2.2,1-4.55,2.73-6.43,.44-.47,1.07-.58,1.41-.25,.34,.33,.26,.99-.17,1.46-1.25,1.35-1.96,3.03-1.96,4.61,0,.77,.17,1.45,.49,2.04,.24,.43,.02,1.09-.48,1.48-.14,.11-.29,.18-.43,.23h0Z" style="fill:#aaa561;"/><path d="M46.18,104.6c-2.03,.61-3.93,.39-5.36-.62-.39-.27-.39-.91,0-1.42,.39-.51,1.03-.7,1.42-.42,1.05,.74,2.45,.9,3.94,.45,1.41-.42,2.75-1.35,3.78-2.61,.41-.5,1.04-.66,1.42-.37s.35,.94-.05,1.44c-1.4,1.72-3.23,2.98-5.15,3.55Z" style="fill:#aaa561;"/><path d="M42.85,125.74l-37.45,11.2V58.39l37.45-11.2c.07-.32,.14-.64,.19-.97,.01-.06,.02-.13,.03-.19,.03-.18,.02-.17,0,.03,.04-.1,.03-.28,.04-.38,.02-.27,.04-.54,.05-.82v-.67L2.51,56.35v84.35l40.47-12.11c-.05-.95-.09-1.91-.12-2.86h-.01Z" style="fill:#30302e;"/></g></g><g style="clip-path:url(#c);"><g><path d="M78.25,90.65c-9.25-5.94-16.4-4.39-22.15,2.17-3.33-1.74-6.94-2.24-10.8-1.58-3.39,.06-6.14,2.85-6.14,6.24v.06c-3.83,.53-6.79,3.84-6.79,7.79,.2,1.39,.57,2.72,1.1,3.96,2.49,5.97,8.42,10.09,15.34,9.97,3.06-.05,5.92-.93,8.38-2.41,31.63-8.54,39.02,4.1,48.59,2.82,4.85-.71,7.37-3.37,7.47-7.42,2.21-1.55,3.66-4.13,3.66-7.02,0-1.1-.21-2.15-.59-3.1,.7-1.09,1.11-2.38,1.11-3.76,0-1.74-.64-3.32-1.72-4.51,.11-.47,.16-.97,.16-1.47,0-2.39-1.22-4.47-3.08-5.67,.06-.37,.09-.75,.09-1.13,0-2.99-1.91-5.5-4.58-6.39,.12-.55,.17-1.12,.17-1.71,0-4.43-3.42-8-7.76-8.26-1.23-7.4-7.68-12.94-15.46-12.8-.32,0-.64,.02-.95,.05-1.62-2.08-4.18-3.39-7.05-3.34-1.57,.03-3.05,.46-4.33,1.2-1.42-2.02-3.79-3.32-6.48-3.27-1.84,.03-3.55,.7-4.89,1.79-1.35-1.05-3.05-1.65-4.9-1.62-2.55,.05-4.81,1.29-6.25,3.19-1.57-.51-3.24-.76-4.99-.73-6.05,.11-11.3,3.64-13.91,8.71-.8-.24-1.66-.36-2.55-.35-4.45,.08-8.11,3.6-8.4,8-5.85,3.34-9.82,9.66-9.82,16.82,0,10.5,8.51,18.86,19.01,18.67,.89-.02,1.76-.09,2.61-.23" style="fill:#fff;"/><path d="M104.58,121.76c-3.09,.06-5.94-1-9.18-2.21-7.18-2.67-17.01-6.31-37.46-.84-2.78,1.62-5.93,2.5-9.14,2.56-7.55,.14-14.3-4.25-17.19-11.17-.35-.82-.64-1.68-.86-2.57-12.08,.78-22.01-8.68-22.01-20.6,0-7.3,3.79-14.12,9.96-18.05,.86-4.93,5.18-8.72,10.27-8.81,.52,0,1.04,.02,1.55,.09,3.23-5.14,8.81-8.34,14.91-8.45,1.48-.03,2.94,.13,4.34,.46,1.84-1.83,4.28-2.88,6.9-2.92,1.72-.03,3.42,.39,4.9,1.21,1.48-.87,3.17-1.35,4.89-1.38,2.66-.05,5.19,.98,7.03,2.81,1.2-.47,2.48-.72,3.77-.74,3.05-.05,5.9,1.13,7.95,3.3h.05c8.19-.15,15.18,5.25,17.14,13.01,4.64,.99,8.09,5.13,8.09,10.02,0,.17,0,.33,0,.5,2.69,1.52,4.41,4.39,4.41,7.59v.22c1.89,1.64,2.98,4.02,2.98,6.58,0,.31-.02,.62-.05,.92,1.04,1.46,1.6,3.22,1.6,5.06,0,1.38-.32,2.74-.93,3.97,.27,.93,.41,1.91,.41,2.9,0,3.1-1.38,6.05-3.73,8.06-.51,4.57-3.8,7.61-9.15,8.39-.49,.07-.97,.1-1.45,.11v-.02Zm-28.35-9.92c9.55-.17,15.68,2.1,20.63,3.94,3.38,1.25,6.05,2.25,8.69,1.89,3.74-.55,5.61-2.33,5.69-5.44,.02-.65,.34-1.25,.87-1.62,1.75-1.23,2.79-3.22,2.79-5.34,0-.82-.15-1.62-.45-2.36-.24-.6-.17-1.29,.19-1.84,.51-.79,.78-1.71,.78-2.66,0-1.19-.43-2.32-1.21-3.18-.43-.48-.6-1.14-.45-1.78,.07-.31,.11-.66,.11-1.01,0-1.63-.81-3.13-2.18-4.01-.66-.43-1.01-1.21-.87-2,.04-.25,.07-.52,.07-.79,0-2.06-1.3-3.87-3.23-4.51-.95-.32-1.51-1.29-1.3-2.28,.09-.41,.13-.85,.13-1.29,0-3.33-2.59-6.09-5.91-6.29-.92-.05-1.68-.73-1.83-1.64-1.1-6.59-6.76-11.28-13.47-11.16-.27,0-.55,.02-.82,.04-.67,.06-1.32-.22-1.73-.75-1.31-1.68-3.3-2.63-5.46-2.59-1.19,.02-2.32,.33-3.35,.93-.9,.52-2.04,.28-2.63-.56-1.1-1.56-2.9-2.47-4.83-2.44-1.34,.02-2.6,.48-3.64,1.33-.73,.6-1.77,.62-2.5,.05-1.04-.81-2.31-1.23-3.65-1.2-1.84,.03-3.54,.9-4.66,2.38-.52,.69-1.42,.98-2.24,.72-1.38-.45-2.84-.66-4.34-.63-5.12,.09-9.77,3-12.13,7.6-.45,.88-1.47,1.31-2.4,1.03-.62-.19-1.27-.27-1.93-.26-3.36,.06-6.17,2.73-6.4,6.09-.05,.68-.43,1.3-1.03,1.64-5.42,3.1-8.79,8.86-8.79,15.05,0,9.63,8.01,17.3,17.78,16.66,.69-3.57,3.31-6.52,6.78-7.61,.75-3.7,3.96-6.53,7.82-6.67,3.73-.62,7.26-.23,10.51,1.14,6.66-6.77,14.63-7.25,23.71-1.42,.93,.59,1.18,1.84,.57,2.77-.61,.94-1.86,1.22-2.78,.62-7.85-5.04-14.06-4.48-19.55,1.78-.62,.71-1.64,.9-2.46,.48-2.92-1.53-6.04-1.98-9.54-1.38-.1,.02-.2,.03-.3,.03-2.28,.04-4.13,1.92-4.13,4.2,0,1.02-.76,1.94-1.77,2.08-2.82,.39-4.95,2.8-5.02,5.63,.18,1.16,.49,2.27,.94,3.32,2.27,5.44,7.57,8.88,13.49,8.77,2.59-.05,5.14-.78,7.37-2.12,.16-.1,.34-.17,.52-.22,7.83-2.12,14.21-2.97,19.54-3.07v-.05Z" style="fill:#aaa561;"/><path d="M47.09,91.51c-.13,0-.26-.02-.39-.07-.51-.21-.75-.79-.53-1.31,.29-.69,.44-1.42,.44-2.17,0-.91-.21-1.78-.63-2.57-.26-.49-.07-1.1,.42-1.36,.49-.27,1.1-.09,1.36,.4,.57,1.07,.86,2.27,.86,3.5,0,1.02-.2,2.01-.59,2.95-.16,.39-.53,.62-.93,.63h-.01Z" style="fill:#aaa561;"/><path d="M36.94,66.66c-.14,0-.28-.02-.41-.08-.51-.22-.73-.81-.5-1.32,.34-.77,.78-1.51,1.3-2.18,3.56-4.62,10.16-5.55,14.71-2.08,1.12,.85,2.03,1.9,2.71,3.11,.27,.48,.1,1.09-.39,1.37-.48,.28-1.1,.12-1.37-.36-.55-.98-1.29-1.83-2.19-2.51-3.68-2.81-9.02-2.06-11.89,1.68-.42,.55-.78,1.14-1.05,1.76-.17,.38-.53,.6-.92,.61Z" style="fill:#aaa561;"/><path d="M52.06,63.14c-.55,0-1-.43-1-.99s.45-1.01,1-1.02c1.55-.03,2.8-1.31,2.8-2.85,0-.55,.45-1.01,1-1.02s1,.43,1,.99c0,2.65-2.16,4.85-4.81,4.9h0Z" style="fill:#aaa561;"/><path d="M52.71,82.41c-.29,0-.57-.11-.77-.34-1.6-1.87-2.48-4.27-2.48-6.76s.77-4.62,2.21-6.51c.34-.44,.97-.54,1.41-.2,.44,.33,.52,.96,.18,1.41-1.17,1.53-1.79,3.36-1.79,5.28,0,2.02,.71,3.96,2.01,5.48,.36,.42,.3,1.05-.12,1.42-.19,.16-.42,.24-.65,.25v-.03Z" style="fill:#aaa561;"/><path d="M50.34,76.27c-.32,0-.64-.14-.83-.43-.82-1.19-2.04-2.02-3.45-2.33-.54-.12-.87-.65-.75-1.19s.67-.89,1.21-.77c1.9,.42,3.55,1.53,4.65,3.13,.31,.45,.19,1.08-.27,1.4-.17,.12-.37,.18-.56,.18h0Z" style="fill:#aaa561;"/><path d="M58.94,78.66c-.19,0-.39-.05-.56-.16-1.49-.98-2.38-2.64-2.38-4.44,0-2.37,1.54-4.47,3.77-5.22,.06-.04,.12-.07,.19-.1,3.23-1.18,5.39-4.26,5.39-7.68,0-1.25-.28-2.45-.83-3.55-.25-.49-.04-1.1,.45-1.35,.5-.26,1.1-.06,1.35,.43,.69,1.38,1.04,2.87,1.04,4.44,0,4.19-2.61,7.98-6.51,9.51-.09,.07-.2,.12-.31,.15-1.49,.41-2.54,1.78-2.54,3.33,0,1.13,.56,2.17,1.5,2.79,.46,.3,.58,.92,.27,1.39-.19,.29-.51,.45-.83,.46Zm1.35-8.93h0Z" style="fill:#aaa561;"/><path d="M69.68,79.75c-.39,0-.76-.22-.93-.6-.6-1.42-.91-2.93-.91-4.49,0-6.39,5.2-11.67,11.58-11.79,2.16-.04,4.26,.52,6.08,1.61,.47,.28,.62,.9,.33,1.38-.29,.48-.91,.63-1.38,.35-1.51-.9-3.24-1.37-5.03-1.33-5.28,.09-9.57,4.47-9.57,9.74,0,1.29,.25,2.54,.75,3.71,.22,.51-.02,1.1-.53,1.33-.13,.06-.26,.08-.39,.09Z" style="fill:#aaa561;"/><path d="M75.49,65.71c-.43,0-.83-.26-.96-.69-.18-.57-.27-1.17-.27-1.78,0-2.47,1.47-4.71,3.74-5.71,.51-.22,1.1,0,1.32,.51s-.02,1.1-.53,1.33c-1.53,.67-2.51,2.18-2.51,3.84,0,.41,.06,.81,.18,1.2,.16,.53-.14,1.09-.67,1.27-.1,.03-.2,.05-.29,.05v-.02Z" style="fill:#aaa561;"/><path d="M88.41,84.6c-.55,0-1-.43-1-.99,0-3.65-2.97-6.56-6.61-6.49-2.44,.04-4.68,1.42-5.83,3.6-.26,.49-.87,.69-1.36,.43-.49-.25-.67-.86-.41-1.35,1.51-2.83,4.42-4.63,7.6-4.69,4.75-.09,8.62,3.71,8.62,8.47,0,.55-.45,1.01-1,1.02h0Z" style="fill:#aaa561;"/><path d="M80.82,77.09c-.23,0-.46-.07-.65-.23-1.66-1.38-2.61-3.43-2.61-5.61,0-.93,.17-1.83,.5-2.7,.2-.52,.78-.79,1.3-.6,.52,.19,.77,.77,.57,1.29-.24,.63-.36,1.29-.36,1.97,0,1.59,.69,3.08,1.91,4.09,.42,.35,.47,.98,.11,1.41-.2,.24-.48,.36-.76,.37h-.01Z" style="fill:#aaa561;"/><path d="M43.64,112.74c-.38,0-.74-.2-.91-.56-.45-.95-.68-1.97-.68-3.04,0-2.2,1-4.27,2.73-5.66,.44-.35,1.07-.28,1.41,.15,.34,.43,.26,1.06-.17,1.41-1.25,1-1.96,2.48-1.96,4.06,0,.77,.17,1.5,.49,2.18,.24,.5,.02,1.1-.48,1.35-.14,.07-.29,.1-.43,.1h0Z" style="fill:#aaa561;"/><path d="M46.29,105.25c-2.03,.04-3.93-.72-5.36-2.12-.39-.39-.39-1.02,0-1.42s1.03-.41,1.42-.03c1.05,1.03,2.45,1.59,3.94,1.56,1.41-.03,2.75-.58,3.78-1.55,.41-.38,1.04-.37,1.42,.03s.35,1.04-.05,1.42c-1.4,1.32-3.23,2.07-5.15,2.11Z" style="fill:#aaa561;"/><path d="M53.87,104.15c-2.02,.04-3.93-.72-5.36-2.12-.39-.38-.39-1.02,0-1.42s1.03-.41,1.42-.03c1.05,1.03,2.45,1.59,3.94,1.56s2.89-.63,3.94-1.7c.39-.4,1.03-.41,1.42-.03,.39,.39,.39,1.02,0,1.42-1.43,1.46-3.34,2.28-5.36,2.32Z" style="fill:#aaa561;"/><path d="M62.05,102.9c-2.02,.04-3.93-.72-5.36-2.12-.39-.38-.39-1.02,0-1.42s1.03-.41,1.42-.03c1.05,1.03,2.45,1.59,3.94,1.56s2.89-.63,3.94-1.7c.39-.4,1.03-.41,1.42-.03,.39,.39,.39,1.02,0,1.42-1.43,1.46-3.34,2.28-5.36,2.32Z" style="fill:#aaa561;"/><path d="M75.91,103.22c-4.94,.09-9.61-1.98-12.82-5.69-.36-.42-.31-1.05,.11-1.42,.42-.37,1.05-.33,1.42,.09,2.83,3.26,6.94,5.09,11.29,5.01s8.22-1.94,11.03-5.11c.37-.42,1.01-.46,1.42-.1s.45,1,.07,1.42c-3.19,3.6-7.76,5.72-12.52,5.8Z" style="fill:#aaa561;"/><path d="M77.93,110.28c-3.77,.07-7.32-1.11-10.26-3.41-.43-.34-.5-.97-.16-1.41,.35-.44,.98-.52,1.41-.18,2.58,2.02,5.69,3.05,9,2.99,1.95-.03,3.84-.45,5.62-1.23,.51-.23,1.1,0,1.32,.51s-.02,1.1-.53,1.33c-2.03,.89-4.18,1.37-6.4,1.41h0Z" style="fill:#aaa561;"/><path d="M62.35,111.73c-1.42,.03-2.82-.18-4.16-.61-.53-.17-.81-.73-.63-1.26s.75-.82,1.27-.65c1.13,.36,2.31,.54,3.51,.52,2.63-.05,5.16-1.04,7.14-2.8,.42-.37,1.05-.34,1.42,.07,.36,.41,.32,1.05-.1,1.42-2.34,2.08-5.35,3.26-8.46,3.31h.01Z" style="fill:#aaa561;"/><path d="M122.68,45.47V124.02l-117.18,2.1V47.57l117.18-2.1m2.9-2.95L2.6,44.73v84.35l122.98-2.21V42.52Z" style="fill:#30302e;"/></g></g><g style="clip-path:url(#d);"><g><path d="M78.71,92.43c-9.25-3.34-16.4,.22-22.15,8.4-3.33-.81-6.94-.29-10.8,1.46-3.39,1.01-6.14,4.58-6.14,7.97v.06c-3.83,1.61-6.79,5.75-6.79,9.7,.2,1.33,.57,2.55,1.1,3.65,2.49,5.27,8.42,7.72,15.34,5.65,3.06-.91,5.92-2.6,8.38-4.77,31.63-17.44,39.02-6.87,48.59-10.85,4.85-2.07,7.37-5.44,7.47-9.52,2.21-2.18,3.66-5.16,3.66-8.05,0-1.1-.21-2.09-.59-2.94,.7-1.28,1.11-2.69,1.11-4.07,0-1.74-.64-3.14-1.72-4.02,.11-.5,.16-1.01,.16-1.52,0-2.39-1.22-4.13-3.08-4.8,.06-.39,.09-.77,.09-1.16,0-2.99-1.91-4.96-4.58-5.1,.12-.58,.17-1.17,.17-1.76,0-4.43-3.42-7.04-7.76-6.07-1.23-7.05-7.68-10.78-15.46-8.46-.32,.1-.64,.2-.95,.32-1.62-1.63-4.18-2.22-7.05-1.36-1.57,.47-3.05,1.32-4.33,2.42-1.42-1.62-3.79-2.25-6.48-1.45-1.84,.55-3.55,1.7-4.89,3.17-1.35-.67-3.05-.79-4.9-.24-2.55,.76-4.81,2.64-6.25,4.95-1.57-.07-3.24,.15-4.99,.67-6.05,1.81-11.3,6.81-13.91,12.62-.8-.02-1.66,.1-2.55,.37-4.45,1.33-8.11,5.88-8.4,10.36-5.85,4.99-9.82,12.42-9.82,19.58,0,10.5,8.51,16.46,19.01,13.32,.89-.26,1.76-.59,2.61-.96" style="fill:#fff;"/><path d="M105.04,116.14c-3.09,.92-5.94,.67-9.18,.37-7.18-.65-17.01-1.53-37.46,9.69-2.78,2.4-5.93,4.17-9.14,5.13-7.55,2.26-14.3-.23-17.19-6.34-.35-.73-.64-1.5-.86-2.33-12.08,4.17-22.01-2.49-22.01-14.41,0-7.3,3.79-15.19,9.96-20.85,.86-5.17,5.18-10.17,10.27-11.7,.52-.16,1.04-.27,1.55-.35,3.23-6.05,8.81-10.82,14.91-12.64,1.48-.44,2.94-.7,4.34-.76,1.84-2.34,4.28-4.08,6.9-4.86,1.72-.51,3.42-.57,4.9-.17,1.48-1.28,3.17-2.24,4.89-2.76,2.66-.8,5.19-.48,7.03,.83,1.2-.8,2.48-1.42,3.77-1.8,3.05-.91,5.9-.52,7.95,1.06l.05-.02c8.19-2.45,15.18,.98,17.14,8.2,4.64-.32,8.09,2.85,8.09,7.75,0,.17,0,.34,0,.51,2.69,.76,4.41,3.15,4.41,6.35v.22c1.89,1.1,2.98,3.18,2.98,5.75,0,.31-.02,.62-.05,.93,1.04,1.17,1.6,2.77,1.6,4.61,0,1.38-.32,2.83-.93,4.23,.27,.86,.41,1.79,.41,2.78,0,3.1-1.38,6.44-3.73,9.11-.51,4.72-3.8,8.68-9.15,10.97-.49,.2-.97,.37-1.45,.52v-.02Zm-28.35-1.95c9.55-2.86,15.68-2.3,20.63-1.86,3.38,.3,6.05,.55,8.69-.55,3.74-1.6,5.61-3.91,5.69-7.04,.02-.65,.34-1.34,.87-1.87,1.75-1.72,2.79-4.01,2.79-6.13,0-.82-.15-1.57-.45-2.24-.24-.54-.17-1.24,.19-1.9,.51-.94,.78-1.93,.78-2.88,0-1.19-.43-2.2-1.21-2.84-.43-.36-.6-.97-.45-1.65,.07-.34,.11-.69,.11-1.04,0-1.63-.81-2.9-2.18-3.4-.66-.24-1.01-.93-.87-1.75,.04-.27,.07-.54,.07-.81,0-2.06-1.3-3.5-3.23-3.61-.95-.05-1.51-.87-1.3-1.92,.09-.44,.13-.89,.13-1.33,0-3.33-2.59-5.36-5.91-4.63-.92,.2-1.68-.26-1.83-1.13-1.1-6.28-6.76-9.38-13.47-7.37-.27,.08-.55,.17-.82,.27-.67,.25-1.32,.15-1.73-.26-1.31-1.31-3.3-1.7-5.46-1.05-1.19,.36-2.32,.99-3.35,1.87-.9,.77-2.04,.85-2.63,.18-1.1-1.25-2.9-1.65-4.83-1.08-1.34,.4-2.6,1.21-3.64,2.35-.73,.8-1.77,1.11-2.5,.75-1.04-.52-2.31-.58-3.65-.18-1.84,.55-3.54,1.89-4.66,3.69-.52,.84-1.42,1.38-2.24,1.35-1.38-.06-2.84,.14-4.34,.59-5.12,1.53-9.77,5.75-12.13,11.01-.45,1.01-1.47,1.73-2.4,1.71-.62-.01-1.27,.08-1.93,.28-3.36,1.01-6.17,4.47-6.4,7.89-.05,.69-.43,1.42-1.03,1.93-5.42,4.62-8.79,11.33-8.79,17.52,0,9.63,8.01,15.05,17.78,11.66,.69-3.76,3.31-7.45,6.78-9.52,.75-3.92,3.96-7.64,7.82-8.87,3.73-1.67,7.26-2.27,10.51-1.82,6.66-8.64,14.63-11.36,23.71-8.09,.93,.33,1.18,1.5,.57,2.61s-1.86,1.74-2.78,1.4c-7.85-2.83-14.06-.52-19.55,7.28-.62,.88-1.64,1.36-2.46,1.17-2.92-.71-6.04-.28-9.54,1.3-.1,.05-.2,.08-.3,.11-2.28,.68-4.13,3.09-4.13,5.36,0,1.02-.76,2.16-1.77,2.58-2.82,1.18-4.95,4.19-5.02,7.04,.18,1.11,.49,2.13,.94,3.05,2.27,4.8,7.57,6.75,13.49,4.98,2.59-.78,5.14-2.23,7.37-4.19,.16-.14,.34-.27,.52-.37,7.83-4.32,14.21-6.97,19.54-8.56h0Z" style="fill:#aaa561;"/><path d="M70.14,83.94c-.39,.12-.76,0-.93-.34-.6-1.25-.91-2.67-.91-4.24,0-6.39,5.2-13.14,11.58-15.05,2.16-.64,4.26-.68,6.08-.1,.47,.15,.62,.73,.33,1.28-.29,.56-.91,.89-1.38,.74-1.51-.48-3.24-.45-5.03,.08-5.28,1.58-9.57,7.16-9.57,12.44,0,1.29,.25,2.47,.75,3.5,.22,.45-.02,1.11-.53,1.48-.13,.09-.26,.16-.39,.2h0Z" style="fill:#aaa561;"/><path d="M88.87,83.52c-.55,.17-1-.15-1-.7,0-3.65-2.97-5.72-6.61-4.63-2.44,.73-4.68,2.74-5.83,5.24-.26,.57-.87,.93-1.36,.82-.49-.12-.67-.67-.41-1.24,1.51-3.26,4.42-5.87,7.6-6.83,4.75-1.42,8.62,1.29,8.62,6.04,0,.55-.45,1.14-1,1.3h0Z" style="fill:#aaa561;"/><path d="M87.03,79.12c-.12,.04-.25,.05-.37,.04-.52-.05-.77-.56-.57-1.13,.75-2.14,2.31-4.07,4.28-5.28,.53-.33,1.09-.2,1.26,.28,.17,.48-.12,1.13-.65,1.46-1.36,.84-2.49,2.23-3.02,3.72-.16,.44-.53,.8-.94,.92h.01Z" style="fill:#aaa561;"/><path d="M101.51,74.83c-.47,.14-.88-.06-.98-.51-.88-3.99-4.68-5.94-9.03-4.64-.55,.17-1-.15-1-.7s.45-1.14,1-1.3c5.3-1.59,9.92,.79,10.99,5.66,.11,.51-.24,1.15-.78,1.42-.07,.03-.14,.06-.2,.08h0Z" style="fill:#aaa561;"/><path d="M94.52,69.3c-.11,.03-.23,.05-.34,.04-.52-.03-.79-.53-.6-1.11,.09-.27,.13-.53,.13-.79,0-.59-.23-1.07-.65-1.37-.39-.28-.39-.91,0-1.42,.39-.51,1.03-.7,1.42-.42,.8,.56,1.23,1.49,1.23,2.61,0,.49-.08,1-.25,1.51-.15,.45-.53,.82-.94,.94h0Z" style="fill:#aaa561;"/><path d="M76.37,105.66c-4.94,1.48-9.61,.72-12.82-2.08-.36-.31-.31-.96,.11-1.45s1.05-.63,1.42-.31c2.83,2.47,6.94,3.14,11.29,1.83,4.2-1.26,8.22-4.25,11.03-8.21,.37-.52,1.01-.75,1.42-.5s.45,.87,.07,1.4c-3.19,4.5-7.76,7.9-12.52,9.33h0Z" style="fill:#aaa561;"/><path d="M88.18,96.89c-.09,.03-.18,.04-.27,.04-.53,.01-.85-.45-.7-1.03,.95-3.73,2.94-7.32,5.75-10.39,.43-.47,1.07-.59,1.41-.26,.35,.33,.27,.98-.16,1.46-2.47,2.71-4.23,5.87-5.07,9.15-.12,.48-.53,.89-.97,1.03h.01Z" style="fill:#aaa561;"/><path d="M97.28,92.68c-.15,.04-.29,.06-.43,.03-2.61-.47-4.3-2.64-4.3-5.53,0-2.01,.78-4.14,2.21-5.99,.39-.51,1.03-.7,1.42-.43s.39,.91,0,1.42c-1.04,1.36-1.62,2.92-1.62,4.4,0,2.12,1.24,3.72,3.16,4.06,.5,.09,.71,.63,.47,1.2-.17,.41-.53,.73-.91,.84h0Z" style="fill:#aaa561;"/><path d="M103.5,88.93c-.22,.06-.43,.06-.62-.03-.44-.21-.51-.82-.17-1.36,.77-1.21,1.17-2.51,1.17-3.76,0-2.01-1.1-3.54-2.86-4-.48-.12-.66-.68-.39-1.25,.27-.56,.88-.92,1.37-.8,2.4,.61,3.89,2.7,3.89,5.44,0,1.7-.55,3.47-1.6,5.12-.2,.31-.49,.53-.79,.62v.02Z" style="fill:#aaa561;"/><path d="M108.55,91.67c-.13,.04-.26,.05-.39,.04-.51-.06-.75-.58-.53-1.16,.15-.4,.23-.81,.23-1.2,0-1.6-1.3-2.52-2.91-2.04-.2,.06-.4,.14-.58,.23-.55,.28-1.07,.08-1.19-.43-.11-.51,.24-1.15,.78-1.42,.32-.16,.66-.3,.99-.4,2.71-.81,4.91,.73,4.91,3.44,0,.66-.13,1.34-.39,2.03-.16,.43-.53,.77-.93,.89v.02Z" style="fill:#aaa561;"/><path d="M78.39,112.15c-3.77,1.13-7.32,.95-10.26-.52-.43-.22-.5-.83-.16-1.36,.35-.54,.98-.8,1.41-.58,2.58,1.29,5.69,1.45,9,.46,1.95-.58,3.84-1.53,5.62-2.81,.51-.37,1.1-.31,1.32,.14s-.02,1.11-.53,1.48c-2.03,1.46-4.18,2.54-6.4,3.21v-.02Z" style="fill:#aaa561;"/><path d="M106.03,106.87c-.1,.03-.2,.04-.3,.04-3.4-.03-5.68-2.44-5.68-5.99,0-.55,.45-1.14,1-1.3s1,.15,1,.7c0,2.67,1.71,4.47,4.26,4.5,.53,0,.83,.48,.66,1.06-.13,.47-.53,.87-.96,1h.02Z" style="fill:#aaa561;"/><path d="M101.06,101.62c-.53,.16-.98-.13-1-.66-.02-.55,.41-1.14,.96-1.33,1.51-.52,2.94-1.57,4.01-2.96,.43-.56,.8-1.16,1.08-1.78,.26-.57,.87-.94,1.36-.83s.68,.66,.42,1.23c-.38,.83-.86,1.63-1.44,2.38-1.43,1.85-3.33,3.26-5.34,3.95h-.05Z" style="fill:#aaa561;"/><path d="M123.13,34.76V113.31L5.95,148.36V69.81L123.13,34.76m2.9-3.77L3.06,67.78v84.35l122.98-36.78V30.99h-.01Z" style="fill:#30302e;"/></g></g></g><polygon points="44.55 128.45 42.38 128.83 42.38 45.05 44.55 44.66 44.55 128.45" style="fill:#30302e;"/><polygon points="86.15 126.59 83.98 126.97 83.98 44.14 86.15 43.76 86.15 126.59" style="fill:#30302e;"/></g><polygon points="2.5 56.36 2.5 140.71 44.55 128.45 83.98 126.97 126.03 115.35 126.03 31.74 85.07 45.55 43.15 44.87 2.5 56.36" style="fill:none; stroke:#30302e; stroke-miterlimit:10; stroke-width:5px;"/><path d="M64.58,0c-12.72,0-23.03,10.31-23.03,23.03s23.03,57.37,23.03,57.37c0,0,23.03-44.65,23.03-57.37S77.3,0,64.58,0Zm0,38.98c-8.81,0-15.95-7.14-15.95-15.95s7.14-15.95,15.95-15.95,15.95,7.14,15.95,15.95-7.14,15.95-15.95,15.95Z" style="fill:#3e50a2;"/></g></svg>