<?xml version="1.0" encoding="UTF-8" standalone="no"?>
<!DOCTYPE svg PUBLIC "-//W3C//DTD SVG 1.1//EN" "http://www.w3.org/Graphics/SVG/1.1/DTD/svg11.dtd">
<svg width="100%" height="100%" viewBox="0 0 129 145" version="1.1" xmlns="http://www.w3.org/2000/svg" xmlns:xlink="http://www.w3.org/1999/xlink" xml:space="preserve" xmlns:serif="http://www.serif.com/" style="fill-rule:evenodd;clip-rule:evenodd;stroke-miterlimit:10;">
    <g>
        <g>
            <path d="M2.5,130.29L43.46,118.48L85.07,116.68L125.39,103.12" style="fill:none;fill-rule:nonzero;stroke:rgb(135,135,134);stroke-width:0.5px;"/>
            <path d="M2.5,124.44L43.46,112.62L85.07,110.82L125.39,97.26" style="fill:none;fill-rule:nonzero;stroke:rgb(135,135,134);stroke-width:0.5px;"/>
            <path d="M2.5,118.17L43.46,106.36L85.07,104.56L125.39,91" style="fill:none;fill-rule:nonzero;stroke:rgb(135,135,134);stroke-width:0.5px;"/>
            <path d="M2.5,112.54L43.46,100.72L85.07,98.93L125.39,85.37" style="fill:none;fill-rule:nonzero;stroke:rgb(135,135,134);stroke-width:0.5px;"/>
            <path d="M2.5,107.37L43.46,95.56L85.07,93.76L125.39,80.2" style="fill:none;fill-rule:nonzero;stroke:rgb(135,135,134);stroke-width:0.5px;"/>
            <path d="M2.5,100.33L43.46,88.52L85.07,86.72L125.39,73.16" style="fill:none;fill-rule:nonzero;stroke:rgb(135,135,134);stroke-width:0.5px;"/>
            <path d="M2.5,94.5L43.46,82.68L85.07,80.89L125.39,67.33" style="fill:none;fill-rule:nonzero;stroke:rgb(135,135,134);stroke-width:0.5px;"/>
            <path d="M2.5,88.87L43.46,77.06L85.07,75.26L125.39,61.7" style="fill:none;fill-rule:nonzero;stroke:rgb(135,135,134);stroke-width:0.5px;"/>
            <path d="M2.5,83.5L43.46,71.68L85.07,69.89L125.39,56.33" style="fill:none;fill-rule:nonzero;stroke:rgb(135,135,134);stroke-width:0.5px;"/>
            <path d="M2.5,78.1L43.46,66.28L85.07,64.49L125.39,50.93" style="fill:none;fill-rule:nonzero;stroke:rgb(135,135,134);stroke-width:0.5px;"/>
            <path d="M2.5,73.27L43.46,61.45L85.07,59.66L125.39,46.1" style="fill:none;fill-rule:nonzero;stroke:rgb(135,135,134);stroke-width:0.5px;"/>
            <path d="M2.5,67.85L43.46,56.03L85.07,54.24L125.39,40.67" style="fill:none;fill-rule:nonzero;stroke:rgb(135,135,134);stroke-width:0.5px;"/>
            <path d="M2.5,62.53L43.46,50.72L85.07,48.92L125.39,35.36" style="fill:none;fill-rule:nonzero;stroke:rgb(135,135,134);stroke-width:0.5px;"/>
        </g>
        <g>
            <path d="M9.92,54.26L10.73,137.06" style="fill:none;fill-rule:nonzero;stroke:rgb(135,135,134);stroke-width:0.5px;"/>
            <path d="M15.48,53.1L16.29,135.9" style="fill:none;fill-rule:nonzero;stroke:rgb(135,135,134);stroke-width:0.5px;"/>
            <path d="M21.03,50.27L21.85,133.06" style="fill:none;fill-rule:nonzero;stroke:rgb(135,135,134);stroke-width:0.5px;"/>
            <path d="M26.59,48.82L27.41,131.61" style="fill:none;fill-rule:nonzero;stroke:rgb(135,135,134);stroke-width:0.5px;"/>
            <path d="M32.15,47.5L32.97,130.29" style="fill:none;fill-rule:nonzero;stroke:rgb(135,135,134);stroke-width:0.5px;"/>
            <path d="M37.71,45.35L38.52,128.14" style="fill:none;fill-rule:nonzero;stroke:rgb(135,135,134);stroke-width:0.5px;"/>
        </g>
        <g>
            <path d="M90.13,42.8L90.95,125.59" style="fill:none;fill-rule:nonzero;stroke:rgb(135,135,134);stroke-width:0.5px;"/>
            <path d="M95.69,41.64L96.51,124.44" style="fill:none;fill-rule:nonzero;stroke:rgb(135,135,134);stroke-width:0.5px;"/>
            <path d="M101.25,38.81L102.06,121.6" style="fill:none;fill-rule:nonzero;stroke:rgb(135,135,134);stroke-width:0.5px;"/>
            <path d="M106.8,37.35L107.62,120.15" style="fill:none;fill-rule:nonzero;stroke:rgb(135,135,134);stroke-width:0.5px;"/>
            <path d="M112.36,36.04L113.18,118.83" style="fill:none;fill-rule:nonzero;stroke:rgb(135,135,134);stroke-width:0.5px;"/>
            <path d="M117.92,33.89L118.74,116.68" style="fill:none;fill-rule:nonzero;stroke:rgb(135,135,134);stroke-width:0.5px;"/>
        </g>
        <g>
            <path d="M48.63,46.1L49.45,128.89" style="fill:none;fill-rule:nonzero;stroke:rgb(135,135,134);stroke-width:0.5px;"/>
            <path d="M54.19,44.94L55,127.73" style="fill:none;fill-rule:nonzero;stroke:rgb(135,135,134);stroke-width:0.5px;"/>
            <path d="M59.74,42.1L60.56,124.9" style="fill:none;fill-rule:nonzero;stroke:rgb(135,135,134);stroke-width:0.5px;"/>
            <path d="M66.13,44L66.13,126.19" style="fill:none;fill-rule:nonzero;stroke:rgb(135,135,134);stroke-width:0.5px;"/>
            <path d="M72.31,44.94L71.71,125.59" style="fill:none;fill-rule:nonzero;stroke:rgb(135,135,134);stroke-width:0.5px;"/>
            <path d="M78.4,42.8L77.29,125.59" style="fill:none;fill-rule:nonzero;stroke:rgb(135,135,134);stroke-width:0.5px;"/>
        </g>
        <g>
            <g>
                <g>
                    <g>
                        <clipPath id="_clip1">
                            <path d="M43.46,133.92L2.5,146.17L2.5,57.11L43.46,44.86L43.46,133.92Z"/>
                        </clipPath>
                        <g clip-path="url(#_clip1)">
                            <g>
                                <path d="M33.37,114.26C32.68,114.46 32.02,114.31 31.65,113.8C30.74,112.56 30.26,110.97 30.26,109.2C30.26,108.15 31.07,107.03 32.13,106.64C33.2,106.25 34.11,106.72 34.26,107.72C34.43,108.88 34.76,109.95 35.22,110.91C35.63,111.76 35.22,113.01 34.28,113.76C33.99,113.99 33.68,114.16 33.37,114.25L33.37,114.26Z" style="fill:rgb(170,165,97);fill-rule:nonzero;stroke:rgb(135,135,134);stroke-width:0.5px;stroke-miterlimit:4;"/>
                                <path d="M78.14,81.02C68.89,77.68 61.74,81.24 55.99,89.42C52.66,88.61 49.05,89.13 45.19,90.88C41.8,91.89 39.05,95.46 39.05,98.85L39.05,98.91C35.22,100.52 32.26,104.66 32.26,108.61C32.46,109.94 32.83,111.16 33.36,112.26C35.85,117.53 41.78,119.98 48.7,117.91C51.76,117 54.62,115.31 57.08,113.14C88.71,95.7 96.1,106.27 105.67,102.29C110.52,100.22 113.04,96.85 113.14,92.77C115.35,90.59 116.8,87.61 116.8,84.72C116.8,83.62 116.59,82.63 116.21,81.78C116.91,80.5 117.32,79.09 117.32,77.71C117.32,75.97 116.68,74.57 115.6,73.69C115.71,73.19 115.76,72.68 115.76,72.17C115.76,69.78 114.54,68.04 112.68,67.37C112.74,66.98 112.77,66.6 112.77,66.21C112.77,63.22 110.86,61.25 108.19,61.11C108.31,60.53 108.36,59.94 108.36,59.35C108.36,54.92 104.94,52.31 100.6,53.28C99.37,46.23 92.92,42.5 85.14,44.82C84.82,44.92 84.5,45.02 84.19,45.14C82.57,43.51 80.01,42.92 77.14,43.78C75.57,44.25 74.09,45.1 72.81,46.2C71.39,44.58 69.02,43.95 66.33,44.75C64.49,45.3 62.78,46.45 61.44,47.92C60.09,47.25 58.39,47.13 56.54,47.68C53.99,48.44 51.73,50.32 50.29,52.63C48.72,52.56 47.05,52.78 45.3,53.3C39.25,55.11 34,60.11 31.39,65.92C30.59,65.9 29.73,66.02 28.84,66.29C24.39,67.62 20.73,72.17 20.44,76.65C14.59,81.64 10.62,89.07 10.62,96.23C10.62,106.73 19.13,112.69 29.63,109.55C30.52,109.29 31.39,108.96 32.24,108.59" style="fill:white;fill-rule:nonzero;stroke:rgb(135,135,134);stroke-width:0.5px;stroke-miterlimit:4;"/>
                                <path d="M104.48,104.72C101.39,105.64 98.54,105.39 95.3,105.09C88.12,104.44 78.29,103.56 57.84,114.78C55.06,117.18 51.91,118.95 48.7,119.91C41.15,122.17 34.4,119.68 31.51,113.57C31.16,112.84 30.87,112.07 30.65,111.24C18.57,115.41 8.64,108.75 8.64,96.83C8.64,89.53 12.43,81.64 18.6,75.98C19.46,70.81 23.78,65.81 28.87,64.28C29.39,64.12 29.91,64.01 30.42,63.93C33.65,57.88 39.23,53.11 45.33,51.29C46.81,50.85 48.27,50.59 49.67,50.53C51.51,48.19 53.95,46.45 56.57,45.67C58.29,45.16 59.99,45.1 61.47,45.5C62.95,44.22 64.64,43.26 66.36,42.74C69.02,41.94 71.55,42.26 73.39,43.57C74.59,42.77 75.87,42.15 77.16,41.77C80.21,40.86 83.06,41.25 85.11,42.83L85.16,42.81C93.35,40.36 100.34,43.79 102.3,51.01C106.94,50.69 110.39,53.86 110.39,58.76L110.39,59.27C113.08,60.03 114.8,62.42 114.8,65.62L114.8,65.84C116.69,66.94 117.78,69.02 117.78,71.59C117.78,71.9 117.76,72.21 117.73,72.52C118.77,73.69 119.33,75.29 119.33,77.13C119.33,78.51 119.01,79.96 118.4,81.36C118.67,82.22 118.81,83.15 118.81,84.14C118.81,87.24 117.43,90.58 115.08,93.25C114.57,97.97 111.28,101.93 105.93,104.22C105.44,104.42 104.96,104.59 104.48,104.74L104.48,104.72ZM76.13,102.77C85.68,99.91 91.81,100.47 96.76,100.91C100.14,101.21 102.81,101.46 105.45,100.36C109.19,98.76 111.06,96.45 111.14,93.32C111.16,92.67 111.48,91.98 112.01,91.45C113.76,89.73 114.8,87.44 114.8,85.32C114.8,84.5 114.65,83.75 114.35,83.08C114.11,82.54 114.18,81.84 114.54,81.18C115.05,80.24 115.32,79.25 115.32,78.3C115.32,77.11 114.89,76.1 114.11,75.46C113.68,75.1 113.51,74.49 113.66,73.81C113.73,73.47 113.77,73.12 113.77,72.77C113.77,71.14 112.96,69.87 111.59,69.37C110.93,69.13 110.58,68.44 110.72,67.62C110.76,67.35 110.79,67.08 110.79,66.81C110.79,64.75 109.49,63.31 107.56,63.2C106.61,63.15 106.05,62.33 106.26,61.28C106.35,60.84 106.39,60.39 106.39,59.95C106.39,56.62 103.8,54.59 100.48,55.32C99.56,55.52 98.8,55.06 98.65,54.19C97.55,47.91 91.89,44.81 85.18,46.82C84.91,46.9 84.63,46.99 84.36,47.09C83.69,47.34 83.04,47.24 82.63,46.83C81.32,45.52 79.33,45.13 77.17,45.78C75.98,46.14 74.85,46.77 73.82,47.65C72.92,48.42 71.78,48.5 71.19,47.83C70.09,46.58 68.29,46.18 66.36,46.75C65.02,47.15 63.76,47.96 62.72,49.1C61.99,49.9 60.95,50.21 60.22,49.85C59.18,49.33 57.91,49.27 56.57,49.67C54.73,50.22 53.03,51.56 51.91,53.36C51.39,54.2 50.49,54.74 49.67,54.71C48.29,54.65 46.83,54.85 45.33,55.3C40.21,56.83 35.56,61.05 33.2,66.31C32.75,67.32 31.73,68.04 30.8,68.02C30.18,68.01 29.53,68.1 28.87,68.3C25.51,69.31 22.7,72.77 22.47,76.19C22.42,76.88 22.04,77.61 21.44,78.12C16.02,82.74 12.65,89.45 12.65,95.64C12.65,105.27 20.66,110.69 30.43,107.3C31.12,103.54 33.74,99.85 37.21,97.78C37.96,93.86 41.17,90.14 45.03,88.91C48.76,87.24 52.29,86.64 55.54,87.09C62.2,78.45 70.17,75.73 79.25,79C80.18,79.33 80.43,80.5 79.82,81.61C79.21,82.72 77.96,83.35 77.04,83.01C69.19,80.18 62.98,82.49 57.49,90.29C56.87,91.17 55.85,91.65 55.03,91.46C52.11,90.75 48.99,91.18 45.49,92.76C45.39,92.81 45.29,92.84 45.19,92.87C42.91,93.55 41.06,95.96 41.06,98.23C41.06,99.25 40.3,100.39 39.29,100.81C36.47,101.99 34.34,105 34.27,107.85C34.45,108.96 34.76,109.98 35.21,110.9C37.48,115.7 42.78,117.65 48.7,115.88C51.29,115.1 53.84,113.65 56.07,111.69C56.23,111.55 56.41,111.42 56.59,111.32C64.42,107 70.8,104.35 76.13,102.76L76.13,102.77Z" style="fill:rgb(170,165,97);fill-rule:nonzero;stroke:rgb(135,135,134);stroke-width:0.5px;stroke-miterlimit:4;"/>
                                <path d="M38.56,100.13C38.01,100.3 37.56,99.98 37.56,99.43C37.56,95.74 34.92,93.43 31.28,93.93C30.73,94.01 30.36,93.6 30.45,93.03C30.54,92.46 31.05,91.93 31.6,91.85C36.22,91.21 39.57,94.14 39.57,98.82C39.57,99.37 39.12,99.96 38.57,100.12L38.56,100.12L38.56,100.13Z" style="fill:rgb(170,165,97);fill-rule:nonzero;stroke:rgb(135,135,134);stroke-width:0.5px;stroke-miterlimit:4;"/>
                                <path d="M23.78,104.24C23.68,104.27 23.58,104.28 23.48,104.28C20.13,104.23 17.89,101.84 17.89,98.33C17.89,95.67 19.21,92.8 21.41,90.65C21.87,90.2 22.49,90.14 22.8,90.5C23.11,90.87 22.99,91.53 22.53,91.97C20.88,93.58 19.89,95.73 19.89,97.72C19.89,100.35 21.57,102.14 24.08,102.17C24.61,102.17 24.9,102.65 24.74,103.23C24.61,103.7 24.21,104.09 23.78,104.22L23.78,104.24Z" style="fill:rgb(170,165,97);fill-rule:nonzero;stroke:rgb(135,135,134);stroke-width:0.5px;stroke-miterlimit:4;"/>
                                <path d="M19.49,93.96C18.4,94.28 17.38,94.24 16.52,93.84C16.08,93.63 16,93.03 16.34,92.49C16.68,91.95 17.31,91.68 17.75,91.88C18.94,92.44 20.76,91.69 21.71,90.24C22.06,89.71 22.7,89.46 23.12,89.68C23.55,89.91 23.61,90.52 23.26,91.05C22.33,92.46 20.96,93.51 19.5,93.95L19.49,93.95L19.49,93.96Z" style="fill:rgb(170,165,97);fill-rule:nonzero;stroke:rgb(135,135,134);stroke-width:0.5px;stroke-miterlimit:4;"/>
                                <path d="M26.48,85.37C26.11,85.48 25.75,85.38 25.58,85.08C24.88,83.85 24.52,82.41 24.52,80.8C24.52,75.02 29.22,68.91 35,67.18C36.41,66.76 37.79,66.62 39.08,66.78C39.59,66.84 39.83,67.36 39.61,67.94C39.39,68.51 38.81,68.93 38.29,68.87C37.25,68.74 36.14,68.85 34.99,69.19C30.32,70.59 26.52,75.53 26.52,80.2C26.52,81.5 26.81,82.66 27.37,83.66C27.61,84.09 27.41,84.75 26.91,85.14C26.77,85.25 26.62,85.33 26.47,85.37L26.48,85.37Z" style="fill:rgb(170,165,97);fill-rule:nonzero;stroke:rgb(135,135,134);stroke-width:0.5px;stroke-miterlimit:4;"/>
                                <path d="M36.83,68.64C36.69,68.68 36.55,68.69 36.42,68.67C35.91,68.59 35.69,68.07 35.92,67.49C36.26,66.62 36.7,65.77 37.22,64.94C40.78,59.32 47.38,56.53 51.93,58.73C53.05,59.27 53.96,60.06 54.64,61.08C54.91,61.48 54.74,62.15 54.25,62.56C53.77,62.97 53.15,62.98 52.88,62.58C52.33,61.75 51.59,61.12 50.69,60.68C47.01,58.91 41.67,61.16 38.8,65.7C38.38,66.37 38.02,67.06 37.75,67.76C37.58,68.18 37.22,68.51 36.83,68.63L36.83,68.64Z" style="fill:rgb(170,165,97);fill-rule:nonzero;stroke:rgb(135,135,134);stroke-width:0.5px;stroke-miterlimit:4;"/>
                                <path d="M33.95,85.53C33.4,85.7 32.95,85.38 32.95,84.83C32.95,84.28 33.4,83.69 33.95,83.53C35.63,83.03 37.04,81.45 37.44,79.78C34.88,80.03 32.94,78.34 32.94,75.62C32.94,75.07 33.39,74.48 33.94,74.32C34.49,74.16 34.94,74.47 34.94,75.02C34.94,77.01 36.56,78.14 38.54,77.55C39.09,77.38 39.54,77.7 39.54,78.25C39.54,81.34 37.02,84.61 33.93,85.54L33.95,85.54L33.95,85.53Z" style="fill:rgb(170,165,97);fill-rule:nonzero;stroke:rgb(135,135,134);stroke-width:0.5px;stroke-miterlimit:4;"/>
                                <path d="M43.54,112.83C43.16,112.94 42.8,112.83 42.63,112.53C42.18,111.71 41.95,110.75 41.95,109.68C41.95,107.48 42.95,105.13 44.68,103.25C45.12,102.78 45.75,102.67 46.09,103C46.43,103.33 46.35,103.99 45.92,104.46C44.67,105.81 43.96,107.49 43.96,109.07C43.96,109.84 44.13,110.52 44.45,111.11C44.69,111.54 44.47,112.2 43.97,112.59C43.83,112.7 43.68,112.77 43.54,112.82L43.54,112.83Z" style="fill:rgb(170,165,97);fill-rule:nonzero;stroke:rgb(135,135,134);stroke-width:0.5px;stroke-miterlimit:4;"/>
                                <path d="M46.18,104.6C44.15,105.21 42.25,104.99 40.82,103.98C40.43,103.71 40.43,103.07 40.82,102.56C41.21,102.05 41.85,101.86 42.24,102.14C43.29,102.88 44.69,103.04 46.18,102.59C47.59,102.17 48.93,101.24 49.96,99.98C50.37,99.48 51,99.32 51.38,99.61C51.76,99.9 51.73,100.55 51.33,101.05C49.93,102.77 48.1,104.03 46.18,104.6Z" style="fill:rgb(170,165,97);fill-rule:nonzero;stroke:rgb(135,135,134);stroke-width:0.5px;stroke-miterlimit:4;"/>
                                <path d="M42.85,125.74L5.4,136.94L5.4,58.39L42.85,47.19C42.92,46.87 42.99,46.55 43.04,46.22C43.05,46.16 43.06,46.09 43.07,46.03C43.1,45.85 43.09,45.86 43.07,46.06C43.11,45.96 43.1,45.78 43.11,45.68C43.13,45.41 43.15,45.14 43.16,44.86L43.16,44.19L2.51,56.35L2.51,140.7L42.98,128.59C42.93,127.64 42.89,126.68 42.86,125.73L42.85,125.73L42.85,125.74Z" style="fill:rgb(48,48,46);fill-rule:nonzero;stroke:rgb(135,135,134);stroke-width:0.5px;stroke-miterlimit:4;"/>
                            </g>
                        </g>
                    </g>
                </g>
                <g>
                    <g>
                        <clipPath id="_clip2">
                            <path d="M85.07,133.06L44.1,133.8L44.1,44.73L85.07,44L85.07,133.06Z"/>
                        </clipPath>
                        <g clip-path="url(#_clip2)">
                            <g>
                                <path d="M78.25,90.65C69,84.71 61.85,86.26 56.1,92.82C52.77,91.08 49.16,90.58 45.3,91.24C41.91,91.3 39.16,94.09 39.16,97.48L39.16,97.54C35.33,98.07 32.37,101.38 32.37,105.33C32.57,106.72 32.94,108.05 33.47,109.29C35.96,115.26 41.89,119.38 48.81,119.26C51.87,119.21 54.73,118.33 57.19,116.85C88.82,108.31 96.21,120.95 105.78,119.67C110.63,118.96 113.15,116.3 113.25,112.25C115.46,110.7 116.91,108.12 116.91,105.23C116.91,104.13 116.7,103.08 116.32,102.13C117.02,101.04 117.43,99.75 117.43,98.37C117.43,96.63 116.79,95.05 115.71,93.86C115.82,93.39 115.87,92.89 115.87,92.39C115.87,90 114.65,87.92 112.79,86.72C112.85,86.35 112.88,85.97 112.88,85.59C112.88,82.6 110.97,80.09 108.3,79.2C108.42,78.65 108.47,78.08 108.47,77.49C108.47,73.06 105.05,69.49 100.71,69.23C99.48,61.83 93.03,56.29 85.25,56.43C84.93,56.43 84.61,56.45 84.3,56.48C82.68,54.4 80.12,53.09 77.25,53.14C75.68,53.17 74.2,53.6 72.92,54.34C71.5,52.32 69.13,51.02 66.44,51.07C64.6,51.1 62.89,51.77 61.55,52.86C60.2,51.81 58.5,51.21 56.65,51.24C54.1,51.29 51.84,52.53 50.4,54.43C48.83,53.92 47.16,53.67 45.41,53.7C39.36,53.81 34.11,57.34 31.5,62.41C30.7,62.17 29.84,62.05 28.95,62.06C24.5,62.14 20.84,65.66 20.55,70.06C14.7,73.4 10.73,79.72 10.73,86.88C10.73,97.38 19.24,105.74 29.74,105.55C30.63,105.53 31.5,105.46 32.35,105.32" style="fill:white;fill-rule:nonzero;stroke:rgb(135,135,134);stroke-width:0.5px;stroke-miterlimit:4;"/>
                                <path d="M104.58,121.76C101.49,121.82 98.64,120.76 95.4,119.55C88.22,116.88 78.39,113.24 57.94,118.71C55.16,120.33 52.01,121.21 48.8,121.27C41.25,121.41 34.5,117.02 31.61,110.1C31.26,109.28 30.97,108.42 30.75,107.53C18.67,108.31 8.74,98.85 8.74,86.93C8.74,79.63 12.53,72.81 18.7,68.88C19.56,63.95 23.88,60.16 28.97,60.07C29.49,60.07 30.01,60.09 30.52,60.16C33.75,55.02 39.33,51.82 45.43,51.71C46.91,51.68 48.37,51.84 49.77,52.17C51.61,50.34 54.05,49.29 56.67,49.25C58.39,49.22 60.09,49.64 61.57,50.46C63.05,49.59 64.74,49.11 66.46,49.08C69.12,49.03 71.65,50.06 73.49,51.89C74.69,51.42 75.97,51.17 77.26,51.15C80.31,51.1 83.16,52.28 85.21,54.45L85.26,54.45C93.45,54.3 100.44,59.7 102.4,67.46C107.04,68.45 110.49,72.59 110.49,77.48L110.49,77.98C113.18,79.5 114.9,82.37 114.9,85.57L114.9,85.79C116.79,87.43 117.88,89.81 117.88,92.37C117.88,92.68 117.86,92.99 117.83,93.29C118.87,94.75 119.43,96.51 119.43,98.35C119.43,99.73 119.11,101.09 118.5,102.32C118.77,103.25 118.91,104.23 118.91,105.22C118.91,108.32 117.53,111.27 115.18,113.28C114.67,117.85 111.38,120.89 106.03,121.67C105.54,121.74 105.06,121.77 104.58,121.78L104.58,121.76ZM76.23,111.84C85.78,111.67 91.91,113.94 96.86,115.78C100.24,117.03 102.91,118.03 105.55,117.67C109.29,117.12 111.16,115.34 111.24,112.23C111.26,111.58 111.58,110.98 112.11,110.61C113.86,109.38 114.9,107.39 114.9,105.27C114.9,104.45 114.75,103.65 114.45,102.91C114.21,102.31 114.28,101.62 114.64,101.07C115.15,100.28 115.42,99.36 115.42,98.41C115.42,97.22 114.99,96.09 114.21,95.23C113.78,94.75 113.61,94.09 113.76,93.45C113.83,93.14 113.87,92.79 113.87,92.44C113.87,90.81 113.06,89.31 111.69,88.43C111.03,88 110.68,87.22 110.82,86.43C110.86,86.18 110.89,85.91 110.89,85.64C110.89,83.58 109.59,81.77 107.66,81.13C106.71,80.81 106.15,79.84 106.36,78.85C106.45,78.44 106.49,78 106.49,77.56C106.49,74.23 103.9,71.47 100.58,71.27C99.66,71.22 98.9,70.54 98.75,69.63C97.65,63.04 91.99,58.35 85.28,58.47C85.01,58.47 84.73,58.49 84.46,58.51C83.79,58.57 83.14,58.29 82.73,57.76C81.42,56.08 79.43,55.13 77.27,55.17C76.08,55.19 74.95,55.5 73.92,56.1C73.02,56.62 71.88,56.38 71.29,55.54C70.19,53.98 68.39,53.07 66.46,53.1C65.12,53.12 63.86,53.58 62.82,54.43C62.09,55.03 61.05,55.05 60.32,54.48C59.28,53.67 58.01,53.25 56.67,53.28C54.83,53.31 53.13,54.18 52.01,55.66C51.49,56.35 50.59,56.64 49.77,56.38C48.39,55.93 46.93,55.72 45.43,55.75C40.31,55.84 35.66,58.75 33.3,63.35C32.85,64.23 31.83,64.66 30.9,64.38C30.28,64.19 29.63,64.11 28.97,64.12C25.61,64.18 22.8,66.85 22.57,70.21C22.52,70.89 22.14,71.51 21.54,71.85C16.12,74.95 12.75,80.71 12.75,86.9C12.75,96.53 20.76,104.2 30.53,103.56C31.22,99.99 33.84,97.04 37.31,95.95C38.06,92.25 41.27,89.42 45.13,89.28C48.86,88.66 52.39,89.05 55.64,90.42C62.3,83.65 70.27,83.17 79.35,89C80.28,89.59 80.53,90.84 79.92,91.77C79.31,92.71 78.06,92.99 77.14,92.39C69.29,87.35 63.08,87.91 57.59,94.17C56.97,94.88 55.95,95.07 55.13,94.65C52.21,93.12 49.09,92.67 45.59,93.27C45.49,93.29 45.39,93.3 45.29,93.3C43.01,93.34 41.16,95.22 41.16,97.5C41.16,98.52 40.4,99.44 39.39,99.58C36.57,99.97 34.44,102.38 34.37,105.21C34.55,106.37 34.86,107.48 35.31,108.53C37.58,113.97 42.88,117.41 48.8,117.3C51.39,117.25 53.94,116.52 56.17,115.18C56.33,115.08 56.51,115.01 56.69,114.96C64.52,112.84 70.9,111.99 76.23,111.89L76.23,111.84Z" style="fill:rgb(170,165,97);fill-rule:nonzero;stroke:rgb(135,135,134);stroke-width:0.5px;stroke-miterlimit:4;"/>
                                <path d="M47.09,91.51C46.96,91.51 46.83,91.49 46.7,91.44C46.19,91.23 45.95,90.65 46.17,90.13C46.46,89.44 46.61,88.71 46.61,87.96C46.61,87.05 46.4,86.18 45.98,85.39C45.72,84.9 45.91,84.29 46.4,84.03C46.89,83.76 47.5,83.94 47.76,84.43C48.33,85.5 48.62,86.7 48.62,87.93C48.62,88.95 48.42,89.94 48.03,90.88C47.87,91.27 47.5,91.5 47.1,91.51L47.09,91.51Z" style="fill:rgb(170,165,97);fill-rule:nonzero;stroke:rgb(135,135,134);stroke-width:0.5px;stroke-miterlimit:4;"/>
                                <path d="M36.94,66.66C36.8,66.66 36.66,66.64 36.53,66.58C36.02,66.36 35.8,65.77 36.03,65.26C36.37,64.49 36.81,63.75 37.33,63.08C40.89,58.46 47.49,57.53 52.04,61C53.16,61.85 54.07,62.9 54.75,64.11C55.02,64.59 54.85,65.2 54.36,65.48C53.88,65.76 53.26,65.6 52.99,65.12C52.44,64.14 51.7,63.29 50.8,62.61C47.12,59.8 41.78,60.55 38.91,64.29C38.49,64.84 38.13,65.43 37.86,66.05C37.69,66.43 37.33,66.65 36.94,66.66Z" style="fill:rgb(170,165,97);fill-rule:nonzero;stroke:rgb(135,135,134);stroke-width:0.5px;stroke-miterlimit:4;"/>
                                <path d="M52.06,63.14C51.51,63.14 51.06,62.71 51.06,62.15C51.06,61.59 51.51,61.14 52.06,61.13C53.61,61.1 54.86,59.82 54.86,58.28C54.86,57.73 55.31,57.27 55.86,57.26C56.41,57.25 56.86,57.69 56.86,58.25C56.86,60.9 54.7,63.1 52.05,63.15L52.06,63.14Z" style="fill:rgb(170,165,97);fill-rule:nonzero;stroke:rgb(135,135,134);stroke-width:0.5px;stroke-miterlimit:4;"/>
                                <path d="M52.71,82.41C52.42,82.41 52.14,82.3 51.94,82.07C50.34,80.2 49.46,77.8 49.46,75.31C49.46,72.82 50.23,70.69 51.67,68.8C52.01,68.36 52.64,68.26 53.08,68.6C53.52,68.93 53.6,69.56 53.26,70.01C52.09,71.54 51.47,73.37 51.47,75.29C51.47,77.31 52.18,79.25 53.48,80.77C53.84,81.19 53.78,81.82 53.36,82.19C53.17,82.35 52.94,82.43 52.71,82.44L52.71,82.41Z" style="fill:rgb(170,165,97);fill-rule:nonzero;stroke:rgb(135,135,134);stroke-width:0.5px;stroke-miterlimit:4;"/>
                                <path d="M50.34,76.27C50.02,76.27 49.7,76.13 49.51,75.84C48.69,74.65 47.47,73.82 46.06,73.51C45.52,73.39 45.19,72.86 45.31,72.32C45.43,71.78 45.98,71.43 46.52,71.55C48.42,71.97 50.07,73.08 51.17,74.68C51.48,75.13 51.36,75.76 50.9,76.08C50.73,76.2 50.53,76.26 50.34,76.26L50.34,76.27Z" style="fill:rgb(170,165,97);fill-rule:nonzero;stroke:rgb(135,135,134);stroke-width:0.5px;stroke-miterlimit:4;"/>
                                <path d="M58.94,78.66C58.75,78.66 58.55,78.61 58.38,78.5C56.89,77.52 56,75.86 56,74.06C56,71.69 57.54,69.59 59.77,68.84C59.83,68.8 59.89,68.77 59.96,68.74C63.19,67.56 65.35,64.48 65.35,61.06C65.35,59.81 65.07,58.61 64.52,57.51C64.27,57.02 64.48,56.41 64.97,56.16C65.47,55.9 66.07,56.1 66.32,56.59C67.01,57.97 67.36,59.46 67.36,61.03C67.36,65.22 64.75,69.01 60.85,70.54C60.76,70.61 60.65,70.66 60.54,70.69C59.05,71.1 58,72.47 58,74.02C58,75.15 58.56,76.19 59.5,76.81C59.96,77.11 60.08,77.73 59.77,78.2C59.58,78.49 59.26,78.65 58.94,78.66Z" style="fill:rgb(170,165,97);fill-rule:nonzero;stroke:rgb(135,135,134);stroke-width:0.5px;stroke-miterlimit:4;"/>
                                <path d="M69.68,79.75C69.29,79.75 68.92,79.53 68.75,79.15C68.15,77.73 67.84,76.22 67.84,74.66C67.84,68.27 73.04,62.99 79.42,62.87C81.58,62.83 83.68,63.39 85.5,64.48C85.97,64.76 86.12,65.38 85.83,65.86C85.54,66.34 84.92,66.49 84.45,66.21C82.94,65.31 81.21,64.84 79.42,64.88C74.14,64.97 69.85,69.35 69.85,74.62C69.85,75.91 70.1,77.16 70.6,78.33C70.82,78.84 70.58,79.43 70.07,79.66C69.94,79.72 69.81,79.74 69.68,79.75Z" style="fill:rgb(170,165,97);fill-rule:nonzero;stroke:rgb(135,135,134);stroke-width:0.5px;stroke-miterlimit:4;"/>
                                <path d="M75.49,65.71C75.06,65.71 74.66,65.45 74.53,65.02C74.35,64.45 74.26,63.85 74.26,63.24C74.26,60.77 75.73,58.53 78,57.53C78.51,57.31 79.1,57.53 79.32,58.04C79.54,58.55 79.3,59.14 78.79,59.37C77.26,60.04 76.28,61.55 76.28,63.21C76.28,63.62 76.34,64.02 76.46,64.41C76.62,64.94 76.32,65.5 75.79,65.68C75.69,65.71 75.59,65.73 75.5,65.73L75.5,65.71L75.49,65.71Z" style="fill:rgb(170,165,97);fill-rule:nonzero;stroke:rgb(135,135,134);stroke-width:0.5px;stroke-miterlimit:4;"/>
                                <path d="M88.41,84.6C87.86,84.6 87.41,84.17 87.41,83.61C87.41,79.96 84.44,77.05 80.8,77.12C78.36,77.16 76.12,78.54 74.97,80.72C74.71,81.21 74.1,81.41 73.61,81.15C73.12,80.9 72.94,80.29 73.2,79.8C74.71,76.97 77.62,75.17 80.8,75.11C85.55,75.02 89.42,78.82 89.42,83.58C89.42,84.13 88.97,84.59 88.42,84.6L88.41,84.6Z" style="fill:rgb(170,165,97);fill-rule:nonzero;stroke:rgb(135,135,134);stroke-width:0.5px;stroke-miterlimit:4;"/>
                                <path d="M80.82,77.09C80.59,77.09 80.36,77.02 80.17,76.86C78.51,75.48 77.56,73.43 77.56,71.25C77.56,70.32 77.73,69.42 78.06,68.55C78.26,68.03 78.84,67.76 79.36,67.95C79.88,68.14 80.13,68.72 79.93,69.24C79.69,69.87 79.57,70.53 79.57,71.21C79.57,72.8 80.26,74.29 81.48,75.3C81.9,75.65 81.95,76.28 81.59,76.71C81.39,76.95 81.11,77.07 80.83,77.08L80.82,77.08L80.82,77.09Z" style="fill:rgb(170,165,97);fill-rule:nonzero;stroke:rgb(135,135,134);stroke-width:0.5px;stroke-miterlimit:4;"/>
                                <path d="M43.64,112.74C43.26,112.74 42.9,112.54 42.73,112.18C42.28,111.23 42.05,110.21 42.05,109.14C42.05,106.94 43.05,104.87 44.78,103.48C45.22,103.13 45.85,103.2 46.19,103.63C46.53,104.06 46.45,104.69 46.02,105.04C44.77,106.04 44.06,107.52 44.06,109.1C44.06,109.87 44.23,110.6 44.55,111.28C44.79,111.78 44.57,112.38 44.07,112.63C43.93,112.7 43.78,112.73 43.64,112.73L43.64,112.74Z" style="fill:rgb(170,165,97);fill-rule:nonzero;stroke:rgb(135,135,134);stroke-width:0.5px;stroke-miterlimit:4;"/>
                                <path d="M46.29,105.25C44.26,105.29 42.36,104.53 40.93,103.13C40.54,102.74 40.54,102.11 40.93,101.71C41.32,101.31 41.96,101.3 42.35,101.68C43.4,102.71 44.8,103.27 46.29,103.24C47.7,103.21 49.04,102.66 50.07,101.69C50.48,101.31 51.11,101.32 51.49,101.72C51.87,102.12 51.84,102.76 51.44,103.14C50.04,104.46 48.21,105.21 46.29,105.25Z" style="fill:rgb(170,165,97);fill-rule:nonzero;stroke:rgb(135,135,134);stroke-width:0.5px;stroke-miterlimit:4;"/>
                                <path d="M53.87,104.15C51.85,104.19 49.94,103.43 48.51,102.03C48.12,101.65 48.12,101.01 48.51,100.61C48.9,100.21 49.54,100.2 49.93,100.58C50.98,101.61 52.38,102.17 53.87,102.14C55.36,102.11 56.76,101.51 57.81,100.44C58.2,100.04 58.84,100.03 59.23,100.41C59.62,100.8 59.62,101.43 59.23,101.83C57.8,103.29 55.89,104.11 53.87,104.15Z" style="fill:rgb(170,165,97);fill-rule:nonzero;stroke:rgb(135,135,134);stroke-width:0.5px;stroke-miterlimit:4;"/>
                                <path d="M62.05,102.9C60.03,102.94 58.12,102.18 56.69,100.78C56.3,100.4 56.3,99.76 56.69,99.36C57.08,98.96 57.72,98.95 58.11,99.33C59.16,100.36 60.56,100.92 62.05,100.89C63.54,100.86 64.94,100.26 65.99,99.19C66.38,98.79 67.02,98.78 67.41,99.16C67.8,99.55 67.8,100.18 67.41,100.58C65.98,102.04 64.07,102.86 62.05,102.9Z" style="fill:rgb(170,165,97);fill-rule:nonzero;stroke:rgb(135,135,134);stroke-width:0.5px;stroke-miterlimit:4;"/>
                                <path d="M75.91,103.22C70.97,103.31 66.3,101.24 63.09,97.53C62.73,97.11 62.78,96.48 63.2,96.11C63.62,95.74 64.25,95.78 64.62,96.2C67.45,99.46 71.56,101.29 75.91,101.21C80.26,101.13 84.13,99.27 86.94,96.1C87.31,95.68 87.95,95.64 88.36,96C88.77,96.36 88.81,97 88.43,97.42C85.24,101.02 80.67,103.14 75.91,103.22Z" style="fill:rgb(170,165,97);fill-rule:nonzero;stroke:rgb(135,135,134);stroke-width:0.5px;stroke-miterlimit:4;"/>
                                <path d="M77.93,110.28C74.16,110.35 70.61,109.17 67.67,106.87C67.24,106.53 67.17,105.9 67.51,105.46C67.86,105.02 68.49,104.94 68.92,105.28C71.5,107.3 74.61,108.33 77.92,108.27C79.87,108.24 81.76,107.82 83.54,107.04C84.05,106.81 84.64,107.04 84.86,107.55C85.08,108.06 84.84,108.65 84.33,108.88C82.3,109.77 80.15,110.25 77.93,110.29L77.93,110.28Z" style="fill:rgb(170,165,97);fill-rule:nonzero;stroke:rgb(135,135,134);stroke-width:0.5px;stroke-miterlimit:4;"/>
                                <path d="M62.35,111.73C60.93,111.76 59.53,111.55 58.19,111.12C57.66,110.95 57.38,110.39 57.56,109.86C57.74,109.33 58.31,109.04 58.83,109.21C59.96,109.57 61.14,109.75 62.34,109.73C64.97,109.68 67.5,108.69 69.48,106.93C69.9,106.56 70.53,106.59 70.9,107C71.26,107.41 71.22,108.05 70.8,108.42C68.46,110.5 65.45,111.68 62.34,111.73L62.35,111.73Z" style="fill:rgb(170,165,97);fill-rule:nonzero;stroke:rgb(135,135,134);stroke-width:0.5px;stroke-miterlimit:4;"/>
                                <path d="M122.68,45.47L122.68,124.02L5.5,126.12L5.5,47.57L122.68,45.47M125.58,42.52L2.6,44.73L2.6,129.08L125.58,126.87L125.58,42.52Z" style="fill:rgb(48,48,46);fill-rule:nonzero;stroke:rgb(135,135,134);stroke-width:0.5px;stroke-miterlimit:4;"/>
                            </g>
                        </g>
                    </g>
                </g>
                <g>
                    <g>
                        <clipPath id="_clip3">
                            <path d="M126.03,120.81L85.07,133.06L85.07,44L126.03,31.74L126.03,120.81Z"/>
                        </clipPath>
                        <g clip-path="url(#_clip3)">
                            <g>
                                <path d="M78.71,92.43C69.46,89.09 62.31,92.65 56.56,100.83C53.23,100.02 49.62,100.54 45.76,102.29C42.37,103.3 39.62,106.87 39.62,110.26L39.62,110.32C35.79,111.93 32.83,116.07 32.83,120.02C33.03,121.35 33.4,122.57 33.93,123.67C36.42,128.94 42.35,131.39 49.27,129.32C52.33,128.41 55.19,126.72 57.65,124.55C89.28,107.11 96.67,117.68 106.24,113.7C111.09,111.63 113.61,108.26 113.71,104.18C115.92,102 117.37,99.02 117.37,96.13C117.37,95.03 117.16,94.04 116.78,93.19C117.48,91.91 117.89,90.5 117.89,89.12C117.89,87.38 117.25,85.98 116.17,85.1C116.28,84.6 116.33,84.09 116.33,83.58C116.33,81.19 115.11,79.45 113.25,78.78C113.31,78.39 113.34,78.01 113.34,77.62C113.34,74.63 111.43,72.66 108.76,72.52C108.88,71.94 108.93,71.35 108.93,70.76C108.93,66.33 105.51,63.72 101.17,64.69C99.94,57.64 93.49,53.91 85.71,56.23C85.39,56.33 85.07,56.43 84.76,56.55C83.14,54.92 80.58,54.33 77.71,55.19C76.14,55.66 74.66,56.51 73.38,57.61C71.96,55.99 69.59,55.36 66.9,56.16C65.06,56.71 63.35,57.86 62.01,59.33C60.66,58.66 58.96,58.54 57.11,59.09C54.56,59.85 52.3,61.73 50.86,64.04C49.29,63.97 47.62,64.19 45.87,64.71C39.82,66.52 34.57,71.52 31.96,77.33C31.16,77.31 30.3,77.43 29.41,77.7C24.96,79.03 21.3,83.58 21.01,88.06C15.16,93.05 11.19,100.48 11.19,107.64C11.19,118.14 19.7,124.1 30.2,120.96C31.09,120.7 31.96,120.37 32.81,120" style="fill:white;fill-rule:nonzero;stroke:rgb(135,135,134);stroke-width:0.5px;stroke-miterlimit:4;"/>
                                <path d="M105.04,116.14C101.95,117.06 99.1,116.81 95.86,116.51C88.68,115.86 78.85,114.98 58.4,126.2C55.62,128.6 52.47,130.37 49.26,131.33C41.71,133.59 34.96,131.1 32.07,124.99C31.72,124.26 31.43,123.49 31.21,122.66C19.13,126.83 9.2,120.17 9.2,108.25C9.2,100.95 12.99,93.06 19.16,87.4C20.02,82.23 24.34,77.23 29.43,75.7C29.95,75.54 30.47,75.43 30.98,75.35C34.21,69.3 39.79,64.53 45.89,62.71C47.37,62.27 48.83,62.01 50.23,61.95C52.07,59.61 54.51,57.87 57.13,57.09C58.85,56.58 60.55,56.52 62.03,56.92C63.51,55.64 65.2,54.68 66.92,54.16C69.58,53.36 72.11,53.68 73.95,54.99C75.15,54.19 76.43,53.57 77.72,53.19C80.77,52.28 83.62,52.67 85.67,54.25L85.72,54.23C93.91,51.78 100.9,55.21 102.86,62.43C107.5,62.11 110.95,65.28 110.95,70.18L110.95,70.69C113.64,71.45 115.36,73.84 115.36,77.04L115.36,77.26C117.25,78.36 118.34,80.44 118.34,83.01C118.34,83.32 118.32,83.63 118.29,83.94C119.33,85.11 119.89,86.71 119.89,88.55C119.89,89.93 119.57,91.38 118.96,92.78C119.23,93.64 119.37,94.57 119.37,95.56C119.37,98.66 117.99,102 115.64,104.67C115.13,109.39 111.84,113.35 106.49,115.64C106,115.84 105.52,116.01 105.04,116.16L105.04,116.14ZM76.69,114.19C86.24,111.33 92.37,111.89 97.32,112.33C100.7,112.63 103.37,112.88 106.01,111.78C109.75,110.18 111.62,107.87 111.7,104.74C111.72,104.09 112.04,103.4 112.57,102.87C114.32,101.15 115.36,98.86 115.36,96.74C115.36,95.92 115.21,95.17 114.91,94.5C114.67,93.96 114.74,93.26 115.1,92.6C115.61,91.66 115.88,90.67 115.88,89.72C115.88,88.53 115.45,87.52 114.67,86.88C114.24,86.52 114.07,85.91 114.22,85.23C114.29,84.89 114.33,84.54 114.33,84.19C114.33,82.56 113.52,81.29 112.15,80.79C111.49,80.55 111.14,79.86 111.28,79.04C111.32,78.77 111.35,78.5 111.35,78.23C111.35,76.17 110.05,74.73 108.12,74.62C107.17,74.57 106.61,73.75 106.82,72.7C106.91,72.26 106.95,71.81 106.95,71.37C106.95,68.04 104.36,66.01 101.04,66.74C100.12,66.94 99.36,66.48 99.21,65.61C98.11,59.33 92.45,56.23 85.74,58.24C85.47,58.32 85.19,58.41 84.92,58.51C84.25,58.76 83.6,58.66 83.19,58.25C81.88,56.94 79.89,56.55 77.73,57.2C76.54,57.56 75.41,58.19 74.38,59.07C73.48,59.84 72.34,59.92 71.75,59.25C70.65,58 68.85,57.6 66.92,58.17C65.58,58.57 64.32,59.38 63.28,60.52C62.55,61.32 61.51,61.63 60.78,61.27C59.74,60.75 58.47,60.69 57.13,61.09C55.29,61.64 53.59,62.98 52.47,64.78C51.95,65.62 51.05,66.16 50.23,66.13C48.85,66.07 47.39,66.27 45.89,66.72C40.77,68.25 36.12,72.47 33.76,77.73C33.31,78.74 32.29,79.46 31.36,79.44C30.74,79.43 30.09,79.52 29.43,79.72C26.07,80.73 23.26,84.19 23.03,87.61C22.98,88.3 22.6,89.03 22,89.54C16.58,94.16 13.21,100.87 13.21,107.06C13.21,116.69 21.22,122.11 30.99,118.72C31.68,114.96 34.3,111.27 37.77,109.2C38.52,105.28 41.73,101.56 45.59,100.33C49.32,98.66 52.85,98.06 56.1,98.51C62.76,89.87 70.73,87.15 79.81,90.42C80.74,90.75 80.99,91.92 80.38,93.03C79.77,94.14 78.52,94.77 77.6,94.43C69.75,91.6 63.54,93.91 58.05,101.71C57.43,102.59 56.41,103.07 55.59,102.88C52.67,102.17 49.55,102.6 46.05,104.18C45.95,104.23 45.85,104.26 45.75,104.29C43.47,104.97 41.62,107.38 41.62,109.65C41.62,110.67 40.86,111.81 39.85,112.23C37.03,113.41 34.9,116.42 34.83,119.27C35.01,120.38 35.32,121.4 35.77,122.32C38.04,127.12 43.34,129.07 49.26,127.3C51.85,126.52 54.4,125.07 56.63,123.11C56.79,122.97 56.97,122.84 57.15,122.74C64.98,118.42 71.36,115.77 76.69,114.18L76.69,114.19Z" style="fill:rgb(170,165,97);fill-rule:nonzero;stroke:rgb(135,135,134);stroke-width:0.5px;stroke-miterlimit:4;"/>
                                <path d="M70.14,83.94C69.75,84.06 69.38,83.94 69.21,83.6C68.61,82.35 68.3,80.93 68.3,79.36C68.3,72.97 73.5,66.22 79.88,64.31C82.04,63.67 84.14,63.63 85.96,64.21C86.43,64.36 86.58,64.94 86.29,65.49C86,66.05 85.38,66.38 84.91,66.23C83.4,65.75 81.67,65.78 79.88,66.31C74.6,67.89 70.31,73.47 70.31,78.75C70.31,80.04 70.56,81.22 71.06,82.25C71.28,82.7 71.04,83.36 70.53,83.73C70.4,83.82 70.27,83.89 70.14,83.93L70.14,83.94Z" style="fill:rgb(170,165,97);fill-rule:nonzero;stroke:rgb(135,135,134);stroke-width:0.5px;stroke-miterlimit:4;"/>
                                <path d="M88.87,83.52C88.32,83.69 87.87,83.37 87.87,82.82C87.87,79.17 84.9,77.1 81.26,78.19C78.82,78.92 76.58,80.93 75.43,83.43C75.17,84 74.56,84.36 74.07,84.25C73.58,84.13 73.4,83.58 73.66,83.01C75.17,79.75 78.08,77.14 81.26,76.18C86.01,74.76 89.88,77.47 89.88,82.22C89.88,82.77 89.43,83.36 88.88,83.52L88.87,83.52Z" style="fill:rgb(170,165,97);fill-rule:nonzero;stroke:rgb(135,135,134);stroke-width:0.5px;stroke-miterlimit:4;"/>
                                <path d="M87.03,79.12C86.91,79.16 86.78,79.17 86.66,79.16C86.14,79.11 85.89,78.6 86.09,78.03C86.84,75.89 88.4,73.96 90.37,72.75C90.9,72.42 91.46,72.55 91.63,73.03C91.8,73.51 91.51,74.16 90.98,74.49C89.62,75.33 88.49,76.72 87.96,78.21C87.8,78.65 87.43,79.01 87.02,79.13L87.03,79.13L87.03,79.12Z" style="fill:rgb(170,165,97);fill-rule:nonzero;stroke:rgb(135,135,134);stroke-width:0.5px;stroke-miterlimit:4;"/>
                                <path d="M101.51,74.83C101.04,74.97 100.63,74.77 100.53,74.32C99.65,70.33 95.85,68.38 91.5,69.68C90.95,69.85 90.5,69.53 90.5,68.98C90.5,68.43 90.95,67.84 91.5,67.68C96.8,66.09 101.42,68.47 102.49,73.34C102.6,73.85 102.25,74.49 101.71,74.76C101.64,74.79 101.57,74.82 101.51,74.84L101.51,74.83Z" style="fill:rgb(170,165,97);fill-rule:nonzero;stroke:rgb(135,135,134);stroke-width:0.5px;stroke-miterlimit:4;"/>
                                <path d="M94.52,69.3C94.41,69.33 94.29,69.35 94.18,69.34C93.66,69.31 93.39,68.81 93.58,68.23C93.67,67.96 93.71,67.7 93.71,67.44C93.71,66.85 93.48,66.37 93.06,66.07C92.67,65.79 92.67,65.16 93.06,64.65C93.45,64.14 94.09,63.95 94.48,64.23C95.28,64.79 95.71,65.72 95.71,66.84C95.71,67.33 95.63,67.84 95.46,68.35C95.31,68.8 94.93,69.17 94.52,69.29L94.52,69.3Z" style="fill:rgb(170,165,97);fill-rule:nonzero;stroke:rgb(135,135,134);stroke-width:0.5px;stroke-miterlimit:4;"/>
                                <path d="M76.37,105.66C71.43,107.14 66.76,106.38 63.55,103.58C63.19,103.27 63.24,102.62 63.66,102.13C64.08,101.64 64.71,101.5 65.08,101.82C67.91,104.29 72.02,104.96 76.37,103.65C80.57,102.39 84.59,99.4 87.4,95.44C87.77,94.92 88.41,94.69 88.82,94.94C89.23,95.19 89.27,95.81 88.89,96.34C85.7,100.84 81.13,104.24 76.37,105.67L76.37,105.66Z" style="fill:rgb(170,165,97);fill-rule:nonzero;stroke:rgb(135,135,134);stroke-width:0.5px;stroke-miterlimit:4;"/>
                                <path d="M88.18,96.89C88.09,96.92 88,96.93 87.91,96.93C87.38,96.94 87.06,96.48 87.21,95.9C88.16,92.17 90.15,88.58 92.96,85.51C93.39,85.04 94.03,84.92 94.37,85.25C94.72,85.58 94.64,86.23 94.21,86.71C91.74,89.42 89.98,92.58 89.14,95.86C89.02,96.34 88.61,96.75 88.17,96.89L88.18,96.89Z" style="fill:rgb(170,165,97);fill-rule:nonzero;stroke:rgb(135,135,134);stroke-width:0.5px;stroke-miterlimit:4;"/>
                                <path d="M97.28,92.68C97.13,92.72 96.99,92.74 96.85,92.71C94.24,92.24 92.55,90.07 92.55,87.18C92.55,85.17 93.33,83.04 94.76,81.19C95.15,80.68 95.79,80.49 96.18,80.76C96.57,81.03 96.57,81.67 96.18,82.18C95.14,83.54 94.56,85.1 94.56,86.58C94.56,88.7 95.8,90.3 97.72,90.64C98.22,90.73 98.43,91.27 98.19,91.84C98.02,92.25 97.66,92.57 97.28,92.68Z" style="fill:rgb(170,165,97);fill-rule:nonzero;stroke:rgb(135,135,134);stroke-width:0.5px;stroke-miterlimit:4;"/>
                                <path d="M103.5,88.93C103.28,88.99 103.07,88.99 102.88,88.9C102.44,88.69 102.37,88.08 102.71,87.54C103.48,86.33 103.88,85.03 103.88,83.78C103.88,81.77 102.78,80.24 101.02,79.78C100.54,79.66 100.36,79.1 100.63,78.53C100.9,77.97 101.51,77.61 102,77.73C104.4,78.34 105.89,80.43 105.89,83.17C105.89,84.87 105.34,86.64 104.29,88.29C104.09,88.6 103.8,88.82 103.5,88.91L103.5,88.93Z" style="fill:rgb(170,165,97);fill-rule:nonzero;stroke:rgb(135,135,134);stroke-width:0.5px;stroke-miterlimit:4;"/>
                                <path d="M108.55,91.67C108.42,91.71 108.29,91.72 108.16,91.71C107.65,91.65 107.41,91.13 107.63,90.55C107.78,90.15 107.86,89.74 107.86,89.35C107.86,87.75 106.56,86.83 104.95,87.31C104.75,87.37 104.55,87.45 104.37,87.54C103.82,87.82 103.3,87.62 103.18,87.11C103.07,86.6 103.42,85.96 103.96,85.69C104.28,85.53 104.62,85.39 104.95,85.29C107.66,84.48 109.86,86.02 109.86,88.73C109.86,89.39 109.73,90.07 109.47,90.76C109.31,91.19 108.94,91.53 108.54,91.65L108.54,91.67L108.55,91.67Z" style="fill:rgb(170,165,97);fill-rule:nonzero;stroke:rgb(135,135,134);stroke-width:0.5px;stroke-miterlimit:4;"/>
                                <path d="M78.39,112.15C74.62,113.28 71.07,113.1 68.13,111.63C67.7,111.41 67.63,110.8 67.97,110.27C68.32,109.73 68.95,109.47 69.38,109.69C71.96,110.98 75.07,111.14 78.38,110.15C80.33,109.57 82.22,108.62 84,107.34C84.51,106.97 85.1,107.03 85.32,107.48C85.54,107.93 85.3,108.59 84.79,108.96C82.76,110.42 80.61,111.5 78.39,112.17L78.39,112.15Z" style="fill:rgb(170,165,97);fill-rule:nonzero;stroke:rgb(135,135,134);stroke-width:0.5px;stroke-miterlimit:4;"/>
                                <path d="M106.03,106.87C105.93,106.9 105.83,106.91 105.73,106.91C102.33,106.88 100.05,104.47 100.05,100.92C100.05,100.37 100.5,99.78 101.05,99.62C101.6,99.46 102.05,99.77 102.05,100.32C102.05,102.99 103.76,104.79 106.31,104.82C106.84,104.82 107.14,105.3 106.97,105.88C106.84,106.35 106.44,106.75 106.01,106.88L106.03,106.88L106.03,106.87Z" style="fill:rgb(170,165,97);fill-rule:nonzero;stroke:rgb(135,135,134);stroke-width:0.5px;stroke-miterlimit:4;"/>
                                <path d="M101.06,101.62C100.53,101.78 100.08,101.49 100.06,100.96C100.04,100.41 100.47,99.82 101.02,99.63C102.53,99.11 103.96,98.06 105.03,96.67C105.46,96.11 105.83,95.51 106.11,94.89C106.37,94.32 106.98,93.95 107.47,94.06C107.96,94.17 108.15,94.72 107.89,95.29C107.51,96.12 107.03,96.92 106.45,97.67C105.02,99.52 103.12,100.93 101.11,101.62L101.06,101.62Z" style="fill:rgb(170,165,97);fill-rule:nonzero;stroke:rgb(135,135,134);stroke-width:0.5px;stroke-miterlimit:4;"/>
                                <path d="M123.13,34.76L123.13,113.31L5.95,148.36L5.95,69.81L123.13,34.76M126.03,30.99L3.06,67.78L3.06,152.13L126.04,115.35L126.04,30.99L126.03,30.99Z" style="fill:rgb(48,48,46);fill-rule:nonzero;stroke:rgb(135,135,134);stroke-width:0.5px;stroke-miterlimit:4;"/>
                            </g>
                        </g>
                    </g>
                </g>
            </g>
            <path d="M44.55,128.45L42.38,128.83L42.38,45.05L44.55,44.66L44.55,128.45Z" style="fill:rgb(48,48,46);fill-rule:nonzero;stroke:rgb(135,135,134);stroke-width:0.5px;stroke-miterlimit:4;"/>
            <path d="M86.15,126.59L83.98,126.97L83.98,44.14L86.15,43.76L86.15,126.59Z" style="fill:rgb(48,48,46);fill-rule:nonzero;stroke:rgb(135,135,134);stroke-width:0.5px;stroke-miterlimit:4;"/>
        </g>
        <path d="M2.5,56.36L2.5,140.71L44.55,128.45L83.98,126.97L126.03,115.35L126.03,31.74L85.07,45.55L43.15,44.87L2.5,56.36Z" style="fill:none;fill-rule:nonzero;stroke:rgb(48,48,46);stroke-width:5px;"/>
        <path d="M64.58,0C51.86,0 41.55,10.31 41.55,23.03C41.55,35.75 64.58,80.4 64.58,80.4C64.58,80.4 87.61,35.75 87.61,23.03C87.61,10.31 77.3,0 64.58,0ZM64.58,38.98C55.77,38.98 48.63,31.84 48.63,23.03C48.63,14.22 55.77,7.08 64.58,7.08C73.39,7.08 80.53,14.22 80.53,23.03C80.53,31.84 73.39,38.98 64.58,38.98Z" style="fill:rgb(62,80,162);fill-rule:nonzero;"/>
        <path d="M64.58,0C77.3,0 87.61,10.31 87.61,23.03C87.61,35.75 64.58,80.4 64.58,80.4C64.58,80.4 41.55,35.75 41.55,23.03C41.55,10.31 51.86,0 64.58,0ZM64.58,0.5C52.136,0.5 42.05,10.586 42.05,23.03C42.05,26.809 44.117,33.429 46.991,40.851C52.956,56.26 62.429,75.079 64.58,79.302C66.731,75.078 76.204,56.259 82.169,40.851C85.043,33.429 87.11,26.809 87.11,23.03C87.11,10.586 77.024,0.5 64.58,0.5ZM64.58,39.48C55.494,39.48 48.13,32.116 48.13,23.03C48.13,13.944 55.494,6.58 64.58,6.58C73.666,6.58 81.03,13.944 81.03,23.03C81.03,32.116 73.666,39.48 64.58,39.48ZM64.58,38.98C73.39,38.98 80.53,31.84 80.53,23.03C80.53,14.22 73.39,7.08 64.58,7.08C55.77,7.08 48.63,14.22 48.63,23.03C48.63,31.84 55.77,38.98 64.58,38.98Z" style="fill:rgb(135,135,134);"/>
    </g>
</svg>
