<?xml version="1.0" encoding="UTF-8"?><svg id="Layer_1" xmlns="http://www.w3.org/2000/svg" xmlns:xlink="http://www.w3.org/1999/xlink" viewBox="0 0 264.81 64.28"><defs><style>.cls-1{fill:url(#linear-gradient);}.cls-2{fill:#1e1e1e;}.cls-3{fill:url(#linear-gradient-3);}.cls-4{fill:url(#linear-gradient-4);}.cls-5{fill:url(#linear-gradient-2);}</style><linearGradient id="linear-gradient" x1="65.39" y1="53.85" x2="18.26" y2="7.54" gradientUnits="userSpaceOnUse"><stop offset="0" stop-color="#fff"/><stop offset=".43" stop-color="#3fa8f4"/><stop offset="1" stop-color="#1856ff"/></linearGradient><linearGradient id="linear-gradient-2" x1="65.22" y1="54.03" x2="18.08" y2="7.71" xlink:href="#linear-gradient"/><linearGradient id="linear-gradient-3" x1="52.26" y1="67.21" x2="5.13" y2="20.89" xlink:href="#linear-gradient"/><linearGradient id="linear-gradient-4" x1="63.82" y1="55.45" x2="16.68" y2="9.14" xlink:href="#linear-gradient"/></defs><g><path class="cls-2" d="M64.25,29.97v-13.3h5.7c1.37,0,2.59,.28,3.66,.83,1.07,.56,1.9,1.34,2.49,2.35,.59,1.01,.89,2.17,.89,3.47s-.3,2.45-.9,3.46c-.6,1.01-1.45,1.79-2.54,2.35-1.09,.56-2.34,.84-3.74,.84h-5.56Zm3.39-2.66h2.41c1.04,0,1.89-.37,2.56-1.11,.67-.74,1-1.69,1-2.87s-.35-2.14-1.04-2.89c-.7-.75-1.58-1.12-2.66-1.12h-2.26v7.98Z"/><path class="cls-2" d="M80.34,29.97v-13.3h10.42v2.66h-7.03v2.64h6.35v2.66h-6.35v2.67h7.24v2.66h-10.62Z"/><path class="cls-2" d="M94.66,29.97v-13.32h3.97l3.6,7.92,3.6-7.92h3.99v13.32h-3.28l-.02-8.65-3.19,7.32h-2.21l-3.19-7.32v8.65h-3.28Z"/><path class="cls-2" d="M112.59,23.3c0-.77,.12-1.5,.34-2.19s.56-1.31,.99-1.87c.43-.55,.94-1.03,1.52-1.43,.58-.4,1.23-.71,1.96-.93s1.49-.33,2.3-.33c1,0,1.95,.17,2.83,.51,.88,.34,1.64,.81,2.27,1.41s1.12,1.31,1.49,2.14c.36,.83,.54,1.73,.54,2.68s-.18,1.85-.55,2.69c-.36,.84-.86,1.57-1.49,2.17-.63,.6-1.38,1.08-2.26,1.43-.88,.35-1.82,.52-2.83,.52s-1.94-.17-2.82-.52c-.88-.35-1.64-.82-2.26-1.42-.63-.6-1.12-1.33-1.48-2.17-.36-.84-.54-1.75-.54-2.7Zm4.49-2.78c-.73,.75-1.1,1.69-1.1,2.8s.37,2.05,1.11,2.82c.74,.77,1.62,1.15,2.65,1.15s1.9-.38,2.62-1.15c.72-.76,1.08-1.71,1.08-2.82s-.36-2.05-1.07-2.8c-.71-.75-1.59-1.13-2.62-1.13s-1.93,.38-2.66,1.13Z"/><path class="cls-2" d="M129.15,23.31c0-1.27,.3-2.42,.91-3.45,.6-1.03,1.44-1.84,2.52-2.43s2.28-.88,3.61-.88c.98,0,1.96,.2,2.92,.61,.96,.41,1.78,.95,2.44,1.64l-1.96,2.33c-.43-.54-.95-.96-1.56-1.28-.61-.31-1.2-.47-1.79-.47-1.05,0-1.93,.37-2.64,1.12-.71,.75-1.06,1.67-1.06,2.77s.35,2.06,1.06,2.81c.71,.75,1.59,1.13,2.64,1.13,.56,0,1.14-.14,1.74-.43,.61-.28,1.14-.67,1.61-1.14l1.98,2.09c-.72,.73-1.58,1.31-2.56,1.74-.98,.43-1.96,.65-2.93,.65s-1.91-.17-2.77-.52c-.87-.35-1.6-.82-2.2-1.42-.6-.6-1.08-1.32-1.42-2.17-.35-.84-.52-1.74-.52-2.7Z"/><path class="cls-2" d="M144.69,29.97v-13.3h5.99c1.77,0,3.14,.4,4.11,1.21,.97,.81,1.46,1.95,1.46,3.43,0,1.01-.21,1.88-.63,2.6s-1.03,1.29-1.84,1.67l2.79,4.39h-3.85l-1.98-3.74h-2.66v3.74h-3.39Zm3.39-6.4h2.56c.74,0,1.31-.18,1.72-.55s.6-.9,.6-1.6-.2-1.21-.6-1.56-.97-.53-1.72-.53h-2.56v4.24Z"/><path class="cls-2" d="M158.54,29.97l5.73-13.3h3.48l5.6,13.3h-3.61l-.95-2.48h-5.82l-.96,2.48h-3.48Zm5.43-5.02h3.84l-1.9-4.92-1.94,4.92Z"/><path class="cls-2" d="M173.47,19.39v-2.74h11.36v2.74h-4.01v10.58h-3.39v-10.58h-3.97Z"/><path class="cls-2" d="M187.8,29.97v-13.3h3.39v13.3h-3.39Z"/><path class="cls-2" d="M194.56,29.97v-2.15l7.12-8.49h-6.87v-2.66h11.38v2.16l-7.11,8.49h7.22v2.66h-11.75Z"/><path class="cls-2" d="M209.7,29.97v-13.3h3.39v13.3h-3.39Z"/><path class="cls-2" d="M217.26,29.97v-13.3h3.09l6.13,8.21v-8.21h3.28v13.3h-3.1l-6.12-8.19v8.19h-3.28Z"/><path class="cls-2" d="M232.83,23.32c0-1.27,.31-2.42,.94-3.45s1.5-1.84,2.61-2.43,2.35-.88,3.72-.88c.99,0,1.97,.18,2.95,.53,.97,.36,1.8,.84,2.48,1.44l-1.89,2.3c-.48-.45-1.04-.8-1.68-1.06s-1.26-.39-1.88-.39c-1.1,0-2.01,.38-2.75,1.13s-1.11,1.69-1.11,2.8,.37,2.08,1.12,2.83c.75,.76,1.67,1.14,2.78,1.14,.72,0,1.5-.21,2.36-.64v-3.44h2.92v5.19c-.72,.51-1.59,.92-2.61,1.24-1.02,.32-2,.48-2.92,.48-1.32,0-2.51-.29-3.59-.89-1.07-.59-1.92-1.41-2.53-2.44-.61-1.04-.92-2.2-.92-3.47Z"/><path class="cls-2" d="M64.25,48.62v-13.3h5.7c1.37,0,2.59,.28,3.66,.83,1.07,.56,1.9,1.34,2.49,2.35,.59,1.01,.89,2.17,.89,3.47s-.3,2.45-.9,3.46c-.6,1.01-1.45,1.79-2.54,2.35-1.09,.56-2.34,.84-3.74,.84h-5.56Zm3.39-2.66h2.41c1.04,0,1.89-.37,2.56-1.11,.67-.74,1-1.69,1-2.87s-.35-2.14-1.04-2.89c-.7-.75-1.58-1.12-2.66-1.12h-2.26v7.98Z"/><path class="cls-2" d="M78.56,48.62l5.73-13.3h3.48l5.6,13.3h-3.61l-.95-2.48h-5.82l-.96,2.48h-3.48Zm5.43-5.02h3.84l-1.9-4.92-1.94,4.92Z"/><path class="cls-2" d="M93.49,38.04v-2.74h11.37v2.74h-4.01v10.58h-3.39v-10.58h-3.97Z"/><path class="cls-2" d="M104.97,48.62l5.73-13.3h3.48l5.6,13.3h-3.61l-.95-2.48h-5.82l-.96,2.48h-3.48Zm5.43-5.02h3.84l-1.9-4.92-1.94,4.92Z"/></g><path class="cls-1" d="M52.11,22.79c.92-3.01-.79-6.2-3.8-7.12-1.46-.44-3-.29-4.35,.42-1.35,.72-2.33,1.92-2.77,3.37-.17,.54-.24,1.13-.22,1.81v.4s-10.26,2.71-10.26,2.71l-.19-.35c-.72-1.35-1.92-2.33-3.38-2.78-3.01-.92-6.2,.79-7.12,3.8-.92,3.01,.79,6.2,3.8,7.12,1.46,.45,3,.29,4.35-.43l.35-.19,7.02,7.97-.23,.32c-.39,.55-.66,1.08-.83,1.62-.44,1.46-.29,3,.42,4.35,.72,1.35,1.92,2.33,3.37,2.77,3.01,.92,6.21-.79,7.12-3.8,.92-3.01-.79-6.2-3.8-7.12-1.46-.45-3-.29-4.35,.43l-.35,.19-7.02-7.97,.23-.32c.39-.55,.66-1.08,.83-1.62,.16-.54,.24-1.13,.22-1.81v-.4s10.26-2.71,10.26-2.71l.19,.35c.72,1.35,1.92,2.33,3.37,2.78,3.01,.92,6.21-.79,7.12-3.8Z"/><path class="cls-5" d="M21.59,21.27v-3.93h18.83v-2H19.59v8.17c.49-.91,1.19-1.67,2-2.25Z"/><g><path class="cls-3" d="M34.4,46.91h-3.65v2h5.78c-.85-.5-1.58-1.18-2.14-2Z"/><path class="cls-4" d="M52.17,32.38v14.54h-6.69c-.57,.83-1.31,1.5-2.16,2h10.85v-16.54h-2Z"/></g></svg>